<svg version="1" xmlns="http://www.w3.org/2000/svg" viewBox="0 0 1061 373.4"><style>.st0{fill:none;stroke:#000000;stroke-width:0.7;stroke-miterlimit:10;} .st1{fill:#FFFFFF;stroke:#000000;stroke-miterlimit:10;} .st2{fill:#1A1A1A;} .st3{fill:#FFFFFF;stroke:#000000;stroke-width:0.7;stroke-miterlimit:10;}</style><g id="Layer_3"><path class="st0" d="M63.9 19.1L198 92.6M278.4 279.5L109.8 119.7M279.5 279l199.1-178.4M442.6 132.6l103.9 104.5M517.4 207.8l274.1-58.4M597.3 44.9l194.9 104.5M666.2 176.2l70.9 180.2M704.6 273.4l117.8-30.7M724.5 112.9l145.2-63.3M157.9 70.4L3.6 229.8M227.8 144.8L191.6 198"/><circle class="st1" cx="63.6" cy="18.2" r="5"/><path class="st2" d="M92.6 12.5c0 6-4 8.6-6.8 8.9-.9.1-1.4.1-2.3.1h-5.2V3.7h5.2c.9 0 1.3 0 2 .1 3.1.3 7.1 2.7 7.1 8.7zm-1.1 0c0-5.2-3.2-7.6-6.1-7.9-.6-.1-1-.1-1.9-.1h-4.2v16.1h4.2c.9 0 1.4 0 2.2-.1 2.8-.3 5.8-2.9 5.8-8zM103.8 18.6l-.6 1.4c-.9 1.3-2.4 2-4.1 2-2.6 0-4.3-1.3-4.3-3.7 0-3.2 3.6-4.6 8.2-4.6h.9V13c0-.6 0-1.2-.1-1.7-.2-1.8-1.3-2.9-3.5-2.9-1.9 0-3.6 1-3.9 3.4h-1c.2-2.4 2.2-4.2 4.9-4.2 2.8 0 4.3 1.3 4.5 3.6.1.7.1 1.1.1 1.8v4.5c0 1.4.1 2.4.2 4.2h-1l-.3-3.1zm-.1-2.4v-1.8c-3.9-.3-7.9.8-7.9 3.7 0 1.8 1.1 3 3.4 3 2.7 0 4.5-2.2 4.5-4.9zM119.2 21.6h-1v-2.9l-.8 1.6c-1.1 1.2-2.4 1.7-4.1 1.7-3.7 0-6-3-6-7.1 0-4.9 3-7.3 6.3-7.3 1.6 0 2.8.5 3.8 1.6l.8 1.6V2.6h1v19zm-.9-6.3V14c0-4.2-2.5-5.5-4.6-5.5-3.1 0-5.2 2.5-5.2 6.3 0 3.4 1.7 6.4 5 6.4 2.5-.1 4.8-1.6 4.8-5.9zM131.3 18.6l-.6 1.4c-.9 1.3-2.4 2-4.1 2-2.6 0-4.3-1.3-4.3-3.7 0-3.2 3.6-4.6 8.2-4.6h.9V13c0-.6 0-1.2-.1-1.7-.2-1.8-1.3-2.9-3.5-2.9-1.9 0-3.6 1-3.9 3.4h-1c.2-2.4 2.2-4.2 4.9-4.2 2.8 0 4.3 1.3 4.5 3.6.1.7.1 1.1.1 1.8v4.5c0 1.4.1 2.4.2 4.2h-1l-.3-3.1zm0-2.4v-1.8c-3.9-.3-7.9.8-7.9 3.7 0 1.8 1.1 3 3.4 3 2.7 0 4.5-2.2 4.5-4.9zM223.7 96.4h-1v-8.3h-11.1v8.3h-1V78.5h1v8.7h11.1v-8.7h1v17.9zM235.8 93.4l-.6 1.4c-.9 1.3-2.4 2-4.1 2-2.6 0-4.3-1.3-4.3-3.7 0-3.2 3.6-4.6 8.2-4.6h.9v-.6c0-.6 0-1.2-.1-1.7-.2-1.8-1.3-2.9-3.5-2.9-1.9 0-3.6 1-3.9 3.4h-1c.2-2.4 2.2-4.2 4.9-4.2 2.8 0 4.3 1.3 4.5 3.6.1.7.1 1.1.1 1.8v4.5c0 1.4.1 2.4.2 4.2h-1l-.3-3.2zm-.1-2.4v-1.8c-3.9-.3-7.9.8-7.9 3.7 0 1.8 1.1 3 3.4 3 2.7 0 4.5-2.2 4.5-4.9zM251 88.8v7.6h-1V89c0-.9 0-1.5-.1-2.2-.2-2.1-1.4-3.6-3.9-3.6-2.4 0-4.6 1.7-4.6 5.6v7.6h-1V82.8h1v2.9l.6-1.4c1-1.3 2.5-1.9 4.1-1.9 2.8 0 4.5 1.6 4.7 4.1.2.7.2 1.2.2 2.3zM263.1 86.5h-1c-.5-2.2-1.7-3.3-3.8-3.3-1.8 0-3.3 1.1-3.3 2.8 0 1.8 1.4 2.5 3.5 3 3.1.7 4.7 1.8 4.7 4.1s-2 3.6-4.7 3.6c-2.6 0-4.8-1.3-5.1-4.4h1c.4 2.6 2.1 3.6 4.2 3.6 2 0 3.6-1 3.6-2.8 0-1.7-1.1-2.5-4.1-3.2-2.2-.5-4.1-1.4-4.1-3.8 0-2.2 1.8-3.8 4.3-3.8 3 .1 4.4 1.9 4.8 4.2zM282.7 96.4h-12.6v-.8l11.3-16.3h-10.6v-.9h11.7v.8l-11.3 16.2h11.4v1zM286.5 79.9c0 .4-.3.8-.8.8s-.8-.3-.8-.8.3-.8.8-.8.8.4.8.8zm-1.3 16.5V82.8h1v13.6h-1zM307.6 88.6v7.8h-1v-7.3c0-1 0-1.7-.1-2.4-.2-2.1-1.3-3.5-3.3-3.5-2.1 0-3.9 1.7-3.9 5.6v7.6h-1v-7.3c0-1 0-1.7-.1-2.4-.3-2.1-1.3-3.5-3.4-3.5-2.1 0-3.9 1.7-3.9 5.6v7.6h-1V82.8h1v2.7l.7-1.5c.9-1 2.1-1.5 3.4-1.5 2.2 0 3.5 1.2 4 3.3l.9-1.8c.9-1 2-1.5 3.4-1.5 2.5 0 3.8 1.5 4.1 4 .2.6.2 1 .2 2.1zM328.8 88.6v7.8h-1v-7.3c0-1 0-1.7-.1-2.4-.2-2.1-1.3-3.5-3.3-3.5-2.1 0-3.9 1.7-3.9 5.6v7.6h-1v-7.3c0-1 0-1.7-.1-2.4-.3-2.1-1.3-3.5-3.4-3.5-2.1 0-3.9 1.7-3.9 5.6v7.6h-1V82.8h1v2.7l.7-1.5c.9-1 2.1-1.5 3.4-1.5 2.2 0 3.5 1.2 4 3.3l.9-1.8c.9-1 2-1.5 3.4-1.5 2.5 0 3.8 1.5 4.1 4 .2.6.2 1 .2 2.1zM343.3 89.8h-10.9c.2 4.4 2.6 6.1 5 6.1 2.1 0 4-1.2 4.7-3.8h1c-.8 3.1-3.1 4.6-5.8 4.6-3.3 0-6-2.4-6-7.2 0-4.3 2.7-7.1 6.2-7.1 3.9 0 5.7 3.3 5.7 6.8.1.1.1.3.1.6zm-10.9-.8h9.9c-.2-4.2-2.5-5.8-4.8-5.8-2.4 0-4.9 1.9-5.1 5.8zM351.3 82.5v.8c-2.5-.2-4.2 1.4-4.2 5.6v7.6h-1V82.8h1v2.8l.7-1.7c.7-.9 1.7-1.5 2.8-1.5.3 0 .5 0 .7.1z"/><circle class="st1" cx="197.8" cy="91.4" r="5"/><path class="st2" d="M34.5 233.5c0 6-4 8.6-6.8 8.9-.9.1-1.4.1-2.3.1h-5.2v-17.9h5.2c.9 0 1.3 0 2 .1 3.1.4 7.1 2.8 7.1 8.8zm-1.1 0c0-5.2-3.2-7.6-6.1-7.9-.6-.1-1-.1-1.9-.1h-4.2v16.1h4.2c.9 0 1.4 0 2.2-.1 2.8-.3 5.8-2.9 5.8-8zM45.7 239.6L45 241c-.9 1.3-2.4 2-4.1 2-2.6 0-4.3-1.3-4.3-3.7 0-3.2 3.6-4.6 8.2-4.6h.9v-.7c0-.6 0-1.2-.1-1.7-.2-1.8-1.3-2.9-3.5-2.9-1.9 0-3.6 1-3.9 3.4h-1c.2-2.4 2.2-4.2 4.9-4.2 2.8 0 4.3 1.3 4.5 3.6.1.7.1 1.1.1 1.8v4.5c0 1.4.1 2.4.2 4.2h-1l-.2-3.1zm0-2.4v-1.8c-3.9-.3-7.9.8-7.9 3.7 0 1.8 1.1 3 3.4 3 2.6 0 4.5-2.2 4.5-4.9zM51.3 239.3v1.7c.1.9.4 1.1 1.5.9v.8c-.3.1-.6.1-1 .1-.9 0-1.5-.3-1.5-1.5V223.7h1v15.6zM66.1 236H55.3c.2 4.4 2.6 6.1 5 6.1 2.1 0 4-1.2 4.7-3.8h1c-.8 3.1-3.1 4.6-5.8 4.6-3.3 0-6-2.4-6-7.2 0-4.3 2.7-7.1 6.2-7.1 3.9 0 5.7 3.3 5.7 6.8.1.1.1.3 0 .6zm-10.8-.8h9.9c-.2-4.2-2.5-5.8-4.8-5.8-2.4 0-5 1.9-5.1 5.8zM88.5 230.1v.3h-1l-.1-.3c-.6-2.8-2.6-4.9-6-4.9-3.7 0-7 3.1-7 8.4 0 5.6 3.1 8.4 6.8 8.4 3.6 0 5.6-2.2 6.2-5.1l.1-.3h1v.3c-.6 3.3-2.8 6-7.2 6-4.6 0-7.8-3.6-7.8-9.2 0-5.5 3.5-9.3 8.2-9.3 3.9 0 6.2 2.5 6.8 5.7zM102.2 235v7.6h-1v-7.4c0-.9 0-1.5-.1-2.2-.2-2.1-1.4-3.6-3.9-3.6-2.4 0-4.6 1.7-4.6 5.6v7.6h-1v-19.2h1v8.4l.6-1.4c1-1.3 2.5-1.9 4.1-1.9 2.8 0 4.5 1.6 4.7 4.1.1.8.2 1.3.2 2.4zM107 226.1c0 .4-.3.8-.8.8s-.8-.3-.8-.8.3-.8.8-.8.8.4.8.8zm-1.2 16.5V229h1v13.6h-1zM121 235v7.6h-1v-7.4c0-.9 0-1.5-.1-2.2-.2-2.1-1.4-3.6-3.9-3.6-2.4 0-4.6 1.7-4.6 5.6v7.6h-1v-19.2h1v8.4l.6-1.4c1-1.3 2.5-1.9 4.1-1.9 2.8 0 4.5 1.6 4.7 4.1.2.8.2 1.3.2 2.4zM134.9 242.6h-1v-2.9l-.6 1.4c-1.1 1.3-2.5 1.9-4.1 1.9-2.8 0-4.4-1.6-4.7-4-.1-.7-.1-1.2-.1-2.3V229h1v7.5c0 .8 0 1.4.1 2.1.3 2.1 1.5 3.5 3.9 3.5s4.6-1.7 4.6-5.6v-7.6h1v13.7zM139.6 239.3v1.7c.1.9.4 1.1 1.5.9v.8c-.3.1-.6.1-1 .1-.9 0-1.5-.3-1.5-1.5V223.7h1v15.6zM148.4 242.9c-1.7 4.3-2.8 5.1-4.5 5.1-.4 0-.7 0-1-.1v-.9c.3.1.6.1 1 .1 1.1 0 2.1-.7 3.1-3.3l.4-1-5.4-14h1.1l4.8 12.9 4.8-12.9h1.1l-5.4 14.1z"/><circle class="st3" cx="6.3" cy="228.2" r="5"/><g><path class="st2" d="M250 141.9c0 .8 0 1.4-.1 2.3-.2 2.5-1.7 4.8-5.1 4.8-3.1 0-4.9-1.8-5-5.4v-.9h1v.9c.1 3.3 1.8 4.5 4.2 4.5 2.4 0 3.8-1.5 4-4.1.1-.5.1-1.2.1-2.1v-11.2h1v11.2zM264.3 142.1h-10.9c.2 4.4 2.6 6.1 5 6.1 2.1 0 4-1.2 4.7-3.8h1c-.8 3.1-3.1 4.6-5.8 4.6-3.3 0-6-2.4-6-7.2 0-4.3 2.7-7.1 6.2-7.1 3.9 0 5.7 3.3 5.7 6.8.1 0 .1.2.1.6zm-10.9-.9h9.9c-.2-4.2-2.5-5.8-4.8-5.8-2.4 0-4.9 1.9-5.1 5.8zM272.3 134.7v.8c-2.5-.2-4.2 1.4-4.2 5.6v7.6h-1V135h1v2.8l.7-1.7c.7-.9 1.7-1.5 2.8-1.5.3 0 .5 0 .7.1zM284.9 142.1H274c.2 4.4 2.6 6.1 5 6.1 2.1 0 4-1.2 4.7-3.8h1c-.8 3.1-3.1 4.6-5.8 4.6-3.3 0-6-2.4-6-7.2 0-4.3 2.7-7.1 6.2-7.1 3.9 0 5.7 3.3 5.7 6.8.2 0 .2.2.1.6zm-10.8-.9h9.9c-.2-4.2-2.5-5.8-4.8-5.8-2.4 0-5 1.9-5.1 5.8zM305.4 140.8v7.8h-1v-7.3c0-1 0-1.7-.1-2.4-.2-2.1-1.3-3.5-3.3-3.5-2.1 0-3.9 1.7-3.9 5.6v7.6h-1v-7.3c0-1 0-1.7-.1-2.4-.3-2.1-1.3-3.5-3.4-3.5-2.1 0-3.9 1.7-3.9 5.6v7.6h-1V135h1v2.7l.7-1.5c.9-1 2.1-1.5 3.4-1.5 2.2 0 3.5 1.2 4 3.3l.9-1.8c.9-1 2-1.5 3.4-1.5 2.5 0 3.8 1.5 4.1 4 .2.6.2 1 .2 2.1zM313.8 148.9c-1.7 4.3-2.8 5.2-4.5 5.2-.4 0-.7 0-1-.1v-.9c.3.1.6.1 1 .1 1.1 0 2.1-.7 3.1-3.3l.4-1-5.4-14h1.1l4.8 12.9 4.8-12.9h1.1l-5.4 14zM343.4 148.6h-1v-10.1-7c-.8 2.2-1.8 4.7-2.7 7l-4.1 10.1h-1.2l-4.1-10.1c-.9-2.2-1.9-4.8-2.7-6.9.1 2.2.1 4.7.1 6.9v10.1h-1v-17.9h1.6l6.7 17 6.8-17h1.5v17.9zM355.5 145.6l-.6 1.4c-.9 1.3-2.4 2-4.1 2-2.6 0-4.3-1.3-4.3-3.7 0-3.2 3.6-4.6 8.2-4.6h.9v-.7c0-.6 0-1.2-.1-1.7-.2-1.8-1.3-2.9-3.5-2.9-1.9 0-3.6 1-3.9 3.4h-1c.2-2.4 2.2-4.2 4.9-4.2 2.8 0 4.3 1.3 4.5 3.6.1.7.1 1.1.1 1.8v4.5c0 1.4.1 2.4.2 4.2h-1l-.3-3.1zm0-2.3v-1.8c-3.9-.3-7.9.8-7.9 3.7 0 1.8 1.1 3 3.4 3 2.7-.1 4.5-2.3 4.5-4.9zM370.7 141v7.6h-1v-7.4c0-.9 0-1.5-.1-2.2-.2-2.1-1.4-3.6-3.9-3.6-2.4 0-4.6 1.7-4.6 5.6v7.6h-1V135h1v2.9l.6-1.4c1-1.3 2.5-1.9 4.1-1.9 2.8 0 4.5 1.6 4.7 4.1.2.7.2 1.2.2 2.3zM384.9 141v7.6h-1v-7.4c0-.9 0-1.5-.1-2.2-.2-2.1-1.4-3.6-3.9-3.6-2.4 0-4.6 1.7-4.6 5.6v7.6h-1V135h1v2.9l.6-1.4c1-1.3 2.5-1.9 4.1-1.9 2.8 0 4.5 1.6 4.7 4.1.1.7.2 1.2.2 2.3z"/><circle class="st1" cx="229.5" cy="144.1" r="5"/></g><g><path class="st2" d="M568.5 232.9h-1c-.4-2.6-2.2-4.2-4.6-4.2-2.2 0-4.5 1.2-4.5 3.6s1.5 3.2 4.8 4.1c3.8 1 5.6 2.3 5.6 5.2 0 2.8-2.5 4.8-5.9 4.8-3.3 0-6.1-1.7-6.4-5.1h1c.4 2.8 2.7 4.3 5.4 4.3s4.8-1.5 4.8-3.8c0-2.5-1.4-3.4-4.9-4.4-3.7-1-5.5-2.1-5.5-4.9 0-2.7 2.6-4.6 5.6-4.6 3.5 0 5.3 2.3 5.6 5zM576 245.5v.8c-.4.1-1 .1-1.4.1-1.3 0-2-.6-2.1-1.9-.1-.6-.1-1-.1-1.8v-9.2h-1.7v-.8h1.7v-2.9h1v2.9h2.6v.8h-2.6V244.2c.1 1.2.7 1.5 2.6 1.3zM586.8 243.2l-.6 1.4c-.9 1.3-2.4 2-4.1 2-2.6 0-4.3-1.3-4.3-3.7 0-3.2 3.6-4.6 8.2-4.6h.9v-.6c0-.6 0-1.2-.1-1.7-.2-1.8-1.3-2.9-3.5-2.9-1.9 0-3.6 1-3.9 3.4h-1c.2-2.4 2.2-4.2 4.9-4.2 2.8 0 4.3 1.3 4.5 3.6.1.7.1 1.1.1 1.8v4.5c0 1.4.1 2.4.2 4.2h-1l-.3-3.2zm0-2.4V239c-3.9-.3-7.9.8-7.9 3.7 0 1.8 1.1 3 3.4 3 2.7 0 4.5-2.3 4.5-4.9zM596.7 232.2v.8c-2.5-.2-4.2 1.4-4.2 5.6v7.6h-1v-13.6h1v2.8l.7-1.7c.7-.9 1.7-1.5 2.8-1.5.2-.1.5 0 .7 0zM619 246.1h-1.3l-4.6-16.6-4.9 16.6h-1.3l-4.5-17.9h1.1l4.2 16.9 4.8-16.7h1.3l4.6 16.6 4.5-16.9h1l-4.9 18zM634 243.2l-.6 1.4c-.9 1.3-2.4 2-4.1 2-2.6 0-4.3-1.3-4.3-3.7 0-3.2 3.6-4.6 8.2-4.6h.9v-.6c0-.6 0-1.2-.1-1.7-.2-1.8-1.3-2.9-3.5-2.9-1.9 0-3.6 1-3.9 3.4h-1c.2-2.4 2.2-4.2 4.9-4.2 2.8 0 4.3 1.3 4.5 3.6.1.7.1 1.1.1 1.8v4.5c0 1.4.1 2.4.2 4.2h-1l-.3-3.2zm0-2.4V239c-3.9-.3-7.9.8-7.9 3.7 0 1.8 1.1 3 3.4 3 2.7 0 4.5-2.3 4.5-4.9zM643.9 232.2v.8c-2.5-.2-4.2 1.4-4.2 5.6v7.6h-1v-13.6h1v2.8l.7-1.7c.7-.9 1.7-1.5 2.8-1.5.2-.1.5 0 .7 0zM654.3 236.2h-1c-.5-2.2-1.7-3.3-3.8-3.3-1.8 0-3.3 1.1-3.3 2.8 0 1.8 1.4 2.5 3.5 3 3.1.7 4.7 1.8 4.7 4.1s-2 3.6-4.7 3.6c-2.6 0-4.8-1.3-5.1-4.4h1c.4 2.6 2.1 3.6 4.2 3.6 2 0 3.6-1 3.6-2.8 0-1.7-1.1-2.5-4.1-3.2-2.2-.5-4.1-1.4-4.1-3.8 0-2.2 1.8-3.8 4.3-3.8 3 .1 4.5 1.9 4.8 4.2z"/><circle class="st1" cx="546.6" cy="237.5" r="5"/></g><g><path class="st2" d="M820.5 146.2v.3h-1l-.1-.3c-.6-2.8-2.6-4.9-6-4.9-3.7 0-7 3.1-7 8.4 0 5.6 3.1 8.4 6.8 8.4 3.6 0 5.6-2.2 6.2-5.2l.1-.3h1v.3c-.6 3.3-2.8 6-7.2 6-4.6 0-7.8-3.6-7.8-9.2 0-5.5 3.5-9.3 8.2-9.3 3.9 0 6.2 2.5 6.8 5.8zM834.2 151v7.6h-1v-7.4c0-.9 0-1.5-.1-2.2-.2-2.1-1.4-3.6-3.9-3.6-2.4 0-4.6 1.7-4.6 5.6v7.6h-1v-19.2h1v8.4l.6-1.4c1-1.3 2.5-1.9 4.1-1.9 2.8 0 4.5 1.6 4.7 4.1.2.9.2 1.3.2 2.4zM843 144.7v.8c-2.5-.2-4.2 1.4-4.2 5.6v7.6h-1V145h1v2.8l.7-1.7c.7-.9 1.7-1.5 2.8-1.5.2 0 .4.1.7.1zM846.1 142.1c0 .4-.3.8-.8.8s-.8-.3-.8-.8.3-.8.8-.8.8.4.8.8zm-1.2 16.5V145h1v13.6h-1zM858.1 148.7h-1c-.5-2.2-1.7-3.3-3.8-3.3-1.8 0-3.3 1.1-3.3 2.8 0 1.8 1.4 2.5 3.5 3 3.1.7 4.7 1.8 4.7 4.1s-2 3.6-4.7 3.6c-2.6 0-4.8-1.3-5.1-4.4h1c.4 2.6 2.1 3.6 4.2 3.6 2 0 3.6-1 3.6-2.8 0-1.7-1.1-2.5-4.1-3.2-2.2-.5-4.1-1.4-4.1-3.8 0-2.2 1.8-3.8 4.3-3.8 3 .1 4.5 1.9 4.8 4.2zM865.2 158v.8c-.4.1-1 .1-1.4.1-1.3 0-2-.6-2.1-1.9-.1-.6-.1-1-.1-1.8V146h-1.7v-.8h1.7v-2.9h1v2.9h2.6v.8h-2.6V156.7c0 1.2.6 1.5 2.6 1.3zM879.5 151.8c0 4.2-2.5 7.2-6.5 7.2s-6.5-3-6.5-7.2 2.5-7.2 6.5-7.2 6.5 3 6.5 7.2zm-1.1 0c0-4.2-2.5-6.4-5.4-6.4s-5.4 2.1-5.4 6.4c0 4.2 2.5 6.3 5.4 6.3s5.4-2.1 5.4-6.3zM894 151.7c0 4.9-3 7.3-6.3 7.3-1.6 0-2.8-.5-3.8-1.6l-.8-1.6v7.9h-1v-18.9h1v3l.8-1.5c1.1-1.2 2.4-1.7 4.1-1.7 3.7 0 6 3 6 7.1zm-1.1.1c0-3.5-1.7-6.4-5-6.4-2.6 0-4.8 1.5-4.8 5.8v1.3c0 4.2 2.5 5.5 4.6 5.5 3 .2 5.2-2.3 5.2-6.2zM907.2 151v7.6h-1v-7.4c0-.9 0-1.5-.1-2.2-.2-2.1-1.4-3.6-3.9-3.6-2.4 0-4.6 1.7-4.6 5.6v7.6h-1v-19.2h1v8.4l.6-1.4c1-1.3 2.5-1.9 4.1-1.9 2.8 0 4.5 1.6 4.7 4.1.1.9.2 1.3.2 2.4zM921.6 152.1h-10.9c.2 4.4 2.6 6.1 5 6.1 2.1 0 4-1.2 4.7-3.8h1c-.8 3.1-3.1 4.6-5.8 4.6-3.3 0-6-2.4-6-7.2 0-4.3 2.7-7.1 6.2-7.1 3.9 0 5.7 3.3 5.7 6.8.1.1.1.2.1.6zm-10.9-.9h9.9c-.2-4.2-2.5-5.8-4.8-5.8-2.4.1-4.9 1.9-5.1 5.8zM929.6 144.7v.8c-2.5-.2-4.2 1.4-4.2 5.6v7.6h-1V145h1v2.8l.7-1.7c.7-.9 1.7-1.5 2.8-1.5.3 0 .5.1.7.1zM948.3 158.6l-10.2-16.9c.1 2.3.1 5.1.1 7.4v9.5h-1v-17.9h1.5l10.2 16.9c-.1-2.3-.1-5.1-.1-7.4v-9.5h1v17.9h-1.5zM965.4 151.8c0 4.2-2.5 7.2-6.5 7.2s-6.5-3-6.5-7.2 2.5-7.2 6.5-7.2 6.5 3 6.5 7.2zm-1.1 0c0-4.2-2.5-6.4-5.4-6.4s-5.4 2.1-5.4 6.4c0 4.2 2.5 6.3 5.4 6.3s5.4-2.1 5.4-6.3zM969 155.3v1.7c.1.9.4 1.1 1.5.9v.8c-.3.1-.6.1-1 .1-.9 0-1.5-.3-1.5-1.5V139.7h1v15.6zM981.8 155.7l-.6 1.4c-.9 1.3-2.4 2-4.1 2-2.6 0-4.3-1.3-4.3-3.7 0-3.2 3.6-4.6 8.2-4.6h.9v-.6c0-.6 0-1.2-.1-1.7-.2-1.8-1.3-2.9-3.5-2.9-1.9 0-3.6 1-3.9 3.4h-1c.2-2.4 2.2-4.2 4.9-4.2 2.8 0 4.3 1.3 4.5 3.6.1.7.1 1.1.1 1.8v4.5c0 1.4.1 2.4.2 4.2h-1l-.3-3.2zm0-2.4v-1.8c-3.9-.3-7.9.8-7.9 3.7 0 1.8 1.1 3 3.4 3 2.7 0 4.5-2.3 4.5-4.9zM997.1 151v7.6h-1v-7.4c0-.9 0-1.5-.1-2.2-.2-2.1-1.4-3.6-3.9-3.6-2.4 0-4.6 1.7-4.6 5.6v7.6h-1V145h1v2.9l.6-1.4c1-1.3 2.5-1.9 4.1-1.9 2.8 0 4.5 1.6 4.7 4.1.1.8.2 1.2.2 2.3z"/><circle class="st1" cx="794.6" cy="148.9" r="5"/></g><g><path class="st2" d="M847.5 250.8h-11.3v-17.9h11.1v.8h-10.1v7.7h9.5v.8h-9.5v7.7h10.3v.9zM867.8 243v7.8h-1v-7.3c0-1 0-1.7-.1-2.4-.2-2.1-1.3-3.5-3.3-3.5-2.1 0-3.9 1.7-3.9 5.6v7.6h-1v-7.3c0-1 0-1.7-.1-2.4-.3-2.1-1.3-3.5-3.4-3.5-2.1 0-3.9 1.7-3.9 5.6v7.6h-1v-13.6h1v2.7l.7-1.5c.9-1 2.1-1.5 3.4-1.5 2.2 0 3.5 1.2 4 3.3l.9-1.8c.9-1 2-1.5 3.4-1.5 2.5 0 3.8 1.5 4.1 4 .2.6.2 1 .2 2.1zM883.3 243.8c0 4.9-3 7.3-6.3 7.3-1.6 0-2.8-.5-3.8-1.6l-.8-1.6v7.9h-1V237h1v3l.8-1.5c1.1-1.2 2.4-1.7 4.1-1.7 3.7 0 6 2.9 6 7zm-1.1.2c0-3.5-1.7-6.4-5-6.4-2.6 0-4.8 1.5-4.8 5.8v1.3c0 4.2 2.5 5.5 4.6 5.5 3.1.1 5.2-2.4 5.2-6.2zM887.2 234.3c0 .4-.3.8-.8.8s-.8-.3-.8-.8.3-.8.8-.8.8.4.8.8zm-1.2 16.5v-13.6h1v13.6h-1zM895.9 236.9v.8c-2.5-.2-4.2 1.4-4.2 5.6v7.6h-1v-13.6h1v2.8l.7-1.7c.7-.9 1.7-1.5 2.8-1.5.2-.1.5-.1.7 0zM908.5 244.2h-10.9c.2 4.4 2.6 6.1 5 6.1 2.1 0 4-1.2 4.7-3.8h1c-.8 3.1-3.1 4.6-5.8 4.6-3.3 0-6-2.4-6-7.2 0-4.3 2.7-7.1 6.2-7.1 3.9 0 5.7 3.3 5.7 6.8.1.1.1.3.1.6zm-10.9-.8h9.9c-.2-4.2-2.5-5.8-4.8-5.8-2.4 0-4.9 1.9-5.1 5.8zM927.6 237.6h-1c-.4-2.6-2.2-4.2-4.6-4.2-2.2 0-4.5 1.2-4.5 3.6s1.5 3.2 4.8 4.1c3.8 1 5.6 2.3 5.6 5.2 0 2.8-2.5 4.8-5.9 4.8-3.3 0-6.1-1.7-6.4-5.1h1c.4 2.8 2.7 4.3 5.4 4.3s4.8-1.5 4.8-3.8c0-2.5-1.4-3.4-4.9-4.4-3.7-1-5.5-2.1-5.5-4.9 0-2.7 2.6-4.6 5.6-4.6 3.4 0 5.3 2.2 5.6 5zM935.1 250.1v.8c-.4.1-1 .1-1.4.1-1.3 0-2-.6-2.1-1.9-.1-.6-.1-1-.1-1.8V238h-1.7v-.8h1.7v-2.9h1v2.9h2.6v.8h-2.6V248.7c.1 1.3.7 1.7 2.6 1.4zM945.9 247.8l-.6 1.4c-.9 1.3-2.4 2-4.1 2-2.6 0-4.3-1.3-4.3-3.7 0-3.2 3.6-4.6 8.2-4.6h.9v-.6c0-.6 0-1.2-.1-1.7-.2-1.8-1.3-2.9-3.5-2.9-1.9 0-3.6 1-3.9 3.4h-1c.2-2.4 2.2-4.2 4.9-4.2 2.8 0 4.3 1.3 4.5 3.6.1.7.1 1.1.1 1.8v4.5c0 1.4.1 2.4.2 4.2h-1l-.3-3.2zm0-2.4v-1.8c-3.9-.3-7.9.8-7.9 3.7 0 1.8 1.1 3 3.4 3 2.7 0 4.5-2.2 4.5-4.9zM954.7 250.1v.8c-.4.1-1 .1-1.4.1-1.3 0-2-.6-2.1-1.9-.1-.6-.1-1-.1-1.8V238h-1.7v-.8h1.7v-2.9h1v2.9h2.6v.8h-2.6V248.7c.1 1.3.7 1.7 2.6 1.4zM967.9 244.2H957c.2 4.4 2.6 6.1 5 6.1 2.1 0 4-1.2 4.7-3.8h1c-.8 3.1-3.1 4.6-5.8 4.6-3.3 0-6-2.4-6-7.2 0-4.3 2.7-7.1 6.2-7.1 3.9 0 5.7 3.3 5.7 6.8.1.1.1.3.1.6zm-10.9-.8h9.9c-.2-4.2-2.5-5.8-4.8-5.8s-4.9 1.9-5.1 5.8zM988.3 245.9c0 3-2.3 4.6-4.9 4.8-.7.1-1.2.1-1.9.1h-5.2v-17.9h4.7c.8 0 1.2 0 2.1.1 2.7.2 4.5 1.8 4.5 4.3 0 2.2-1.3 3.6-3.3 4.1 2.7.4 4 2.1 4 4.5zm-10.9-4.9h4.1c.4 0 .9 0 1.4-.1 1.9-.2 3.7-1.1 3.7-3.6 0-2.6-1.9-3.5-3.8-3.6h-5.4v7.3zm9.8 5c0-2.1-1.1-3.9-4.1-4.1-.6-.1-1-.1-1.4-.1h-4.4v8h4.6c.4 0 .9 0 1.2-.1 2.1 0 4.1-1.1 4.1-3.7zM1001.5 250.8h-1v-2.9l-.6 1.4c-1.1 1.3-2.5 1.9-4.1 1.9-2.8 0-4.4-1.6-4.7-4-.1-.7-.1-1.2-.1-2.3v-7.7h1v7.5c0 .8 0 1.4.1 2.1.3 2.1 1.5 3.5 3.9 3.5s4.6-1.7 4.6-5.6v-7.6h1v13.7zM1006.5 234.3c0 .4-.3.8-.8.8s-.8-.3-.8-.8.3-.8.8-.8.8.4.8.8zm-1.3 16.5v-13.6h1v13.6h-1zM1010.9 247.5v1.7c.1.9.4 1.1 1.5.9v.8c-.3.1-.6.1-1 .1-.9 0-1.5-.3-1.5-1.5V231.9h1v15.6zM1025.7 250.8h-1v-2.9l-.8 1.6c-1.1 1.2-2.4 1.7-4.1 1.7-3.7 0-6-3-6-7.1 0-4.9 3-7.3 6.3-7.3 1.6 0 2.8.5 3.8 1.6l.8 1.6v-8.2h1v19zm-1-6.3v-1.3c0-4.2-2.5-5.5-4.6-5.5-3.1 0-5.2 2.5-5.2 6.3 0 3.4 1.7 6.4 5 6.4 2.6-.1 4.8-1.6 4.8-5.9zM1030.7 234.3c0 .4-.3.8-.8.8s-.8-.3-.8-.8.3-.8.8-.8.8.4.8.8zm-1.2 16.5v-13.6h1v13.6h-1zM1044.7 243.2v7.6h-1v-7.4c0-.9 0-1.5-.1-2.2-.2-2.1-1.4-3.6-3.9-3.6-2.4 0-4.6 1.7-4.6 5.6v7.6h-1v-13.6h1v2.9l.6-1.4c1-1.3 2.5-1.9 4.1-1.9 2.8 0 4.5 1.6 4.7 4.1.2.7.2 1.2.2 2.3zM1059.1 247.2v3.8c-.1 3.3-2.2 5.5-5.8 5.5-2.8 0-5-1.2-5.4-4.2l-.1-.3h1v.3c.3 2.4 2.2 3.4 4.5 3.4 3.1 0 4.7-1.9 4.8-4.7v-3l-.8 1.6c-1.1 1.2-2.4 1.7-4.1 1.7-3.7 0-6-3-6-7.1 0-4.9 3-7.3 6.3-7.3 1.6 0 2.8.5 3.8 1.6l.8 1.6v-2.8h1v9.9zm-.9-2.7v-1.3c0-4.2-2.5-5.5-4.6-5.5-3.1 0-5.2 2.5-5.2 6.3 0 3.4 1.7 6.4 5 6.4 2.5-.1 4.8-1.6 4.8-5.9z"/><circle class="st1" cx="824.8" cy="240.9" r="5"/></g><g><path class="st2" d="M883.6 46.5h9.2v.8h-9.2v8.5h-1V38h11.1v.8h-10.1v7.7zM901.1 41.9v.8c-2.5-.2-4.2 1.4-4.2 5.6v7.6h-1V42.2h1V45l.7-1.7c.7-.9 1.7-1.5 2.8-1.5.2.1.5.1.7.1zM911.4 52.9l-.6 1.4c-.9 1.3-2.4 2-4.1 2-2.6 0-4.3-1.3-4.3-3.7 0-3.2 3.6-4.6 8.2-4.6h.9v-.6c0-.6 0-1.2-.1-1.7-.2-1.8-1.3-2.9-3.5-2.9-1.9 0-3.6 1-3.9 3.4h-1c.2-2.4 2.2-4.2 4.9-4.2 2.8 0 4.3 1.3 4.5 3.6.1.7.1 1.1.1 1.8v4.5c0 1.4.1 2.4.2 4.2h-1l-.3-3.2zm-.1-2.4v-1.8c-3.9-.3-7.9.8-7.9 3.7 0 1.8 1.1 3 3.4 3 2.7 0 4.5-2.3 4.5-4.9zM926.6 48.2v7.6h-1v-7.4c0-.9 0-1.5-.1-2.2-.2-2.1-1.4-3.6-3.9-3.6-2.4 0-4.6 1.7-4.6 5.6v7.6h-1V42.2h1v2.9l.6-1.4c1-1.3 2.5-1.9 4.1-1.9 2.8 0 4.5 1.6 4.7 4.1.2.8.2 1.2.2 2.3zM939.8 51.7h1c-.6 2.8-2.8 4.5-5.6 4.5l-.5.9c1.4.2 2.2.8 2.2 2 0 1.5-1.3 2.1-2.7 2.1-.5 0-1-.1-1.3-.3v-.7c.4.2.8.3 1.4.3 1.1 0 1.9-.5 1.9-1.5s-.8-1.5-2.5-1.4l.8-1.5c-3-.4-5.3-2.8-5.3-7.1 0-4.5 2.9-7.2 6.3-7.2 3 0 5.1 1.9 5.5 4.7h-1c-.5-2.4-2-3.9-4.6-3.9-2.5 0-5.2 2-5.2 6.2 0 4.5 2.5 6.5 5 6.5 2.2.1 4.1-1.2 4.6-3.6zM955.5 49c0 4.2-2.5 7.2-6.5 7.2s-6.5-3-6.5-7.2 2.5-7.2 6.5-7.2 6.5 3 6.5 7.2zm-1 0c0-4.2-2.5-6.4-5.4-6.4s-5.4 2.1-5.4 6.4c0 4.2 2.5 6.3 5.4 6.3s5.4-2 5.4-6.3zM959.4 39.4c0 .4-.3.8-.8.8s-.8-.3-.8-.8.3-.8.8-.8.8.4.8.8zm-1.2 16.5V42.2h1v13.6h-1zM971.4 46h-1c-.5-2.2-1.7-3.3-3.8-3.3-1.8 0-3.3 1.1-3.3 2.8 0 1.8 1.4 2.5 3.5 3 3.1.7 4.7 1.8 4.7 4.1s-2 3.6-4.7 3.6c-2.6 0-4.8-1.3-5.1-4.4h1c.4 2.6 2.1 3.6 4.2 3.6 2 0 3.6-1 3.6-2.8 0-1.7-1.1-2.5-4.1-3.2-2.2-.5-4.1-1.4-4.1-3.8 0-2.2 1.8-3.8 4.3-3.8 3 .1 4.5 1.8 4.8 4.2zM985.1 49.3h-10.9c.2 4.4 2.6 6.1 5 6.1 2.1 0 4-1.2 4.7-3.8h1c-.8 3.1-3.1 4.6-5.8 4.6-3.3 0-6-2.4-6-7.2 0-4.3 2.7-7.1 6.2-7.1 3.9 0 5.7 3.3 5.7 6.8.2.1.2.3.1.6zm-10.8-.8h9.9c-.2-4.2-2.5-5.8-4.8-5.8-2.4 0-5 1.8-5.1 5.8zM1004.7 55.9L994.5 39c.1 2.3.1 5.1.1 7.4v9.5h-1V38h1.5l10.2 16.9c-.1-2.3-.1-5.1-.1-7.4V38h1v17.9h-1.5zM1011.2 39.4c0 .4-.3.8-.8.8s-.8-.3-.8-.8.3-.8.8-.8.8.4.8.8zm-1.2 16.5V42.2h1v13.6h-1zM1025.5 49.3h-10.9c.2 4.4 2.6 6.1 5 6.1 2.1 0 4-1.2 4.7-3.8h1c-.8 3.1-3.1 4.6-5.8 4.6-3.3 0-6-2.4-6-7.2 0-4.3 2.7-7.1 6.2-7.1 3.9 0 5.7 3.3 5.7 6.8.1.1.1.3.1.6zm-10.9-.8h9.9c-.2-4.2-2.5-5.8-4.8-5.8s-4.9 1.8-5.1 5.8zM1029.3 52.5v1.7c.1.9.4 1.1 1.5.9v.8c-.3.1-.6.1-1 .1-.9 0-1.5-.3-1.5-1.5V36.8h1v15.7zM1034.2 52.5v1.7c.1.9.4 1.1 1.5.9v.8c-.3.1-.6.1-1 .1-.9 0-1.5-.3-1.5-1.5V36.8h1v15.7zM1043.1 56.1c-1.7 4.3-2.8 5.1-4.5 5.1-.4 0-.7 0-1-.1v-.9c.3.1.6.1 1 .1 1.1 0 2.1-.7 3.1-3.3l.4-1-5.4-14h1.1l4.8 12.9 4.8-12.9h1.1l-5.4 14.1z"/><circle class="st1" cx="870.2" cy="48.2" r="5"/></g><g><path class="st2" d="M760 366.8l-10.2-16.9c.1 2.3.1 5.1.1 7.4v9.5h-1v-17.9h1.5l10.2 16.9c-.1-2.3-.1-5.1-.1-7.4v-9.5h1v17.9H760zM766.5 350.3c0 .4-.3.8-.8.8s-.8-.3-.8-.8.3-.8.8-.8.8.4.8.8zm-1.2 16.5v-13.6h1v13.6h-1zM780.7 357.5h-1c-.5-2.4-2-3.9-4.6-3.9-2.5 0-5.2 2-5.2 6.2 0 4.5 2.5 6.5 5 6.5 2.2 0 4.1-1.3 4.6-3.7h1c-.6 2.8-2.8 4.5-5.6 4.5-3.4 0-6.1-2.5-6.1-7.2 0-4.5 2.9-7.2 6.3-7.2 3.1.1 5.2 2 5.6 4.8zM784.4 361.5v5.3h-1v-19h1v12.6l7.6-7.2h1.3l-7 6.6 7.1 7.1H792l-6.4-6.4-1.2 1zM815.3 358.7v8.1h-.9v-4.3l-.6 1.7c-1.4 2.1-3.6 3-5.8 3-4.7 0-7.9-3.6-7.9-9.2 0-5.5 3.5-9.3 8.4-9.3 4.1 0 6.3 2.5 6.9 5.8l.1.3h-1l-.1-.3c-.6-2.8-2.6-4.9-6-4.9-3.8 0-7.2 3.1-7.2 8.4 0 5.6 3.1 8.4 6.9 8.4 2.7 0 6.2-1.9 6.2-6.8h-5.6v-.9h6.6zM829.6 360.2h-10.9c.2 4.4 2.6 6.1 5 6.1 2.1 0 4-1.2 4.7-3.8h1c-.8 3.1-3.1 4.6-5.8 4.6-3.3 0-6-2.4-6-7.2 0-4.3 2.7-7.1 6.2-7.1 3.9 0 5.7 3.3 5.7 6.8.1.1.1.3.1.6zm-10.9-.8h9.9c-.2-4.2-2.5-5.8-4.8-5.8-2.4 0-4.9 1.9-5.1 5.8zM842.9 359.2v7.6h-1v-7.4c0-.9 0-1.5-.1-2.2-.2-2.1-1.4-3.6-3.9-3.6-2.4 0-4.6 1.7-4.6 5.6v7.6h-1v-13.6h1v2.9l.6-1.4c1-1.3 2.5-1.9 4.1-1.9 2.8 0 4.5 1.6 4.7 4.1.2.7.2 1.2.2 2.3zM850.7 366.1v.8c-.4.1-1 .1-1.4.1-1.3 0-2-.6-2.1-1.9-.1-.6-.1-1-.1-1.8V354h-1.7v-.8h1.7v-2.9h1v2.9h2.6v.8H848V364.7c.1 1.3.7 1.7 2.7 1.4zM858.3 352.9v.8c-2.5-.2-4.2 1.4-4.2 5.6v7.6h-1v-13.6h1v2.8l.7-1.7c.7-.9 1.7-1.5 2.8-1.5.3-.1.5-.1.7 0zM865 367.1c-1.7 4.3-2.8 5.1-4.5 5.1-.4 0-.7 0-1-.1v-.9c.3.1.6.1 1 .1 1.1 0 2.1-.7 3.1-3.3l.4-1-5.4-14h1.1l4.8 12.9 4.8-12.9h1.1l-5.4 14.1z"/><circle class="st1" cx="737.6" cy="357.1" r="5"/></g><g><path class="st2" d="M505.6 107H493v-.8L504.3 90h-10.6v-.9h11.7v.9l-11.3 16.2h11.4v.8zM516.4 104l-.6 1.4c-.9 1.3-2.4 2-4.1 2-2.6 0-4.3-1.3-4.3-3.7 0-3.2 3.6-4.6 8.2-4.6h.9v-.6c0-.6 0-1.2-.1-1.7-.2-1.8-1.3-2.9-3.5-2.9-1.9 0-3.6 1-3.9 3.4h-1c.2-2.4 2.2-4.2 4.9-4.2 2.8 0 4.3 1.3 4.5 3.6.1.7.1 1.1.1 1.8v4.5c0 1.4.1 2.4.2 4.2h-1l-.3-3.2zm0-2.3v-1.8c-3.9-.3-7.9.8-7.9 3.7 0 1.8 1.1 3 3.4 3 2.7 0 4.5-2.3 4.5-4.9zM531.7 99.4v7.6h-1v-7.4c0-.9 0-1.5-.1-2.2-.2-2.1-1.4-3.6-3.9-3.6-2.4 0-4.6 1.7-4.6 5.6v7.6h-1V87.9h1v8.4l.6-1.4c1-1.3 2.5-1.9 4.1-1.9 2.8 0 4.5 1.6 4.7 4.1.1.8.2 1.2.2 2.3zM543.6 104l-.6 1.4c-.9 1.3-2.4 2-4.1 2-2.6 0-4.3-1.3-4.3-3.7 0-3.2 3.6-4.6 8.2-4.6h.9v-.6c0-.6 0-1.2-.1-1.7-.2-1.8-1.3-2.9-3.5-2.9-1.9 0-3.6 1-3.9 3.4h-1c.2-2.4 2.2-4.2 4.9-4.2 2.8 0 4.3 1.3 4.5 3.6.1.7.1 1.1.1 1.8v4.5c0 1.4.1 2.4.2 4.2h-1l-.3-3.2zm0-2.3v-1.8c-3.9-.3-7.9.8-7.9 3.7 0 1.8 1.1 3 3.4 3 2.7 0 4.5-2.3 4.5-4.9zM566.9 107h-1v-8.3h-11.1v8.3h-1V89.2h1v8.7H566v-8.7h1V107zM579 104l-.6 1.4c-.9 1.3-2.4 2-4.1 2-2.6 0-4.3-1.3-4.3-3.7 0-3.2 3.6-4.6 8.2-4.6h.9v-.6c0-.6 0-1.2-.1-1.7-.2-1.8-1.3-2.9-3.5-2.9-1.9 0-3.6 1-3.9 3.4h-1c.2-2.4 2.2-4.2 4.9-4.2 2.8 0 4.3 1.3 4.5 3.6.1.7.1 1.1.1 1.8v4.5c0 1.4.1 2.4.2 4.2h-1l-.3-3.2zm0-2.3v-1.8c-3.9-.3-7.9.8-7.9 3.7 0 1.8 1.1 3 3.4 3 2.7 0 4.5-2.3 4.5-4.9zM594.5 107h-1v-2.9l-.8 1.6c-1.1 1.2-2.4 1.7-4.1 1.7-3.7 0-6-3-6-7.1 0-4.9 3-7.3 6.3-7.3 1.6 0 2.8.5 3.8 1.6l.8 1.6V88h1v19zm-1-6.3v-1.3c0-4.2-2.5-5.5-4.6-5.5-3.1 0-5.2 2.5-5.2 6.3 0 3.4 1.7 6.4 5 6.4 2.6 0 4.8-1.6 4.8-5.9zM599.5 90.5c0 .4-.3.8-.8.8s-.8-.3-.8-.8.3-.8.8-.8.8.4.8.8zm-1.3 16.5V93.4h1V107h-1zM613.8 107h-1v-2.9l-.8 1.6c-1.1 1.2-2.4 1.7-4.1 1.7-3.7 0-6-3-6-7.1 0-4.9 3-7.3 6.3-7.3 1.6 0 2.8.5 3.8 1.6l.8 1.6V88h1v19zm-1-6.3v-1.3c0-4.2-2.5-5.5-4.6-5.5-3.1 0-5.2 2.5-5.2 6.3 0 3.4 1.7 6.4 5 6.4 2.6 0 4.8-1.6 4.8-5.9z"/><circle class="st1" cx="482.1" cy="97.7" r="5"/></g><g><path class="st2" d="M614.4 37.9l-2.5 6.8h-1.1l6.8-17.9h1.3l6.7 17.9h-1.1l-2.6-6.8h-7.5zm7.3-.9l-3.5-9.4-3.5 9.4h7zM633.1 30.8v.8c-2.5-.2-4.2 1.4-4.2 5.6v7.6h-1V31h1v2.8l.7-1.7c.7-.9 1.7-1.5 2.8-1.5.2.1.5.1.7.2zM639.2 44v.8c-.4.1-1 .1-1.4.1-1.3 0-2-.6-2.1-1.9-.1-.6-.1-1-.1-1.8V32h-1.7v-.8h1.7v-2.9h1v2.9h2.6v.8h-2.6V42.7c0 1.2.6 1.6 2.6 1.3zM640.6 37.8V37h5.4v.8h-5.4zM663.6 35.6c0 6-4 8.6-6.8 8.9-.9.1-1.4.1-2.3.1h-5.2V26.8h5.2c.9 0 1.3 0 2 .1 3.1.3 7.1 2.7 7.1 8.7zm-1.1 0c0-5.2-3.2-7.6-6.1-7.9-.6-.1-1-.1-1.9-.1h-4.2v16.1h4.2c.9 0 1.4 0 2.2-.1 2.9-.3 5.8-2.9 5.8-8zM677.3 38.1h-10.9c.2 4.4 2.6 6.1 5 6.1 2.1 0 4-1.2 4.7-3.8h1c-.8 3.1-3.1 4.6-5.8 4.6-3.3 0-6-2.4-6-7.2 0-4.3 2.7-7.1 6.2-7.1 3.9 0 5.7 3.3 5.7 6.8.1.1.1.3.1.6zm-10.9-.8h9.9c-.2-4.2-2.5-5.8-4.8-5.8-2.4 0-4.9 1.9-5.1 5.8zM690.9 35.4h-1c-.5-2.4-2-3.9-4.6-3.9-2.5 0-5.2 2-5.2 6.2 0 4.5 2.5 6.5 5 6.5 2.2 0 4.1-1.3 4.6-3.7h1c-.6 2.8-2.8 4.5-5.6 4.5-3.4 0-6.1-2.5-6.1-7.2 0-4.5 2.9-7.2 6.3-7.2 3.1.1 5.2 2 5.6 4.8zM705.5 37.9c0 4.2-2.5 7.2-6.5 7.2s-6.5-3-6.5-7.2 2.5-7.2 6.5-7.2 6.5 3 6.5 7.2zm-1.1 0c0-4.2-2.5-6.4-5.4-6.4s-5.4 2.1-5.4 6.4c0 4.2 2.5 6.3 5.4 6.3s5.4-2.1 5.4-6.3z"/><circle class="st1" cx="598" cy="43.3" r="5"/></g><path d="M157.6 70.7l-31 31.8-2.7-51.2M467.4 111.1l22.6 69.8-48.1-48.1M710 166.7l-33.5 35.5-10.2-26zM250.2 252.5l49.9 8-22.1 19.6-27.8-27.6M760.5 97.1v35.4l-36.1-19.7z"/><g><path class="st2" d="M298.3 287.4v17h-1v-17h-6.7v-.8H305v.8h-6.7zM313.6 301.5l-.6 1.4c-.9 1.3-2.4 2-4.1 2-2.6 0-4.3-1.3-4.3-3.7 0-3.2 3.6-4.6 8.2-4.6h.9v-.6c0-.6 0-1.2-.1-1.7-.2-1.8-1.3-2.9-3.5-2.9-1.9 0-3.6 1-3.9 3.4h-1c.2-2.4 2.2-4.2 4.9-4.2 2.8 0 4.3 1.3 4.5 3.6.1.7.1 1.1.1 1.8v4.5c0 1.4.1 2.4.2 4.2h-1l-.3-3.2zm0-2.4v-1.8c-3.9-.3-7.9.8-7.9 3.7 0 1.8 1.1 3 3.4 3 2.7 0 4.5-2.3 4.5-4.9zM323.5 290.5v.8c-2.5-.2-4.2 1.4-4.2 5.6v7.6h-1v-13.6h1v2.8l.7-1.7c.7-.9 1.7-1.5 2.8-1.5h.7zM333.8 301.5l-.6 1.4c-.9 1.3-2.4 2-4.1 2-2.6 0-4.3-1.3-4.3-3.7 0-3.2 3.6-4.6 8.2-4.6h.9v-.6c0-.6 0-1.2-.1-1.7-.2-1.8-1.3-2.9-3.5-2.9-1.9 0-3.6 1-3.9 3.4h-1c.2-2.4 2.2-4.2 4.9-4.2 2.8 0 4.3 1.3 4.5 3.6.1.7.1 1.1.1 1.8v4.5c0 1.4.1 2.4.2 4.2h-1l-.3-3.2zm-.1-2.4v-1.8c-3.9-.3-7.9.8-7.9 3.7 0 1.8 1.1 3 3.4 3 2.7 0 4.5-2.3 4.5-4.9zM349 296.9v7.6h-1v-7.4c0-.9 0-1.5-.1-2.2-.2-2.1-1.4-3.6-3.9-3.6-2.4 0-4.6 1.7-4.6 5.6v7.6h-1v-13.6h1v2.9l.6-1.4c1-1.3 2.5-1.9 4.1-1.9 2.8 0 4.5 1.6 4.7 4.1.1.7.2 1.1.2 2.3zM356.7 303.8v.8c-.4.1-1 .1-1.4.1-1.3 0-2-.6-2.1-1.9-.1-.6-.1-1-.1-1.8v-9.2h-1.7v-.8h1.7v-3h1v2.9h2.6v.8H354V302.4c.2 1.3.8 1.7 2.7 1.4zM360.4 288c0 .4-.3.8-.8.8s-.8-.3-.8-.8.3-.8.8-.8.8.4.8.8zm-1.2 16.5v-13.6h1v13.6h-1zM374.4 296.9v7.6h-1v-7.4c0-.9 0-1.5-.1-2.2-.2-2.1-1.4-3.6-3.9-3.6-2.4 0-4.6 1.7-4.6 5.6v7.6h-1v-13.6h1v2.9l.6-1.4c1-1.3 2.5-1.9 4.1-1.9 2.8 0 4.5 1.6 4.7 4.1.2.7.2 1.1.2 2.3zM389.9 297.7c0 4.2-2.5 7.2-6.5 7.2s-6.5-3-6.5-7.2 2.5-7.2 6.5-7.2 6.5 2.9 6.5 7.2zm-1 0c0-4.2-2.5-6.4-5.4-6.4s-5.4 2.1-5.4 6.4c0 4.2 2.5 6.3 5.4 6.3s5.4-2.1 5.4-6.3z"/><circle class="st1" cx="278.5" cy="284.5" r="5"/></g></g></svg>