<?xml version="1.0" encoding="UTF-8"?><!DOCTYPE svg PUBLIC "-//W3C//DTD SVG 1.1//EN" "http://www.w3.org/Graphics/SVG/1.1/DTD/svg11.dtd"><svg xmlns="http://www.w3.org/2000/svg"><defs><clipPath id="a"><path d="M0 6164.429h1600V0H0v6164.429z"/></clipPath><clipPath id="a"><path d="M0 215.742h478.179V0H0v215.742z"/></clipPath></defs><symbol id="button-bg" viewBox="0 0 101.69286 54.921285"><g clip-path="url(#a)" transform="matrix(1.2279 0 0 -1.2292 -1548.386 2627.265)"><path d="M1342.86 2094.495c0-.628-.513-1.116-1.141-1.084l-70.785 3.632c-.628.032-1.244.562-1.37 1.18l-7.535 37.01c-.125.616.287 1.12.915 1.12h78.774c.629 0 1.143-.515 1.143-1.143v-40.715z"/></g></symbol><symbol id="clientle" viewBox="0 0 149.4 119.2"><style>.st0{fill:#fff;stroke:#afa282;stroke-width:.9955;stroke-miterlimit:10}</style><path vector-effect="non-scaling-stroke" class="st0" d="M69.2 21.6h-22l-11 19 11 19h22l11-19z"/><path vector-effect="non-scaling-stroke" class="st0" d="M36.2 40.6h-22l-11 19 11 19h22l11-19zm66-38h-22l-11 19 11 19h22l11-19zm0 38h-22l-11 19 11 19h22l11-19zm0 38h-22l-11 19 11 19h22l11-19z"/><path vector-effect="non-scaling-stroke" class="st0" d="M69.2 59.6h-22l-11 19 11 19h22l11-19zm66-38h-22l-11 19 11 19h22l11-19zm0 38h-22l-11 19 11 19h22l11-19z"/></symbol><symbol id="core-small" viewBox="0 0 226.2 129"><style>.st0{fill:#000}.st1,.st2{fill:#afa282;stroke:#000;stroke-width:.6706;stroke-miterlimit:10}.st2{fill:#989898}</style><path vector-effect="non-scaling-stroke" class="st0" d="M33.9.3l191.8 114.2L93.6 67.6z"/><path vector-effect="non-scaling-stroke" class="st1" d="M.4 128.5l57.9.2 35.3-60.8L33.9.7z"/><path vector-effect="non-scaling-stroke" class="st2" d="M225.6 114.9l-9.1 13.5-158.2.3L93.6 68z"/></symbol><symbol id="core" viewBox="0 0 273.6 154.8"><style>.st0{fill:#000}.st1,.st2{fill:#afa282;stroke:#000;stroke-width:.8078;stroke-miterlimit:10}.st2{fill:#989898}</style><path vector-effect="non-scaling-stroke" class="st0" d="M232.9 154.4L.6 17.5l159.9 56.1z"/><path vector-effect="non-scaling-stroke" class="st1" d="M273.1.7L203 .4l-42.5 72.9 72.5 80.6z"/><path vector-effect="non-scaling-stroke" class="st2" d="M.6 17L11.6.7 203 .4l-42.4 72.7z"/></symbol><symbol id="logo" viewBox="0 0 597.72375 269.67749"><path d="M17.064 236.489v31.174h-1.8v-31.174H2.992v-1.516h26.39v1.516H17.064zm44.35 31.174h-2.321L50.659 237.2l-8.955 30.463H39.29l-8.292-32.69h1.991l7.628 30.985 8.86-30.51h2.463l8.385 30.463 8.15-30.938h1.848l-8.908 32.69z"/><g clip-path="url(#a)" transform="matrix(1.25 0 0 -1.25 0 269.68)"><path d="M81.43 14.688c0 7.883-4.624 12.355-10.347 12.355-5.761 0-10.386-4.471-10.386-12.355 0-7.846 4.625-12.356 10.386-12.356 5.723 0 10.347 4.51 10.347 12.356m1.592 0c0-7.846-4.624-13.607-11.94-13.607-7.353 0-11.977 5.76-11.977 13.607 0 7.884 4.624 13.607 11.978 13.607 7.315 0 11.939-5.724 11.939-13.608m28.355 6.254h-1.515c-.569 3.866-3.185 6.103-6.785 6.103-3.184 0-6.596-1.744-6.596-5.269 0-3.525 2.161-4.7 7.088-6.064 5.496-1.479 8.187-3.412 8.187-7.582 0-4.054-3.676-7.049-8.604-7.049-4.889 0-8.869 2.464-9.438 7.505h1.517c.568-4.056 3.941-6.254 7.96-6.254 3.98 0 7.011 2.236 7.011 5.572 0 3.6-2.122 5.041-7.239 6.443-5.382 1.441-8.036 3.108-8.036 7.201 0 3.98 3.791 6.748 8.263 6.748 5.003 0 7.694-3.298 8.187-7.354m6.258 6.823h1.44V1.612h-1.44v26.152zm24.183-19.141c0 3.07-1.554 5.724-5.99 5.951-.87.075-1.401.075-2.008.075h-6.481V2.862h6.709c.606 0 1.25.037 1.744.075 3.032.228 6.026 1.896 6.026 5.686m-14.48 7.277h5.99c.606 0 1.25.038 2.085.077 2.728.227 5.42 1.591 5.42 5.268 0 3.752-2.767 5.078-5.61 5.231-.834.038-1.478.038-2.388.038h-5.496V15.9zm16.034-7.164c0-4.32-3.335-6.708-7.126-7.011-1.061-.114-1.781-.114-2.766-.114h-7.581v26.153h6.86c1.1 0 1.782 0 3.07-.076 4.018-.341 6.557-2.578 6.557-6.253 0-3.222-1.857-5.345-4.851-5.99 3.866-.719 5.837-3.107 5.837-6.709m5.537 19.028h1.44V1.612h-1.44v26.152zm24.827-26.153h-16.563v26.152h1.44v-24.9h15.123V1.61zm4.589 26.153h1.44V1.612h-1.44v26.152zM202.85 1.611L187.954 26.4c.076-3.41.076-7.429.076-10.84V1.611h-1.44v26.152h2.198l14.934-24.788c-.076 3.411-.076 7.467-.076 10.878v13.91h1.402l.038-26.152h-2.236zm29.491 11.902V1.612h-1.327V7.94l-.87-2.426c-2.01-3.146-5.232-4.435-8.49-4.435-6.862 0-11.562 5.23-11.562 13.532 0 8.11 5.193 13.683 12.281 13.683 5.95 0 9.21-3.677 10.044-8.452l.076-.38h-1.44l-.076.38c-.834 4.13-3.753 7.2-8.756 7.2-5.609 0-10.537-4.51-10.537-12.355 0-8.15 4.472-12.357 10.082-12.357 4.018 0 9.135 2.73 9.135 9.93h-8.149v1.252h9.59zm21.95 7.428h-1.516c-.568 3.866-3.183 6.103-6.784 6.103-3.184 0-6.596-1.744-6.596-5.269 0-3.525 2.161-4.7 7.088-6.064 5.496-1.479 8.188-3.412 8.188-7.582 0-4.054-3.677-7.049-8.605-7.049-4.889 0-8.869 2.464-9.437 7.505h1.516c.57-4.056 3.942-6.254 7.96-6.254 3.98 0 7.011 2.236 7.011 5.572 0 3.6-2.122 5.041-7.239 6.443-5.382 1.441-8.035 3.108-8.035 7.201 0 3.98 3.79 6.748 8.262 6.748 5.003 0 7.695-3.298 8.187-7.354m34.08-6.253c0 7.883-4.625 12.355-10.349 12.355-5.76 0-10.385-4.471-10.385-12.355 0-7.846 4.625-12.356 10.385-12.356 5.724 0 10.348 4.51 10.348 12.356m1.592 0c0-7.846-4.624-13.607-11.94-13.607-7.353 0-11.977 5.76-11.977 13.607 0 7.884 4.624 13.607 11.977 13.607 7.316 0 11.94-5.724 11.94-13.608m21.76-13.076L296.828 26.4c.076-3.41.076-7.429.076-10.84V1.611h-1.441v26.152h2.198l14.934-24.788c-.075 3.411-.075 7.467-.075 10.878v13.91h1.402l.038-26.152h-2.236zm25.589 0h-16.563v26.152h16.184V26.55h-14.744V15.294h13.872v-1.213h-13.872V2.862h15.123v-1.25zm31.841 13.228c0 7.619-4.662 11.105-8.869 11.56-.834.115-1.478.115-2.843.115h-6.178V2.862h6.103c1.251 0 2.084.038 3.222.19 4.207.53 8.565 4.358 8.565 11.787m1.593 0c0-8.831-5.838-12.583-9.969-13.076-1.327-.152-2.085-.152-3.336-.152h-7.618v26.153h7.656c1.251 0 1.858 0 2.92-.075 4.51-.417 10.347-3.943 10.347-12.85M392.81 1.61h-16.563v26.152h16.183V26.55h-14.744V15.294h13.873v-1.213h-13.873V2.862h15.124v-1.25zm20.81 19.33h-1.516c-.568 3.866-3.183 6.103-6.784 6.103-3.184 0-6.596-1.744-6.596-5.269 0-3.525 2.161-4.7 7.088-6.064C411.307 14.232 414 12.3 414 8.13c0-4.054-3.677-7.049-8.605-7.049-4.889 0-8.869 2.464-9.437 7.505h1.516c.57-4.056 3.942-6.254 7.96-6.254 3.98 0 7.011 2.236 7.011 5.572 0 3.6-2.122 5.041-7.239 6.443-5.382 1.441-8.035 3.108-8.035 7.201 0 3.98 3.79 6.748 8.262 6.748 5.003 0 7.695-3.298 8.187-7.354m6.258 6.823h1.44V1.612h-1.44v26.152zm28.731-14.251V1.612h-1.327V7.94l-.87-2.426c-2.01-3.146-5.231-4.435-8.49-4.435-6.861 0-11.561 5.23-11.561 13.532 0 8.11 5.192 13.683 12.28 13.683 5.95 0 9.21-3.677 10.044-8.452l.075-.38h-1.44l-.075.38c-.834 4.13-3.753 7.2-8.756 7.2-5.608 0-10.536-4.51-10.536-12.355 0-8.15 4.472-12.357 10.082-12.357 4.017 0 9.135 2.73 9.135 9.93h-8.15v1.252h9.59zM471.24 1.61L456.344 26.4c.076-3.41.076-7.429.076-10.84V1.611h-1.44v26.152h2.198l14.934-24.788c-.076 3.411-.076 7.467-.076 10.878v13.91h1.402l.038-26.152h-2.236zM421.519 205.497c-1.098 1.217-2.444 1.709-4.038 1.709a5.824 5.824 0 0 1-4.153-1.71c-1.222-1.221-1.71-2.567-1.71-4.157 0-1.59.612-2.931 1.71-4.033 1.222-1.223 2.568-1.714 4.153-1.714 1.594 0 2.94.616 4.038 1.714 1.222 1.102 1.709 2.444 1.709 4.033 0 1.59-.61 2.936-1.71 4.158m-25.91 0c-1.222 1.217-2.568 1.709-4.152 1.709-1.595 0-2.932-.611-4.04-1.71-1.097-1.221-1.71-2.567-1.71-4.157 0-1.59.613-2.931 1.71-4.033 1.108-1.223 2.445-1.714 4.04-1.714 1.584 0 3.054.616 4.152 1.714 1.223 1.102 1.709 2.444 1.709 4.033.124 1.59-.486 2.936-1.71 4.158m-169.52-20.044v-5.256h-65.994v-61.6h53.044v-5.254h-53.044V51.257h65.995V46h-71.251v139.452h71.25zm-88.363 0V46.12h-5.132v134.076L74.66 46h-6.721l-57.81 134.196V46.12H4.875v139.332h8.679L71.36 51.5l57.813 133.953h8.55zm49.134 29.21h6.722v-23.467h-6.722v23.467z"/><path d="M471.26 109.8l-65.017-65.02m65.627 85.303l-82.133-82.125m77.733 97.53l-92.15-92.274m82.984 102.78l-95.452-95.447m85.552 105.223l-95.94-95.939" fill="none" stroke="#000" vector-effect="non-scaling-stroke" stroke-width="1.1" stroke-miterlimit="10"/><path d="M244.542 117.987v62.21h43.755c8.555 0 15.887-3.055 21.883-9.17 6.11-6.111 9.165-13.443 9.165-21.997s-3.056-15.892-9.165-21.997c-6.11-6.11-13.452-9.17-21.883-9.17h-43.755v.124zm47.794-5.131c9.165.974 16.745 5.007 22.855 11.852 6.225 6.965 9.29 15.032 9.29 24.322 0 10.02-3.55 18.579-10.635 25.663-7.094 7.093-15.649 10.635-25.663 10.635h-49.016V46h5.256v66.73h42.165l34.59-66.611h5.861l-34.703 66.736zM451.22 69.22c-12.83-12.831-28.356-19.31-46.447-19.31-18.207 0-33.606 6.479-46.447 19.31-12.832 12.837-19.305 28.355-19.305 46.447 0 18.207 6.473 33.73 19.305 46.438 12.841 12.836 28.355 19.314 46.447 19.314 18.206 0 33.616-6.478 46.447-19.314 12.832-12.832 19.304-28.351 19.304-46.438 0-18.092-6.472-33.491-19.304-46.447m3.666 96.675c-13.815 13.934-30.56 20.899-50.113 20.899-19.552 0-36.298-6.965-50.114-20.9-13.929-13.81-20.898-30.555-20.898-50.227 0-19.557 6.97-36.3 20.898-50.113 13.816-13.93 30.562-20.9 50.114-20.9 19.553 0 36.298 6.97 50.113 20.9 13.93 13.814 20.9 30.556 20.9 50.113-.125 19.672-6.97 36.418-20.9 50.228"/></g></symbol><symbol id="menu-icon" viewBox="0 0 40 26.8"><style>.st0{fill:#000}</style><path class="st0" d="M38.7 4.5H1.3c-.6 0-1-.4-1-1V1.2c0-.6.4-1 1-1h37.4c.6 0 1 .4 1 1v2.3c0 .6-.4 1-1 1zm0 11H1.3c-.6 0-1-.4-1-1v-2.3c0-.6.4-1 1-1h37.4c.6 0 1 .4 1 1v2.3c0 .6-.4 1-1 1zm0 11H1.3c-.6 0-1-.4-1-1v-2.3c0-.6.4-1 1-1h37.4c.6 0 1 .4 1 1v2.3c0 .6-.4 1-1 1z" id="Isolation_Mode"/></symbol><symbol id="quality" viewBox="0 0 273.7 216.6"><style>.st0{fill:#000}.st1{fill:none;stroke:#000;stroke-width:.7505;stroke-miterlimit:10}</style><path vector-effect="non-scaling-stroke" class="st0" d="M24.9 216.2L147.1 0l126.6 93.9-35.8 122.5"/><path vector-effect="non-scaling-stroke" class="st1" d="M.3 216.4L90.7 60.2l16.2 11"/></symbol><symbol id="respect-list-divider-even-black" viewBox="0 0 265.3 18.2"><style>.st0{fill:#000;stroke:#989898;stroke-width:.616;stroke-miterlimit:10}</style><path vector-effect="non-scaling-stroke" class="st0" d="M41.3 9.5l219.6 4.7M37 1.9l-8.7-.1-4.5 7.6 4.3 7.6 8.7.1 4.5-7.6zM4.5 8.7l19.3.4"/></symbol><symbol id="respect-list-divider-even" viewBox="0 0 265.3 18.2"><style>.st0{fill:none;stroke:#989898;stroke-width:.616;stroke-miterlimit:10}</style><path vector-effect="non-scaling-stroke" class="st0" d="M41.3 9.5l219.6 4.7M37 1.9l-8.7-.1-4.5 7.6 4.3 7.6 8.7.1 4.5-7.6zM4.5 8.7l19.3.4"/></symbol><symbol id="respect-list-divider-odd-black" viewBox="0 0 265.3 18.2"><style>.st0{fill:#000;stroke:#989898;stroke-width:.616;stroke-miterlimit:10}</style><path vector-effect="non-scaling-stroke" class="st0" d="M260.6.3h-8.8l-4.4 7.6 4.4 7.6h8.8l4.3-7.6zm-13.2 7.6L0 17.9"/></symbol><symbol id="respect-list-divider-odd" viewBox="0 0 265.3 18.2"><style>.st0{fill:#fff;stroke:#989898;stroke-width:.616;stroke-miterlimit:10}</style><path vector-effect="non-scaling-stroke" class="st0" d="M260.6.3h-8.8l-4.4 7.6 4.4 7.6h8.8l4.3-7.6zm-13.2 7.6L0 17.9"/></symbol><symbol id="respect" viewBox="0 0 904.7 310.7"><style id="style3">.st0{fill:#000}.st1{fill:none;stroke:#000;stroke-width:.6253;stroke-miterlimit:10}.st2{fill:#4e4c4b}.st3,.st4{fill:#fff;stroke:#000;stroke-width:.8829;stroke-miterlimit:10}.st4{stroke-width:.6253}</style><path vector-effect="non-scaling-stroke" class="st0" d="M387.3 92.2l18.8 57.9-39.9-39.9" id="path5"/><path vector-effect="non-scaling-stroke" d="M387.3 92.2l18.5 57.2" id="path7"/><path vector-effect="non-scaling-stroke" class="st1" d="M52.4 15.8l111.3 61M230.5 232L90.6 99.3m140.8 132.2l165.3-148m-29.9 26.6l86.2 86.7m-24.1-24.3L656.4 124M495.2 37.3L657 124m-104.6 22.2l58.9 149.6m-27.1-68.9l97.9-25.5M600.8 93.7l120.5-52.6M130.5 58.4L2.3 190.7m186.2-70.5l-30.1 44.1" id="path9"/><path vector-effect="non-scaling-stroke" class="st2" d="M76.1 10.6c0 2.6-.7 4.5-2 5.8-1.3 1.3-3.3 2-5.9 2h-3.7V3.1h4.1c2.4 0 4.3.6 5.6 1.9 1.3 1.3 1.9 3.1 1.9 5.6zm-1.2 0c0-2.2-.6-3.8-1.7-5S70.5 4 68.4 4h-2.8v13.4h2.5c4.6.1 6.8-2.2 6.8-6.8zm11.4 7.8l-.3-1.8c-.6.7-1.2 1.3-1.8 1.6-.6.3-1.3.5-2.1.5-1.1 0-2-.3-2.6-.9-.6-.6-.9-1.4-.9-2.4 0-1.1.5-2 1.4-2.6.9-.6 2.3-.9 4-1l2.2-.1V11c0-1.1-.2-1.9-.7-2.5-.5-.5-1.2-.8-2.2-.8-1.1 0-2.2.3-3.3.9l-.4-.9c1.3-.6 2.5-.9 3.7-.9 1.3 0 2.2.3 2.8 1s.9 1.7.9 3v7.6h-.7zm-4.2-.7c1.2 0 2.2-.3 2.9-1 .7-.7 1.1-1.7 1.1-2.9v-1.1l-2 .1c-1.6.1-2.7.3-3.4.8-.7.4-1 1.1-1 2 0 .7.2 1.3.7 1.7.3.2.9.4 1.7.4zM94.9 6.8c.8 0 1.5.2 2.1.5.6.3 1.1.8 1.6 1.5h.1c0-.9-.1-1.7-.1-2.6V2.1h1v16.3H99l-.3-1.7h-.1c-.9 1.3-2.1 2-3.7 2s-2.8-.5-3.6-1.5c-.8-1-1.2-2.4-1.2-4.3 0-2 .4-3.5 1.2-4.5.9-1.1 2.1-1.6 3.6-1.6zm0 .9c-1.2 0-2.2.4-2.8 1.3-.6.9-.9 2.1-.9 3.8 0 3.2 1.3 4.8 3.8 4.8 1.3 0 2.2-.4 2.8-1.1.6-.7.9-2 .9-3.7v-.2c0-1.8-.3-3-.9-3.8s-1.5-1.1-2.9-1.1zm15.6 10.7l-.3-1.8h-.1c-.6.7-1.2 1.3-1.8 1.6-.6.3-1.3.5-2.1.5-1.1 0-2-.3-2.6-.9-.6-.6-.9-1.4-.9-2.4 0-1.1.5-2 1.4-2.6.9-.6 2.3-.9 4-1l2.2-.1V11c0-1.1-.2-1.9-.7-2.5-.4-.6-1.2-.8-2.1-.8-1.1 0-2.2.3-3.3.9l-.4-.9c1.3-.6 2.5-.9 3.7-.9 1.3 0 2.2.3 2.8 1s.9 1.7.9 3v7.6h-.7zm-4.2-.7c1.2 0 2.2-.3 2.9-1 .7-.7 1.1-1.7 1.1-2.9v-1.1l-2 .1c-1.6.1-2.7.3-3.4.8-.7.4-1 1.1-1 2 0 .7.2 1.3.7 1.7.3.2.9.4 1.7.4zm79.1 62.8h-1.1V73h-9v7.5h-1.1V65.2h1.1V72h9v-6.8h1.1v15.3zm11 0l-.3-1.8h-.1c-.6.7-1.2 1.3-1.8 1.6-.6.3-1.3.5-2.1.5-1.1 0-2-.3-2.6-.9-.6-.6-.9-1.4-.9-2.4 0-1.1.5-2 1.4-2.6.9-.6 2.3-.9 4-1l2.2-.1V73c0-1.1-.2-1.9-.7-2.5-.4-.6-1.2-.8-2.1-.8-1.1 0-2.2.3-3.3.9l-.4-.9c1.3-.6 2.5-.9 3.7-.9 1.3 0 2.2.3 2.8 1s.9 1.7.9 3v7.6h-.7zm-4.2-.7c1.2 0 2.2-.3 2.9-1 .7-.7 1.1-1.7 1.1-2.9v-1.1l-2 .1c-1.6.1-2.7.3-3.4.8-.7.4-1 1.1-1 2 0 .7.2 1.3.7 1.7.3.2.9.4 1.7.4zm16.6.7v-7.4c0-1.1-.2-2-.7-2.5-.5-.5-1.2-.8-2.2-.8-1.4 0-2.4.3-3 1s-.9 1.8-.9 3.4v6.3h-1V69.1h.9l.2 1.6h.1c.7-1.2 2.1-1.8 4-1.8 2.6 0 3.9 1.4 3.9 4.2v7.5h-1.3zm11.8-3c0 1-.4 1.8-1.2 2.4s-1.9.8-3.3.8c-1.5 0-2.7-.2-3.6-.7v-1.1c1.1.6 2.4.9 3.6.9 1.1 0 2-.2 2.6-.6.6-.4.9-.9.9-1.5s-.2-1.1-.7-1.4-1.2-.8-2.3-1.2c-1.1-.4-1.9-.8-2.4-1.1-.5-.3-.8-.6-1-1s-.4-.8-.4-1.4c0-.9.4-1.5 1.1-2s1.7-.7 3-.7c1.2 0 2.4.2 3.5.7l-.4.9c-1.1-.5-2.2-.7-3.1-.7-.9 0-1.7.2-2.2.5-.5.3-.8.7-.8 1.3 0 .6.2 1.1.6 1.4s1.3.8 2.5 1.2c1 .4 1.8.7 2.2 1 .5.3.8.6 1.1 1 .2.4.3.8.3 1.3zm18.2 3h-10.7v-.8l9-13.5h-8.6v-1h10v.8l-9 13.5h9.2v1zm2.6-14.6c0-.7.2-1 .7-1 .2 0 .4.1.5.3s.2.4.2.7c0 .3-.1.6-.2.7s-.3.4-.6.4c-.4 0-.6-.4-.6-1.1zm1.2 14.6h-1V69.1h1v11.4zm18 0V73c0-1.1-.2-1.9-.7-2.4-.4-.5-1.1-.8-2-.8-1.2 0-2 .3-2.6 1s-.8 1.7-.8 3v6.7h-1.1v-7.8c0-1.9-.9-2.9-2.6-2.9-1.2 0-2.1.3-2.6 1s-.8 1.8-.8 3.3v6.3h-1V69.1h.9l.2 1.6h.1c.3-.6.8-1 1.3-1.3.6-.3 1.2-.5 1.9-.5 1.8 0 3 .7 3.5 2 .4-.7.9-1.1 1.5-1.5.6-.3 1.3-.5 2.1-.5 1.2 0 2.2.3 2.8 1s.9 1.7.9 3.2v7.5h-1zm19 0V73c0-1.1-.2-1.9-.7-2.4-.4-.5-1.1-.8-2-.8-1.2 0-2 .3-2.6 1s-.8 1.7-.8 3v6.7h-1.1v-7.8c0-1.9-.9-2.9-2.6-2.9-1.2 0-2.1.3-2.6 1s-.8 1.8-.8 3.3v6.3h-1V69.1h.9l.2 1.6h.1c.3-.6.8-1 1.3-1.3.6-.3 1.2-.5 1.9-.5 1.8 0 3 .7 3.5 2 .4-.7.9-1.1 1.5-1.5.6-.3 1.3-.5 2.1-.5 1.2 0 2.2.3 2.8 1s.9 1.7.9 3.2v7.5h-1zm9.3.2c-1.7 0-2.9-.5-3.9-1.5-.9-1-1.4-2.5-1.4-4.3 0-1.8.4-3.3 1.3-4.4.9-1.1 2.1-1.6 3.6-1.6 1.3 0 2.4.5 3.2 1.4.8.9 1.2 2.2 1.2 3.8v.9h-8.2c0 1.6.4 2.8 1.1 3.6.7.8 1.7 1.2 3.1 1.2.7 0 1.2 0 1.7-.1s1.1-.3 1.9-.6v.9c-.6.3-1.2.5-1.8.6-.5.1-1.1.1-1.8.1zm-.3-10.9c-1.1 0-2 .4-2.6 1.1-.7.7-1.1 1.8-1.2 3.1h7c0-1.3-.3-2.4-.9-3.1-.5-.7-1.3-1.1-2.3-1.1zm12-.9c.5 0 1 0 1.6.1l-.2 1c-.5-.1-1-.2-1.5-.2-1 0-1.8.4-2.4 1.2s-.9 1.9-.9 3.1v6.3h-1V69.1h.9l.1 2.1h.1c.5-.8 1-1.4 1.5-1.8.4-.3 1-.5 1.8-.5zM28.3 193.8c0 4.7-2.9 7.1-5.8 7.5-.8.1-1.1.1-1.9.1h-4.3v-14.8h4.4c.8 0 1.1 0 1.8.1 2.9.2 5.8 2.4 5.8 7.1zm-1.5 0c0-3.8-2.1-5.8-4.5-6.1-.5-.1-.9-.1-1.7-.1h-3v12.6h2.9c.7 0 1.2 0 1.8-.1 2.5-.3 4.5-2.5 4.5-6.3zm10.5 5.5l-.6 1.2c-.8.8-1.9 1.2-3.2 1.2-2.1 0-3.6-1.1-3.6-3.2 0-2.6 2.5-3.9 6.6-3.9h.7v-1.8c-.1-1.3-.9-2.1-2.5-2.1s-2.7.8-2.9 2.6h-1.4c.2-2.2 1.8-3.7 4.3-3.7s3.7 1.1 3.9 3v5.5c0 1 .1 1.8.2 3.2h-1.3l-.2-2zm-.1-2.4v-1.3c-3.2-.2-5.8.5-5.8 2.7 0 1.4.9 2.2 2.6 2.2 1.9.1 3.2-1.4 3.2-3.6zm5.8 1.4v1.2c0 .7.4.9 1.3.8v1c-.3.1-.7.1-1.1.1-.9 0-1.5-.3-1.6-1.5v-14.3H43v12.7zm12.6-2.3H47c.2 3.4 1.8 4.5 3.7 4.5 1.6 0 3-1 3.4-2.8h1.4c-.5 2.6-2.6 3.9-4.9 3.9-2.8 0-5-2-5-6 0-3.7 2.3-6 5.3-6 3.2 0 4.8 2.5 4.8 5.7-.1.2-.1.4-.1.7zm-8.6-1h7.3c-.2-2.9-1.6-4.3-3.5-4.3s-3.6 1.4-3.8 4.3zm27.7-3.9v.2h-1.3v-.2c-.5-2.3-1.9-3.8-4.6-3.8-3.1 0-5.3 2.6-5.3 6.6 0 4.1 2.2 6.6 5.2 6.6 2.8 0 4.2-1.7 4.7-3.9v-.2h1.3v.2c-.4 2.7-2.3 5-6.1 5-4.1 0-6.6-3.1-6.6-7.6 0-4.6 2.8-7.8 6.9-7.8 3.5 0 5.4 2.1 5.8 4.9zm11.7 3.9v6.4h-1.3v-7.9c-.2-1.5-1-2.7-2.9-2.6-1.9 0-3.5 1.4-3.5 4.9v5.7h-1.3v-15.9h1.3v6.7l.6-1.2c.9-.9 1.9-1.3 3.2-1.3 2.4 0 3.8 1.3 4 3.4-.1.4-.1.8-.1 1.8zm4.6-7.5c0 .5-.4.9-.9.9s-.9-.4-.9-.9.4-.9.9-.9c.6 0 .9.4.9.9zm-1.5 13.8V190h1.3v11.4h-1.3zm13.7-6.3v6.4h-1.3v-7.9c-.2-1.5-1-2.7-2.9-2.6-1.9 0-3.5 1.4-3.5 4.9v5.7H94v-15.9h1.3v6.7l.6-1.2c.9-.9 1.9-1.3 3.2-1.3 2.4 0 3.8 1.3 4 3.4.1.4.1.8.1 1.8zm12 6.3h-1.3v-2.2l-.6 1.3c-.9.9-1.9 1.2-3.2 1.2-2.3 0-3.7-1.3-4-3.1-.1-.6-.1-1-.1-1.9V190h1.3v6.3c0 .5 0 1.1.1 1.7.2 1.5 1.2 2.6 2.9 2.6 1.9 0 3.5-1.4 3.5-4.9V190h1.3v11.3zm4.4-3v1.2c0 .7.4.9 1.3.8v1c-.3.1-.7.1-1.1.1-.9 0-1.5-.3-1.6-1.5v-14.3h1.3v12.7zm7.8 3.6c-1.2 3-2.3 3.9-3.9 3.9-.4 0-.6 0-.9-.1v-1.1h.7c1 0 1.8-.5 2.5-2.4l.2-.6-4.5-11.8h1.5l3.7 10.4 3.7-10.4h1.5l-4.5 12.1z" id="path11"/><g id="g13"><path vector-effect="non-scaling-stroke" class="st2" d="M197 127.7c-.6 0-1.2-.1-1.6-.3v-.9c.5.1 1.1.2 1.6.2 1.7 0 2.5-.9 2.5-2.8v-15.4h1.1v15.3c0 2.6-1.2 3.9-3.6 3.9zm12.2-3.6c-1.7 0-2.9-.5-3.9-1.5-.9-1-1.4-2.5-1.4-4.3 0-1.8.4-3.3 1.3-4.4.9-1.1 2.1-1.6 3.6-1.6 1.3 0 2.4.5 3.2 1.4.8.9 1.2 2.2 1.2 3.8v.8H205c0 1.6.4 2.8 1.1 3.6.7.8 1.7 1.2 3.1 1.2.7 0 1.2 0 1.7-.1s1.1-.3 1.9-.6v.9c-.6.3-1.2.5-1.8.6-.6.1-1.2.2-1.8.2zm-.3-10.9c-1.1 0-2 .4-2.6 1.1-.7.7-1.1 1.8-1.2 3.1h7c0-1.3-.3-2.4-.9-3.1-.5-.8-1.3-1.1-2.3-1.1zm11.9-1c.5 0 1 0 1.6.1l-.2 1c-.5-.1-1-.2-1.5-.2-1 0-1.8.4-2.4 1.2s-.9 1.9-.9 3.1v6.3h-1v-11.4h.9l.1 2.1h.1c.5-.8 1-1.4 1.5-1.8.4-.2 1.1-.4 1.8-.4zm8.5 11.9c-1.7 0-2.9-.5-3.9-1.5-.9-1-1.4-2.5-1.4-4.3 0-1.8.4-3.3 1.3-4.4.9-1.1 2.1-1.6 3.6-1.6 1.3 0 2.4.5 3.2 1.4.8.9 1.2 2.2 1.2 3.8v.8h-8.2c0 1.6.4 2.8 1.1 3.6.7.8 1.7 1.2 3.1 1.2.7 0 1.2 0 1.7-.1s1.1-.3 1.9-.6v.9c-.6.3-1.2.5-1.8.6-.5.1-1.1.2-1.8.2zm-.3-10.9c-1.1 0-2 .4-2.6 1.1-.7.7-1.1 1.8-1.2 3.1h7c0-1.3-.3-2.4-.9-3.1-.5-.8-1.3-1.1-2.3-1.1zm21.7 10.7v-7.5c0-1.1-.2-1.9-.7-2.4-.4-.5-1.1-.8-2-.8-1.2 0-2 .3-2.6 1s-.8 1.7-.8 3v6.7h-1.1v-7.8c0-1.9-.9-2.9-2.6-2.9-1.2 0-2.1.3-2.6 1s-.8 1.8-.8 3.3v6.3h-1v-11.4h.9l.2 1.6h.1c.3-.6.8-1 1.3-1.3.6-.3 1.2-.5 1.9-.5 1.8 0 3 .7 3.5 2 .4-.7.9-1.1 1.5-1.5.6-.3 1.3-.5 2.1-.5 1.2 0 2.2.3 2.8 1s.9 1.7.9 3.2v7.5h-1zm2.9-11.4h1.1l2.4 6.4c.7 2 1.2 3.3 1.4 4h.1c.3-.9.8-2.2 1.4-4l2.4-6.3h1.1l-5.1 13.2c-.4 1.1-.8 1.8-1 2.2-.3.4-.6.7-1 .8-.4.2-.8.3-1.4.3-.4 0-.8-.1-1.3-.2v-.9c.4.1.8.2 1.3.2.4 0 .7-.1.9-.3.3-.2.5-.4.7-.8.2-.4.5-.9.8-1.7.3-.8.5-1.3.6-1.5l-4.4-11.4zm24.3 11.4l-5.7-14.2h-.1c.1.9.1 1.8.1 2.7v11.5h-1v-15.3h1.7l5.4 13.5h.1l5.4-13.5h1.6v15.3h-1.1v-11.6c0-.8 0-1.6.1-2.5h-.1l-5.7 14.1h-.7zm18.5 0l-.3-1.8h-.1c-.6.7-1.2 1.3-1.8 1.6-.6.3-1.3.5-2.1.5-1.1 0-2-.3-2.6-.9-.6-.6-.9-1.4-.9-2.4 0-1.1.5-2 1.4-2.6.9-.6 2.3-.9 4-1l2.2-.1v-.8c0-1.1-.2-1.9-.7-2.5-.4-.6-1.2-.8-2.1-.8-1.1 0-2.2.3-3.3.9l-.4-.9c1.3-.6 2.5-.9 3.7-.9 1.3 0 2.2.3 2.8 1s.9 1.7.9 3v7.6h-.7zm-4.2-.8c1.2 0 2.2-.3 2.9-1 .7-.7 1.1-1.7 1.1-2.9v-1.1l-2 .1c-1.6.1-2.7.3-3.4.8-.7.4-1 1.1-1 2 0 .7.2 1.3.7 1.7.3.2.9.4 1.7.4zm16.6.8v-7.4c0-1.1-.2-2-.7-2.5-.5-.5-1.2-.8-2.2-.8-1.4 0-2.4.3-3 1s-.9 1.8-.9 3.4v6.3h-1v-11.4h.9l.2 1.6h.1c.7-1.2 2.1-1.8 4-1.8 2.6 0 3.9 1.4 3.9 4.2v7.5h-1.3zm12.6 0v-7.4c0-1.1-.2-2-.7-2.5-.5-.5-1.2-.8-2.2-.8-1.4 0-2.4.3-3 1s-.9 1.8-.9 3.4v6.3h-1v-11.4h.9l.2 1.6h.1c.7-1.2 2.1-1.8 4-1.8 2.6 0 3.9 1.4 3.9 4.2v7.5h-1.3z" id="path15"/></g><g id="g17"><path vector-effect="non-scaling-stroke" class="st2" d="M471 200.9c0 1.3-.5 2.3-1.4 3-.9.7-2.2 1.1-3.7 1.1-1.9 0-3.3-.2-4.3-.6v-1.1c1.1.5 2.5.7 4.2.7 1.3 0 2.3-.3 3-.9s1.1-1.3 1.1-2.3c0-.6-.1-1.1-.4-1.4-.2-.4-.6-.7-1.2-1-.6-.3-1.4-.7-2.4-1-1.6-.5-2.6-1.1-3.2-1.7s-.9-1.5-.9-2.5c0-1.1.4-2.1 1.3-2.8s2.1-1.1 3.5-1.1 2.8.3 4.1.8l-.4.9c-1.3-.5-2.5-.8-3.7-.8-1.1 0-2 .3-2.7.8-.7.5-1 1.2-1 2.1 0 .6.1 1 .3 1.4.2.4.5.7 1 1s1.3.6 2.4 1c1.2.4 2.1.8 2.7 1.2.6.4 1 .8 1.3 1.3.3.6.4 1.2.4 1.9zm6 3.2c.7 0 1.2-.1 1.7-.2v.8c-.5.2-1.1.3-1.7.3-1 0-1.8-.3-2.2-.8-.5-.5-.7-1.4-.7-2.5v-7.4h-1.7v-.6l1.7-.5.5-2.6h.5v2.8h3.3v.9h-3.3v7.2c0 .9.2 1.5.5 1.9.3.5.8.7 1.4.7zm11.1.7l-.3-1.8h-.1c-.6.7-1.2 1.3-1.8 1.6-.6.3-1.3.5-2.1.5-1.1 0-2-.3-2.6-.9-.6-.6-.9-1.4-.9-2.4 0-1.1.5-2 1.4-2.6.9-.6 2.3-.9 4-1l2.2-.1v-.8c0-1.1-.2-1.9-.7-2.5-.4-.6-1.2-.8-2.1-.8-1.1 0-2.2.3-3.3.9l-.4-.9c1.3-.6 2.5-.9 3.7-.9 1.3 0 2.2.3 2.8 1s.9 1.7.9 3v7.6h-.7zm-4.2-.7c1.2 0 2.2-.3 2.9-1 .7-.7 1.1-1.7 1.1-2.9V199l-2 .1c-1.6.1-2.7.3-3.4.8-.7.4-1 1.1-1 2 0 .7.2 1.3.7 1.7.3.3.9.5 1.7.5zm13.2-10.9c.5 0 1 0 1.6.1l-.2 1c-.5-.1-1-.2-1.5-.2-1 0-1.8.4-2.4 1.2s-.9 1.9-.9 3.1v6.3h-1v-11.4h.9l.1 2.1h.1c.5-.8 1-1.4 1.5-1.8.4-.2 1-.4 1.8-.4zm21.9 11.6h-.9l-3.4-11.8c-.3-1-.5-1.8-.6-2.4-.1.6-.3 1.3-.5 2.1s-1.3 4.8-3.4 12.1h-.9l-4.2-15.3h1.1l2.7 9.9c.1.4.2.8.3 1.1s.2.7.2 1c.1.3.1.6.2.9s.1.6.2.8c.2-1 .5-2.4 1.1-4.3l2.6-9.3h1.2l3.1 10.7c.4 1.2.6 2.2.8 3 .1-.5.2-1 .4-1.6.1-.6 1.2-4.6 3.2-12.1h1.1l-4.3 15.2zm13.6 0l-.3-1.8h-.1c-.6.7-1.2 1.3-1.8 1.6-.6.3-1.3.5-2.1.5-1.1 0-2-.3-2.6-.9-.6-.6-.9-1.4-.9-2.4 0-1.1.5-2 1.4-2.6.9-.6 2.3-.9 4-1l2.2-.1v-.8c0-1.1-.2-1.9-.7-2.5-.4-.6-1.2-.8-2.1-.8-1.1 0-2.2.3-3.3.9l-.4-.9c1.3-.6 2.5-.9 3.7-.9 1.3 0 2.2.3 2.8 1s.9 1.7.9 3v7.6h-.7zm-4.2-.7c1.2 0 2.2-.3 2.9-1 .7-.7 1.1-1.7 1.1-2.9V199l-2 .1c-1.6.1-2.7.3-3.4.8-.7.4-1 1.1-1 2 0 .7.2 1.3.7 1.7.3.3.9.5 1.7.5zm13.2-10.9c.5 0 1 0 1.6.1l-.2 1c-.5-.1-1-.2-1.5-.2-1 0-1.8.4-2.4 1.2s-.9 1.9-.9 3.1v6.3h-1v-11.4h.9l.1 2.1h.1c.5-.8 1-1.4 1.5-1.8.4-.2 1-.4 1.8-.4zm10.9 8.6c0 1-.4 1.8-1.2 2.4s-1.9.8-3.3.8c-1.5 0-2.7-.2-3.6-.7v-1.1c1.1.6 2.4.9 3.6.9 1.1 0 2-.2 2.6-.6.6-.4.9-.9.9-1.5s-.2-1.1-.7-1.4-1.2-.8-2.3-1.2c-1.1-.4-1.9-.8-2.4-1.1-.5-.3-.8-.6-1-1s-.4-.8-.4-1.4c0-.9.4-1.5 1.1-2s1.7-.7 3-.7c1.2 0 2.4.2 3.5.7l-.4.9c-1.1-.5-2.2-.7-3.1-.7-.9 0-1.7.2-2.2.5-.5.3-.8.7-.8 1.3 0 .6.2 1.1.6 1.4s1.3.8 2.5 1.2c1 .4 1.8.7 2.2 1 .5.3.8.6 1.1 1 .2.4.3.8.3 1.3z" id="path19"/></g><g id="g21"><path vector-effect="non-scaling-stroke" class="st2" d="M675.6 117.6c-1.9 0-3.4.6-4.5 1.8-1.1 1.2-1.7 2.9-1.7 5.1 0 2.2.5 3.9 1.6 5.1s2.5 1.8 4.5 1.8c1.3 0 2.5-.2 3.5-.5v.9c-1 .4-2.3.5-3.8.5-2.2 0-3.8-.7-5.1-2.1-1.2-1.4-1.9-3.3-1.9-5.8 0-1.6.3-2.9.9-4.1.6-1.2 1.4-2.1 2.5-2.8 1.1-.6 2.4-1 3.9-1s2.8.3 4 .8l-.4 1c-1.1-.4-2.3-.7-3.5-.7zm14.5 14.6v-7.4c0-1.1-.2-2-.7-2.5-.5-.5-1.2-.8-2.2-.8-1.4 0-2.4.3-3 1s-.9 1.8-.9 3.4v6.3h-1v-16.3h1v5.2l-.1 1.5h.1c.4-.7 1-1.2 1.6-1.5s1.5-.5 2.4-.5c2.6 0 3.9 1.4 3.9 4.2v7.5h-1.1zm9.2-11.7c.5 0 1 0 1.6.1l-.2 1c-.5-.1-1-.2-1.5-.2-1 0-1.8.4-2.4 1.2s-.9 1.9-.9 3.1v6.3h-1v-11.4h.9l.1 2.1h.1c.5-.8 1-1.4 1.5-1.8.4-.2 1-.4 1.8-.4zm3.7-2.9c0-.7.2-1 .7-1 .2 0 .4.1.5.3s.2.4.2.7c0 .3-.1.6-.2.7s-.3.3-.5.3c-.5 0-.7-.3-.7-1zm1.2 14.6h-1v-11.4h1v11.4zm10.9-3c0 1-.4 1.8-1.2 2.4s-1.9.8-3.3.8c-1.5 0-2.7-.2-3.6-.7v-1.1c1.1.6 2.4.9 3.6.9 1.1 0 2-.2 2.6-.6.6-.4.9-.9.9-1.5s-.2-1.1-.7-1.4-1.2-.8-2.3-1.2c-1.1-.4-1.9-.8-2.4-1.1-.5-.3-.8-.6-1-1s-.4-.8-.4-1.4c0-.9.4-1.5 1.1-2s1.7-.7 3-.7c1.2 0 2.4.2 3.5.7l-.4.9c-1.1-.5-2.2-.7-3.1-.7-.9 0-1.7.2-2.2.5-.5.3-.8.7-.8 1.3 0 .6.2 1.1.6 1.4s1.3.8 2.5 1.2c1 .4 1.8.7 2.2 1 .5.3.8.6 1.1 1 .2.3.3.8.3 1.3zm5.9 2.3c.7 0 1.2-.1 1.7-.2v.8c-.5.2-1.1.3-1.7.3-1 0-1.8-.3-2.2-.8-.5-.5-.7-1.4-.7-2.5v-7.4h-1.7v-.6l1.7-.5.5-2.6h.5v2.8h3.3v.9h-3.3v7.2c0 .9.2 1.5.5 1.9.3.4.8.7 1.4.7zm13.6-5c0 1.9-.5 3.3-1.4 4.4-.9 1-2.1 1.6-3.7 1.6-1 0-1.9-.2-2.6-.7-.8-.5-1.3-1.2-1.8-2.1s-.6-1.9-.6-3.1c0-1.9.5-3.3 1.4-4.3.9-1 2.1-1.6 3.7-1.6s2.8.5 3.7 1.6 1.3 2.3 1.3 4.2zm-9 0c0 1.6.3 2.8 1 3.7.7.9 1.7 1.3 2.9 1.3s2.2-.4 2.9-1.3c.7-.9 1-2.1 1-3.7s-.3-2.8-1-3.7c-.7-.9-1.7-1.3-2.9-1.3s-2.2.4-2.9 1.3c-.6.9-1 2.1-1 3.7zm17.1 5.9c-1.8 0-3-.7-3.8-2h-.1v6.9h-1v-16.6h.9l.2 1.6h.1c.8-1.2 2-1.8 3.8-1.8 1.5 0 2.7.5 3.5 1.5.8 1 1.2 2.5 1.2 4.4 0 1.9-.4 3.3-1.3 4.4-.9 1.1-2.1 1.6-3.5 1.6zm0-.9c1.2 0 2.1-.4 2.7-1.3s1-2.1 1-3.6c0-3.3-1.2-5-3.6-5-1.3 0-2.3.4-2.9 1.1-.6.7-.9 1.9-.9 3.6v.3c0 1.8.3 3.1.9 3.8.4.7 1.4 1.1 2.8 1.1zm15.8.7v-7.4c0-1.1-.2-2-.7-2.5-.5-.5-1.2-.8-2.2-.8-1.4 0-2.4.3-3 1s-.9 1.8-.9 3.4v6.3h-1v-16.3h1v5.2l-.1 1.5h.1c.4-.7 1-1.2 1.6-1.5s1.5-.5 2.4-.5c2.6 0 3.9 1.4 3.9 4.2v7.5h-1.1zm9.4.2c-1.7 0-2.9-.5-3.9-1.5-.9-1-1.4-2.5-1.4-4.3 0-1.8.4-3.3 1.3-4.4.9-1.1 2.1-1.6 3.6-1.6 1.3 0 2.4.5 3.2 1.4.8.9 1.2 2.2 1.2 3.8v.8h-8.2c0 1.6.4 2.8 1.1 3.6.7.8 1.7 1.2 3.1 1.2.7 0 1.2 0 1.7-.1s1.1-.3 1.9-.6v.9c-.6.3-1.2.5-1.8.6-.6.1-1.2.2-1.8.2zm-.3-10.9c-1.1 0-2 .4-2.6 1.1-.7.7-1.1 1.8-1.2 3.1h7c0-1.3-.3-2.4-.9-3.1-.5-.8-1.3-1.1-2.3-1.1zm11.9-1c.5 0 1 0 1.6.1l-.2 1c-.5-.1-1-.2-1.5-.2-1 0-1.8.4-2.4 1.2s-.9 1.9-.9 3.1v6.3h-1v-11.4h.9l.1 2.1h.1c.5-.8 1-1.4 1.5-1.8.4-.2 1.1-.4 1.8-.4zm20.9 11.7h-1.1l-9.1-13.6h-.1c.1 1.6.1 2.8.1 3.7v9.9h-1v-15.3h1.1l9.1 13.6h.1c-.1-1.3-.1-2.5-.1-3.6v-10h1v15.3zm13.5-5.7c0 1.9-.5 3.3-1.4 4.4-.9 1-2.1 1.6-3.7 1.6-1 0-1.9-.2-2.6-.7-.8-.5-1.3-1.2-1.8-2.1s-.6-1.9-.6-3.1c0-1.9.5-3.3 1.4-4.3.9-1 2.1-1.6 3.7-1.6s2.8.5 3.7 1.6 1.3 2.3 1.3 4.2zm-9 0c0 1.6.3 2.8 1 3.7.7.9 1.7 1.3 2.9 1.3s2.2-.4 2.9-1.3c.7-.9 1-2.1 1-3.7s-.3-2.8-1-3.7c-.7-.9-1.7-1.3-2.9-1.3s-2.2.4-2.9 1.3c-.7.9-1 2.1-1 3.7zm13.2 5.7h-1v-16.3h1v16.3zm10.7 0l-.3-1.8h-.1c-.6.7-1.2 1.3-1.8 1.6-.6.3-1.3.5-2.1.5-1.1 0-2-.3-2.6-.9-.6-.6-.9-1.4-.9-2.4 0-1.1.5-2 1.4-2.6.9-.6 2.3-.9 4-1l2.2-.1v-.8c0-1.1-.2-1.9-.7-2.5-.4-.6-1.2-.8-2.1-.8-1.1 0-2.2.3-3.3.9l-.4-.9c1.3-.6 2.5-.9 3.7-.9 1.3 0 2.2.3 2.8 1s.9 1.7.9 3v7.6h-.7zm-4.2-.8c1.2 0 2.2-.3 2.9-1 .7-.7 1.1-1.7 1.1-2.9v-1.1l-2 .1c-1.6.1-2.7.3-3.4.8-.7.4-1 1.1-1 2 0 .7.2 1.3.7 1.7.3.2.9.4 1.7.4zm16.6.8v-7.4c0-1.1-.2-2-.7-2.5-.5-.5-1.2-.8-2.2-.8-1.4 0-2.4.3-3 1s-.9 1.8-.9 3.4v6.3h-1v-11.4h.9l.2 1.6h.1c.7-1.2 2.1-1.8 4-1.8 2.6 0 3.9 1.4 3.9 4.2v7.5h-1.3z" id="path23"/></g><g id="g25"><path vector-effect="non-scaling-stroke" class="st2" d="M702 208.7h-8.4v-15.3h8.4v1h-7.3v5.8h6.9v1h-6.9v6.6h7.3v.9zm17.4 0v-7.5c0-1.1-.2-1.9-.7-2.4-.4-.5-1.1-.8-2-.8-1.2 0-2 .3-2.6 1s-.8 1.7-.8 3v6.7h-1.1v-7.8c0-1.9-.9-2.9-2.6-2.9-1.2 0-2.1.3-2.6 1s-.8 1.8-.8 3.3v6.3h-1v-11.4h.9l.2 1.6h.1c.3-.6.8-1 1.3-1.3.6-.3 1.2-.5 1.9-.5 1.8 0 3 .7 3.5 2 .4-.7.9-1.1 1.5-1.5.6-.3 1.3-.5 2.1-.5 1.2 0 2.2.3 2.8 1s.9 1.7.9 3.2v7.5h-1zm9.6.2c-1.8 0-3-.7-3.8-2h-.1v6.9h-1v-16.6h.9l.2 1.6h.1c.8-1.2 2-1.8 3.8-1.8 1.5 0 2.7.5 3.5 1.5.8 1 1.2 2.5 1.2 4.4 0 1.9-.4 3.3-1.3 4.4-.8 1.1-2 1.6-3.5 1.6zm0-.9c1.2 0 2.1-.4 2.7-1.3s1-2.1 1-3.6c0-3.3-1.2-5-3.6-5-1.3 0-2.3.4-2.9 1.1-.6.7-.9 1.9-.9 3.6v.3c0 1.8.3 3.1.9 3.8.5.7 1.5 1.1 2.8 1.1zm7.8-13.9c0-.7.2-1 .7-1 .2 0 .4.1.5.3s.2.4.2.7c0 .3-.1.6-.2.7s-.3.3-.5.3c-.5 0-.7-.3-.7-1zm1.2 14.6h-1v-11.4h1v11.4zm8.3-11.6c.5 0 1 0 1.6.1l-.2 1c-.5-.1-1-.2-1.5-.2-1 0-1.8.4-2.4 1.2s-.9 1.9-.9 3.1v6.3h-1v-11.4h.9l.1 2.1h.1c.5-.8 1-1.4 1.5-1.8.4-.3 1-.4 1.8-.4zm8.5 11.8c-1.7 0-2.9-.5-3.9-1.5-.9-1-1.4-2.5-1.4-4.3 0-1.8.4-3.3 1.3-4.4.9-1.1 2.1-1.6 3.6-1.6 1.3 0 2.4.5 3.2 1.4.8.9 1.2 2.2 1.2 3.8v.8h-8.2c0 1.6.4 2.8 1.1 3.6.7.8 1.7 1.2 3.1 1.2.7 0 1.2 0 1.7-.1s1.1-.3 1.9-.6v.9c-.6.3-1.2.5-1.8.6-.6.1-1.2.2-1.8.2zm-.3-10.9c-1.1 0-2 .4-2.6 1.1-.7.7-1.1 1.8-1.2 3.1h7c0-1.3-.3-2.4-.9-3.1-.5-.8-1.3-1.1-2.3-1.1zm21.8 6.7c0 1.3-.5 2.3-1.4 3-.9.7-2.2 1.1-3.7 1.1-1.9 0-3.3-.2-4.3-.6v-1.1c1.1.5 2.5.7 4.2.7 1.3 0 2.3-.3 3-.9s1.1-1.3 1.1-2.3c0-.6-.1-1.1-.4-1.4-.2-.4-.6-.7-1.2-1-.6-.3-1.4-.7-2.4-1-1.6-.5-2.6-1.1-3.2-1.7s-.9-1.5-.9-2.5c0-1.1.4-2.1 1.3-2.8s2.1-1.1 3.5-1.1 2.8.3 4.1.8l-.4.9c-1.3-.5-2.5-.8-3.7-.8-1.1 0-2 .3-2.7.8-.7.5-1 1.2-1 2.1 0 .6.1 1 .3 1.4.2.4.5.7 1 1s1.3.6 2.4 1c1.2.4 2.1.8 2.7 1.2.6.4 1 .8 1.3 1.3.2.6.4 1.2.4 1.9zm6 3.3c.7 0 1.2-.1 1.7-.2v.8c-.5.2-1.1.3-1.7.3-1 0-1.8-.3-2.2-.8-.5-.5-.7-1.4-.7-2.5v-7.4h-1.7v-.6l1.7-.5.5-2.6h.5v2.8h3.3v.9h-3.3v7.2c0 .9.2 1.5.5 1.9.2.5.7.7 1.4.7zm11.1.7l-.3-1.8h-.1c-.6.7-1.2 1.3-1.8 1.6-.6.3-1.3.5-2.1.5-1.1 0-2-.3-2.6-.9-.6-.6-.9-1.4-.9-2.4 0-1.1.5-2 1.4-2.6.9-.6 2.3-.9 4-1l2.2-.1v-.8c0-1.1-.2-1.9-.7-2.5-.4-.6-1.2-.8-2.1-.8-1.1 0-2.2.3-3.3.9l-.4-.9c1.3-.6 2.5-.9 3.7-.9 1.3 0 2.2.3 2.8 1s.9 1.7.9 3v7.6h-.7zm-4.2-.8c1.2 0 2.2-.3 2.9-1 .7-.7 1.1-1.7 1.1-2.9v-1.1l-2 .1c-1.6.1-2.7.3-3.4.8-.7.4-1 1.1-1 2 0 .7.2 1.3.7 1.7.3.2.9.4 1.7.4zm11.6.1c.7 0 1.2-.1 1.7-.2v.8c-.5.2-1.1.3-1.7.3-1 0-1.8-.3-2.2-.8-.5-.5-.7-1.4-.7-2.5v-7.4h-1.7v-.6l1.7-.5.5-2.6h.5v2.8h3.3v.9h-3.3v7.2c0 .9.2 1.5.5 1.9.3.5.8.7 1.4.7zm8.8.9c-1.7 0-2.9-.5-3.9-1.5-.9-1-1.4-2.5-1.4-4.3 0-1.8.4-3.3 1.3-4.4.9-1.1 2.1-1.6 3.6-1.6 1.3 0 2.4.5 3.2 1.4.8.9 1.2 2.2 1.2 3.8v.8h-8.2c0 1.6.4 2.8 1.1 3.6.7.8 1.7 1.2 3.1 1.2.7 0 1.2 0 1.7-.1s1.1-.3 1.9-.6v.9c-.6.3-1.2.5-1.8.6-.5.1-1.1.2-1.8.2zm-.3-10.9c-1.1 0-2 .4-2.6 1.1-.7.7-1.1 1.8-1.2 3.1h7c0-1.3-.3-2.4-.9-3.1-.5-.8-1.3-1.1-2.3-1.1zm13.3-4.7h4.2c1.9 0 3.3.3 4.2 1 .9.6 1.3 1.6 1.3 2.9 0 .9-.3 1.6-.8 2.2s-1.3 1-2.4 1.1v.1c1.2.2 2.1.6 2.7 1.2.6.6.9 1.4.9 2.5 0 1.4-.5 2.5-1.4 3.3-.9.8-2.3 1.1-4 1.1h-4.7v-15.4zm1.1 6.9h3.4c1.4 0 2.5-.2 3.1-.7.7-.5 1-1.2 1-2.3 0-1-.4-1.8-1.1-2.2-.7-.5-1.8-.7-3.3-.7h-3.1v5.9zm0 .9v6.6h3.6c2.8 0 4.3-1.2 4.3-3.5 0-2.1-1.5-3.2-4.5-3.2h-3.4zm13.1-3.8v7.4c0 1.1.2 2 .7 2.5s1.2.8 2.2.8c1.4 0 2.4-.3 3-1 .6-.7 1-1.8 1-3.3v-6.3h1v11.4h-.9l-.2-1.6h-.1c-.7 1.2-2.1 1.8-4 1.8-2.6 0-3.9-1.4-3.9-4.2v-7.4h1.2zm11.6-3.2c0-.7.2-1 .7-1 .2 0 .4.1.5.3s.2.4.2.7c0 .3-.1.6-.2.7s-.3.3-.5.3c-.5 0-.7-.3-.7-1zm1.2 14.6h-1v-11.4h1v11.4zm4.8 0h-1v-16.3h1v16.3zm8-11.6c.8 0 1.5.2 2.1.5.6.3 1.1.8 1.6 1.5h.1c0-.9-.1-1.7-.1-2.6v-4.1h1v16.3h-.7l-.3-1.7h-.1c-.9 1.3-2.1 2-3.7 2s-2.8-.5-3.6-1.5c-.8-1-1.2-2.4-1.2-4.3 0-2 .4-3.5 1.2-4.5.9-1.1 2.1-1.6 3.7-1.6zm0 .9c-1.2 0-2.2.4-2.8 1.3-.6.9-.9 2.1-.9 3.8 0 3.2 1.3 4.8 3.8 4.8 1.3 0 2.2-.4 2.8-1.1.6-.7.9-2 .9-3.7v-.1c0-1.8-.3-3-.9-3.8s-1.6-1.2-2.9-1.2zm8.5-3.9c0-.7.2-1 .7-1 .2 0 .4.1.5.3s.2.4.2.7c0 .3-.1.6-.2.7s-.3.3-.5.3c-.5 0-.7-.3-.7-1zm1.2 14.6h-1v-11.4h1v11.4zm11.7 0v-7.4c0-1.1-.2-2-.7-2.5-.5-.5-1.2-.8-2.2-.8-1.4 0-2.4.3-3 1s-.9 1.8-.9 3.4v6.3h-1v-11.4h.9l.2 1.6h.1c.7-1.2 2.1-1.8 4-1.8 2.6 0 3.9 1.4 3.9 4.2v7.5h-1.3zm13.6-11.4v.7l-2.4.1c.6.8.9 1.6.9 2.6 0 1.1-.4 2-1.1 2.7-.7.7-1.7 1-2.9 1-.5 0-.9 0-1.1-.1-.4.2-.7.5-.9.8s-.3.6-.3.9c0 .4.1.6.4.8s.7.3 1.4.3h2c1.2 0 2.2.3 2.8.8s1 1.2 1 2.2c0 1.2-.5 2.1-1.5 2.8-1 .7-2.4 1-4.2 1-1.4 0-2.5-.3-3.3-.8-.8-.6-1.2-1.3-1.2-2.3 0-.8.2-1.4.7-2 .5-.5 1.1-.9 2-1.1-.3-.1-.6-.4-.8-.6-.2-.3-.3-.6-.3-.9 0-.8.5-1.4 1.5-2-.7-.3-1.2-.7-1.6-1.3-.4-.6-.6-1.3-.6-2 0-1.1.4-2.1 1.1-2.7.7-.7 1.7-1 2.9-1 .7 0 1.3.1 1.7.2h3.8zm-9.2 13.3c0 1.6 1.2 2.3 3.5 2.3 3 0 4.5-1 4.5-2.9 0-.7-.2-1.2-.7-1.5s-1.2-.5-2.3-.5h-1.9c-2 .1-3.1 1-3.1 2.6zm.9-9.8c0 .9.3 1.6.8 2.1s1.3.7 2.1.7c1 0 1.7-.2 2.2-.7s.8-1.2.8-2.1c0-1-.3-1.7-.8-2.2-.5-.5-1.3-.7-2.2-.7-.9 0-1.6.3-2.1.8-.6.5-.8 1.2-.8 2.1z" id="path27"/></g><g id="g29"><path vector-effect="non-scaling-stroke" class="st2" d="M733.2 46.9h-1.1V31.5h8.4v1h-7.3V39h6.9v1h-6.9v6.9zm13.9-11.7c.5 0 1 0 1.6.1l-.2 1c-.5-.1-1-.2-1.5-.2-1 0-1.8.4-2.4 1.2s-.9 1.9-.9 3.1v6.3h-1V35.5h.9l.1 2.1h.1c.5-.8 1-1.4 1.5-1.8.4-.4 1.1-.6 1.8-.6zm10.8 11.7l-.3-1.8h-.1c-.6.7-1.2 1.3-1.8 1.6-.6.3-1.3.5-2.1.5-1.1 0-2-.3-2.6-.9-.6-.6-.9-1.4-.9-2.4 0-1.1.5-2 1.4-2.6.9-.6 2.3-.9 4-1l2.2-.1v-.8c0-1.1-.2-1.9-.7-2.5-.4-.6-1.2-.8-2.1-.8-1.1 0-2.2.3-3.3.9l-.4-.9c1.3-.6 2.5-.9 3.7-.9 1.3 0 2.2.3 2.8 1s.9 1.7.9 3v7.6h-.7zm-4.2-.8c1.2 0 2.2-.3 2.9-1 .7-.7 1.1-1.7 1.1-2.9v-1.1l-2 .1c-1.6.1-2.7.3-3.4.8-.7.4-1 1.1-1 2 0 .7.2 1.3.7 1.7.3.2.9.4 1.7.4zm16.6.8v-7.4c0-1.1-.2-2-.7-2.5-.5-.5-1.2-.8-2.2-.8-1.4 0-2.4.3-3 1s-.9 1.8-.9 3.4v6.3h-1V35.5h.9l.2 1.6h.1c.7-1.2 2.1-1.8 4-1.8 2.6 0 3.9 1.4 3.9 4.2V47h-1.3zm9.3.2c-1.6 0-2.9-.5-3.8-1.5s-1.4-2.5-1.4-4.3c0-1.9.5-3.4 1.4-4.4s2.3-1.6 3.9-1.6c1 0 1.9.2 2.8.5l-.3.9c-1-.3-1.8-.5-2.6-.5-1.4 0-2.5.4-3.2 1.3-.7.9-1.1 2.1-1.1 3.7 0 1.5.4 2.7 1.1 3.6.7.9 1.7 1.3 3 1.3 1 0 2-.2 2.9-.6v1c-.6.4-1.5.6-2.7.6zm1.1 2.8c0 .7-.2 1.2-.7 1.6-.5.4-1.1.5-2 .5-.5 0-.8 0-1-.1V51c.2.1.5.1 1 .1s1-.1 1.2-.3c.3-.2.4-.5.4-.8 0-.7-.7-1.1-2-1.3l1-1.8h1l-.7 1.2c1.2.2 1.8.9 1.8 1.8zm14-8.8c0 1.9-.5 3.3-1.4 4.4-.9 1-2.1 1.6-3.7 1.6-1 0-1.9-.2-2.6-.7-.8-.5-1.3-1.2-1.8-2.1s-.6-1.9-.6-3.1c0-1.9.5-3.3 1.4-4.3.9-1 2.1-1.6 3.7-1.6s2.8.5 3.7 1.6 1.3 2.4 1.3 4.2zm-9 0c0 1.6.3 2.8 1 3.7.7.9 1.7 1.3 2.9 1.3s2.2-.4 2.9-1.3c.7-.9 1-2.1 1-3.7s-.3-2.8-1-3.7c-.7-.9-1.7-1.3-2.9-1.3s-2.2.4-2.9 1.3c-.7.9-1 2.2-1 3.7zm12-8.8c0-.7.2-1 .7-1 .2 0 .4.1.5.3s.2.4.2.7c0 .3-.1.6-.2.7s-.3.3-.5.3c-.5 0-.7-.3-.7-1zm1.2 14.6h-1V35.5h1v11.4zm10.8-3c0 1-.4 1.8-1.2 2.4s-1.9.8-3.3.8c-1.5 0-2.7-.2-3.6-.7v-1.1c1.1.6 2.4.9 3.6.9 1.1 0 2-.2 2.6-.6.6-.4.9-.9.9-1.5s-.2-1.1-.7-1.4-1.2-.8-2.3-1.2c-1.1-.4-1.9-.8-2.4-1.1-.5-.3-.8-.6-1-1s-.4-.8-.4-1.4c0-.9.4-1.5 1.1-2s1.7-.7 3-.7c1.2 0 2.4.2 3.5.7l-.4.9c-1.1-.5-2.2-.7-3.1-.7-.9 0-1.7.2-2.2.5-.5.3-.8.7-.8 1.3 0 .6.2 1.1.6 1.4s1.3.8 2.5 1.2c1 .4 1.8.7 2.2 1 .5.3.8.6 1.1 1 .2.3.3.8.3 1.3zm7.6 3.2c-1.7 0-2.9-.5-3.9-1.5-.9-1-1.4-2.5-1.4-4.3 0-1.8.4-3.3 1.3-4.4.9-1.1 2.1-1.6 3.6-1.6 1.3 0 2.4.5 3.2 1.4.8.9 1.2 2.2 1.2 3.8v.8h-8.2c0 1.6.4 2.8 1.1 3.6.7.8 1.7 1.2 3.1 1.2.7 0 1.2 0 1.7-.1s1.1-.3 1.9-.6v.9c-.6.3-1.2.5-1.8.6-.6.1-1.2.2-1.8.2zm-.3-10.9c-1.1 0-2 .4-2.6 1.1-.7.7-1.1 1.8-1.2 3.1h7c0-1.3-.3-2.4-.9-3.1-.5-.8-1.3-1.1-2.3-1.1zm24.5 10.7h-1.1l-9.1-13.6h-.1c.1 1.6.1 2.8.1 3.7v9.9h-1V31.5h1.1l9.1 13.6h.1c-.1-1.3-.1-2.5-.1-3.6v-10h1v15.4zm3.9-14.6c0-.7.2-1 .7-1 .2 0 .4.1.5.3s.2.4.2.7c0 .3-.1.6-.2.7s-.3.3-.5.3c-.5 0-.7-.3-.7-1zm1.2 14.6h-1V35.5h1v11.4zm8.4.2c-1.7 0-2.9-.5-3.9-1.5-.9-1-1.4-2.5-1.4-4.3 0-1.8.4-3.3 1.3-4.4.9-1.1 2.1-1.6 3.6-1.6 1.3 0 2.4.5 3.2 1.4.8.9 1.2 2.2 1.2 3.8v.8h-8.2c0 1.6.4 2.8 1.1 3.6.7.8 1.7 1.2 3.1 1.2.7 0 1.2 0 1.7-.1s1.1-.3 1.9-.6v.9c-.6.3-1.2.5-1.8.6-.5.1-1.1.2-1.8.2zm-.3-10.9c-1.1 0-2 .4-2.6 1.1-.7.7-1.1 1.8-1.2 3.1h7c0-1.3-.3-2.4-.9-3.1-.5-.8-1.3-1.1-2.3-1.1zm8.5 10.7h-1V30.5h1v16.4zm4.9 0h-1V30.5h1v16.4zm1.9-11.4h1.1l2.4 6.4c.7 2 1.2 3.3 1.4 4h.1c.3-.9.8-2.2 1.4-4l2.4-6.3h1.1l-5.1 13.2c-.4 1.1-.8 1.8-1 2.2-.3.4-.6.7-1 .8-.4.2-.8.3-1.4.3-.4 0-.8-.1-1.3-.2V51c.4.1.8.2 1.3.2.4 0 .7-.1.9-.3s.5-.4.7-.8c.2-.4.5-.9.8-1.7.3-.8.5-1.3.6-1.5L870 35.5z" id="path31"/></g><g id="g33"><path vector-effect="non-scaling-stroke" class="st2" d="M632.3 305h-1.1l-9.1-13.6h-.1c.1 1.6.1 2.8.1 3.7v9.9h-1v-15.3h1.1l9.1 13.6h.1c-.1-1.3-.1-2.5-.1-3.6v-10h1V305zm3.9-14.6c0-.7.2-1 .7-1 .2 0 .4.1.5.3s.2.4.2.7c0 .3-.1.6-.2.7s-.3.3-.5.3c-.5 0-.7-.3-.7-1zm1.2 14.6h-1v-11.4h1V305zm8.4.2c-1.6 0-2.9-.5-3.8-1.5s-1.4-2.5-1.4-4.3c0-1.9.5-3.4 1.4-4.4s2.3-1.6 3.9-1.6c1 0 1.9.2 2.8.5l-.3.9c-1-.3-1.8-.5-2.6-.5-1.4 0-2.5.4-3.2 1.3-.7.9-1.1 2.1-1.1 3.7 0 1.5.4 2.7 1.1 3.6.7.9 1.7 1.3 3 1.3 1 0 2-.2 2.9-.6v1c-.6.4-1.6.6-2.7.6zm6.6-5.2l5.8-6.4h1.3l-4.5 4.9 4.9 6.5h-1.2l-4.3-5.8-1.9 1.7v4.1h-1v-16.3h1v8.2l-.1 3.1zm21.3-2.8h5.7v7c-1.5.6-3.2.9-5 .9-2.4 0-4.3-.7-5.6-2.1s-1.9-3.3-1.9-5.8c0-1.6.3-2.9 1-4.1s1.6-2.1 2.7-2.8 2.6-1 4.1-1c1.7 0 3.2.3 4.5.9l-.4 1c-1.3-.6-2.7-.9-4.1-.9-2 0-3.6.6-4.8 1.9-1.2 1.2-1.8 2.9-1.8 5 0 2.3.6 4 1.7 5.2s2.8 1.7 5 1.7c1.4 0 2.6-.2 3.6-.6v-5.4h-4.6v-.9zm13.8 8c-1.7 0-2.9-.5-3.9-1.5-.9-1-1.4-2.5-1.4-4.3 0-1.8.4-3.3 1.3-4.4.9-1.1 2.1-1.6 3.6-1.6 1.3 0 2.4.5 3.2 1.4.8.9 1.2 2.2 1.2 3.8v.8h-8.2c0 1.6.4 2.8 1.1 3.6.7.8 1.7 1.2 3.1 1.2.7 0 1.2 0 1.7-.1s1.1-.3 1.9-.6v.9c-.6.3-1.2.5-1.8.6-.5.1-1.1.2-1.8.2zm-.3-10.9c-1.1 0-2 .4-2.6 1.1-.7.7-1.1 1.8-1.2 3.1h7c0-1.3-.3-2.4-.9-3.1-.5-.8-1.3-1.1-2.3-1.1zm15.5 10.7v-7.4c0-1.1-.2-2-.7-2.5-.5-.5-1.2-.8-2.2-.8-1.4 0-2.4.3-3 1s-.9 1.8-.9 3.4v6.3h-1v-11.4h.9l.2 1.6h.1c.7-1.2 2.1-1.8 4-1.8 2.6 0 3.9 1.4 3.9 4.2v7.5h-1.3zm7.7-.8c.7 0 1.2-.1 1.7-.2v.8c-.5.2-1.1.3-1.7.3-1 0-1.8-.3-2.2-.8-.5-.5-.7-1.4-.7-2.5v-7.4h-1.7v-.6l1.7-.5.5-2.6h.5v2.8h3.3v.9h-3.3v7.2c0 .9.2 1.5.5 1.9.3.5.7.7 1.4.7zm8.7-10.9c.5 0 1 0 1.6.1l-.2 1c-.5-.1-1-.2-1.5-.2-1 0-1.8.4-2.4 1.2s-.9 1.9-.9 3.1v6.3h-1v-11.4h.9l.1 2.1h.1c.5-.8 1-1.4 1.5-1.8.4-.2 1-.4 1.8-.4zm1.9.3h1.1l2.4 6.4c.7 2 1.2 3.3 1.4 4h.1c.3-.9.8-2.2 1.4-4l2.4-6.3h1.1l-5.1 13.2c-.4 1.1-.8 1.8-1 2.2-.3.4-.6.7-1 .8-.4.2-.8.3-1.4.3-.4 0-.8-.1-1.3-.2v-1c.4.1.8.2 1.3.2.4 0 .7-.1.9-.3s.5-.4.7-.8c.2-.4.5-.9.8-1.7.3-.8.5-1.3.6-1.5l-4.4-11.3z" id="path35"/></g><g id="g37"><path vector-effect="non-scaling-stroke" class="st2" d="M419.3 89.3h-10.7v-.8l9-13.5H409v-1h10v.8l-9 13.5h9.2v1zm9.7 0l-.3-1.8h-.1c-.6.7-1.2 1.3-1.8 1.6-.6.3-1.3.5-2.1.5-1.1 0-2-.3-2.6-.9-.6-.6-.9-1.4-.9-2.4 0-1.1.5-2 1.4-2.6.9-.6 2.3-.9 4-1l2.2-.1v-.8c0-1.1-.2-1.9-.7-2.5-.4-.6-1.2-.8-2.1-.8-1.1 0-2.2.3-3.3.9l-.4-.9c1.3-.6 2.5-.9 3.7-.9 1.3 0 2.2.3 2.8 1s.9 1.7.9 3v7.6h-.7zm-4.2-.7c1.2 0 2.2-.3 2.9-1 .7-.7 1.1-1.7 1.1-2.9v-1.1l-2 .1c-1.6.1-2.7.3-3.4.8-.7.4-1 1.1-1 2 0 .7.2 1.3.7 1.7.3.2.9.4 1.7.4zm16.6.7v-7.4c0-1.1-.2-2-.7-2.5-.5-.5-1.2-.8-2.2-.8-1.4 0-2.4.3-3 1s-.9 1.8-.9 3.4v6.3h-1V73h1v5.2l-.1 1.5h.1c.4-.7 1-1.2 1.6-1.5s1.5-.5 2.4-.5c2.6 0 3.9 1.4 3.9 4.2v7.5h-1.1zm11.6 0l-.3-1.8h-.1c-.6.7-1.2 1.3-1.8 1.6-.6.3-1.3.5-2.1.5-1.1 0-2-.3-2.6-.9-.6-.6-.9-1.4-.9-2.4 0-1.1.5-2 1.4-2.6.9-.6 2.3-.9 4-1l2.2-.1v-.8c0-1.1-.2-1.9-.7-2.5-.4-.6-1.2-.8-2.1-.8-1.1 0-2.2.3-3.3.9l-.4-.9c1.3-.6 2.5-.9 3.7-.9 1.3 0 2.2.3 2.8 1s.9 1.7.9 3v7.6h-.7zm-4.2-.7c1.2 0 2.2-.3 2.9-1 .7-.7 1.1-1.7 1.1-2.9v-1.1l-2 .1c-1.6.1-2.7.3-3.4.8-.7.4-1 1.1-1 2 0 .7.2 1.3.7 1.7.3.2 1 .4 1.7.4zm25.7.7h-1.1v-7.5h-9v7.5h-1.1V74h1.1v6.8h9V74h1.1v15.3zm11 0l-.3-1.8h-.1c-.6.7-1.2 1.3-1.8 1.6-.6.3-1.3.5-2.1.5-1.1 0-2-.3-2.6-.9-.6-.6-.9-1.4-.9-2.4 0-1.1.5-2 1.4-2.6.9-.6 2.3-.9 4-1l2.2-.1v-.8c0-1.1-.2-1.9-.7-2.5-.4-.6-1.2-.8-2.1-.8-1.1 0-2.2.3-3.3.9l-.4-.9c1.3-.6 2.5-.9 3.7-.9 1.3 0 2.2.3 2.8 1s.9 1.7.9 3v7.6h-.7zm-4.2-.7c1.2 0 2.2-.3 2.9-1 .7-.7 1.1-1.7 1.1-2.9v-1.1l-2 .1c-1.6.1-2.7.3-3.4.8-.7.4-1 1.1-1 2 0 .7.2 1.3.7 1.7.2.2.9.4 1.7.4zm12.8-10.9c.8 0 1.5.2 2.1.5.6.3 1.1.8 1.6 1.5h.1c0-.9-.1-1.7-.1-2.6V73h1v16.3h-.7l-.3-1.7h-.1c-.9 1.3-2.1 2-3.7 2s-2.8-.5-3.6-1.5c-.8-1-1.2-2.4-1.2-4.3 0-2 .4-3.5 1.2-4.5.9-1.1 2.1-1.6 3.7-1.6zm0 1c-1.2 0-2.2.4-2.8 1.3-.6.9-.9 2.1-.9 3.8 0 3.2 1.3 4.8 3.8 4.8 1.3 0 2.2-.4 2.8-1.1.6-.7.9-2 .9-3.7v-.2c0-1.8-.3-3-.9-3.8s-1.6-1.1-2.9-1.1zm8.5-3.9c0-.7.2-1 .7-1 .2 0 .4.1.5.3s.2.4.2.7c0 .3-.1.6-.2.7s-.3.3-.5.3c-.5 0-.7-.4-.7-1zm1.1 14.5h-1V77.9h1v11.4zm8-11.6c.8 0 1.5.2 2.1.5.6.3 1.1.8 1.6 1.5h.1c0-.9-.1-1.7-.1-2.6V73h1v16.3h-.7l-.3-1.7h-.1c-.9 1.3-2.1 2-3.7 2s-2.8-.5-3.6-1.5c-.8-1-1.2-2.4-1.2-4.3 0-2 .4-3.5 1.2-4.5 1-1.1 2.2-1.6 3.7-1.6zm0 1c-1.2 0-2.2.4-2.8 1.3-.6.9-.9 2.1-.9 3.8 0 3.2 1.3 4.8 3.8 4.8 1.3 0 2.2-.4 2.8-1.1.6-.7.9-2 .9-3.7v-.2c0-1.8-.3-3-.9-3.8s-1.5-1.1-2.9-1.1z" id="path39"/></g><g id="g41"><path vector-effect="non-scaling-stroke" class="st2" d="M515.2 32.2H509l-2.1 5.4h-1.2l6.2-15.4h.7l6 15.4h-1.2l-2.2-5.4zm-5.8-1h5.5l-2.1-5.5c-.2-.4-.4-1-.6-1.8-.2.7-.4 1.3-.6 1.8l-2.2 5.5zM525 26c.5 0 1 0 1.6.1l-.2 1c-.5-.1-1-.2-1.5-.2-1 0-1.8.4-2.4 1.2s-.9 1.9-.9 3.1v6.3h-1V26.2h.9l.1 2.1h.1c.5-.8 1-1.4 1.5-1.8.4-.4 1-.5 1.8-.5zm6.9 10.9c.7 0 1.2-.1 1.7-.2v.8c-.5.2-1.1.3-1.7.3-1 0-1.8-.3-2.2-.8-.5-.5-.7-1.4-.7-2.5v-7.4h-1.7v-.6l1.7-.5.5-2.6h.5v2.8h3.3v.9H530v7.2c0 .9.2 1.5.5 1.9.2.5.7.7 1.4.7zm3.2-4.7v-.9h5v.9h-5zm19.8-2.4c0 2.6-.7 4.5-2 5.8-1.3 1.3-3.3 2-5.9 2h-3.7V22.2h4.1c2.4 0 4.3.6 5.6 1.9 1.2 1.3 1.9 3.2 1.9 5.7zm-1.2 0c0-2.2-.6-3.8-1.7-5s-2.8-1.7-4.9-1.7h-2.8v13.4h2.5c4.6.1 6.9-2.1 6.9-6.7zm9 8c-1.7 0-2.9-.5-3.9-1.5-.9-1-1.4-2.5-1.4-4.3 0-1.8.4-3.3 1.3-4.4.9-1.1 2.1-1.6 3.6-1.6 1.3 0 2.4.5 3.2 1.4.8.9 1.2 2.2 1.2 3.8v.8h-8.2c0 1.6.4 2.8 1.1 3.6.7.8 1.7 1.2 3.1 1.2.7 0 1.2 0 1.7-.1s1.1-.3 1.9-.6v.9c-.6.3-1.2.5-1.8.6-.5.1-1.1.2-1.8.2zm-.3-10.9c-1.1 0-2 .4-2.6 1.1-.7.7-1.1 1.8-1.2 3.1h7c0-1.3-.3-2.4-.9-3.1-.5-.7-1.3-1.1-2.3-1.1zm12.1 10.9c-1.6 0-2.9-.5-3.8-1.5s-1.4-2.5-1.4-4.3c0-1.9.5-3.4 1.4-4.4s2.3-1.6 3.9-1.6c1 0 1.9.2 2.8.5l-.3.9c-1-.3-1.8-.5-2.6-.5-1.4 0-2.5.4-3.2 1.3-.7.9-1.1 2.1-1.1 3.7 0 1.5.4 2.7 1.1 3.6.7.9 1.7 1.3 3 1.3 1 0 2-.2 2.9-.6v1c-.6.4-1.6.6-2.7.6zm15-5.9c0 1.9-.5 3.3-1.4 4.4-.9 1-2.1 1.6-3.7 1.6-1 0-1.9-.2-2.6-.7-.8-.5-1.3-1.2-1.8-2.1s-.6-1.9-.6-3.1c0-1.9.5-3.3 1.4-4.3.9-1 2.1-1.6 3.7-1.6s2.8.5 3.7 1.6 1.3 2.3 1.3 4.2zm-9 0c0 1.6.3 2.8 1 3.7.7.9 1.7 1.3 2.9 1.3s2.2-.4 2.9-1.3c.7-.9 1-2.1 1-3.7s-.3-2.8-1-3.7c-.7-.9-1.7-1.3-2.9-1.3s-2.2.4-2.9 1.3c-.6.9-1 2.1-1 3.7z" id="path43"/></g><path vector-effect="non-scaling-stroke" class="st0" d="M130.2 58.7L104.4 85l-2.1-42.4m486.5 95.7L561 167.8l-8.5-21.6zM207 209.5l41.5 6.7-18.3 16.2-23.2-22.9m423.7-129v29.4l-30-16.3z" id="path45"/><g id="g47"><path vector-effect="non-scaling-stroke" class="st2" d="M246.1 253.2H245v-14.3h-5v-1h11v1h-5v14.3zm13.9 0l-.3-1.8h-.1c-.6.7-1.2 1.3-1.8 1.6-.6.3-1.3.5-2.1.5-1.1 0-2-.3-2.6-.9-.6-.6-.9-1.4-.9-2.4 0-1.1.5-2 1.4-2.6.9-.6 2.3-.9 4-1l2.2-.1v-.8c0-1.1-.2-1.9-.7-2.5-.4-.6-1.2-.8-2.1-.8-1.1 0-2.2.3-3.3.9l-.4-.9c1.3-.6 2.5-.9 3.7-.9 1.3 0 2.2.3 2.8 1s.9 1.7.9 3v7.6h-.7zm-4.2-.7c1.2 0 2.2-.3 2.9-1 .7-.7 1.1-1.7 1.1-2.9v-1.1l-2 .1c-1.6.1-2.7.3-3.4.8-.7.4-1 1.1-1 2 0 .7.2 1.3.7 1.7.3.2.9.4 1.7.4zm13.1-10.9c.5 0 1 0 1.6.1l-.2 1c-.5-.1-1-.2-1.5-.2-1 0-1.8.4-2.4 1.2s-.9 1.9-.9 3.1v6.3h-1v-11.4h.9l.1 2.1h.1c.5-.8 1-1.4 1.5-1.8.4-.2 1.1-.4 1.8-.4zm10.8 11.6l-.3-1.8h-.1c-.6.7-1.2 1.3-1.8 1.6-.6.3-1.3.5-2.1.5-1.1 0-2-.3-2.6-.9-.6-.6-.9-1.4-.9-2.4 0-1.1.5-2 1.4-2.6.9-.6 2.3-.9 4-1l2.2-.1v-.8c0-1.1-.2-1.9-.7-2.5-.4-.6-1.2-.8-2.1-.8-1.1 0-2.2.3-3.3.9l-.4-.9c1.3-.6 2.5-.9 3.7-.9 1.3 0 2.2.3 2.8 1s.9 1.7.9 3v7.6h-.7zm-4.2-.7c1.2 0 2.2-.3 2.9-1 .7-.7 1.1-1.7 1.1-2.9v-1.1l-2 .1c-1.6.1-2.7.3-3.4.8-.7.4-1 1.1-1 2 0 .7.2 1.3.7 1.7.3.2.9.4 1.7.4zm16.6.7v-7.4c0-1.1-.2-2-.7-2.5-.5-.5-1.2-.8-2.2-.8-1.4 0-2.4.3-3 1s-.9 1.8-.9 3.4v6.3h-1v-11.4h.9l.2 1.6h.1c.7-1.2 2.1-1.8 4-1.8 2.6 0 3.9 1.4 3.9 4.2v7.5h-1.3zm7.8-.7c.7 0 1.2-.1 1.7-.2v.8c-.5.2-1.1.3-1.7.3-1 0-1.8-.3-2.2-.8-.5-.5-.7-1.4-.7-2.5v-7.4h-1.7v-.6l1.7-.5.5-2.6h.5v2.8h3.3v.9H298v7.2c0 .9.2 1.5.5 1.9.2.5.7.7 1.4.7zm4-13.8c0-.7.2-1 .7-1 .2 0 .4.1.5.3s.2.4.2.7c0 .3-.1.6-.2.7s-.3.3-.5.3c-.5 0-.7-.4-.7-1zm1.2 14.5h-1v-11.4h1v11.4zm11.7 0v-7.4c0-1.1-.2-2-.7-2.5-.5-.5-1.2-.8-2.2-.8-1.4 0-2.4.3-3 1s-.9 1.8-.9 3.4v6.3h-1v-11.4h.9l.2 1.6h.1c.7-1.2 2.1-1.8 4-1.8 2.6 0 3.9 1.4 3.9 4.2v7.5h-1.3zm14.2-5.7c0 1.9-.5 3.3-1.4 4.4-.9 1-2.1 1.6-3.7 1.6-1 0-1.9-.2-2.6-.7-.8-.5-1.3-1.2-1.8-2.1s-.6-1.9-.6-3.1c0-1.9.5-3.3 1.4-4.3.9-1 2.1-1.6 3.7-1.6s2.8.5 3.7 1.6 1.3 2.4 1.3 4.2zm-9 0c0 1.6.3 2.8 1 3.7.7.9 1.7 1.3 2.9 1.3s2.2-.4 2.9-1.3c.7-.9 1-2.1 1-3.7s-.3-2.8-1-3.7c-.7-.9-1.7-1.3-2.9-1.3s-2.2.4-2.9 1.3c-.7.9-1 2.1-1 3.7z" id="path49"/></g><circle vector-effect="non-scaling-stroke" id="path3405" cx="51.8" cy="15.1" r="4.9" fill="#fff" fill-rule="evenodd" stroke="#000" stroke-width=".6"/><circle vector-effect="non-scaling-stroke" id="path3405-3" cx="6.5" cy="187" r="4.9" fill="#fff" fill-rule="evenodd" stroke="#000" stroke-width=".6"/><circle vector-effect="non-scaling-stroke" id="path3405-6" cx="189.7" cy="119.1" r="4.9" fill="#fff" fill-rule="evenodd" stroke="#000" stroke-width=".6"/><circle vector-effect="non-scaling-stroke" id="path3405-7" cx="164.7" cy="77.3" r="4.9" fill="#fff" fill-rule="evenodd" stroke="#000" stroke-width=".6"/><circle vector-effect="non-scaling-stroke" id="path3405-5" cx="398.5" cy="82.2" r="4.9" fill="#fff" fill-rule="evenodd" stroke="#000" stroke-width=".6"/><circle vector-effect="non-scaling-stroke" id="path3405-35" cx="494.5" cy="37.5" r="4.9" fill="#fff" fill-rule="evenodd" stroke="#000" stroke-width=".6"/><circle vector-effect="non-scaling-stroke" id="path3405-62" cx="231.1" cy="232.1" r="4.9" fill="#fff" fill-rule="evenodd" stroke="#000" stroke-width=".6"/><circle vector-effect="non-scaling-stroke" id="path3405-9" cx="452.4" cy="195.3" r="4.9" fill="#fff" fill-rule="evenodd" stroke="#000" stroke-width=".6"/><circle vector-effect="non-scaling-stroke" id="path3405-1" cx="680.8" cy="201" r="4.9" fill="#fff" fill-rule="evenodd" stroke="#000" stroke-width=".6"/><circle vector-effect="non-scaling-stroke" id="path3405-2" cx="611.7" cy="294.8" r="4.9" fill="#fff" fill-rule="evenodd" stroke="#000" stroke-width=".6"/><circle vector-effect="non-scaling-stroke" id="path3405-70" cx="656.5" cy="124" r="4.9" fill="#fff" fill-rule="evenodd" stroke="#000" stroke-width=".6"/><circle vector-effect="non-scaling-stroke" id="path3405-93" cx="721.4" cy="41.3" r="4.9" fill="#fff" fill-rule="evenodd" stroke="#000" stroke-width=".6"/></symbol><symbol id="spinner" viewBox="0 0 69 69"><style>.st0{fill:none;stroke:#323232;stroke-width:.7087;stroke-miterlimit:10}.st1{fill:#323232}</style><path vector-effect="non-scaling-stroke" class="st0" d="M54.7 11.4L10.3 55.7m48.9-39.8L15.1 60m48.4-39.2L20.9 63.3m44.6-35.4L27.6 65.8M66.4 36L35.9 66.5"/><path vector-effect="non-scaling-stroke" class="st1" d="M57.6 11.3c-6.4-6.4-14.1-9.6-23.1-9.6-9 0-16.8 3.2-23.1 9.6C5 17.7 1.7 25.4 1.7 34.5c0 9 3.2 16.8 9.7 23.1 6.4 6.4 14.1 9.6 23.1 9.6 9 0 16.8-3.2 23.1-9.6 6.4-6.4 9.7-14.1 9.7-23.1-.1-9.1-3.2-16.8-9.7-23.2zM56 56c-5.9 5.9-13.1 8.9-21.5 8.9S19 61.9 13 56c-5.9-6-8.9-13.1-8.9-21.5s3-15.6 8.9-21.4c6-5.9 13.1-8.9 21.5-8.9S50 7.2 56 13.1c5.9 5.9 8.9 13.1 8.9 21.4 0 8.4-3 15.5-8.9 21.5z"/></symbol></svg>