<?xml version="1.0" standalone="no"?>
<!DOCTYPE svg PUBLIC "-//W3C//DTD SVG 20010904//EN"
 "http://www.w3.org/TR/2001/REC-SVG-20010904/DTD/svg10.dtd">
<svg version="1.0" xmlns="http://www.w3.org/2000/svg"
 width="700.000000pt" height="700.000000pt" viewBox="0 0 700.000000 700.000000"
 preserveAspectRatio="xMidYMid meet">
<metadata>
Created by potrace 1.11, written by Peter Selinger 2001-2013
</metadata>
<g transform="translate(0.000000,700.000000) scale(0.100000,-0.100000)"
fill="#000000" stroke="none">
<path d="M3318 6825 c-2 -1 -46 -5 -98 -9 -610 -43 -1183 -255 -1664 -616
-163 -122 -203 -157 -381 -335 -181 -180 -201 -202 -305 -335 -176 -224 -311
-443 -418 -680 -75 -167 -171 -454 -198 -595 -4 -22 -8 -44 -10 -50 -8 -30
-35 -188 -40 -240 -4 -33 -8 -63 -10 -66 -16 -27 -24 -517 -11 -674 50 -611
241 -1142 581 -1615 220 -307 594 -669 916 -886 403 -272 884 -454 1345 -510
28 -3 61 -7 75 -9 178 -24 676 -24 796 -1 11 2 45 7 75 10 226 24 612 127 814
216 425 187 750 414 1082 753 76 78 156 164 178 192 22 27 46 57 54 65 36 37
185 246 250 350 40 63 104 180 143 260 39 80 76 156 83 170 25 49 105 279 134
386 34 124 78 337 87 422 3 31 7 68 10 82 24 139 23 628 -1 774 -2 11 -6 44
-10 71 -3 28 -9 75 -15 105 -5 30 -12 71 -15 90 -3 19 -8 42 -10 50 -2 8 -6
26 -9 40 -17 93 -85 326 -134 455 -112 296 -280 589 -486 845 -92 114 -101
124 -241 268 -562 581 -1233 917 -1990 998 -33 3 -78 8 -100 10 -44 5 -472 13
-477 9z m362 -259 c166 -7 311 -24 445 -53 39 -8 81 -17 95 -19 112 -21 314
-87 495 -162 85 -35 305 -152 406 -215 114 -73 360 -256 366 -272 3 -10 -4317
-4326 -4337 -4333 -4 -2 -21 14 -37 35 -15 21 -36 47 -46 58 -38 41 -178 244
-238 345 -198 333 -348 769 -384 1120 -3 30 -8 64 -10 75 -7 34 -18 275 -18
370 1 96 11 303 18 345 2 14 6 45 9 70 15 135 55 323 101 475 156 518 447 969
876 1360 187 170 364 300 584 428 139 80 288 147 505 225 131 47 414 112 555
127 33 4 71 8 85 11 14 2 90 7 170 10 80 4 146 8 148 9 1 1 19 1 40 -1 20 -1
98 -5 172 -8z m1975 -874 c104 -101 157 -158 239 -255 l49 -58 -24 -25 c-92
-98 -4294 -4294 -4300 -4294 -4 0 -14 6 -21 13 -7 7 -22 19 -34 27 -53 37
-242 214 -333 313 l-35 37 2175 2170 c1196 1193 2176 2169 2179 2170 3 0 50
-44 105 -98z m418 -495 c82 -122 156 -248 200 -340 l28 -57 -648 -646 c-356
-355 -1281 -1278 -2055 -2051 l-1406 -1405 -84 43 c-119 62 -286 164 -391 240
l-39 28 2149 2150 c1181 1182 2153 2150 2159 2150 6 1 45 -50 87 -112z m342
-679 c25 -72 50 -148 55 -167 43 -170 56 -238 49 -251 -4 -8 -822 -829 -1816
-1823 l-1809 -1808 -109 26 c-193 45 -515 155 -515 175 0 4 914 919 2032 2034
l2031 2026 18 -40 c10 -22 39 -99 64 -172z m136 -543 c1 -19 2 -38 3 -42 2 -5
6 -44 10 -88 5 -44 10 -98 13 -120 4 -35 4 -366 0 -452 -1 -29 -150 -181
-1408 -1439 l-1407 -1407 -48 -4 c-129 -10 -378 -5 -554 12 -116 11 -170 19
-170 24 0 9 3544 3551 3553 3551 4 0 8 -16 8 -35z m4 -912 c-17 -166 -83 -432
-156 -632 -327 -889 -1109 -1627 -1999 -1888 -160 -47 -436 -103 -504 -103
-11 0 2646 2676 2662 2679 1 1 0 -25 -3 -56z"/>
</g>
</svg>
