<svg version="1" xmlns="http://www.w3.org/2000/svg" viewBox="0 0 1061 373.4"><style>.st0,.st1{stroke:#000;stroke-miterlimit:10}.st0{stroke-width:.7;fill:none}.st1{fill:#fff}.st2{fill:#1a1a1a}.st3{fill:#fff;stroke:#000;stroke-width:.7;stroke-miterlimit:10}</style><g id="Layer_3"><path class="st0" d="M63.9 19.1L198 92.6m80.4 186.9L109.8 119.7M279.5 279l199.1-178.4m-36 32l103.9 104.5m-29.1-29.3l274.1-58.4M597.3 44.9l194.9 104.5m-126 26.8l70.9 180.2m-32.5-83l117.8-30.7m-97.9-129.8l145.2-63.3M157.9 70.4L3.6 229.8m224.2-85L191.6 198"/><circle class="st1" cx="63.6" cy="18.2" r="5"/><path class="st2" d="M92.6 12.5c0 6-4 8.6-6.8 8.9-.9.1-1.4.1-2.3.1h-5.2V3.7h5.2c.9 0 1.3 0 2 .1 3.1.3 7.1 2.7 7.1 8.7zm-1.1 0c0-5.2-3.2-7.6-6.1-7.9-.6-.1-1-.1-1.9-.1h-4.2v16.1h4.2c.9 0 1.4 0 2.2-.1 2.8-.3 5.8-2.9 5.8-8zm12.3 6.1l-.6 1.4c-.9 1.3-2.4 2-4.1 2-2.6 0-4.3-1.3-4.3-3.7 0-3.2 3.6-4.6 8.2-4.6h.9V13c0-.6 0-1.2-.1-1.7-.2-1.8-1.3-2.9-3.5-2.9-1.9 0-3.6 1-3.9 3.4h-1c.2-2.4 2.2-4.2 4.9-4.2 2.8 0 4.3 1.3 4.5 3.6.1.7.1 1.1.1 1.8v4.5c0 1.4.1 2.4.2 4.2h-1l-.3-3.1zm-.1-2.4v-1.8c-3.9-.3-7.9.8-7.9 3.7 0 1.8 1.1 3 3.4 3 2.7 0 4.5-2.2 4.5-4.9zm15.5 5.4h-1v-2.9l-.8 1.6c-1.1 1.2-2.4 1.7-4.1 1.7-3.7 0-6-3-6-7.1 0-4.9 3-7.3 6.3-7.3 1.6 0 2.8.5 3.8 1.6l.8 1.6V2.6h1v19zm-.9-6.3V14c0-4.2-2.5-5.5-4.6-5.5-3.1 0-5.2 2.5-5.2 6.3 0 3.4 1.7 6.4 5 6.4 2.5-.1 4.8-1.6 4.8-5.9zm13 3.3l-.6 1.4c-.9 1.3-2.4 2-4.1 2-2.6 0-4.3-1.3-4.3-3.7 0-3.2 3.6-4.6 8.2-4.6h.9V13c0-.6 0-1.2-.1-1.7-.2-1.8-1.3-2.9-3.5-2.9-1.9 0-3.6 1-3.9 3.4h-1c.2-2.4 2.2-4.2 4.9-4.2 2.8 0 4.3 1.3 4.5 3.6.1.7.1 1.1.1 1.8v4.5c0 1.4.1 2.4.2 4.2h-1l-.3-3.1zm0-2.4v-1.8c-3.9-.3-7.9.8-7.9 3.7 0 1.8 1.1 3 3.4 3 2.7 0 4.5-2.2 4.5-4.9zm92.4 80.2h-1v-8.3h-11.1v8.3h-1V78.5h1v8.7h11.1v-8.7h1v17.9zm12.1-3l-.6 1.4c-.9 1.3-2.4 2-4.1 2-2.6 0-4.3-1.3-4.3-3.7 0-3.2 3.6-4.6 8.2-4.6h.9v-.6c0-.6 0-1.2-.1-1.7-.2-1.8-1.3-2.9-3.5-2.9-1.9 0-3.6 1-3.9 3.4h-1c.2-2.4 2.2-4.2 4.9-4.2 2.8 0 4.3 1.3 4.5 3.6.1.7.1 1.1.1 1.8v4.5c0 1.4.1 2.4.2 4.2h-1l-.3-3.2zm-.1-2.4v-1.8c-3.9-.3-7.9.8-7.9 3.7 0 1.8 1.1 3 3.4 3 2.7 0 4.5-2.2 4.5-4.9zm15.3-2.2v7.6h-1V89c0-.9 0-1.5-.1-2.2-.2-2.1-1.4-3.6-3.9-3.6-2.4 0-4.6 1.7-4.6 5.6v7.6h-1V82.8h1v2.9l.6-1.4c1-1.3 2.5-1.9 4.1-1.9 2.8 0 4.5 1.6 4.7 4.1.2.7.2 1.2.2 2.3zm12.1-2.3h-1c-.5-2.2-1.7-3.3-3.8-3.3-1.8 0-3.3 1.1-3.3 2.8 0 1.8 1.4 2.5 3.5 3 3.1.7 4.7 1.8 4.7 4.1s-2 3.6-4.7 3.6c-2.6 0-4.8-1.3-5.1-4.4h1c.4 2.6 2.1 3.6 4.2 3.6 2 0 3.6-1 3.6-2.8 0-1.7-1.1-2.5-4.1-3.2-2.2-.5-4.1-1.4-4.1-3.8 0-2.2 1.8-3.8 4.3-3.8 3 .1 4.4 1.9 4.8 4.2zm19.6 9.9h-12.6v-.8l11.3-16.3h-10.6v-.9h11.7v.8l-11.3 16.2h11.4v1zm3.8-16.5c0 .4-.3.8-.8.8s-.8-.3-.8-.8.3-.8.8-.8.8.4.8.8zm-1.3 16.5V82.8h1v13.6h-1zm22.4-7.8v7.8h-1v-7.3c0-1 0-1.7-.1-2.4-.2-2.1-1.3-3.5-3.3-3.5-2.1 0-3.9 1.7-3.9 5.6v7.6h-1v-7.3c0-1 0-1.7-.1-2.4-.3-2.1-1.3-3.5-3.4-3.5-2.1 0-3.9 1.7-3.9 5.6v7.6h-1V82.8h1v2.7l.7-1.5c.9-1 2.1-1.5 3.4-1.5 2.2 0 3.5 1.2 4 3.3l.9-1.8c.9-1 2-1.5 3.4-1.5 2.5 0 3.8 1.5 4.1 4 .2.6.2 1 .2 2.1zm21.2 0v7.8h-1v-7.3c0-1 0-1.7-.1-2.4-.2-2.1-1.3-3.5-3.3-3.5-2.1 0-3.9 1.7-3.9 5.6v7.6h-1v-7.3c0-1 0-1.7-.1-2.4-.3-2.1-1.3-3.5-3.4-3.5-2.1 0-3.9 1.7-3.9 5.6v7.6h-1V82.8h1v2.7l.7-1.5c.9-1 2.1-1.5 3.4-1.5 2.2 0 3.5 1.2 4 3.3l.9-1.8c.9-1 2-1.5 3.4-1.5 2.5 0 3.8 1.5 4.1 4 .2.6.2 1 .2 2.1zm14.5 1.2h-10.9c.2 4.4 2.6 6.1 5 6.1 2.1 0 4-1.2 4.7-3.8h1c-.8 3.1-3.1 4.6-5.8 4.6-3.3 0-6-2.4-6-7.2 0-4.3 2.7-7.1 6.2-7.1 3.9 0 5.7 3.3 5.7 6.8.1.1.1.3.1.6zm-10.9-.8h9.9c-.2-4.2-2.5-5.8-4.8-5.8-2.4 0-4.9 1.9-5.1 5.8zm18.9-6.5v.8c-2.5-.2-4.2 1.4-4.2 5.6v7.6h-1V82.8h1v2.8l.7-1.7c.7-.9 1.7-1.5 2.8-1.5.3 0 .5 0 .7.1z"/><circle class="st1" cx="197.8" cy="91.4" r="5"/><path class="st2" d="M34.5 233.5c0 6-4 8.6-6.8 8.9-.9.1-1.4.1-2.3.1h-5.2v-17.9h5.2c.9 0 1.3 0 2 .1 3.1.4 7.1 2.8 7.1 8.8zm-1.1 0c0-5.2-3.2-7.6-6.1-7.9-.6-.1-1-.1-1.9-.1h-4.2v16.1h4.2c.9 0 1.4 0 2.2-.1 2.8-.3 5.8-2.9 5.8-8zm12.3 6.1L45 241c-.9 1.3-2.4 2-4.1 2-2.6 0-4.3-1.3-4.3-3.7 0-3.2 3.6-4.6 8.2-4.6h.9v-.7c0-.6 0-1.2-.1-1.7-.2-1.8-1.3-2.9-3.5-2.9-1.9 0-3.6 1-3.9 3.4h-1c.2-2.4 2.2-4.2 4.9-4.2 2.8 0 4.3 1.3 4.5 3.6.1.7.1 1.1.1 1.8v4.5c0 1.4.1 2.4.2 4.2h-1l-.2-3.1zm0-2.4v-1.8c-3.9-.3-7.9.8-7.9 3.7 0 1.8 1.1 3 3.4 3 2.6 0 4.5-2.2 4.5-4.9zm5.6 2.1v1.7c.1.9.4 1.1 1.5.9v.8c-.3.1-.6.1-1 .1-.9 0-1.5-.3-1.5-1.5v-17.6h1v15.6zm14.8-3.3H55.3c.2 4.4 2.6 6.1 5 6.1 2.1 0 4-1.2 4.7-3.8h1c-.8 3.1-3.1 4.6-5.8 4.6-3.3 0-6-2.4-6-7.2 0-4.3 2.7-7.1 6.2-7.1 3.9 0 5.7 3.3 5.7 6.8.1.1.1.3 0 .6zm-10.8-.8h9.9c-.2-4.2-2.5-5.8-4.8-5.8-2.4 0-5 1.9-5.1 5.8zm33.2-5.1v.3h-1l-.1-.3c-.6-2.8-2.6-4.9-6-4.9-3.7 0-7 3.1-7 8.4 0 5.6 3.1 8.4 6.8 8.4 3.6 0 5.6-2.2 6.2-5.1l.1-.3h1v.3c-.6 3.3-2.8 6-7.2 6-4.6 0-7.8-3.6-7.8-9.2 0-5.5 3.5-9.3 8.2-9.3 3.9 0 6.2 2.5 6.8 5.7zm13.7 4.9v7.6h-1v-7.4c0-.9 0-1.5-.1-2.2-.2-2.1-1.4-3.6-3.9-3.6-2.4 0-4.6 1.7-4.6 5.6v7.6h-1v-19.2h1v8.4l.6-1.4c1-1.3 2.5-1.9 4.1-1.9 2.8 0 4.5 1.6 4.7 4.1.1.8.2 1.3.2 2.4zm4.8-8.9c0 .4-.3.8-.8.8s-.8-.3-.8-.8.3-.8.8-.8.8.4.8.8zm-1.2 16.5V229h1v13.6h-1zM121 235v7.6h-1v-7.4c0-.9 0-1.5-.1-2.2-.2-2.1-1.4-3.6-3.9-3.6-2.4 0-4.6 1.7-4.6 5.6v7.6h-1v-19.2h1v8.4l.6-1.4c1-1.3 2.5-1.9 4.1-1.9 2.8 0 4.5 1.6 4.7 4.1.2.8.2 1.3.2 2.4zm13.9 7.6h-1v-2.9l-.6 1.4c-1.1 1.3-2.5 1.9-4.1 1.9-2.8 0-4.4-1.6-4.7-4-.1-.7-.1-1.2-.1-2.3V229h1v7.5c0 .8 0 1.4.1 2.1.3 2.1 1.5 3.5 3.9 3.5s4.6-1.7 4.6-5.6v-7.6h1v13.7zm4.7-3.3v1.7c.1.9.4 1.1 1.5.9v.8c-.3.1-.6.1-1 .1-.9 0-1.5-.3-1.5-1.5v-17.6h1v15.6zm8.8 3.6c-1.7 4.3-2.8 5.1-4.5 5.1-.4 0-.7 0-1-.1v-.9c.3.1.6.1 1 .1 1.1 0 2.1-.7 3.1-3.3l.4-1-5.4-14h1.1l4.8 12.9 4.8-12.9h1.1l-5.4 14.1z"/><circle class="st3" cx="6.3" cy="228.2" r="5"/><path class="st2" d="M250 141.9c0 .8 0 1.4-.1 2.3-.2 2.5-1.7 4.8-5.1 4.8-3.1 0-4.9-1.8-5-5.4v-.9h1v.9c.1 3.3 1.8 4.5 4.2 4.5 2.4 0 3.8-1.5 4-4.1.1-.5.1-1.2.1-2.1v-11.2h1v11.2zm14.3.2h-10.9c.2 4.4 2.6 6.1 5 6.1 2.1 0 4-1.2 4.7-3.8h1c-.8 3.1-3.1 4.6-5.8 4.6-3.3 0-6-2.4-6-7.2 0-4.3 2.7-7.1 6.2-7.1 3.9 0 5.7 3.3 5.7 6.8.1 0 .1.2.1.6zm-10.9-.9h9.9c-.2-4.2-2.5-5.8-4.8-5.8-2.4 0-4.9 1.9-5.1 5.8zm18.9-6.5v.8c-2.5-.2-4.2 1.4-4.2 5.6v7.6h-1V135h1v2.8l.7-1.7c.7-.9 1.7-1.5 2.8-1.5.3 0 .5 0 .7.1zm12.6 7.4H274c.2 4.4 2.6 6.1 5 6.1 2.1 0 4-1.2 4.7-3.8h1c-.8 3.1-3.1 4.6-5.8 4.6-3.3 0-6-2.4-6-7.2 0-4.3 2.7-7.1 6.2-7.1 3.9 0 5.7 3.3 5.7 6.8.2 0 .2.2.1.6zm-10.8-.9h9.9c-.2-4.2-2.5-5.8-4.8-5.8-2.4 0-5 1.9-5.1 5.8zm31.3-.4v7.8h-1v-7.3c0-1 0-1.7-.1-2.4-.2-2.1-1.3-3.5-3.3-3.5-2.1 0-3.9 1.7-3.9 5.6v7.6h-1v-7.3c0-1 0-1.7-.1-2.4-.3-2.1-1.3-3.5-3.4-3.5-2.1 0-3.9 1.7-3.9 5.6v7.6h-1V135h1v2.7l.7-1.5c.9-1 2.1-1.5 3.4-1.5 2.2 0 3.5 1.2 4 3.3l.9-1.8c.9-1 2-1.5 3.4-1.5 2.5 0 3.8 1.5 4.1 4 .2.6.2 1 .2 2.1zm8.4 8.1c-1.7 4.3-2.8 5.2-4.5 5.2-.4 0-.7 0-1-.1v-.9c.3.1.6.1 1 .1 1.1 0 2.1-.7 3.1-3.3l.4-1-5.4-14h1.1l4.8 12.9 4.8-12.9h1.1l-5.4 14zm29.6-.3h-1v-17.1c-.8 2.2-1.8 4.7-2.7 7l-4.1 10.1h-1.2l-4.1-10.1c-.9-2.2-1.9-4.8-2.7-6.9.1 2.2.1 4.7.1 6.9v10.1h-1v-17.9h1.6l6.7 17 6.8-17h1.5v17.9zm12.1-3l-.6 1.4c-.9 1.3-2.4 2-4.1 2-2.6 0-4.3-1.3-4.3-3.7 0-3.2 3.6-4.6 8.2-4.6h.9v-.7c0-.6 0-1.2-.1-1.7-.2-1.8-1.3-2.9-3.5-2.9-1.9 0-3.6 1-3.9 3.4h-1c.2-2.4 2.2-4.2 4.9-4.2 2.8 0 4.3 1.3 4.5 3.6.1.7.1 1.1.1 1.8v4.5c0 1.4.1 2.4.2 4.2h-1l-.3-3.1zm0-2.3v-1.8c-3.9-.3-7.9.8-7.9 3.7 0 1.8 1.1 3 3.4 3 2.7-.1 4.5-2.3 4.5-4.9zm15.2-2.3v7.6h-1v-7.4c0-.9 0-1.5-.1-2.2-.2-2.1-1.4-3.6-3.9-3.6-2.4 0-4.6 1.7-4.6 5.6v7.6h-1V135h1v2.9l.6-1.4c1-1.3 2.5-1.9 4.1-1.9 2.8 0 4.5 1.6 4.7 4.1.2.7.2 1.2.2 2.3zm14.2 0v7.6h-1v-7.4c0-.9 0-1.5-.1-2.2-.2-2.1-1.4-3.6-3.9-3.6-2.4 0-4.6 1.7-4.6 5.6v7.6h-1V135h1v2.9l.6-1.4c1-1.3 2.5-1.9 4.1-1.9 2.8 0 4.5 1.6 4.7 4.1.1.7.2 1.2.2 2.3z"/><circle class="st1" cx="229.5" cy="144.1" r="5"/><path class="st2" d="M568.5 232.9h-1c-.4-2.6-2.2-4.2-4.6-4.2-2.2 0-4.5 1.2-4.5 3.6s1.5 3.2 4.8 4.1c3.8 1 5.6 2.3 5.6 5.2 0 2.8-2.5 4.8-5.9 4.8-3.3 0-6.1-1.7-6.4-5.1h1c.4 2.8 2.7 4.3 5.4 4.3s4.8-1.5 4.8-3.8c0-2.5-1.4-3.4-4.9-4.4-3.7-1-5.5-2.1-5.5-4.9 0-2.7 2.6-4.6 5.6-4.6 3.5 0 5.3 2.3 5.6 5zm7.5 12.6v.8c-.4.1-1 .1-1.4.1-1.3 0-2-.6-2.1-1.9-.1-.6-.1-1-.1-1.8v-9.2h-1.7v-.8h1.7v-2.9h1v2.9h2.6v.8h-2.6v10.7c.1 1.2.7 1.5 2.6 1.3zm10.8-2.3l-.6 1.4c-.9 1.3-2.4 2-4.1 2-2.6 0-4.3-1.3-4.3-3.7 0-3.2 3.6-4.6 8.2-4.6h.9v-.6c0-.6 0-1.2-.1-1.7-.2-1.8-1.3-2.9-3.5-2.9-1.9 0-3.6 1-3.9 3.4h-1c.2-2.4 2.2-4.2 4.9-4.2 2.8 0 4.3 1.3 4.5 3.6.1.7.1 1.1.1 1.8v4.5c0 1.4.1 2.4.2 4.2h-1l-.3-3.2zm0-2.4V239c-3.9-.3-7.9.8-7.9 3.7 0 1.8 1.1 3 3.4 3 2.7 0 4.5-2.3 4.5-4.9zm9.9-8.6v.8c-2.5-.2-4.2 1.4-4.2 5.6v7.6h-1v-13.6h1v2.8l.7-1.7c.7-.9 1.7-1.5 2.8-1.5.2-.1.5 0 .7 0zm22.3 13.9h-1.3l-4.6-16.6-4.9 16.6h-1.3l-4.5-17.9h1.1l4.2 16.9 4.8-16.7h1.3l4.6 16.6 4.5-16.9h1l-4.9 18zm15-2.9l-.6 1.4c-.9 1.3-2.4 2-4.1 2-2.6 0-4.3-1.3-4.3-3.7 0-3.2 3.6-4.6 8.2-4.6h.9v-.6c0-.6 0-1.2-.1-1.7-.2-1.8-1.3-2.9-3.5-2.9-1.9 0-3.6 1-3.9 3.4h-1c.2-2.4 2.2-4.2 4.9-4.2 2.8 0 4.3 1.3 4.5 3.6.1.7.1 1.1.1 1.8v4.5c0 1.4.1 2.4.2 4.2h-1l-.3-3.2zm0-2.4V239c-3.9-.3-7.9.8-7.9 3.7 0 1.8 1.1 3 3.4 3 2.7 0 4.5-2.3 4.5-4.9zm9.9-8.6v.8c-2.5-.2-4.2 1.4-4.2 5.6v7.6h-1v-13.6h1v2.8l.7-1.7c.7-.9 1.7-1.5 2.8-1.5.2-.1.5 0 .7 0zm10.4 4h-1c-.5-2.2-1.7-3.3-3.8-3.3-1.8 0-3.3 1.1-3.3 2.8 0 1.8 1.4 2.5 3.5 3 3.1.7 4.7 1.8 4.7 4.1s-2 3.6-4.7 3.6c-2.6 0-4.8-1.3-5.1-4.4h1c.4 2.6 2.1 3.6 4.2 3.6 2 0 3.6-1 3.6-2.8 0-1.7-1.1-2.5-4.1-3.2-2.2-.5-4.1-1.4-4.1-3.8 0-2.2 1.8-3.8 4.3-3.8 3 .1 4.5 1.9 4.8 4.2z"/><circle class="st1" cx="546.6" cy="237.5" r="5"/><path class="st2" d="M820.5 146.2v.3h-1l-.1-.3c-.6-2.8-2.6-4.9-6-4.9-3.7 0-7 3.1-7 8.4 0 5.6 3.1 8.4 6.8 8.4 3.6 0 5.6-2.2 6.2-5.2l.1-.3h1v.3c-.6 3.3-2.8 6-7.2 6-4.6 0-7.8-3.6-7.8-9.2 0-5.5 3.5-9.3 8.2-9.3 3.9 0 6.2 2.5 6.8 5.8zm13.7 4.8v7.6h-1v-7.4c0-.9 0-1.5-.1-2.2-.2-2.1-1.4-3.6-3.9-3.6-2.4 0-4.6 1.7-4.6 5.6v7.6h-1v-19.2h1v8.4l.6-1.4c1-1.3 2.5-1.9 4.1-1.9 2.8 0 4.5 1.6 4.7 4.1.2.9.2 1.3.2 2.4zm8.8-6.3v.8c-2.5-.2-4.2 1.4-4.2 5.6v7.6h-1V145h1v2.8l.7-1.7c.7-.9 1.7-1.5 2.8-1.5.2 0 .4.1.7.1zm3.1-2.6c0 .4-.3.8-.8.8s-.8-.3-.8-.8.3-.8.8-.8.8.4.8.8zm-1.2 16.5V145h1v13.6h-1zm13.2-9.9h-1c-.5-2.2-1.7-3.3-3.8-3.3-1.8 0-3.3 1.1-3.3 2.8 0 1.8 1.4 2.5 3.5 3 3.1.7 4.7 1.8 4.7 4.1s-2 3.6-4.7 3.6c-2.6 0-4.8-1.3-5.1-4.4h1c.4 2.6 2.1 3.6 4.2 3.6 2 0 3.6-1 3.6-2.8 0-1.7-1.1-2.5-4.1-3.2-2.2-.5-4.1-1.4-4.1-3.8 0-2.2 1.8-3.8 4.3-3.8 3 .1 4.5 1.9 4.8 4.2zm7.1 9.3v.8c-.4.1-1 .1-1.4.1-1.3 0-2-.6-2.1-1.9-.1-.6-.1-1-.1-1.8V146h-1.7v-.8h1.7v-2.9h1v2.9h2.6v.8h-2.6v10.7c0 1.2.6 1.5 2.6 1.3zm14.3-6.2c0 4.2-2.5 7.2-6.5 7.2s-6.5-3-6.5-7.2 2.5-7.2 6.5-7.2 6.5 3 6.5 7.2zm-1.1 0c0-4.2-2.5-6.4-5.4-6.4s-5.4 2.1-5.4 6.4c0 4.2 2.5 6.3 5.4 6.3s5.4-2.1 5.4-6.3zm15.6-.1c0 4.9-3 7.3-6.3 7.3-1.6 0-2.8-.5-3.8-1.6l-.8-1.6v7.9h-1v-18.9h1v3l.8-1.5c1.1-1.2 2.4-1.7 4.1-1.7 3.7 0 6 3 6 7.1zm-1.1.1c0-3.5-1.7-6.4-5-6.4-2.6 0-4.8 1.5-4.8 5.8v1.3c0 4.2 2.5 5.5 4.6 5.5 3 .2 5.2-2.3 5.2-6.2zm14.3-.8v7.6h-1v-7.4c0-.9 0-1.5-.1-2.2-.2-2.1-1.4-3.6-3.9-3.6-2.4 0-4.6 1.7-4.6 5.6v7.6h-1v-19.2h1v8.4l.6-1.4c1-1.3 2.5-1.9 4.1-1.9 2.8 0 4.5 1.6 4.7 4.1.1.9.2 1.3.2 2.4zm14.4 1.1h-10.9c.2 4.4 2.6 6.1 5 6.1 2.1 0 4-1.2 4.7-3.8h1c-.8 3.1-3.1 4.6-5.8 4.6-3.3 0-6-2.4-6-7.2 0-4.3 2.7-7.1 6.2-7.1 3.9 0 5.7 3.3 5.7 6.8.1.1.1.2.1.6zm-10.9-.9h9.9c-.2-4.2-2.5-5.8-4.8-5.8-2.4.1-4.9 1.9-5.1 5.8zm18.9-6.5v.8c-2.5-.2-4.2 1.4-4.2 5.6v7.6h-1V145h1v2.8l.7-1.7c.7-.9 1.7-1.5 2.8-1.5.3 0 .5.1.7.1zm18.7 13.9l-10.2-16.9c.1 2.3.1 5.1.1 7.4v9.5h-1v-17.9h1.5l10.2 16.9c-.1-2.3-.1-5.1-.1-7.4v-9.5h1v17.9h-1.5zm17.1-6.8c0 4.2-2.5 7.2-6.5 7.2s-6.5-3-6.5-7.2 2.5-7.2 6.5-7.2 6.5 3 6.5 7.2zm-1.1 0c0-4.2-2.5-6.4-5.4-6.4s-5.4 2.1-5.4 6.4c0 4.2 2.5 6.3 5.4 6.3s5.4-2.1 5.4-6.3zm4.7 3.5v1.7c.1.9.4 1.1 1.5.9v.8c-.3.1-.6.1-1 .1-.9 0-1.5-.3-1.5-1.5v-17.6h1v15.6zm12.8.4l-.6 1.4c-.9 1.3-2.4 2-4.1 2-2.6 0-4.3-1.3-4.3-3.7 0-3.2 3.6-4.6 8.2-4.6h.9v-.6c0-.6 0-1.2-.1-1.7-.2-1.8-1.3-2.9-3.5-2.9-1.9 0-3.6 1-3.9 3.4h-1c.2-2.4 2.2-4.2 4.9-4.2 2.8 0 4.3 1.3 4.5 3.6.1.7.1 1.1.1 1.8v4.5c0 1.4.1 2.4.2 4.2h-1l-.3-3.2zm0-2.4v-1.8c-3.9-.3-7.9.8-7.9 3.7 0 1.8 1.1 3 3.4 3 2.7 0 4.5-2.3 4.5-4.9zm15.3-2.3v7.6h-1v-7.4c0-.9 0-1.5-.1-2.2-.2-2.1-1.4-3.6-3.9-3.6-2.4 0-4.6 1.7-4.6 5.6v7.6h-1V145h1v2.9l.6-1.4c1-1.3 2.5-1.9 4.1-1.9 2.8 0 4.5 1.6 4.7 4.1.1.8.2 1.2.2 2.3z"/><circle class="st1" cx="794.6" cy="148.9" r="5"/><path class="st2" d="M847.5 250.8h-11.3v-17.9h11.1v.8h-10.1v7.7h9.5v.8h-9.5v7.7h10.3v.9zm20.3-7.8v7.8h-1v-7.3c0-1 0-1.7-.1-2.4-.2-2.1-1.3-3.5-3.3-3.5-2.1 0-3.9 1.7-3.9 5.6v7.6h-1v-7.3c0-1 0-1.7-.1-2.4-.3-2.1-1.3-3.5-3.4-3.5-2.1 0-3.9 1.7-3.9 5.6v7.6h-1v-13.6h1v2.7l.7-1.5c.9-1 2.1-1.5 3.4-1.5 2.2 0 3.5 1.2 4 3.3l.9-1.8c.9-1 2-1.5 3.4-1.5 2.5 0 3.8 1.5 4.1 4 .2.6.2 1 .2 2.1zm15.5.8c0 4.9-3 7.3-6.3 7.3-1.6 0-2.8-.5-3.8-1.6l-.8-1.6v7.9h-1V237h1v3l.8-1.5c1.1-1.2 2.4-1.7 4.1-1.7 3.7 0 6 2.9 6 7zm-1.1.2c0-3.5-1.7-6.4-5-6.4-2.6 0-4.8 1.5-4.8 5.8v1.3c0 4.2 2.5 5.5 4.6 5.5 3.1.1 5.2-2.4 5.2-6.2zm5-9.7c0 .4-.3.8-.8.8s-.8-.3-.8-.8.3-.8.8-.8.8.4.8.8zm-1.2 16.5v-13.6h1v13.6h-1zm9.9-13.9v.8c-2.5-.2-4.2 1.4-4.2 5.6v7.6h-1v-13.6h1v2.8l.7-1.7c.7-.9 1.7-1.5 2.8-1.5.2-.1.5-.1.7 0zm12.6 7.3h-10.9c.2 4.4 2.6 6.1 5 6.1 2.1 0 4-1.2 4.7-3.8h1c-.8 3.1-3.1 4.6-5.8 4.6-3.3 0-6-2.4-6-7.2 0-4.3 2.7-7.1 6.2-7.1 3.9 0 5.7 3.3 5.7 6.8.1.1.1.3.1.6zm-10.9-.8h9.9c-.2-4.2-2.5-5.8-4.8-5.8-2.4 0-4.9 1.9-5.1 5.8zm30-5.8h-1c-.4-2.6-2.2-4.2-4.6-4.2-2.2 0-4.5 1.2-4.5 3.6s1.5 3.2 4.8 4.1c3.8 1 5.6 2.3 5.6 5.2 0 2.8-2.5 4.8-5.9 4.8-3.3 0-6.1-1.7-6.4-5.1h1c.4 2.8 2.7 4.3 5.4 4.3s4.8-1.5 4.8-3.8c0-2.5-1.4-3.4-4.9-4.4-3.7-1-5.5-2.1-5.5-4.9 0-2.7 2.6-4.6 5.6-4.6 3.4 0 5.3 2.2 5.6 5zm7.5 12.5v.8c-.4.1-1 .1-1.4.1-1.3 0-2-.6-2.1-1.9-.1-.6-.1-1-.1-1.8V238h-1.7v-.8h1.7v-2.9h1v2.9h2.6v.8h-2.6v10.7c.1 1.3.7 1.7 2.6 1.4zm10.8-2.3l-.6 1.4c-.9 1.3-2.4 2-4.1 2-2.6 0-4.3-1.3-4.3-3.7 0-3.2 3.6-4.6 8.2-4.6h.9v-.6c0-.6 0-1.2-.1-1.7-.2-1.8-1.3-2.9-3.5-2.9-1.9 0-3.6 1-3.9 3.4h-1c.2-2.4 2.2-4.2 4.9-4.2 2.8 0 4.3 1.3 4.5 3.6.1.7.1 1.1.1 1.8v4.5c0 1.4.1 2.4.2 4.2h-1l-.3-3.2zm0-2.4v-1.8c-3.9-.3-7.9.8-7.9 3.7 0 1.8 1.1 3 3.4 3 2.7 0 4.5-2.2 4.5-4.9zm8.8 4.7v.8c-.4.1-1 .1-1.4.1-1.3 0-2-.6-2.1-1.9-.1-.6-.1-1-.1-1.8V238h-1.7v-.8h1.7v-2.9h1v2.9h2.6v.8h-2.6v10.7c.1 1.3.7 1.7 2.6 1.4zm13.2-5.9H957c.2 4.4 2.6 6.1 5 6.1 2.1 0 4-1.2 4.7-3.8h1c-.8 3.1-3.1 4.6-5.8 4.6-3.3 0-6-2.4-6-7.2 0-4.3 2.7-7.1 6.2-7.1 3.9 0 5.7 3.3 5.7 6.8.1.1.1.3.1.6zm-10.9-.8h9.9c-.2-4.2-2.5-5.8-4.8-5.8s-4.9 1.9-5.1 5.8zm31.3 2.5c0 3-2.3 4.6-4.9 4.8-.7.1-1.2.1-1.9.1h-5.2v-17.9h4.7c.8 0 1.2 0 2.1.1 2.7.2 4.5 1.8 4.5 4.3 0 2.2-1.3 3.6-3.3 4.1 2.7.4 4 2.1 4 4.5zm-10.9-4.9h4.1c.4 0 .9 0 1.4-.1 1.9-.2 3.7-1.1 3.7-3.6 0-2.6-1.9-3.5-3.8-3.6h-5.4v7.3zm9.8 5c0-2.1-1.1-3.9-4.1-4.1-.6-.1-1-.1-1.4-.1h-4.4v8h4.6c.4 0 .9 0 1.2-.1 2.1 0 4.1-1.1 4.1-3.7zm14.3 4.8h-1v-2.9l-.6 1.4c-1.1 1.3-2.5 1.9-4.1 1.9-2.8 0-4.4-1.6-4.7-4-.1-.7-.1-1.2-.1-2.3v-7.7h1v7.5c0 .8 0 1.4.1 2.1.3 2.1 1.5 3.5 3.9 3.5s4.6-1.7 4.6-5.6v-7.6h1v13.7zm5-16.5c0 .4-.3.8-.8.8s-.8-.3-.8-.8.3-.8.8-.8.8.4.8.8zm-1.3 16.5v-13.6h1v13.6h-1zm5.7-3.3v1.7c.1.9.4 1.1 1.5.9v.8c-.3.1-.6.1-1 .1-.9 0-1.5-.3-1.5-1.5v-17.6h1v15.6zm14.8 3.3h-1v-2.9l-.8 1.6c-1.1 1.2-2.4 1.7-4.1 1.7-3.7 0-6-3-6-7.1 0-4.9 3-7.3 6.3-7.3 1.6 0 2.8.5 3.8 1.6l.8 1.6v-8.2h1v19zm-1-6.3v-1.3c0-4.2-2.5-5.5-4.6-5.5-3.1 0-5.2 2.5-5.2 6.3 0 3.4 1.7 6.4 5 6.4 2.6-.1 4.8-1.6 4.8-5.9zm6-10.2c0 .4-.3.8-.8.8s-.8-.3-.8-.8.3-.8.8-.8.8.4.8.8zm-1.2 16.5v-13.6h1v13.6h-1zm15.2-7.6v7.6h-1v-7.4c0-.9 0-1.5-.1-2.2-.2-2.1-1.4-3.6-3.9-3.6-2.4 0-4.6 1.7-4.6 5.6v7.6h-1v-13.6h1v2.9l.6-1.4c1-1.3 2.5-1.9 4.1-1.9 2.8 0 4.5 1.6 4.7 4.1.2.7.2 1.2.2 2.3zm14.4 4v3.8c-.1 3.3-2.2 5.5-5.8 5.5-2.8 0-5-1.2-5.4-4.2l-.1-.3h1v.3c.3 2.4 2.2 3.4 4.5 3.4 3.1 0 4.7-1.9 4.8-4.7v-3l-.8 1.6c-1.1 1.2-2.4 1.7-4.1 1.7-3.7 0-6-3-6-7.1 0-4.9 3-7.3 6.3-7.3 1.6 0 2.8.5 3.8 1.6l.8 1.6v-2.8h1v9.9zm-.9-2.7v-1.3c0-4.2-2.5-5.5-4.6-5.5-3.1 0-5.2 2.5-5.2 6.3 0 3.4 1.7 6.4 5 6.4 2.5-.1 4.8-1.6 4.8-5.9z"/><circle class="st1" cx="824.8" cy="240.9" r="5"/><path class="st2" d="M883.6 46.5h9.2v.8h-9.2v8.5h-1V38h11.1v.8h-10.1v7.7zm17.5-4.6v.8c-2.5-.2-4.2 1.4-4.2 5.6v7.6h-1V42.2h1V45l.7-1.7c.7-.9 1.7-1.5 2.8-1.5.2.1.5.1.7.1zm10.3 11l-.6 1.4c-.9 1.3-2.4 2-4.1 2-2.6 0-4.3-1.3-4.3-3.7 0-3.2 3.6-4.6 8.2-4.6h.9v-.6c0-.6 0-1.2-.1-1.7-.2-1.8-1.3-2.9-3.5-2.9-1.9 0-3.6 1-3.9 3.4h-1c.2-2.4 2.2-4.2 4.9-4.2 2.8 0 4.3 1.3 4.5 3.6.1.7.1 1.1.1 1.8v4.5c0 1.4.1 2.4.2 4.2h-1l-.3-3.2zm-.1-2.4v-1.8c-3.9-.3-7.9.8-7.9 3.7 0 1.8 1.1 3 3.4 3 2.7 0 4.5-2.3 4.5-4.9zm15.3-2.3v7.6h-1v-7.4c0-.9 0-1.5-.1-2.2-.2-2.1-1.4-3.6-3.9-3.6-2.4 0-4.6 1.7-4.6 5.6v7.6h-1V42.2h1v2.9l.6-1.4c1-1.3 2.5-1.9 4.1-1.9 2.8 0 4.5 1.6 4.7 4.1.2.8.2 1.2.2 2.3zm13.2 3.5h1c-.6 2.8-2.8 4.5-5.6 4.5l-.5.9c1.4.2 2.2.8 2.2 2 0 1.5-1.3 2.1-2.7 2.1-.5 0-1-.1-1.3-.3v-.7c.4.2.8.3 1.4.3 1.1 0 1.9-.5 1.9-1.5s-.8-1.5-2.5-1.4l.8-1.5c-3-.4-5.3-2.8-5.3-7.1 0-4.5 2.9-7.2 6.3-7.2 3 0 5.1 1.9 5.5 4.7h-1c-.5-2.4-2-3.9-4.6-3.9-2.5 0-5.2 2-5.2 6.2 0 4.5 2.5 6.5 5 6.5 2.2.1 4.1-1.2 4.6-3.6zm15.7-2.7c0 4.2-2.5 7.2-6.5 7.2s-6.5-3-6.5-7.2 2.5-7.2 6.5-7.2 6.5 3 6.5 7.2zm-1 0c0-4.2-2.5-6.4-5.4-6.4s-5.4 2.1-5.4 6.4c0 4.2 2.5 6.3 5.4 6.3s5.4-2 5.4-6.3zm4.9-9.6c0 .4-.3.8-.8.8s-.8-.3-.8-.8.3-.8.8-.8.8.4.8.8zm-1.2 16.5V42.2h1v13.6h-1zm13.2-9.9h-1c-.5-2.2-1.7-3.3-3.8-3.3-1.8 0-3.3 1.1-3.3 2.8 0 1.8 1.4 2.5 3.5 3 3.1.7 4.7 1.8 4.7 4.1s-2 3.6-4.7 3.6c-2.6 0-4.8-1.3-5.1-4.4h1c.4 2.6 2.1 3.6 4.2 3.6 2 0 3.6-1 3.6-2.8 0-1.7-1.1-2.5-4.1-3.2-2.2-.5-4.1-1.4-4.1-3.8 0-2.2 1.8-3.8 4.3-3.8 3 .1 4.5 1.8 4.8 4.2zm13.7 3.3h-10.9c.2 4.4 2.6 6.1 5 6.1 2.1 0 4-1.2 4.7-3.8h1c-.8 3.1-3.1 4.6-5.8 4.6-3.3 0-6-2.4-6-7.2 0-4.3 2.7-7.1 6.2-7.1 3.9 0 5.7 3.3 5.7 6.8.2.1.2.3.1.6zm-10.8-.8h9.9c-.2-4.2-2.5-5.8-4.8-5.8-2.4 0-5 1.8-5.1 5.8zm30.4 7.4L994.5 39c.1 2.3.1 5.1.1 7.4v9.5h-1V38h1.5l10.2 16.9c-.1-2.3-.1-5.1-.1-7.4V38h1v17.9h-1.5zm6.5-16.5c0 .4-.3.8-.8.8s-.8-.3-.8-.8.3-.8.8-.8.8.4.8.8zm-1.2 16.5V42.2h1v13.6h-1zm15.5-6.6h-10.9c.2 4.4 2.6 6.1 5 6.1 2.1 0 4-1.2 4.7-3.8h1c-.8 3.1-3.1 4.6-5.8 4.6-3.3 0-6-2.4-6-7.2 0-4.3 2.7-7.1 6.2-7.1 3.9 0 5.7 3.3 5.7 6.8.1.1.1.3.1.6zm-10.9-.8h9.9c-.2-4.2-2.5-5.8-4.8-5.8s-4.9 1.8-5.1 5.8zm14.7 4v1.7c.1.9.4 1.1 1.5.9v.8c-.3.1-.6.1-1 .1-.9 0-1.5-.3-1.5-1.5V36.8h1v15.7zm4.9 0v1.7c.1.9.4 1.1 1.5.9v.8c-.3.1-.6.1-1 .1-.9 0-1.5-.3-1.5-1.5V36.8h1v15.7zm8.9 3.6c-1.7 4.3-2.8 5.1-4.5 5.1-.4 0-.7 0-1-.1v-.9c.3.1.6.1 1 .1 1.1 0 2.1-.7 3.1-3.3l.4-1-5.4-14h1.1l4.8 12.9 4.8-12.9h1.1l-5.4 14.1z"/><circle class="st1" cx="870.2" cy="48.2" r="5"/><g><path class="st2" d="M760 366.8l-10.2-16.9c.1 2.3.1 5.1.1 7.4v9.5h-1v-17.9h1.5l10.2 16.9c-.1-2.3-.1-5.1-.1-7.4v-9.5h1v17.9H760zm6.5-16.5c0 .4-.3.8-.8.8s-.8-.3-.8-.8.3-.8.8-.8.8.4.8.8zm-1.2 16.5v-13.6h1v13.6h-1zm15.4-9.3h-1c-.5-2.4-2-3.9-4.6-3.9-2.5 0-5.2 2-5.2 6.2 0 4.5 2.5 6.5 5 6.5 2.2 0 4.1-1.3 4.6-3.7h1c-.6 2.8-2.8 4.5-5.6 4.5-3.4 0-6.1-2.5-6.1-7.2 0-4.5 2.9-7.2 6.3-7.2 3.1.1 5.2 2 5.6 4.8zm3.7 4v5.3h-1v-19h1v12.6l7.6-7.2h1.3l-7 6.6 7.1 7.1H792l-6.4-6.4-1.2 1zm30.9-2.8v8.1h-.9v-4.3l-.6 1.7c-1.4 2.1-3.6 3-5.8 3-4.7 0-7.9-3.6-7.9-9.2 0-5.5 3.5-9.3 8.4-9.3 4.1 0 6.3 2.5 6.9 5.8l.1.3h-1l-.1-.3c-.6-2.8-2.6-4.9-6-4.9-3.8 0-7.2 3.1-7.2 8.4 0 5.6 3.1 8.4 6.9 8.4 2.7 0 6.2-1.9 6.2-6.8h-5.6v-.9h6.6zm14.3 1.5h-10.9c.2 4.4 2.6 6.1 5 6.1 2.1 0 4-1.2 4.7-3.8h1c-.8 3.1-3.1 4.6-5.8 4.6-3.3 0-6-2.4-6-7.2 0-4.3 2.7-7.1 6.2-7.1 3.9 0 5.7 3.3 5.7 6.8.1.1.1.3.1.6zm-10.9-.8h9.9c-.2-4.2-2.5-5.8-4.8-5.8-2.4 0-4.9 1.9-5.1 5.8zm24.2-.2v7.6h-1v-7.4c0-.9 0-1.5-.1-2.2-.2-2.1-1.4-3.6-3.9-3.6-2.4 0-4.6 1.7-4.6 5.6v7.6h-1v-13.6h1v2.9l.6-1.4c1-1.3 2.5-1.9 4.1-1.9 2.8 0 4.5 1.6 4.7 4.1.2.7.2 1.2.2 2.3zm7.8 6.9v.8c-.4.1-1 .1-1.4.1-1.3 0-2-.6-2.1-1.9-.1-.6-.1-1-.1-1.8V354h-1.7v-.8h1.7v-2.9h1v2.9h2.6v.8H848v10.7c.1 1.3.7 1.7 2.7 1.4zm7.6-13.2v.8c-2.5-.2-4.2 1.4-4.2 5.6v7.6h-1v-13.6h1v2.8l.7-1.7c.7-.9 1.7-1.5 2.8-1.5.3-.1.5-.1.7 0zm6.7 14.2c-1.7 4.3-2.8 5.1-4.5 5.1-.4 0-.7 0-1-.1v-.9c.3.1.6.1 1 .1 1.1 0 2.1-.7 3.1-3.3l.4-1-5.4-14h1.1l4.8 12.9 4.8-12.9h1.1l-5.4 14.1z"/><circle class="st1" cx="737.6" cy="357.1" r="5"/></g><g><path class="st2" d="M505.6 107H493v-.8L504.3 90h-10.6v-.9h11.7v.9l-11.3 16.2h11.4v.8zm10.8-3l-.6 1.4c-.9 1.3-2.4 2-4.1 2-2.6 0-4.3-1.3-4.3-3.7 0-3.2 3.6-4.6 8.2-4.6h.9v-.6c0-.6 0-1.2-.1-1.7-.2-1.8-1.3-2.9-3.5-2.9-1.9 0-3.6 1-3.9 3.4h-1c.2-2.4 2.2-4.2 4.9-4.2 2.8 0 4.3 1.3 4.5 3.6.1.7.1 1.1.1 1.8v4.5c0 1.4.1 2.4.2 4.2h-1l-.3-3.2zm0-2.3v-1.8c-3.9-.3-7.9.8-7.9 3.7 0 1.8 1.1 3 3.4 3 2.7 0 4.5-2.3 4.5-4.9zm15.3-2.3v7.6h-1v-7.4c0-.9 0-1.5-.1-2.2-.2-2.1-1.4-3.6-3.9-3.6-2.4 0-4.6 1.7-4.6 5.6v7.6h-1V87.9h1v8.4l.6-1.4c1-1.3 2.5-1.9 4.1-1.9 2.8 0 4.5 1.6 4.7 4.1.1.8.2 1.2.2 2.3zm11.9 4.6l-.6 1.4c-.9 1.3-2.4 2-4.1 2-2.6 0-4.3-1.3-4.3-3.7 0-3.2 3.6-4.6 8.2-4.6h.9v-.6c0-.6 0-1.2-.1-1.7-.2-1.8-1.3-2.9-3.5-2.9-1.9 0-3.6 1-3.9 3.4h-1c.2-2.4 2.2-4.2 4.9-4.2 2.8 0 4.3 1.3 4.5 3.6.1.7.1 1.1.1 1.8v4.5c0 1.4.1 2.4.2 4.2h-1l-.3-3.2zm0-2.3v-1.8c-3.9-.3-7.9.8-7.9 3.7 0 1.8 1.1 3 3.4 3 2.7 0 4.5-2.3 4.5-4.9zm23.3 5.3h-1v-8.3h-11.1v8.3h-1V89.2h1v8.7H566v-8.7h1V107zm12.1-3l-.6 1.4c-.9 1.3-2.4 2-4.1 2-2.6 0-4.3-1.3-4.3-3.7 0-3.2 3.6-4.6 8.2-4.6h.9v-.6c0-.6 0-1.2-.1-1.7-.2-1.8-1.3-2.9-3.5-2.9-1.9 0-3.6 1-3.9 3.4h-1c.2-2.4 2.2-4.2 4.9-4.2 2.8 0 4.3 1.3 4.5 3.6.1.7.1 1.1.1 1.8v4.5c0 1.4.1 2.4.2 4.2h-1l-.3-3.2zm0-2.3v-1.8c-3.9-.3-7.9.8-7.9 3.7 0 1.8 1.1 3 3.4 3 2.7 0 4.5-2.3 4.5-4.9zm15.5 5.3h-1v-2.9l-.8 1.6c-1.1 1.2-2.4 1.7-4.1 1.7-3.7 0-6-3-6-7.1 0-4.9 3-7.3 6.3-7.3 1.6 0 2.8.5 3.8 1.6l.8 1.6V88h1v19zm-1-6.3v-1.3c0-4.2-2.5-5.5-4.6-5.5-3.1 0-5.2 2.5-5.2 6.3 0 3.4 1.7 6.4 5 6.4 2.6 0 4.8-1.6 4.8-5.9zm6-10.2c0 .4-.3.8-.8.8s-.8-.3-.8-.8.3-.8.8-.8.8.4.8.8zm-1.3 16.5V93.4h1V107h-1zm15.6 0h-1v-2.9l-.8 1.6c-1.1 1.2-2.4 1.7-4.1 1.7-3.7 0-6-3-6-7.1 0-4.9 3-7.3 6.3-7.3 1.6 0 2.8.5 3.8 1.6l.8 1.6V88h1v19zm-1-6.3v-1.3c0-4.2-2.5-5.5-4.6-5.5-3.1 0-5.2 2.5-5.2 6.3 0 3.4 1.7 6.4 5 6.4 2.6 0 4.8-1.6 4.8-5.9z"/><circle class="st1" cx="482.1" cy="97.7" r="5"/></g><g><path class="st2" d="M614.4 37.9l-2.5 6.8h-1.1l6.8-17.9h1.3l6.7 17.9h-1.1l-2.6-6.8h-7.5zm7.3-.9l-3.5-9.4-3.5 9.4h7zm11.4-6.2v.8c-2.5-.2-4.2 1.4-4.2 5.6v7.6h-1V31h1v2.8l.7-1.7c.7-.9 1.7-1.5 2.8-1.5.2.1.5.1.7.2zm6.1 13.2v.8c-.4.1-1 .1-1.4.1-1.3 0-2-.6-2.1-1.9-.1-.6-.1-1-.1-1.8V32h-1.7v-.8h1.7v-2.9h1v2.9h2.6v.8h-2.6v10.7c0 1.2.6 1.6 2.6 1.3zm1.4-6.2V37h5.4v.8h-5.4zm23-2.2c0 6-4 8.6-6.8 8.9-.9.1-1.4.1-2.3.1h-5.2V26.8h5.2c.9 0 1.3 0 2 .1 3.1.3 7.1 2.7 7.1 8.7zm-1.1 0c0-5.2-3.2-7.6-6.1-7.9-.6-.1-1-.1-1.9-.1h-4.2v16.1h4.2c.9 0 1.4 0 2.2-.1 2.9-.3 5.8-2.9 5.8-8zm14.8 2.5h-10.9c.2 4.4 2.6 6.1 5 6.1 2.1 0 4-1.2 4.7-3.8h1c-.8 3.1-3.1 4.6-5.8 4.6-3.3 0-6-2.4-6-7.2 0-4.3 2.7-7.1 6.2-7.1 3.9 0 5.7 3.3 5.7 6.8.1.1.1.3.1.6zm-10.9-.8h9.9c-.2-4.2-2.5-5.8-4.8-5.8-2.4 0-4.9 1.9-5.1 5.8zm24.5-1.9h-1c-.5-2.4-2-3.9-4.6-3.9-2.5 0-5.2 2-5.2 6.2 0 4.5 2.5 6.5 5 6.5 2.2 0 4.1-1.3 4.6-3.7h1c-.6 2.8-2.8 4.5-5.6 4.5-3.4 0-6.1-2.5-6.1-7.2 0-4.5 2.9-7.2 6.3-7.2 3.1.1 5.2 2 5.6 4.8zm14.6 2.5c0 4.2-2.5 7.2-6.5 7.2s-6.5-3-6.5-7.2 2.5-7.2 6.5-7.2 6.5 3 6.5 7.2zm-1.1 0c0-4.2-2.5-6.4-5.4-6.4s-5.4 2.1-5.4 6.4c0 4.2 2.5 6.3 5.4 6.3s5.4-2.1 5.4-6.3z"/><circle class="st1" cx="598" cy="43.3" r="5"/></g><path d="M157.6 70.7l-31 31.8-2.7-51.2m343.5 59.8l22.6 69.8-48.1-48.1M710 166.7l-33.5 35.5-10.2-26zm-459.8 85.8l49.9 8-22.1 19.6-27.8-27.6M760.5 97.1v35.4l-36.1-19.7z"/><g><path class="st2" d="M298.3 287.4v17h-1v-17h-6.7v-.8H305v.8h-6.7zm15.3 14.1l-.6 1.4c-.9 1.3-2.4 2-4.1 2-2.6 0-4.3-1.3-4.3-3.7 0-3.2 3.6-4.6 8.2-4.6h.9v-.6c0-.6 0-1.2-.1-1.7-.2-1.8-1.3-2.9-3.5-2.9-1.9 0-3.6 1-3.9 3.4h-1c.2-2.4 2.2-4.2 4.9-4.2 2.8 0 4.3 1.3 4.5 3.6.1.7.1 1.1.1 1.8v4.5c0 1.4.1 2.4.2 4.2h-1l-.3-3.2zm0-2.4v-1.8c-3.9-.3-7.9.8-7.9 3.7 0 1.8 1.1 3 3.4 3 2.7 0 4.5-2.3 4.5-4.9zm9.9-8.6v.8c-2.5-.2-4.2 1.4-4.2 5.6v7.6h-1v-13.6h1v2.8l.7-1.7c.7-.9 1.7-1.5 2.8-1.5h.7zm10.3 11l-.6 1.4c-.9 1.3-2.4 2-4.1 2-2.6 0-4.3-1.3-4.3-3.7 0-3.2 3.6-4.6 8.2-4.6h.9v-.6c0-.6 0-1.2-.1-1.7-.2-1.8-1.3-2.9-3.5-2.9-1.9 0-3.6 1-3.9 3.4h-1c.2-2.4 2.2-4.2 4.9-4.2 2.8 0 4.3 1.3 4.5 3.6.1.7.1 1.1.1 1.8v4.5c0 1.4.1 2.4.2 4.2h-1l-.3-3.2zm-.1-2.4v-1.8c-3.9-.3-7.9.8-7.9 3.7 0 1.8 1.1 3 3.4 3 2.7 0 4.5-2.3 4.5-4.9zm15.3-2.2v7.6h-1v-7.4c0-.9 0-1.5-.1-2.2-.2-2.1-1.4-3.6-3.9-3.6-2.4 0-4.6 1.7-4.6 5.6v7.6h-1v-13.6h1v2.9l.6-1.4c1-1.3 2.5-1.9 4.1-1.9 2.8 0 4.5 1.6 4.7 4.1.1.7.2 1.1.2 2.3zm7.7 6.9v.8c-.4.1-1 .1-1.4.1-1.3 0-2-.6-2.1-1.9-.1-.6-.1-1-.1-1.8v-9.2h-1.7v-.8h1.7v-3h1v2.9h2.6v.8H354v10.7c.2 1.3.8 1.7 2.7 1.4zm3.7-15.8c0 .4-.3.8-.8.8s-.8-.3-.8-.8.3-.8.8-.8.8.4.8.8zm-1.2 16.5v-13.6h1v13.6h-1zm15.2-7.6v7.6h-1v-7.4c0-.9 0-1.5-.1-2.2-.2-2.1-1.4-3.6-3.9-3.6-2.4 0-4.6 1.7-4.6 5.6v7.6h-1v-13.6h1v2.9l.6-1.4c1-1.3 2.5-1.9 4.1-1.9 2.8 0 4.5 1.6 4.7 4.1.2.7.2 1.1.2 2.3zm15.5.8c0 4.2-2.5 7.2-6.5 7.2s-6.5-3-6.5-7.2 2.5-7.2 6.5-7.2 6.5 2.9 6.5 7.2zm-1 0c0-4.2-2.5-6.4-5.4-6.4s-5.4 2.1-5.4 6.4c0 4.2 2.5 6.3 5.4 6.3s5.4-2.1 5.4-6.3z"/><circle class="st1" cx="278.5" cy="284.5" r="5"/></g></g></svg>