<svg xmlns="http://www.w3.org/2000/svg" viewBox="0 0 539.077 539.077"><path d="M460.462 527.846h-134.77c-6.208 0-11.23-5.023-11.23-11.23v-146h-89.847v146c0 6.207-5.023 11.23-11.23 11.23H78.614c-6.208 0-11.23-5.023-11.23-11.23V292c0-6.208 5.022-11.23 11.23-11.23s11.23 5.022 11.23 11.23v213.385h112.31v-146c0-6.208 5.022-11.23 11.23-11.23h112.308c6.208 0 11.23 5.022 11.23 11.23v146h112.31V303.23c0-6.207 5.022-11.23 11.23-11.23s11.23 5.023 11.23 11.23v213.386c0 6.207-5.024 11.23-11.23 11.23zM527.846 292c-2.873 0-5.747-1.097-7.94-3.29L269.538 38.343 19.17 288.71c-4.386 4.387-11.493 4.387-15.88 0-4.387-4.387-4.387-11.494 0-15.88L261.598 14.52c4.387-4.386 11.494-4.386 15.88 0l258.31 258.31c4.386 4.386 4.386 11.493 0 15.88-2.195 2.193-5.068 3.29-7.942 3.29zM438 134.77c-6.208 0-11.23-5.024-11.23-11.232V56.154h-67.386c-6.208 0-11.23-5.023-11.23-11.23s5.022-11.232 11.23-11.232H438c6.208 0 11.23 5.023 11.23 11.23v78.616c0 6.208-5.022 11.23-11.23 11.23z"/></svg>