<svg xmlns="http://www.w3.org/2000/svg" viewBox="0 0 597.72375 269.67749" height="269.67749" width="597.72375">
  <defs>
    <clipPath id="a">
      <path d="M0 215.742h478.179V0H0v215.742z"/>
    </clipPath>
  </defs>
  <path d="M17.063625 236.489v31.17375h-1.8V236.489H2.992375v-1.51625h26.39v1.51625h-12.31875zM61.41425 267.663375H59.093l-8.43375-30.46375-8.955 30.46375h-2.415l-8.2925-32.69H32.988l7.6275 30.985 8.86-30.51125h2.46375l8.385 30.46375 8.15-30.9375h1.8475l-8.9075 32.69z" fill="#000000"/>
  <g clip-path="url(#a)" transform="matrix(1.25 0 0 -1.25 0 269.68)">
    <path d="M81.4298 14.6875c0 7.884-4.624 12.356-10.347 12.356-5.761 0-10.386-4.472-10.386-12.356 0-7.846 4.625-12.356 10.386-12.356 5.723 0 10.347 4.51 10.347 12.356m1.592 0c0-7.846-4.624-13.607-11.939-13.607-7.354 0-11.978 5.761-11.978 13.607 0 7.884 4.624 13.607 11.978 13.607 7.315 0 11.939-5.723 11.939-13.607M111.3775 20.9414h-1.516c-.568 3.866-3.184 6.103-6.784 6.103-3.184 0-6.596-1.744-6.596-5.269 0-3.525 2.161-4.7 7.088-6.064 5.496-1.479 8.187-3.412 8.187-7.582 0-4.054-3.676-7.049-8.604-7.049-4.889 0-8.869 2.464-9.438 7.505h1.517c.568-4.056 3.941-6.254 7.959-6.254 3.98 0 7.012 2.236 7.012 5.572 0 3.6-2.122 5.041-7.239 6.443-5.382 1.441-8.036 3.108-8.036 7.201 0 3.98 3.791 6.748 8.263 6.748 5.003 0 7.694-3.298 8.187-7.354M117.635 27.764h1.44V1.612h-1.44v26.152zM141.8179 8.623c0 3.07-1.554 5.724-5.989 5.951-.871.075-1.402.075-2.009.075h-6.481V2.862h6.709c.606 0 1.251.037 1.744.075 3.032.228 6.026 1.896 6.026 5.686m-14.479 7.277h5.989c.606 0 1.251.038 2.085.077 2.728.227 5.42 1.591 5.42 5.268 0 3.752-2.767 5.078-5.61 5.231-.834.038-1.478.038-2.388.038h-5.496V15.9zm16.033-7.164c0-4.32-3.335-6.708-7.126-7.011-1.061-.114-1.781-.114-2.766-.114h-7.581v26.153h6.86c1.1 0 1.782 0 3.07-.076 4.018-.341 6.557-2.578 6.557-6.253 0-3.222-1.857-5.345-4.851-5.99 3.866-.719 5.837-3.107 5.837-6.709M148.909 27.764h1.44V1.612h-1.44v26.152zM173.7364 1.6113h-16.563v26.152h1.439V2.8623h15.124v-1.251zM178.325 27.764h1.44V1.612h-1.44v26.152zM202.8497 1.6113l-14.896 24.788c.076-3.411.076-7.429.076-10.84V1.6113h-1.44v26.152h2.198l14.934-24.788c-.076 3.411-.076 7.467-.076 10.878v13.91h1.402l.038-26.152h-2.236zM232.3414 13.5127V1.6117h-1.327v6.329l-.871-2.426c-2.009-3.146-5.231-4.435-8.49-4.435-6.861 0-11.561 5.231-11.561 13.532 0 8.111 5.193 13.683 12.281 13.683 5.95 0 9.21-3.677 10.044-8.452l.076-.38h-1.441l-.075.38c-.834 4.131-3.753 7.201-8.756 7.201-5.609 0-10.537-4.51-10.537-12.356 0-8.15 4.472-12.357 10.082-12.357 4.018 0 9.135 2.73 9.135 9.931h-8.149v1.251h9.589zM254.2911 20.9414h-1.516c-.568 3.866-3.183 6.103-6.784 6.103-3.184 0-6.596-1.744-6.596-5.269 0-3.525 2.161-4.7 7.088-6.064 5.496-1.479 8.188-3.412 8.188-7.582 0-4.054-3.677-7.049-8.605-7.049-4.889 0-8.869 2.464-9.437 7.505h1.516c.569-4.056 3.942-6.254 7.959-6.254 3.98 0 7.012 2.236 7.012 5.572 0 3.6-2.122 5.041-7.239 6.443-5.382 1.441-8.035 3.108-8.035 7.201 0 3.98 3.79 6.748 8.262 6.748 5.003 0 7.695-3.298 8.187-7.354M288.3702 14.6875c0 7.884-4.624 12.356-10.348 12.356-5.76 0-10.385-4.472-10.385-12.356 0-7.846 4.625-12.356 10.385-12.356 5.724 0 10.348 4.51 10.348 12.356m1.592 0c0-7.846-4.624-13.607-11.94-13.607-7.353 0-11.977 5.761-11.977 13.607 0 7.884 4.624 13.607 11.977 13.607 7.316 0 11.94-5.723 11.94-13.607M311.7227 1.6113l-14.896 24.788c.076-3.411.076-7.429.076-10.84V1.6113h-1.441v26.152h2.198l14.934-24.788c-.075 3.411-.075 7.467-.075 10.878v13.91h1.402l.038-26.152h-2.236zM337.3106 1.6113h-16.563v26.152h16.184v-1.213h-14.744v-11.256h13.872v-1.213h-13.872V2.8623h15.123v-1.251zM369.1524 14.8389c0 7.619-4.662 11.105-8.869 11.561-.834.114-1.478.114-2.843.114h-6.178V2.8619h6.103c1.251 0 2.084.038 3.222.19 4.207.53 8.565 4.358 8.565 11.787m1.593 0c0-8.831-5.838-12.583-9.969-13.076-1.327-.152-2.085-.152-3.336-.152h-7.618v26.153h7.656c1.251 0 1.858 0 2.919-.075 4.51-.417 10.348-3.943 10.348-12.85M392.8087 1.6113h-16.563v26.152h16.183v-1.213h-14.744v-11.256h13.873v-1.213h-13.873V2.8623h15.124v-1.251zM413.6192 20.9414h-1.516c-.568 3.866-3.183 6.103-6.784 6.103-3.184 0-6.596-1.744-6.596-5.269 0-3.525 2.161-4.7 7.088-6.064 5.496-1.479 8.188-3.412 8.188-7.582 0-4.054-3.677-7.049-8.605-7.049-4.889 0-8.869 2.464-9.437 7.505h1.516c.569-4.056 3.942-6.254 7.959-6.254 3.98 0 7.012 2.236 7.012 5.572 0 3.6-2.122 5.041-7.239 6.443-5.382 1.441-8.035 3.108-8.035 7.201 0 3.98 3.79 6.748 8.262 6.748 5.003 0 7.695-3.298 8.187-7.354M419.877 27.764h1.44V1.612h-1.44v26.152zM448.6085 13.5127V1.6117h-1.327v6.329l-.871-2.426c-2.009-3.146-5.231-4.435-8.49-4.435-6.861 0-11.561 5.231-11.561 13.532 0 8.111 5.192 13.683 12.28 13.683 5.951 0 9.211-3.677 10.044-8.452l.076-.38h-1.44l-.075.38c-.834 4.131-3.753 7.201-8.756 7.201-5.609 0-10.537-4.51-10.537-12.356 0-8.15 4.472-12.357 10.082-12.357 4.017 0 9.135 2.73 9.135 9.931h-8.15v1.251h9.59zM471.2403 1.6113l-14.896 24.788c.076-3.411.076-7.429.076-10.84V1.6113h-1.44v26.152h2.198l14.934-24.788c-.076 3.411-.076 7.467-.076 10.878v13.91h1.402l.038-26.152h-2.236z" fill="#000000"/>
    <path d="M421.5186 205.4966c-1.098 1.217-2.444 1.709-4.038 1.709-1.585 0-3.055-.611-4.153-1.709-1.222-1.222-1.709-2.568-1.709-4.158 0-1.589.611-2.931 1.709-4.033 1.222-1.223 2.568-1.714 4.153-1.714 1.594 0 2.94.616 4.038 1.714 1.222 1.102 1.709 2.444 1.709 4.033 0 1.59-.61 2.936-1.709 4.158m-25.911 0c-1.222 1.217-2.568 1.709-4.152 1.709-1.595 0-2.932-.611-4.04-1.709-1.097-1.222-1.709-2.568-1.709-4.158 0-1.589.612-2.931 1.709-4.033 1.108-1.223 2.445-1.714 4.04-1.714 1.584 0 3.054.616 4.152 1.714 1.223 1.102 1.709 2.444 1.709 4.033.124 1.59-.486 2.936-1.709 4.158m-169.52-20.044v-5.256h-65.995v-61.599h53.044v-5.255h-53.044v-62.086h65.995v-5.256h-71.251v139.452h71.251zm-88.364 0V46.1206h-5.132v134.076l-57.932-134.196h-6.721l-57.809 134.196V46.1206h-5.256v139.332h8.679l57.808-133.953 57.813 133.953h8.55zm49.134 29.21h6.722v-23.467h-6.722v23.467z" fill="#000000"/>
    <path d="M471.2598 109.8003l-65.017-65.021m65.627 85.304l-82.133-82.125m77.733 97.53l-92.149-92.274m82.983 102.78l-95.452-95.447m85.552 105.223l-95.94-95.939" fill="none" stroke="#000000" vector-effect="non-scaling-stroke" stroke-width="1.1" stroke-miterlimit="10"/>
    <path d="M244.5421 117.9868v62.21h43.755c8.555 0 15.887-3.055 21.883-9.17 6.109-6.111 9.165-13.443 9.165-21.997s-3.056-15.892-9.165-21.997c-6.111-6.11-13.452-9.17-21.883-9.17h-43.755v.124zm47.794-5.131c9.165.974 16.745 5.007 22.855 11.852 6.225 6.965 9.29 15.032 9.29 24.322 0 10.02-3.551 18.579-10.635 25.663-7.094 7.093-15.649 10.635-25.663 10.635h-49.016V46.0008h5.256v66.73h42.165l34.59-66.611h5.861l-34.703 66.736zm158.884-43.636c-12.831-12.831-28.356-19.309-46.447-19.309-18.207 0-33.606 6.478-46.447 19.309-12.832 12.837-19.305 28.355-19.305 46.447 0 18.207 6.473 33.731 19.305 46.438 12.841 12.836 28.355 19.314 46.447 19.314 18.206 0 33.616-6.478 46.447-19.314 12.832-12.832 19.304-28.351 19.304-46.438 0-18.092-6.472-33.491-19.304-46.447m3.666 96.675c-13.815 13.934-30.56 20.899-50.113 20.899-19.552 0-36.298-6.965-50.114-20.899-13.929-13.81-20.898-30.556-20.898-50.228 0-19.557 6.969-36.299 20.898-50.113 13.816-13.929 30.562-20.899 50.114-20.899 19.553 0 36.298 6.97 50.113 20.899 13.929 13.814 20.899 30.556 20.899 50.113-.124 19.672-6.97 36.418-20.899 50.228" fill="#000000"/>
  </g>
</svg>
