<svg version="1" xmlns="http://www.w3.org/2000/svg" viewBox="0 0 1016.7 352">
  <style>
    .st0{fill:#000000;} .st1{fill:none;stroke:#000000;stroke-width:0.7004;stroke-miterlimit:10;} .st2{fill:#4E4C4B;} .st3{fill:#FFFFFF;stroke:#FFFFFF;stroke-width:0.989;stroke-miterlimit:10;} .st4{fill:#FFFFFF;stroke:#000000;stroke-width:0.7004;stroke-miterlimit:10;}
  </style>
  <g id="Layer_3">
    <path vector-effect="non-scaling-stroke" class="st0" d="M444.9 105l21 64.9-44.6-44.7"/>
    <path vector-effect="non-scaling-stroke" d="M444.9 105l20.7 64.2"/>
    <path vector-effect="non-scaling-stroke" class="st1" d="M70.1 19.4l124.5 68.4M269.3 261.7L112.8 113M270.4 261.2l185-165.9M421.9 125.1l96.5 97.1M491.4 195L746 140.6M565.6 43.5l181.1 97.1M629.7 165.6l65.8 167.7M665.3 256l109.5-28.6M683.8 106.7l134.9-58.9M157.4 67.2L14 215.5M222.4 136.4l-33.7 49.5"/>
    <path vector-effect="non-scaling-stroke" class="st2" d="M97 13.3c0 5.2-3.3 7.9-6.5 8.4-.8.1-1.3.1-2.1.1h-4.9V5.1h4.9c.9 0 1.3 0 2 .1 3.4.4 6.6 2.8 6.6 8.1zm-1.6 0c0-4.3-2.3-6.5-5.1-6.8-.5-.1-1.1-.1-1.9-.1H85v14.1h3.3c.8 0 1.4 0 2-.1 2.8-.4 5.1-2.8 5.1-7.1zM107.1 19.4l-.6 1.3c-.9.9-2.1 1.3-3.5 1.3-2.4 0-4-1.2-4-3.5 0-2.9 2.8-4.3 7.4-4.3h.8v-.5-1.6c-.1-1.5-1-2.3-2.8-2.3-1.8 0-3 .9-3.2 2.9h-1.6c.2-2.5 2.1-4.1 4.8-4.1 2.8 0 4.1 1.3 4.3 3.4v6.2c0 1.1.1 2 .2 3.6h-1.5l-.3-2.4zm-.1-2.6v-1.5c-3.6-.2-6.5.6-6.5 3.1 0 1.6 1 2.5 2.9 2.5 2.2 0 3.6-1.7 3.6-4.1zM122.7 21.7h-1.5v-2.4l-.8 1.4c-.9.9-2.1 1.3-3.6 1.3-3.6 0-5.7-2.8-5.7-6.5 0-4.6 2.8-6.9 6.1-6.9 1.3 0 2.5.4 3.3 1.2l.8 1.4V4h1.5v17.7zm-1.5-6v-1c0-3.6-2.2-4.8-4.1-4.8-2.5 0-4.4 2-4.4 5.5 0 3.1 1.5 5.6 4.3 5.6 2.2-.1 4.2-1.5 4.2-5.3zM133.6 19.4l-.6 1.3c-.9.9-2.1 1.3-3.5 1.3-2.4 0-4-1.2-4-3.5 0-2.9 2.8-4.3 7.4-4.3h.8v-.5-1.6c-.1-1.5-1-2.3-2.8-2.3-1.8 0-3 .9-3.2 2.9H126c.2-2.5 2.1-4.1 4.8-4.1 2.8 0 4.1 1.3 4.3 3.4v6.2c0 1.1.1 2 .2 3.6h-1.5l-.2-2.4zm0-2.6v-1.5c-3.6-.2-6.5.6-6.5 3.1 0 1.6 1 2.5 2.9 2.5 2.1 0 3.6-1.7 3.6-4.1zM219.2 91.3h-1.5v-7.5H208v7.5h-1.5V74.7h1.5v7.8h9.7v-7.8h1.5v16.6zM230.1 89l-.6 1.3c-.9.9-2.1 1.3-3.5 1.3-2.4 0-4-1.2-4-3.5 0-2.9 2.8-4.3 7.4-4.3h.8v-.5-1.6c-.1-1.5-1-2.3-2.8-2.3-1.8 0-3 .9-3.2 2.9h-1.6c.2-2.5 2.1-4.1 4.8-4.1 2.8 0 4.1 1.3 4.3 3.4v6.2c0 1.1.1 2 .2 3.6h-1.5l-.3-2.4zm0-2.6V85c-3.6-.2-6.5.6-6.5 3.1 0 1.6 1 2.5 2.9 2.5 2.1-.1 3.6-1.8 3.6-4.2zM245.4 84.2v7.1h-1.5v-7-1.9c-.2-1.7-1.1-3-3.3-3-2.1 0-4 1.5-4 5.5v6.3h-1.5V78.6h1.5v2.5l.7-1.4c1-1 2.2-1.4 3.6-1.4 2.7 0 4.2 1.5 4.5 3.8v2.1zM257 82.2h-1.6c-.4-1.8-1.4-2.7-3.1-2.7-1.5 0-2.6.9-2.6 2.3 0 1.5 1.2 2 3 2.5 2.9.7 4.3 1.8 4.3 3.9 0 2.3-1.9 3.5-4.5 3.5-2.5 0-4.5-1.2-4.9-4.1h1.5c.4 2.2 1.7 2.9 3.4 2.9 1.6 0 2.9-.7 2.9-2.2 0-1.4-.9-2.1-3.4-2.7-2.2-.6-4-1.5-4-3.7s1.7-3.6 4.2-3.6c3 0 4.5 1.6 4.8 3.9zM276 91.3h-12.2v-1.2L274.1 76h-9.6v-1.3h11.4V76l-10.2 14.1H276v1.2zM280 75.9c0 .6-.4 1-1 1s-1-.5-1-1c0-.6.5-1 1-1 .6-.1 1 .4 1 1zm-1.7 15.4V78.6h1.5v12.7h-1.5zM300.1 83.8v7.5h-1.5v-6.8c0-1 0-1.7-.1-2.3-.2-1.7-1.2-2.7-2.8-2.7-1.8 0-3.2 1.4-3.2 5.2v6.7H291v-6.8c0-1 0-1.7-.1-2.3-.2-1.7-1.2-2.7-2.8-2.7-1.8 0-3.2 1.4-3.2 5.2v6.7h-1.5V78.6h1.5v2.2l.7-1.4c.7-.8 1.7-1.1 2.9-1.1 2 0 3.3 1.1 3.7 2.7l1-1.6c.7-.8 1.7-1.1 2.9-1.1 2.3 0 3.6 1.4 3.8 3.4.1.6.2 1.1.2 2.1zM320.2 83.8v7.5h-1.5v-6.8c0-1 0-1.7-.1-2.3-.2-1.7-1.2-2.7-2.8-2.7-1.8 0-3.2 1.4-3.2 5.2v6.7h-1.5v-6.8c0-1 0-1.7-.1-2.3-.2-1.7-1.2-2.7-2.8-2.7-1.8 0-3.2 1.4-3.2 5.2v6.7h-1.5V78.6h1.5v2.2l.7-1.4c.7-.8 1.7-1.1 2.9-1.1 2 0 3.3 1.1 3.7 2.7l1-1.6c.7-.8 1.7-1.1 2.9-1.1 2.3 0 3.6 1.4 3.8 3.4.2.6.2 1.1.2 2.1zM333.8 85.4h-9.6c.2 3.8 2.1 5.1 4.1 5.1 1.8 0 3.4-1.1 3.8-3.2h1.6c-.6 3-2.9 4.4-5.5 4.4-3.2 0-5.7-2.2-5.7-6.7 0-4.1 2.5-6.7 5.9-6.7 3.6 0 5.4 2.8 5.4 6.4.1.1.1.3 0 .7zm-9.6-1.2h8.2c-.2-3.3-1.8-4.8-3.9-4.8-2.2.1-4.1 1.7-4.3 4.8zM341.9 78.4v1.2c-2.2-.2-3.8 1.2-3.8 4.6v7.2h-1.5V78.6h1.5v2.3l.9-1.6c.6-.6 1.4-1 2.2-1 .2 0 .5 0 .7.1zM43 218.9c0 5.2-3.3 7.9-6.5 8.4-.8.1-1.3.1-2.1.1h-4.9v-16.6h4.9c.9 0 1.3 0 2 .1 3.4.3 6.6 2.7 6.6 8zm-1.6 0c0-4.3-2.3-6.5-5.1-6.8-.5-.1-1.1-.1-1.9-.1H31v14.1h3.3c.8 0 1.4 0 2-.1 2.8-.4 5.1-2.8 5.1-7.1zM53.1 225.1l-.6 1.3c-.9.9-2.1 1.3-3.5 1.3-2.4 0-4-1.2-4-3.5 0-2.9 2.8-4.3 7.4-4.3h.8v-.5-1.6c-.1-1.5-1-2.3-2.8-2.3-1.8 0-3 .9-3.2 2.9h-1.6c.2-2.5 2.1-4.1 4.8-4.1 2.8 0 4.1 1.3 4.3 3.4v6.2c0 1.1.1 2 .2 3.6h-1.5l-.3-2.4zm0-2.6V221c-3.6-.2-6.5.6-6.5 3.1 0 1.6 1 2.5 2.9 2.5 2.1-.1 3.6-1.8 3.6-4.1zM59.5 224v1.4c0 .8.4 1 1.5.9v1.1c-.4.1-.8.1-1.2.1-1 0-1.7-.3-1.8-1.7v-16.1h1.5V224zM73.6 221.4H64c.2 3.8 2.1 5.1 4.1 5.1 1.8 0 3.4-1.1 3.8-3.2h1.6c-.6 3-2.9 4.4-5.5 4.4-3.2 0-5.7-2.2-5.7-6.7 0-4.1 2.5-6.7 5.9-6.7 3.6 0 5.4 2.8 5.4 6.4.1.1.1.4 0 .7zm-9.6-1.1h8.2c-.2-3.3-1.8-4.8-3.9-4.8-2.2 0-4.1 1.6-4.3 4.8zM95 215.9v.2h-1.5v-.2c-.5-2.5-2.2-4.3-5.1-4.3-3.4 0-6 2.9-6 7.4 0 4.6 2.5 7.4 5.8 7.4 3.1 0 4.7-1.9 5.2-4.4v-.2h1.5v.2c-.4 3.1-2.6 5.6-6.8 5.6-4.5 0-7.4-3.5-7.4-8.6s3.2-8.7 7.7-8.7c4 .1 6.1 2.5 6.6 5.6zM108.1 220.2v7.1h-1.5v-7-1.9c-.2-1.7-1.1-3-3.3-3-2.1 0-4 1.5-4 5.5v6.3h-1.5v-17.8h1.5v7.5l.7-1.4c1-1 2.2-1.4 3.6-1.4 2.7 0 4.2 1.5 4.5 3.8v2.3zM113.3 211.9c0 .6-.4 1-1 1s-1-.5-1-1c0-.6.5-1 1-1 .6 0 1 .4 1 1zm-1.8 15.5v-12.7h1.5v12.7h-1.5zM126.9 220.2v7.1h-1.5v-7-1.9c-.2-1.7-1.1-3-3.3-3-2.1 0-4 1.5-4 5.5v6.3h-1.5v-17.8h1.5v7.5l.7-1.4c1-1 2.2-1.4 3.6-1.4 2.7 0 4.2 1.5 4.5 3.8v2.3zM140.3 227.4h-1.5v-2.5l-.7 1.4c-1 1-2.2 1.4-3.6 1.4-2.6 0-4.1-1.5-4.4-3.5-.1-.6-.1-1.1-.1-2.1v-7.4h1.5v7.1c0 .6 0 1.3.1 1.9.2 1.7 1.3 2.9 3.3 2.9 2.1 0 3.9-1.5 3.9-5.5v-6.3h1.5v12.6zM145.3 224v1.4c0 .8.4 1 1.5.9v1.1c-.4.1-.8.1-1.2.1-1 0-1.7-.3-1.8-1.7v-16.1h1.5V224zM154 228c-1.3 3.4-2.5 4.4-4.3 4.4-.4 0-.7 0-1-.1v-1.2h.8c1.2 0 2-.6 2.8-2.6l.3-.7-5-13.2h1.7l4.1 11.6 4.1-11.6h1.6L154 228z"/>
    <ellipse class="st3" cx="16.6" cy="214" rx="4.7s" ry="4.7"/>
    <g>
      <path vector-effect="non-scaling-stroke" class="st2" d="M243.5 133.6v2.1c-.2 2.6-1.7 4.6-5.1 4.6-3 0-4.7-1.8-4.8-5v-.9h1.5v.9c.1 2.7 1.4 3.8 3.5 3.8s3.2-1.3 3.4-3.5V123.4h1.5v10.2zM256.9 134h-9.6c.2 3.8 2.1 5.1 4.1 5.1 1.8 0 3.4-1.1 3.8-3.2h1.6c-.6 3-2.9 4.4-5.5 4.4-3.2 0-5.7-2.2-5.7-6.7 0-4.1 2.5-6.7 5.9-6.7 3.6 0 5.4 2.8 5.4 6.4v.7zm-9.7-1.2h8.2c-.2-3.3-1.8-4.8-3.9-4.8-2.1.1-4 1.7-4.3 4.8zM265 127v1.2c-2.2-.2-3.8 1.2-3.8 4.6v7.2h-1.5v-12.7h1.5v2.3l.9-1.6c.6-.6 1.4-1 2.2-1 .2-.1.5-.1.7 0zM276.9 134h-9.6c.2 3.8 2.1 5.1 4.1 5.1 1.8 0 3.4-1.1 3.8-3.2h1.6c-.6 3-2.9 4.4-5.5 4.4-3.2 0-5.7-2.2-5.7-6.7 0-4.1 2.5-6.7 5.9-6.7 3.6 0 5.4 2.8 5.4 6.4.1.1.1.3 0 .7zm-9.6-1.2h8.2c-.2-3.3-1.8-4.8-3.9-4.8-2.2.1-4.1 1.7-4.3 4.8zM296.4 132.4v7.5h-1.5v-6.8c0-1 0-1.7-.1-2.3-.2-1.7-1.2-2.7-2.8-2.7-1.8 0-3.2 1.4-3.2 5.2v6.7h-1.5v-6.8c0-1 0-1.7-.1-2.3-.2-1.7-1.2-2.7-2.8-2.7-1.8 0-3.2 1.4-3.2 5.2v6.7h-1.5v-12.7h1.5v2.2l.7-1.4c.7-.8 1.7-1.1 2.9-1.1 2 0 3.3 1.1 3.7 2.7l1-1.6c.7-.8 1.7-1.1 2.9-1.1 2.3 0 3.6 1.4 3.8 3.4.2.4.2.9.2 1.9zM304.6 140.6c-1.3 3.4-2.5 4.4-4.3 4.4-.4 0-.7 0-1-.1v-1.2h.8c1.2 0 2-.6 2.8-2.6l.3-.7-5-13.2h1.7l4.1 11.6 4.1-11.6h1.6l-5.1 13.4zM333.2 139.9h-1.5v-9-6.3c-.6 1.9-1.5 4.3-2.3 6.3l-3.4 9h-1.9l-3.4-9c-.7-2-1.6-4.4-2.2-6.3v15.3H317v-16.6h2.4l5.6 15.4 5.6-15.4h2.4v16.6zM344.1 137.6l-.6 1.3c-.9.9-2.1 1.3-3.5 1.3-2.4 0-4-1.2-4-3.5 0-2.9 2.8-4.3 7.4-4.3h.8v-.5-1.6c-.1-1.5-1-2.3-2.8-2.3-1.8 0-3 .9-3.2 2.9h-1.6c.2-2.5 2.1-4.1 4.8-4.1 2.8 0 4.1 1.3 4.3 3.4v6.2c0 1.1.1 2 .2 3.6h-1.5l-.3-2.4zm0-2.6v-1.5c-3.6-.2-6.5.6-6.5 3.1 0 1.6 1 2.5 2.9 2.5 2.1 0 3.6-1.7 3.6-4.1zM359.4 132.8v7.1h-1.5v-7-1.9c-.2-1.7-1.1-3-3.3-3-2.1 0-4 1.5-4 5.5v6.3h-1.5v-12.7h1.5v2.5l.7-1.4c1-1 2.2-1.4 3.6-1.4 2.7 0 4.2 1.5 4.5 3.8v2.2zM373.1 132.8v7.1h-1.5v-7-1.9c-.2-1.7-1.1-3-3.3-3-2.1 0-4 1.5-4 5.5v6.3h-1.5v-12.7h1.5v2.5l.7-1.4c1-1 2.2-1.4 3.6-1.4 2.7 0 4.2 1.5 4.5 3.8v2.2z"/>
    </g>
    <g>
      <path vector-effect="non-scaling-stroke" class="st2" d="M539.3 218.5h-1.6c-.3-2.3-1.7-3.6-3.9-3.6-1.9 0-3.7 1-3.7 3s1.2 2.8 4 3.5c3.6.9 5.3 2.3 5.3 5s-2.4 4.6-5.6 4.6c-3.4 0-5.8-1.7-6.2-4.9h1.6c.4 2.4 2.2 3.7 4.6 3.7 2.2 0 3.9-1.3 3.9-3.2 0-2.1-1.3-3.1-4.4-3.8-3.2-.8-5-1.9-5-4.6 0-2.7 2.5-4.5 5.4-4.5 3.6 0 5.3 2.1 5.6 4.8zM544.2 227.2v1.1c.1 1.2.6 1.5 2.3 1.3v1.1c-.5.1-1 .1-1.5.1-1.4 0-2.2-.6-2.3-2v-9.6h-1.6V218h1.6v-2.8h1.5v2.8h2.4v1.2h-2.4v8zM556.5 228.4l-.6 1.3c-.9.9-2.1 1.3-3.5 1.3-2.4 0-4-1.2-4-3.5 0-2.9 2.8-4.3 7.4-4.3h.8v-.5-1.6c-.1-1.5-1-2.3-2.8-2.3-1.8 0-3 .9-3.2 2.9H549c.2-2.5 2.1-4.1 4.8-4.1 2.8 0 4.1 1.3 4.3 3.4v6.2c0 1.1.1 2 .2 3.6h-1.5l-.3-2.4zm0-2.6v-1.5c-3.6-.2-6.5.6-6.5 3.1 0 1.6 1 2.5 2.9 2.5 2.1-.1 3.6-1.8 3.6-4.1zM566.9 217.7v1.2c-2.2-.2-3.8 1.2-3.8 4.6v7.2h-1.5V218h1.5v2.3l.9-1.6c.6-.6 1.4-1 2.2-1 .2-.1.5 0 .7 0zM589.1 230.7h-1.9l-4-14.9-4.2 14.9h-2l-4.3-16.6h1.7l3.7 15.3 4.2-15h2l4 15 3.9-15.3h1.6l-4.7 16.6zM602.7 228.4l-.6 1.3c-.9.9-2.1 1.3-3.5 1.3-2.4 0-4-1.2-4-3.5 0-2.9 2.8-4.3 7.4-4.3h.8v-.5-1.6c-.1-1.5-1-2.3-2.8-2.3-1.8 0-3 .9-3.2 2.9H595c.2-2.5 2.1-4.1 4.8-4.1 2.8 0 4.1 1.3 4.3 3.4v6.2c0 1.1.1 2 .2 3.6h-1.5l-.1-2.4zm0-2.6v-1.5c-3.6-.2-6.5.6-6.5 3.1 0 1.6 1 2.5 2.9 2.5 2.1-.1 3.6-1.8 3.6-4.1zM613.1 217.7v1.2c-2.2-.2-3.8 1.2-3.8 4.6v7.2h-1.5V218h1.5v2.3l.9-1.6c.6-.6 1.4-1 2.2-1 .2-.1.4 0 .7 0zM623.2 221.5h-1.6c-.4-1.8-1.4-2.7-3.1-2.7-1.5 0-2.6.9-2.6 2.3 0 1.5 1.2 2 3 2.5 2.9.7 4.3 1.8 4.3 3.9 0 2.3-1.9 3.5-4.5 3.5-2.5 0-4.5-1.2-4.9-4.1h1.5c.4 2.2 1.7 2.9 3.4 2.9 1.6 0 2.9-.7 2.9-2.2 0-1.4-.9-2.1-3.4-2.7-2.2-.6-4-1.5-4-3.7s1.7-3.6 4.2-3.6c3 0 4.5 1.7 4.8 3.9z"/>
    </g>
    <g>
      <path vector-effect="non-scaling-stroke" class="st2" d="M773.2 137.8v.2h-1.5v-.2c-.5-2.5-2.2-4.3-5.1-4.3-3.4 0-6 2.9-6 7.4 0 4.6 2.5 7.4 5.8 7.4 3.1 0 4.7-1.9 5.2-4.4v-.2h1.5v.2c-.4 3.1-2.6 5.6-6.8 5.6-4.5 0-7.4-3.5-7.4-8.6s3.2-8.7 7.7-8.7c4 .1 6.2 2.5 6.6 5.6zM786.4 142.1v7.1h-1.5v-7-1.9c-.2-1.7-1.1-3-3.3-3-2.1 0-4 1.5-4 5.5v6.3h-1.5v-17.8h1.5v7.5l.7-1.4c1-1 2.2-1.4 3.6-1.4 2.7 0 4.2 1.5 4.5 3.8v2.3zM795.1 136.3v1.2c-2.2-.2-3.8 1.2-3.8 4.6v7.2h-1.5v-12.7h1.5v2.3l.9-1.6c.6-.6 1.4-1 2.2-1 .3-.1.5 0 .7 0zM798.8 133.8c0 .6-.4 1-1 1s-1-.5-1-1c0-.6.5-1 1-1 .6 0 1 .4 1 1zm-1.7 15.5v-12.7h1.5v12.7h-1.5zM810.3 140.1h-1.6c-.4-1.8-1.4-2.7-3.1-2.7-1.5 0-2.6.9-2.6 2.3 0 1.5 1.2 2 3 2.5 2.9.7 4.3 1.8 4.3 3.9 0 2.3-1.9 3.5-4.5 3.5-2.5 0-4.5-1.2-4.9-4.1h1.5c.4 2.2 1.7 2.9 3.4 2.9 1.6 0 2.9-.7 2.9-2.2 0-1.4-.9-2.1-3.4-2.7-2.2-.6-4-1.5-4-3.7s1.7-3.6 4.2-3.6c3 0 4.5 1.6 4.8 3.9zM814.9 145.8v1.1c.1 1.2.6 1.5 2.3 1.3v1.1c-.5.1-1 .1-1.5.1-1.4 0-2.2-.6-2.3-2v-9.6h-1.6v-1.2h1.6v-2.8h1.5v2.8h2.4v1.2h-2.4v8zM830.9 142.9c0 3.7-2.1 6.7-6.2 6.7s-6.2-3-6.2-6.7c0-3.8 2.1-6.7 6.2-6.7s6.2 2.9 6.2 6.7zm-1.6 0c0-3.5-1.9-5.5-4.5-5.5s-4.5 2-4.5 5.5 1.9 5.5 4.5 5.5 4.5-2 4.5-5.5zM845 142.7c0 4.6-2.8 6.9-6.1 6.9-1.3 0-2.5-.4-3.3-1.1l-.8-1.4v6.9h-1.5v-17.5h1.5v2.4l.8-1.4c.9-.9 2.1-1.3 3.6-1.3 3.7 0 5.8 2.7 5.8 6.5zm-1.6.2c0-3.1-1.5-5.5-4.3-5.5-2.3 0-4.2 1.3-4.2 5.2v1c0 3.6 2.2 4.9 4.1 4.9 2.5-.1 4.4-2.1 4.4-5.6zM857.7 142.1v7.1h-1.5v-7-1.9c-.2-1.7-1.1-3-3.3-3-2.1 0-4 1.5-4 5.5v6.3h-1.5v-17.8h1.5v7.5l.7-1.4c1-1 2.2-1.4 3.6-1.4 2.7 0 4.2 1.5 4.5 3.8v2.3zM871.4 143.3h-9.6c.2 3.8 2.1 5.1 4.1 5.1 1.8 0 3.4-1.1 3.8-3.2h1.6c-.6 3-2.9 4.4-5.5 4.4-3.2 0-5.7-2.2-5.7-6.7 0-4.1 2.5-6.7 5.9-6.7 3.6 0 5.4 2.8 5.4 6.4v.7zm-9.7-1.1h8.2c-.2-3.3-1.8-4.8-3.9-4.8-2.1 0-4 1.6-4.3 4.8zM879.5 136.3v1.2c-2.2-.2-3.8 1.2-3.8 4.6v7.2h-1.5v-12.7h1.5v2.3l.9-1.6c.6-.6 1.4-1 2.2-1 .2-.1.4 0 .7 0zM897 149.3l-8.6-15.2c0 2 .1 4.5.1 6.6v8.6H887v-16.6h2.3l8.7 15.2c0-2.1-.1-4.5-.1-6.6v-8.6h1.5v16.6H897zM914.2 142.9c0 3.7-2.1 6.7-6.2 6.7s-6.2-3-6.2-6.7c0-3.8 2.1-6.7 6.2-6.7s6.2 2.9 6.2 6.7zm-1.7 0c0-3.5-1.9-5.5-4.5-5.5s-4.5 2-4.5 5.5 1.9 5.5 4.5 5.5 4.5-2 4.5-5.5zM918 145.9v1.4c0 .8.4 1 1.5.9v1.1c-.4.1-.8.1-1.2.1-1 0-1.7-.3-1.8-1.7v-16.1h1.5v14.3zM929.8 146.9l-.6 1.3c-.9.9-2.1 1.3-3.5 1.3-2.4 0-4-1.2-4-3.5 0-2.9 2.8-4.3 7.4-4.3h.8v-.5-1.6c-.1-1.5-1-2.3-2.8-2.3-1.8 0-3 .9-3.2 2.9h-1.6c.2-2.5 2.1-4.1 4.8-4.1 2.8 0 4.1 1.3 4.3 3.4v6.2c0 1.1.1 2 .2 3.6H930l-.2-2.4zm-.1-2.6v-1.5c-3.6-.2-6.5.6-6.5 3.1 0 1.6 1 2.5 2.9 2.5 2.2 0 3.6-1.7 3.6-4.1zM945 142.1v7.1h-1.5v-7-1.9c-.2-1.7-1.1-3-3.3-3-2.1 0-4 1.5-4 5.5v6.3h-1.5v-12.7h1.5v2.5l.7-1.4c1-1 2.2-1.4 3.6-1.4 2.7 0 4.2 1.5 4.5 3.8v2.2z"/>
    </g>
    <g>
      <path vector-effect="non-scaling-stroke" class="st2" d="M798.4 235h-10.7v-16.6h10.5v1.2h-9v6.5h8.4v1.3h-8.4v6.5h9.3v1.1zM817.6 227.5v7.5h-1.5v-6.8c0-1 0-1.7-.1-2.3-.2-1.7-1.2-2.7-2.8-2.7-1.8 0-3.2 1.4-3.2 5.2v6.7h-1.5v-6.8c0-1 0-1.7-.1-2.3-.2-1.7-1.2-2.7-2.8-2.7-1.8 0-3.2 1.4-3.2 5.2v6.7h-1.5v-12.7h1.5v2.2l.7-1.4c.7-.8 1.7-1.1 2.9-1.1 2 0 3.3 1.1 3.7 2.7l1-1.6c.7-.8 1.7-1.1 2.9-1.1 2.3 0 3.6 1.4 3.8 3.4.2.4.2.9.2 1.9zM832.6 228.5c0 4.6-2.8 6.9-6.1 6.9-1.3 0-2.5-.4-3.3-1.1l-.8-1.4v6.9H821v-17.5h1.5v2.4l.8-1.4c.9-.9 2.1-1.3 3.6-1.3 3.6-.1 5.7 2.7 5.7 6.5zm-1.6.2c0-3.1-1.5-5.5-4.3-5.5-2.3 0-4.2 1.3-4.2 5.2v1c0 3.6 2.2 4.9 4.1 4.9 2.5-.1 4.4-2.2 4.4-5.6zM836.9 219.5c0 .6-.4 1-1 1s-1-.5-1-1c0-.6.5-1 1-1s1 .5 1 1zm-1.8 15.5v-12.7h1.5V235h-1.5zM845.5 222.1v1.2c-2.2-.2-3.8 1.2-3.8 4.6v7.2h-1.5v-12.7h1.5v2.3l.9-1.6c.6-.6 1.4-1 2.2-1 .2-.1.5-.1.7 0zM857.4 229.1h-9.6c.2 3.8 2.1 5.1 4.1 5.1 1.8 0 3.4-1.1 3.8-3.2h1.6c-.6 3-2.9 4.4-5.5 4.4-3.2 0-5.7-2.2-5.7-6.7 0-4.1 2.5-6.7 5.9-6.7 3.6 0 5.4 2.8 5.4 6.4.1.1.1.3 0 .7zm-9.6-1.2h8.2c-.2-3.3-1.8-4.8-3.9-4.8-2.2 0-4.1 1.6-4.3 4.8zM876 222.9h-1.6c-.3-2.3-1.7-3.6-3.9-3.6-1.9 0-3.7 1-3.7 3s1.2 2.8 4 3.5c3.6.9 5.3 2.3 5.3 5s-2.4 4.6-5.6 4.6c-3.4 0-5.8-1.7-6.2-4.9h1.6c.4 2.4 2.2 3.7 4.6 3.7 2.2 0 3.9-1.3 3.9-3.2 0-2.1-1.3-3.1-4.4-3.8-3.2-.8-5-1.9-5-4.6 0-2.7 2.5-4.5 5.4-4.5 3.5 0 5.3 2.1 5.6 4.8zM880.8 231.5v1.1c.1 1.2.6 1.5 2.3 1.3v1.1c-.5.1-1 .1-1.5.1-1.4 0-2.2-.6-2.3-2v-9.6h-1.6v-1.2h1.6v-2.8h1.5v2.8h2.4v1.2h-2.4v8zM893.2 232.7l-.6 1.3c-.9.9-2.1 1.3-3.5 1.3-2.4 0-4-1.2-4-3.5 0-2.9 2.8-4.3 7.4-4.3h.8v-.5-1.6c-.1-1.5-1-2.3-2.8-2.3-1.8 0-3 .9-3.2 2.9h-1.6c.2-2.5 2.1-4.1 4.8-4.1 2.8 0 4.1 1.3 4.3 3.4v6.2c0 1.1.1 2 .2 3.6h-1.5l-.3-2.4zm-.1-2.6v-1.5c-3.6-.2-6.5.6-6.5 3.1 0 1.6 1 2.5 2.9 2.5 2.2 0 3.6-1.7 3.6-4.1zM900.1 231.5v1.1c.1 1.2.6 1.5 2.3 1.3v1.1c-.5.1-1 .1-1.5.1-1.4 0-2.2-.6-2.3-2v-9.6H897v-1.2h1.6v-2.8h1.5v2.8h2.4v1.2h-2.4v8zM915 229.1h-9.6c.2 3.8 2.1 5.1 4.1 5.1 1.8 0 3.4-1.1 3.8-3.2h1.6c-.6 3-2.9 4.4-5.5 4.4-3.2 0-5.7-2.2-5.7-6.7 0-4.1 2.5-6.7 5.9-6.7 3.6 0 5.4 2.8 5.4 6.4.1.1.1.3 0 .7zm-9.6-1.2h8.2c-.2-3.3-1.8-4.8-3.9-4.8-2.2 0-4.1 1.6-4.3 4.8zM934.7 230.3c0 2.9-2.1 4.4-4.4 4.6-.7.1-1.3.1-1.9.1h-5v-16.6h4.6c.7 0 1.2 0 2 .1 2.6.3 4.1 1.7 4.1 4 0 2-1.2 3.2-3 3.7 2.4.5 3.6 1.8 3.6 4.1zm-9.9-4.6h3.5c.4 0 .8 0 1.3-.1 1.7-.2 2.9-1.1 2.9-3 0-2-1.4-2.8-3.1-3h-4.6v6.1zm8.3 4.7c0-2-1.1-3.2-3.3-3.4-.6 0-.9-.1-1.3-.1h-3.8v6.8h5c1.9-.1 3.4-1.1 3.4-3.3zM947.5 235H946v-2.5l-.7 1.4c-1 1-2.2 1.4-3.6 1.4-2.6 0-4.1-1.5-4.4-3.5-.1-.6-.1-1.1-.1-2.1v-7.4h1.5v7.1c0 .6 0 1.3.1 1.9.2 1.7 1.3 2.9 3.3 2.9 2.1 0 3.9-1.5 3.9-5.5v-6.3h1.5V235zM952.8 219.5c0 .6-.4 1-1 1s-1-.5-1-1c0-.6.5-1 1-1s1 .5 1 1zM951 235v-12.7h1.5V235H951zM957.5 231.6v1.4c0 .8.4 1 1.5.9v1.1c-.4.1-.8.1-1.2.1-1 0-1.7-.3-1.8-1.7v-16.1h1.5v14.3zM971.9 235h-1.5v-2.4l-.8 1.4c-.9.9-2.1 1.3-3.6 1.3-3.6 0-5.7-2.8-5.7-6.5 0-4.6 2.8-6.9 6.1-6.9 1.3 0 2.5.4 3.3 1.2l.8 1.4v-7.2h1.5V235zm-1.5-6.1v-1c0-3.6-2.2-4.8-4.1-4.8-2.5 0-4.4 2-4.4 5.5 0 3.1 1.5 5.6 4.3 5.6 2.3 0 4.2-1.4 4.2-5.3zM977.2 219.5c0 .6-.4 1-1 1s-1-.5-1-1c0-.6.5-1 1-1 .6 0 1 .5 1 1zm-1.7 15.5v-12.7h1.5V235h-1.5zM990.8 227.9v7.1h-1.5v-7-1.9c-.2-1.7-1.1-3-3.3-3-2.1 0-4 1.5-4 5.5v6.3h-1.5v-12.7h1.5v2.5l.7-1.4c1-1 2.2-1.4 3.6-1.4 2.7 0 4.2 1.5 4.5 3.8v2.2zM1004.8 231.8v3c-.1 3.4-2.2 5.4-5.7 5.4-3.2 0-5.1-1.3-5.4-4.1v-.3h1.5v.3c.2 1.9 1.7 2.9 3.9 2.9 2.7 0 4.1-1.6 4.2-4.1V232.7l-.8 1.4c-.9.9-2.1 1.3-3.6 1.3-3.6 0-5.7-2.8-5.7-6.5 0-4.6 2.8-6.9 6.1-6.9 1.2 0 2.5.4 3.3 1.2l.8 1.4v-2.2h1.5v9.4zm-1.5-2.9v-1c0-3.6-2.2-4.8-4.1-4.8-2.5 0-4.4 2-4.4 5.5 0 3.1 1.5 5.6 4.3 5.6 2.2 0 4.2-1.4 4.2-5.3z"/>
    </g>
    <g>
      <path vector-effect="non-scaling-stroke" class="st2" d="M832.2 44.7h8.2V46h-8.2v7.7h-1.5V37h10.5v1.2h-9v6.5zM848.7 40.7v1.2c-2.2-.2-3.8 1.2-3.8 4.6v7.2h-1.5V40.9h1.5v2.3l.9-1.6c.6-.6 1.4-1 2.2-1 .3 0 .5 0 .7.1zM858.1 51.3l-.6 1.3c-.9.9-2.1 1.3-3.5 1.3-2.4 0-4-1.2-4-3.5 0-2.9 2.8-4.3 7.4-4.3h.8v-.5V44c-.1-1.5-1-2.3-2.8-2.3-1.8 0-3 .9-3.2 2.9h-1.6c.2-2.5 2.1-4.1 4.8-4.1 2.8 0 4.1 1.3 4.3 3.4v6.2c0 1.1.1 2 .2 3.6h-1.5l-.3-2.4zm0-2.6v-1.5c-3.6-.2-6.5.6-6.5 3.1 0 1.6 1 2.5 2.9 2.5 2.1 0 3.6-1.7 3.6-4.1zM873.4 46.5v7.1h-1.5v-7-1.9c-.2-1.7-1.1-3-3.3-3-2.1 0-4 1.5-4 5.5v6.3h-1.5V40.9h1.5v2.5l.7-1.4c1-1 2.2-1.4 3.6-1.4 2.7 0 4.2 1.5 4.5 3.8v2.1zM885.3 49.7h1.5c-.6 2.7-2.5 4.2-5.2 4.3l-.4.7c1.3.1 2 .8 2 2 0 1.4-1.2 2-2.8 2-.5 0-.9-.1-1.2-.2v-.9c.4.2.7.3 1.3.3 1 0 1.6-.4 1.6-1.2 0-.9-.7-1.3-2.3-1.2l.8-1.5c-2.8-.3-4.9-2.5-4.9-6.6 0-4.2 2.7-6.7 5.9-6.7 2.9 0 4.9 1.8 5.3 4.5h-1.6c-.4-2.1-1.7-3.3-3.8-3.3-2.1 0-4.2 1.7-4.2 5.4 0 3.9 2 5.6 4.1 5.6 2-.1 3.4-1.2 3.9-3.2zM900.7 47.3c0 3.7-2.1 6.7-6.2 6.7s-6.2-3-6.2-6.7c0-3.8 2.1-6.7 6.2-6.7s6.2 2.9 6.2 6.7zm-1.6 0c0-3.5-1.9-5.5-4.5-5.5s-4.5 2-4.5 5.5 1.9 5.5 4.5 5.5 4.5-2.1 4.5-5.5zM905 38.1c0 .6-.4 1-1 1s-1-.5-1-1c0-.6.5-1 1-1s1 .5 1 1zm-1.8 15.5V40.9h1.5v12.7h-1.5zM916.4 44.5h-1.6c-.4-1.8-1.4-2.7-3.1-2.7-1.5 0-2.6.9-2.6 2.3 0 1.5 1.2 2 3 2.5 2.9.7 4.3 1.8 4.3 3.9 0 2.3-1.9 3.5-4.5 3.5-2.5 0-4.5-1.2-4.9-4.1h1.5c.4 2.2 1.7 2.9 3.4 2.9 1.6 0 2.9-.7 2.9-2.2 0-1.4-.9-2.1-3.4-2.7-2.2-.6-4-1.5-4-3.7s1.7-3.6 4.2-3.6c3-.1 4.5 1.6 4.8 3.9zM929.3 47.7h-9.6c.2 3.8 2.1 5.1 4.1 5.1 1.8 0 3.4-1.1 3.8-3.2h1.6c-.6 3-2.9 4.4-5.5 4.4-3.2 0-5.7-2.2-5.7-6.7 0-4.1 2.5-6.7 5.9-6.7 3.6 0 5.4 2.8 5.4 6.4.1.1.1.3 0 .7zm-9.6-1.2h8.2c-.2-3.3-1.8-4.8-3.9-4.8-2.2.1-4.1 1.6-4.3 4.8zM947.6 53.6L939 38.5c0 2 .1 4.5.1 6.6v8.6h-1.5V37h2.3l8.7 15.2c0-2.1-.1-4.5-.1-6.6V37h1.5v16.6h-2.4zM955.2 38.1c0 .6-.4 1-1 1s-1-.5-1-1c0-.6.5-1 1-1 .6 0 1 .5 1 1zm-1.7 15.5V40.9h1.5v12.7h-1.5zM968.8 47.7h-9.6c.2 3.8 2.1 5.1 4.1 5.1 1.8 0 3.4-1.1 3.8-3.2h1.6c-.6 3-2.9 4.4-5.5 4.4-3.2 0-5.7-2.2-5.7-6.7 0-4.1 2.5-6.7 5.9-6.7 3.6 0 5.4 2.8 5.4 6.4v.7zm-9.7-1.2h8.2c-.2-3.3-1.8-4.8-3.9-4.8-2.1.1-4.1 1.6-4.3 4.8zM972.9 50.3v1.4c0 .8.4 1 1.5.9v1.1c-.4.1-.8.1-1.2.1-1 0-1.7-.3-1.8-1.7V35.9h1.5v14.4zM978.2 50.3v1.4c0 .8.4 1 1.5.9v1.1c-.4.1-.8.1-1.2.1-1 0-1.7-.3-1.8-1.7V35.9h1.5v14.4zM986.8 54.3c-1.3 3.4-2.5 4.4-4.3 4.4-.4 0-.7 0-1-.1v-1.2h.8c1.2 0 2-.6 2.8-2.6l.3-.7-5-13.2h1.7l4.1 11.6 4.1-11.6h1.6l-5.1 13.4z"/>
    </g>
    <g>
      <path vector-effect="non-scaling-stroke" class="st2" d="M716.6 342.9l-8.6-15.2c0 2 .1 4.5.1 6.6v8.6h-1.5v-16.6h2.3l8.7 15.2c0-2.1-.1-4.5-.1-6.6v-8.6h1.5v16.6h-2.4zM724.2 327.5c0 .6-.4 1-1 1s-1-.5-1-1c0-.6.5-1 1-1 .6-.1 1 .4 1 1zm-1.8 15.4v-12.7h1.5v12.7h-1.5zM737.6 334.4H736c-.4-2.1-1.7-3.3-3.8-3.3-2.1 0-4.2 1.7-4.2 5.4 0 3.9 2 5.6 4.1 5.6 1.9 0 3.3-1.1 3.8-3.1h1.5c-.6 2.8-2.7 4.3-5.4 4.3-3.2 0-5.7-2.2-5.7-6.7 0-4.2 2.7-6.7 5.9-6.7 3.1 0 5 1.8 5.4 4.5zM742.7 337.2l-1.2 1.2v4.5H740v-17.7h1.5v11.6l6.5-6.6h1.9l-6.2 6.1 6.3 6.6h-2l-5.3-5.7zM770.7 335.2v7.8h-1.3v-3.4l-.6 1.5c-1.1 1.5-2.9 2.3-4.9 2.3-4.6 0-7.4-3.5-7.4-8.6s3.2-8.7 7.8-8.7c4 0 6.1 2.4 6.6 5.5v.2h-1.5v-.2c-.5-2.5-2.2-4.3-5.1-4.3-3.5 0-6.1 2.9-6.1 7.4 0 4.6 2.5 7.4 5.8 7.4 2.6 0 5.3-1.9 5.3-5.7h-4.5v-1.2h5.9zM784.1 337h-9.6c.2 3.8 2.1 5.1 4.1 5.1 1.8 0 3.4-1.1 3.8-3.2h1.6c-.6 3-2.9 4.4-5.5 4.4-3.2 0-5.7-2.2-5.7-6.7 0-4.1 2.5-6.7 5.9-6.7 3.6 0 5.4 2.8 5.4 6.4.1.1.1.3 0 .7zm-9.6-1.2h8.2c-.2-3.3-1.8-4.8-3.9-4.8-2.2.1-4.1 1.7-4.3 4.8zM797.1 335.8v7.1h-1.5v-7-1.9c-.2-1.7-1.1-3-3.3-3-2.1 0-4 1.5-4 5.5v6.3h-1.5v-12.7h1.5v2.5l.7-1.4c1-1 2.2-1.4 3.6-1.4 2.7 0 4.2 1.5 4.5 3.8v2.2zM802.5 339.4v1.1c.1 1.2.6 1.5 2.3 1.3v1.1c-.5.1-1 .1-1.5.1-1.4 0-2.2-.6-2.3-2v-9.6h-1.6v-1.2h1.6v-2.8h1.5v2.8h2.4v1.2h-2.4v8zM812.7 330v1.2c-2.2-.2-3.8 1.2-3.8 4.6v7.2h-1.5v-12.7h1.5v2.3l.9-1.6c.6-.6 1.4-1 2.2-1 .2-.1.5-.1.7 0zM819.5 343.6c-1.3 3.4-2.5 4.4-4.3 4.4-.4 0-.7 0-1-.1v-1.2h.8c1.2 0 2-.6 2.8-2.6l.3-.7-5-13.2h1.7l4.1 11.6 4.1-11.6h1.6l-5.1 13.4z"/>
    </g>
    <g>
      <path vector-effect="non-scaling-stroke" class="st2" d="M481 101.2h-12.2V100l10.3-14.2h-9.6v-1.3h11.4v1.2L470.6 100H481v1.2zM490.7 98.9l-.6 1.3c-.9.9-2.1 1.3-3.5 1.3-2.4 0-4-1.2-4-3.5 0-2.9 2.8-4.3 7.4-4.3h.8v-.5-1.6c-.1-1.5-1-2.3-2.8-2.3-1.8 0-3 .9-3.2 2.9H483c.2-2.5 2.1-4.1 4.8-4.1 2.8 0 4.1 1.3 4.3 3.4v6.2c0 1.1.1 2 .2 3.6h-1.5l-.1-2.4zm0-2.6v-1.5c-3.6-.2-6.5.6-6.5 3.1 0 1.6 1 2.5 2.9 2.5 2.1 0 3.6-1.7 3.6-4.1zM506 94.1v7.1h-1.5v-7-1.9c-.2-1.7-1.1-3-3.3-3-2.1 0-4 1.5-4 5.5v6.3h-1.5V83.4h1.5v7.5l.7-1.4c1-1 2.2-1.4 3.6-1.4 2.7 0 4.2 1.5 4.5 3.8v2.2zM516.8 98.9l-.6 1.3c-.9.9-2.1 1.3-3.5 1.3-2.4 0-4-1.2-4-3.5 0-2.9 2.8-4.3 7.4-4.3h.8v-.5-1.6c-.1-1.5-1-2.3-2.8-2.3-1.8 0-3 .9-3.2 2.9h-1.6c.2-2.5 2.1-4.1 4.8-4.1 2.8 0 4.1 1.3 4.3 3.4v6.2c0 1.1.1 2 .2 3.6H517l-.2-2.4zm0-2.6v-1.5c-3.6-.2-6.5.6-6.5 3.1 0 1.6 1 2.5 2.9 2.5 2.1 0 3.6-1.7 3.6-4.1zM540 101.2h-1.5v-7.5h-9.7v7.5h-1.5V84.6h1.5v7.8h9.7v-7.8h1.5v16.6zM551 98.9l-.6 1.3c-.9.9-2.1 1.3-3.5 1.3-2.4 0-4-1.2-4-3.5 0-2.9 2.8-4.3 7.4-4.3h.8v-.5-1.6c-.1-1.5-1-2.3-2.8-2.3-1.8 0-3 .9-3.2 2.9h-1.6c.2-2.5 2.1-4.1 4.8-4.1 2.8 0 4.1 1.3 4.3 3.4v6.2c0 1.1.1 2 .2 3.6h-1.5l-.3-2.4zm0-2.6v-1.5c-3.6-.2-6.5.6-6.5 3.1 0 1.6 1 2.5 2.9 2.5 2.1 0 3.6-1.7 3.6-4.1zM566.6 101.2h-1.5v-2.4l-.8 1.4c-.9.9-2.1 1.3-3.6 1.3-3.6 0-5.7-2.8-5.7-6.5 0-4.6 2.8-6.9 6.1-6.9 1.2 0 2.5.4 3.3 1.2l.8 1.4v-7.2h1.5v17.7zm-1.5-6v-1c0-3.6-2.2-4.8-4.1-4.8-2.5 0-4.4 2-4.4 5.5 0 3.1 1.5 5.6 4.3 5.6 2.2-.1 4.2-1.5 4.2-5.3zM571.9 85.7c0 .6-.4 1-1 1s-1-.5-1-1c0-.6.5-1 1-1 .6 0 1 .5 1 1zm-1.7 15.5V88.5h1.5v12.7h-1.5zM585.8 101.2h-1.5v-2.4l-.8 1.4c-.9.9-2.1 1.3-3.6 1.3-3.6 0-5.7-2.8-5.7-6.5 0-4.6 2.8-6.9 6.1-6.9 1.3 0 2.5.4 3.3 1.2l.8 1.4v-7.2h1.5v17.7zm-1.5-6v-1c0-3.6-2.2-4.8-4.1-4.8-2.5 0-4.4 2-4.4 5.5 0 3.1 1.5 5.6 4.3 5.6 2.2-.1 4.2-1.5 4.2-5.3z"/>
    </g>
    <g>
      <path vector-effect="non-scaling-stroke" class="st2" d="M581.9 37.1l-2.1 6.1h-1.6l6.1-16.6h2l6 16.6h-1.6l-2.2-6.1h-6.6zm6.1-1.2l-2.8-8.1-2.9 8.1h5.7zM599.6 30.3v1.2c-2.2-.2-3.8 1.2-3.8 4.6v7.2h-1.5V30.5h1.5v2.3l.9-1.6c.6-.6 1.4-1 2.2-1 .2 0 .5 0 .7.1zM603.5 39.7v1.1c.1 1.2.6 1.5 2.3 1.3v1.1c-.5.1-1 .1-1.5.1-1.4 0-2.2-.6-2.3-2v-9.6h-1.6v-1.2h1.6v-2.8h1.5v2.8h2.4v1.2h-2.4v8zM607.4 36.9v-1h5.1v1h-5.1zM629.1 34.8c0 5.2-3.3 7.9-6.5 8.4-.8.1-1.3.1-2.1.1h-4.9V26.6h4.9c.9 0 1.3 0 2 .1 3.4.4 6.6 2.8 6.6 8.1zm-1.7 0c0-4.3-2.3-6.5-5.1-6.8-.5-.1-1.1-.1-1.9-.1H617V42h3.3c.8 0 1.4 0 2-.1 2.9-.4 5.1-2.8 5.1-7.1zM642 37.3h-9.6c.2 3.8 2.1 5.1 4.1 5.1 1.8 0 3.4-1.1 3.8-3.2h1.6c-.6 3-2.9 4.4-5.5 4.4-3.2 0-5.7-2.2-5.7-6.7 0-4.1 2.5-6.7 5.9-6.7 3.6 0 5.4 2.8 5.4 6.4v.7zm-9.7-1.2h8.2c-.2-3.3-1.8-4.8-3.9-4.8-2.1.1-4.1 1.6-4.3 4.8zM654.8 34.7h-1.6c-.4-2.1-1.7-3.3-3.8-3.3-2.1 0-4.2 1.7-4.2 5.4 0 3.9 2 5.6 4.1 5.6 1.9 0 3.3-1.1 3.8-3.1h1.5c-.6 2.8-2.7 4.3-5.4 4.3-3.2 0-5.7-2.2-5.7-6.7 0-4.2 2.7-6.7 5.9-6.7 3.1-.1 5.1 1.8 5.4 4.5zM668.6 36.9c0 3.7-2.1 6.7-6.2 6.7s-6.2-3-6.2-6.7c0-3.8 2.1-6.7 6.2-6.7s6.2 2.9 6.2 6.7zm-1.6 0c0-3.5-1.9-5.5-4.5-5.5s-4.5 2-4.5 5.5 1.9 5.5 4.5 5.5 4.5-2.1 4.5-5.5z"/>
    </g>
    <path vector-effect="non-scaling-stroke" class="st0" d="M157.2 67.4L128.3 97l-2.5-47.6M670.4 156.8l-31.2 33-9.5-24.2zM243.1 236.6l46.4 7.4-20.5 18.2-25.9-25.6M717.2 92v32.9l-33.5-18.3z"/>
    <g>
      <path vector-effect="non-scaling-stroke" class="st2" d="M288.2 269.6V285h-1.5v-15.4h-6.1v-1.2h13.7v1.2h-6.1zM302.2 282.6l-.6 1.3c-.9.9-2.1 1.3-3.5 1.3-2.4 0-4-1.2-4-3.5 0-2.9 2.8-4.3 7.4-4.3h.8v-.4-1.6c-.1-1.5-1-2.3-2.8-2.3-1.8 0-3 .9-3.2 2.9h-1.6c.2-2.5 2.1-4.1 4.8-4.1 2.8 0 4.1 1.3 4.3 3.4v6.2c0 1.1.1 2 .2 3.6h-1.5l-.3-2.5zm0-2.6v-1.5c-3.6-.2-6.5.6-6.5 3.1 0 1.6 1 2.5 2.9 2.5 2.1 0 3.6-1.7 3.6-4.1zM312.6 272v1.2c-2.2-.2-3.8 1.2-3.8 4.6v7.2h-1.5v-12.7h1.5v2.3l.9-1.6c.6-.6 1.4-1 2.2-1 .2-.1.5 0 .7 0zM321.9 282.6l-.6 1.3c-.9.9-2.1 1.3-3.5 1.3-2.4 0-4-1.2-4-3.5 0-2.9 2.8-4.3 7.4-4.3h.8v-.4-1.6c-.1-1.5-1-2.3-2.8-2.3-1.8 0-3 .9-3.2 2.9h-1.6c.2-2.5 2.1-4.1 4.8-4.1 2.8 0 4.1 1.3 4.3 3.4v6.2c0 1.1.1 2 .2 3.6h-1.5l-.3-2.5zm0-2.6v-1.5c-3.6-.2-6.5.6-6.5 3.1 0 1.6 1 2.5 2.9 2.5 2.1 0 3.6-1.7 3.6-4.1zM337.2 277.8v7.1h-1.5v-7-1.9c-.2-1.7-1.1-3-3.3-3-2.1 0-4 1.5-4 5.5v6.3H327v-12.7h1.5v2.5l.7-1.4c1-1 2.2-1.4 3.6-1.4 2.7 0 4.2 1.5 4.5 3.8-.1.7-.1 1.2-.1 2.2zM342.6 281.5v1.1c.1 1.2.6 1.5 2.3 1.3v1.1c-.5.1-1 .1-1.5.1-1.4 0-2.2-.6-2.3-2v-9.6h-1.6v-1.2h1.6v-2.8h1.5v2.8h2.4v1.2h-2.4v8zM349.2 269.5c0 .6-.4 1-1 1s-1-.5-1-1c0-.6.5-1 1-1 .6 0 1 .4 1 1zm-1.7 15.5v-12.7h1.5V285h-1.5zM362.8 277.8v7.1h-1.5v-7-1.9c-.2-1.7-1.1-3-3.3-3-2.1 0-4 1.5-4 5.5v6.3h-1.5v-12.7h1.5v2.5l.7-1.4c1-1 2.2-1.4 3.6-1.4 2.7 0 4.2 1.5 4.5 3.8v2.2zM377.5 278.6c0 3.7-2.1 6.7-6.2 6.7s-6.2-3-6.2-6.7c0-3.8 2.1-6.7 6.2-6.7s6.2 2.9 6.2 6.7zm-1.6 0c0-3.5-1.9-5.5-4.5-5.5s-4.5 2-4.5 5.5 1.9 5.5 4.5 5.5 4.5-2 4.5-5.5z"/>
    </g>
    <g>
      <ellipse vector-effect="non-scaling-stroke" class="st4" cx="71.7" cy="19.4" rx="4.6" ry="4.6"/>
      <ellipse vector-effect="non-scaling-stroke" class="st4" cx="198.6" cy="90.9" rx="4.6" ry="4.6"/>
      <ellipse vector-effect="non-scaling-stroke" class="st4" cx="224.4" cy="134.6" rx="4.6" ry="4.6"/>
      <ellipse vector-effect="non-scaling-stroke" class="st4" cx="520.5" cy="224.6" rx="4.6" ry="4.6"/>
      <ellipse vector-effect="non-scaling-stroke" class="st4" cx="749.4" cy="143.6" rx="4.6" ry="4.6"/>
      <ellipse vector-effect="non-scaling-stroke" class="st4" cx="777.2" cy="227.7" rx="4.6" ry="4.6"/>
      <ellipse vector-effect="non-scaling-stroke" class="st4" cx="819.2" cy="51.4" rx="4.6" ry="4.6"/>
      <ellipse vector-effect="non-scaling-stroke" class="st4" cx="696.8" cy="334" rx="4.6" ry="4.6"/>
      <ellipse vector-effect="non-scaling-stroke" class="st4" cx="458.9" cy="92.1" rx="4.6" ry="4.6"/>
      <ellipse vector-effect="non-scaling-stroke" class="st4" cx="569.8" cy="45.7" rx="4.6" ry="4.6"/>
      <ellipse vector-effect="non-scaling-stroke" class="st4" cx="270.9" cy="265" rx="4.6" ry="4.6"/>
    </g>
  </g>
</svg>
