<svg xmlns="http://www.w3.org/2000/svg" viewBox="0 0 69 69"><style type="text/css">  
	.st0{fill:none;stroke:#323232;stroke-width:0.7087;stroke-miterlimit:10;}
	.st1{fill:#323232;}
</style><path class="st0" d="M54.7 11.4L10.3 55.7M59.2 15.9L15.1 60M63.5 20.8L20.9 63.3M65.5 27.9L27.6 65.8M66.4 36L35.9 66.5"/><path class="st1" d="M57.6 11.3c-6.4-6.4-14.1-9.6-23.1-9.6 -9 0-16.8 3.2-23.1 9.6 -6.4 6.4-9.7 14.1-9.7 23.2 0 9 3.2 16.8 9.7 23.1 6.4 6.4 14.1 9.6 23.1 9.6 9 0 16.8-3.2 23.1-9.6 6.4-6.4 9.7-14.1 9.7-23.1C67.2 25.4 64.1 17.7 57.6 11.3zM56 56c-5.9 5.9-13.1 8.9-21.5 8.9 -8.4 0-15.5-3-21.5-8.9C7.1 50 4.1 42.9 4.1 34.5c0-8.4 3-15.6 8.9-21.4C19 7.2 26.1 4.2 34.5 4.2c8.4 0 15.5 3 21.5 8.9 5.9 5.9 8.9 13.1 8.9 21.4C64.9 42.9 61.9 50 56 56z"/></svg>