<svg version="1" xmlns="http://www.w3.org/2000/svg" width="28.914" height="10.771" viewBox="0 0 28.914 10.771"><path d="M11.233.254h.406v1.421h-.406zM8.267 2.021v8.415h-.31v-8.1l-3.499 8.1h-.405l-3.498-8.1v8.1H.238V2.021h.521l3.492 8.087 3.493-8.087h.523zM13.599 2.021v.316H9.615V6.06h3.204v.309H9.615v3.75h3.984v.318H9.297V2.021M19.347 10.437L17.254 6.41h-2.543v4.025h-.315V2.021h2.959c.602 0 1.117.215 1.547.645.43.431.645.947.645 1.553 0 .561-.188 1.049-.563 1.467-.371.414-.832.651-1.383.714l2.098 4.037h-.352zm-4.636-4.343h2.644c.516 0 .957-.184 1.324-.551.366-.362.551-.806.551-1.325 0-.519-.185-.963-.551-1.329-.367-.367-.81-.552-1.324-.552h-2.644v3.757zM23.84.809c-.069-.07-.153-.105-.252-.105-.098 0-.18.035-.246.105-.069.069-.104.153-.104.252 0 .098.035.18.104.246.066.069.148.104.246.104.099 0 .183-.035.252-.104.07-.066.104-.148.104-.246.001-.099-.032-.183-.104-.252zM25.4.809c-.066-.07-.148-.105-.246-.105s-.182.035-.252.105c-.07.069-.105.153-.105.252 0 .098.035.18.105.246.07.069.154.104.252.104s.18-.035.246-.104c.07-.066.104-.148.104-.246 0-.099-.034-.183-.104-.252z"/><path stroke="#231F20" stroke-width=".05" stroke-miterlimit="10" d="M27.027 3.204l-5.799 5.798M27.324 3.502l-5.775 5.775M27.621 3.8l-5.774 5.773M27.828 4.192l-5.66 5.656M28.181 4.433l-5.57 5.568M28.291 4.917l-5.317 5.32M28.445 5.359l-4.961 4.963M28.455 5.946L24 10.397M28.41 6.584l-3.932 3.934M28.32 7.27l-3.111 3.108"/><path d="M27.416 3.198c-.836-.84-1.846-1.26-3.029-1.26-1.183 0-2.193.42-3.029 1.26-.84.836-1.26 1.847-1.26 3.03 0 1.183.42 2.192 1.26 3.028.836.841 1.847 1.261 3.029 1.261 1.184 0 2.193-.42 3.029-1.261.84-.836 1.26-1.846 1.26-3.028-.001-1.183-.422-2.194-1.26-3.03zm-.223 5.837c-.773.777-1.709 1.166-2.807 1.166-1.099 0-2.033-.389-2.808-1.166-.776-.777-1.166-1.713-1.166-2.807 0-1.099.39-2.034 1.166-2.809.772-.776 1.709-1.166 2.808-1.166 1.098 0 2.032.39 2.807 1.166.777.773 1.166 1.71 1.166 2.809 0 1.095-.389 2.03-1.166 2.807z"/></svg>