<svg version="1" xmlns="http://www.w3.org/2000/svg" viewBox="0 0 388.4 140.2"><style>.st0{fill:none;stroke:#000;stroke-width:.4;stroke-miterlimit:10}</style><g id="Header"><path d="M150.5 1.4h5.5v19.2h-5.5zm-40.2 23.9v114h-4.2V29.6L58.7 139.4h-5.5L5.9 29.6v109.7H1.6v-114h7.1L56 134.9l47.3-109.6h7zm72.3 0v4.3h-54V80H172v4.3h-43.4v50.8h54v4.3h-58.3V25.3zM321.3 8.9c-1-1-2.1-1.4-3.4-1.4-1.3 0-2.4.5-3.3 1.4-.9 1-1.4 2.1-1.4 3.4 0 1.3.5 2.4 1.4 3.3.9 1 2 1.4 3.3 1.4 1.3 0 2.5-.5 3.4-1.4 1-.9 1.4-2 1.4-3.3.1-1.3-.4-2.4-1.4-3.4zm21.2 0c-.9-1-2-1.4-3.3-1.4-1.3 0-2.5.5-3.4 1.4-1 1-1.4 2.1-1.4 3.4 0 1.3.5 2.4 1.4 3.3 1 1 2.1 1.4 3.4 1.4 1.3 0 2.4-.5 3.3-1.4 1-.9 1.4-2 1.4-3.3 0-1.3-.5-2.4-1.4-3.4z"/><path class="st0" d="M364.5 41.4L286 119.9m82.5-74.5l-78.6 78.7m82.7-74.7l-78.1 78.1m80.9-72.7l-76.7 76.6M380.1 58l-75.4 75.5m76.9-68.9l-72 72.1m74.1-66.1l-67.2 67.2m67.3-59.3l-60.3 60.3m59.7-51.6L330 140.4m52-44l-42.1 42.2"/><path d="M369.8 41.3c-11.3-11.4-25-17.1-41-17.1s-29.7 5.7-41 17.1c-11.4 11.3-17.1 25-17.1 41.1 0 16 5.7 29.7 17.1 41 11.3 11.4 25 17.1 41 17.1s29.7-5.7 41-17.1c11.4-11.3 17.1-25 17.1-41-.1-16.1-5.7-29.8-17.1-41.1zm-3 79.1c-10.5 10.5-23.2 15.8-38 15.8-14.9 0-27.5-5.3-38-15.8S275 97.2 275 82.4c0-14.9 5.3-27.6 15.8-38 10.5-10.5 23.2-15.8 38-15.8 14.9 0 27.5 5.3 38 15.8s15.8 23.2 15.8 38-5.3 27.4-15.8 38zm-130-35.7c7.5-.8 13.7-4.1 18.7-9.7 5.1-5.7 7.6-12.3 7.6-19.9 0-8.2-2.9-15.2-8.7-21-5.8-5.8-12.8-8.7-21-8.7h-40.1v114h4.3V84.8h34.5l28.3 54.5h4.8l-28.4-54.6zm-39.1-4.2V29.6h35.8c7 0 13 2.5 17.9 7.5 5 5 7.5 11 7.5 18s-2.5 13-7.5 18-11 7.5-17.9 7.5h-35.8z"/></g></svg>