<?xml version="1.0" encoding="utf-8"?>
<!-- Generator: Adobe Illustrator 21.1.0, SVG Export Plug-In . SVG Version: 6.00 Build 0)  -->
<!DOCTYPE svg PUBLIC "-//W3C//DTD SVG 1.0//EN" "http://www.w3.org/TR/2001/REC-SVG-20010904/DTD/svg10.dtd">
<svg version="1.0" xmlns="http://www.w3.org/2000/svg" xmlns:xlink="http://www.w3.org/1999/xlink" x="0px" y="0px"
	 viewBox="0 0 147.5 117.6" style="enable-background:new 0 0 147.5 117.6;" xml:space="preserve">
<style type="text/css">
	.st0{fill:#FFFFFF;stroke:#AFA282;stroke-width:0.9955;stroke-miterlimit:10;}
</style>
<g id="Layer_1">
</g>
<g id="Layer_3">
	<polygon class="st0" points="68,20.7 46,20.7 35,39.7 46,58.7 68,58.7 79,39.7 	"/>
	<polygon class="st0" points="35,39.7 13,39.7 2,58.7 13,77.7 35,77.7 46,58.7 	"/>
	<polygon class="st0" points="101,1.7 79,1.7 68,20.7 79,39.7 101,39.7 112,20.7 	"/>
	<polygon class="st0" points="101,39.7 79,39.7 68,58.7 79,77.7 101,77.7 112,58.7 	"/>
	<polygon class="st0" points="101,77.7 79,77.7 68,96.7 79,115.7 101,115.7 112,96.7 	"/>
	<polygon class="st0" points="68,58.7 46,58.7 35,77.7 46,96.7 68,96.7 79,77.7 	"/>
	<polygon class="st0" points="134,20.7 112,20.7 101,39.7 112,58.7 134,58.7 145,39.7 	"/>
	<polygon class="st0" points="134,58.7 112,58.7 101,77.7 112,96.7 134,96.7 145,77.7 	"/>
</g>
</svg>
