<?xml version="1.0" encoding="UTF-8" standalone="no"?>
<svg
   xmlns:dc="http://purl.org/dc/elements/1.1/"
   xmlns:cc="http://creativecommons.org/ns#"
   xmlns:rdf="http://www.w3.org/1999/02/22-rdf-syntax-ns#"
   xmlns:svg="http://www.w3.org/2000/svg"
   xmlns="http://www.w3.org/2000/svg"
   viewBox="0 0 597.72375 269.67749"
   height="269.67749"
   width="597.72375"
   xml:space="preserve"
   version="1.1"
   id="svg2"><metadata
     id="metadata8"><rdf:RDF><cc:Work
         rdf:about=""><dc:format>image/svg+xml</dc:format><dc:type
           rdf:resource="http://purl.org/dc/dcmitype/StillImage" /><dc:title></dc:title></cc:Work></rdf:RDF></metadata><defs
     id="defs6"><clipPath
       id="clipPath24"
       clipPathUnits="userSpaceOnUse"><path
         id="path26"
         d="m 0,215.742 478.179,0 L 478.179,0 0,0 0,215.742 Z" /></clipPath></defs><g
     transform="matrix(1.25,0,0,-1.25,0,269.6775)"
     id="g10"><g
       transform="translate(13.6509,26.5508)"
       id="g12"><path
         id="path14"
         style="fill:#5e5a5a;fill-opacity:1;fill-rule:nonzero;stroke:none"
         d="m 0,0 0,-24.939 -1.44,0 0,24.939 -9.817,0 0,1.213 21.112,0 L 9.855,0 0,0 Z" /></g><g
       transform="translate(49.1314,1.6113)"
       id="g16"><path
         id="path18"
         style="fill:#5e5a5a;fill-opacity:1;fill-rule:nonzero;stroke:none"
         d="M 0,0 -1.857,0 -8.604,24.371 -15.768,0 -17.7,0 l -6.634,26.152 1.593,0 6.102,-24.788 7.088,24.409 1.971,0 6.708,-24.371 6.52,24.75 1.478,0 L 0,0 Z" /></g><g
       id="g20"><g
         clip-path="url(#clipPath24)"
         id="g22"><g
           transform="translate(81.4298,14.6875)"
           id="g28"><path
             id="path30"
             style="fill:#5e5a5a;fill-opacity:1;fill-rule:nonzero;stroke:none"
             d="m 0,0 c 0,7.884 -4.624,12.356 -10.347,12.356 -5.761,0 -10.386,-4.472 -10.386,-12.356 0,-7.846 4.625,-12.356 10.386,-12.356 C -4.624,-12.356 0,-7.846 0,0 m 1.592,0 c 0,-7.846 -4.624,-13.607 -11.939,-13.607 -7.354,0 -11.978,5.761 -11.978,13.607 0,7.884 4.624,13.607 11.978,13.607 C -3.032,13.607 1.592,7.884 1.592,0" /></g><g
           transform="translate(111.3775,20.9414)"
           id="g32"><path
             id="path34"
             style="fill:#5e5a5a;fill-opacity:1;fill-rule:nonzero;stroke:none"
             d="M 0,0 -1.516,0 C -2.084,3.866 -4.7,6.103 -8.3,6.103 c -3.184,0 -6.596,-1.744 -6.596,-5.269 0,-3.525 2.161,-4.7 7.088,-6.064 5.496,-1.479 8.187,-3.412 8.187,-7.582 0,-4.054 -3.676,-7.049 -8.604,-7.049 -4.889,0 -8.869,2.464 -9.438,7.505 l 1.517,0 c 0.568,-4.056 3.941,-6.254 7.959,-6.254 3.98,0 7.012,2.236 7.012,5.572 0,3.6 -2.122,5.041 -7.239,6.443 -5.382,1.441 -8.036,3.108 -8.036,7.201 0,3.98 3.791,6.748 8.263,6.748 C -3.184,7.354 -0.493,4.056 0,0" /></g><path
           id="path36"
           style="fill:#5e5a5a;fill-opacity:1;fill-rule:nonzero;stroke:none"
           d="m 117.635,27.764 1.44,0 0,-26.152 -1.44,0 0,26.152 z" /><g
           transform="translate(141.8179,8.623)"
           id="g38"><path
             id="path40"
             style="fill:#5e5a5a;fill-opacity:1;fill-rule:nonzero;stroke:none"
             d="M 0,0 C 0,3.07 -1.554,5.724 -5.989,5.951 -6.86,6.026 -7.391,6.026 -7.998,6.026 l -6.481,0 0,-11.787 6.709,0 c 0.606,0 1.251,0.037 1.744,0.075 C -2.994,-5.458 0,-3.79 0,0 m -14.479,7.277 5.989,0 c 0.606,0 1.251,0.038 2.085,0.077 2.728,0.227 5.42,1.591 5.42,5.268 0,3.752 -2.767,5.078 -5.61,5.231 -0.834,0.038 -1.478,0.038 -2.388,0.038 l -5.496,0 0,-10.614 z M 1.554,0.113 c 0,-4.32 -3.335,-6.708 -7.126,-7.011 -1.061,-0.114 -1.781,-0.114 -2.766,-0.114 l -7.581,0 0,26.153 6.86,0 c 1.1,0 1.782,0 3.07,-0.076 4.018,-0.341 6.557,-2.578 6.557,-6.253 0,-3.222 -1.857,-5.345 -4.851,-5.99 3.866,-0.719 5.837,-3.107 5.837,-6.709" /></g><path
           id="path42"
           style="fill:#5e5a5a;fill-opacity:1;fill-rule:nonzero;stroke:none"
           d="m 148.909,27.764 1.44,0 0,-26.152 -1.44,0 0,26.152 z" /><g
           transform="translate(173.7364,1.6113)"
           id="g44"><path
             id="path46"
             style="fill:#5e5a5a;fill-opacity:1;fill-rule:nonzero;stroke:none"
             d="m 0,0 -16.563,0 0,26.152 1.439,0 0,-24.901 L 0,1.251 0,0 Z" /></g><path
           id="path48"
           style="fill:#5e5a5a;fill-opacity:1;fill-rule:nonzero;stroke:none"
           d="m 178.325,27.764 1.44,0 0,-26.152 -1.44,0 0,26.152 z" /><g
           transform="translate(202.8497,1.6113)"
           id="g50"><path
             id="path52"
             style="fill:#5e5a5a;fill-opacity:1;fill-rule:nonzero;stroke:none"
             d="m 0,0 -14.896,24.788 c 0.076,-3.411 0.076,-7.429 0.076,-10.84 l 0,-13.948 -1.44,0 0,26.152 2.198,0 L 0.872,1.364 C 0.796,4.775 0.796,8.831 0.796,12.242 l 0,13.91 1.402,0 L 2.236,0 0,0 Z" /></g><g
           transform="translate(232.3414,13.5127)"
           id="g54"><path
             id="path56"
             style="fill:#5e5a5a;fill-opacity:1;fill-rule:nonzero;stroke:none"
             d="m 0,0 0,-11.901 -1.327,0 0,6.329 -0.871,-2.426 c -2.009,-3.146 -5.231,-4.435 -8.49,-4.435 -6.861,0 -11.561,5.231 -11.561,13.532 0,8.111 5.193,13.683 12.281,13.683 5.95,0 9.21,-3.677 10.044,-8.452 l 0.076,-0.38 -1.441,0 -0.075,0.38 c -0.834,4.131 -3.753,7.201 -8.756,7.201 -5.609,0 -10.537,-4.51 -10.537,-12.356 0,-8.15 4.472,-12.357 10.082,-12.357 4.018,0 9.135,2.73 9.135,9.931 l -8.149,0 0,1.251 L 0,0 Z" /></g><g
           transform="translate(254.2911,20.9414)"
           id="g58"><path
             id="path60"
             style="fill:#5e5a5a;fill-opacity:1;fill-rule:nonzero;stroke:none"
             d="m 0,0 -1.516,0 c -0.568,3.866 -3.183,6.103 -6.784,6.103 -3.184,0 -6.596,-1.744 -6.596,-5.269 0,-3.525 2.161,-4.7 7.088,-6.064 5.496,-1.479 8.188,-3.412 8.188,-7.582 0,-4.054 -3.677,-7.049 -8.605,-7.049 -4.889,0 -8.869,2.464 -9.437,7.505 l 1.516,0 c 0.569,-4.056 3.942,-6.254 7.959,-6.254 3.98,0 7.012,2.236 7.012,5.572 0,3.6 -2.122,5.041 -7.239,6.443 -5.382,1.441 -8.035,3.108 -8.035,7.201 0,3.98 3.79,6.748 8.262,6.748 C -3.184,7.354 -0.492,4.056 0,0" /></g><g
           transform="translate(288.3702,14.6875)"
           id="g62"><path
             id="path64"
             style="fill:#5e5a5a;fill-opacity:1;fill-rule:nonzero;stroke:none"
             d="m 0,0 c 0,7.884 -4.624,12.356 -10.348,12.356 -5.76,0 -10.385,-4.472 -10.385,-12.356 0,-7.846 4.625,-12.356 10.385,-12.356 C -4.624,-12.356 0,-7.846 0,0 m 1.592,0 c 0,-7.846 -4.624,-13.607 -11.94,-13.607 -7.353,0 -11.977,5.761 -11.977,13.607 0,7.884 4.624,13.607 11.977,13.607 7.316,0 11.94,-5.723 11.94,-13.607" /></g><g
           transform="translate(311.7227,1.6113)"
           id="g66"><path
             id="path68"
             style="fill:#5e5a5a;fill-opacity:1;fill-rule:nonzero;stroke:none"
             d="m 0,0 -14.896,24.788 c 0.076,-3.411 0.076,-7.429 0.076,-10.84 l 0,-13.948 -1.441,0 0,26.152 2.198,0 L 0.871,1.364 C 0.796,4.775 0.796,8.831 0.796,12.242 l 0,13.91 1.402,0 L 2.236,0 0,0 Z" /></g><g
           transform="translate(337.3106,1.6113)"
           id="g70"><path
             id="path72"
             style="fill:#5e5a5a;fill-opacity:1;fill-rule:nonzero;stroke:none"
             d="m 0,0 -16.563,0 0,26.152 16.184,0 0,-1.213 -14.744,0 0,-11.256 13.872,0 0,-1.213 -13.872,0 0,-11.219 L 0,1.251 0,0 Z" /></g><g
           transform="translate(369.1524,14.8389)"
           id="g74"><path
             id="path76"
             style="fill:#5e5a5a;fill-opacity:1;fill-rule:nonzero;stroke:none"
             d="m 0,0 c 0,7.619 -4.662,11.105 -8.869,11.561 -0.834,0.114 -1.478,0.114 -2.843,0.114 l -6.178,0 0,-23.652 6.103,0 c 1.251,0 2.084,0.038 3.222,0.19 C -4.358,-11.257 0,-7.429 0,0 m 1.593,0 c 0,-8.831 -5.838,-12.583 -9.969,-13.076 -1.327,-0.152 -2.085,-0.152 -3.336,-0.152 l -7.618,0 0,26.153 7.656,0 c 1.251,0 1.858,0 2.919,-0.075 C -4.245,12.433 1.593,8.907 1.593,0" /></g><g
           transform="translate(392.8087,1.6113)"
           id="g78"><path
             id="path80"
             style="fill:#5e5a5a;fill-opacity:1;fill-rule:nonzero;stroke:none"
             d="m 0,0 -16.563,0 0,26.152 16.183,0 0,-1.213 -14.744,0 0,-11.256 13.873,0 0,-1.213 -13.873,0 0,-11.219 L 0,1.251 0,0 Z" /></g><g
           transform="translate(413.6192,20.9414)"
           id="g82"><path
             id="path84"
             style="fill:#5e5a5a;fill-opacity:1;fill-rule:nonzero;stroke:none"
             d="m 0,0 -1.516,0 c -0.568,3.866 -3.183,6.103 -6.784,6.103 -3.184,0 -6.596,-1.744 -6.596,-5.269 0,-3.525 2.161,-4.7 7.088,-6.064 5.496,-1.479 8.188,-3.412 8.188,-7.582 0,-4.054 -3.677,-7.049 -8.605,-7.049 -4.889,0 -8.869,2.464 -9.437,7.505 l 1.516,0 c 0.569,-4.056 3.942,-6.254 7.959,-6.254 3.98,0 7.012,2.236 7.012,5.572 0,3.6 -2.122,5.041 -7.239,6.443 -5.382,1.441 -8.035,3.108 -8.035,7.201 0,3.98 3.79,6.748 8.262,6.748 C -3.184,7.354 -0.492,4.056 0,0" /></g><path
           id="path86"
           style="fill:#5e5a5a;fill-opacity:1;fill-rule:nonzero;stroke:none"
           d="m 419.877,27.764 1.44,0 0,-26.152 -1.44,0 0,26.152 z" /><g
           transform="translate(448.6085,13.5127)"
           id="g88"><path
             id="path90"
             style="fill:#5e5a5a;fill-opacity:1;fill-rule:nonzero;stroke:none"
             d="m 0,0 0,-11.901 -1.327,0 0,6.329 -0.871,-2.426 c -2.009,-3.146 -5.231,-4.435 -8.49,-4.435 -6.861,0 -11.561,5.231 -11.561,13.532 0,8.111 5.192,13.683 12.28,13.683 5.951,0 9.211,-3.677 10.044,-8.452 l 0.076,-0.38 -1.44,0 -0.075,0.38 c -0.834,4.131 -3.753,7.201 -8.756,7.201 -5.609,0 -10.537,-4.51 -10.537,-12.356 0,-8.15 4.472,-12.357 10.082,-12.357 4.017,0 9.135,2.73 9.135,9.931 l -8.15,0 L -9.59,0 0,0 Z" /></g><g
           transform="translate(471.2403,1.6113)"
           id="g92"><path
             id="path94"
             style="fill:#5e5a5a;fill-opacity:1;fill-rule:nonzero;stroke:none"
             d="m 0,0 -14.896,24.788 c 0.076,-3.411 0.076,-7.429 0.076,-10.84 l 0,-13.948 -1.44,0 0,26.152 2.198,0 L 0.872,1.364 C 0.796,4.775 0.796,8.831 0.796,12.242 l 0,13.91 1.402,0 L 2.236,0 0,0 Z" /></g><g
           transform="translate(421.5186,205.4966)"
           id="g96"><path
             id="path98"
             style="fill:#323231;fill-opacity:1;fill-rule:nonzero;stroke:none"
             d="M 0,0 C -1.098,1.217 -2.444,1.709 -4.038,1.709 -5.623,1.709 -7.093,1.098 -8.191,0 -9.413,-1.222 -9.9,-2.568 -9.9,-4.158 c 0,-1.589 0.611,-2.931 1.709,-4.033 1.222,-1.223 2.568,-1.714 4.153,-1.714 1.594,0 2.94,0.616 4.038,1.714 1.222,1.102 1.709,2.444 1.709,4.033 0,1.59 -0.61,2.936 -1.709,4.158 m -25.911,0 c -1.222,1.217 -2.568,1.709 -4.152,1.709 -1.595,0 -2.932,-0.611 -4.04,-1.709 -1.097,-1.222 -1.709,-2.568 -1.709,-4.158 0,-1.589 0.612,-2.931 1.709,-4.033 1.108,-1.223 2.445,-1.714 4.04,-1.714 1.584,0 3.054,0.616 4.152,1.714 1.223,1.102 1.709,2.444 1.709,4.033 0.124,1.59 -0.486,2.936 -1.709,4.158 m -169.52,-20.044 0,-5.256 -65.995,0 0,-61.599 53.044,0 0,-5.255 -53.044,0 0,-62.086 65.995,0 0,-5.256 -71.251,0 0,139.452 71.251,0 z m -88.364,0 0,-139.332 -5.132,0 0,134.076 -57.932,-134.196 -6.721,0 -57.809,134.196 0,-134.076 -5.256,0 0,139.332 8.679,0 57.808,-133.953 57.813,133.953 8.55,0 z m 49.134,29.21 6.722,0 0,-23.467 -6.722,0 0,23.467 z" /></g><g
           transform="translate(471.2598,109.8003)"
           id="g100"><path
             id="path102"
             style="fill:none;stroke:#323231;stroke-width:0.85000002;stroke-linecap:butt;stroke-linejoin:miter;stroke-miterlimit:10;stroke-dasharray:none;stroke-opacity:1"
             d="M 0,0 -65.017,-65.021 M 0.61,20.283 -81.523,-61.842 m 77.733,97.53 -92.149,-92.274 m 82.983,102.78 -95.452,-95.447 m 85.552,105.223 -95.94,-95.939" /></g><g
           transform="translate(244.5421,117.9868)"
           id="g104"><path
             id="path106"
             style="fill:#323231;fill-opacity:1;fill-rule:nonzero;stroke:none"
             d="m 0,0 0,62.21 43.755,0 c 8.555,0 15.887,-3.055 21.883,-9.17 6.109,-6.111 9.165,-13.443 9.165,-21.997 0,-8.554 -3.056,-15.892 -9.165,-21.997 -6.111,-6.11 -13.452,-9.17 -21.883,-9.17 L 0,-0.124 0,0 Z m 47.794,-5.131 c 9.165,0.974 16.745,5.007 22.855,11.852 6.225,6.965 9.29,15.032 9.29,24.322 0,10.02 -3.551,18.579 -10.635,25.663 -7.094,7.093 -15.649,10.635 -25.663,10.635 l -49.016,0 0,-139.327 5.256,0 0,66.73 42.165,0 34.59,-66.611 5.861,0 -34.703,66.736 z m 158.884,-43.636 c -12.831,-12.831 -28.356,-19.309 -46.447,-19.309 -18.207,0 -33.606,6.478 -46.447,19.309 -12.832,12.837 -19.305,28.355 -19.305,46.447 0,18.207 6.473,33.731 19.305,46.438 12.841,12.836 28.355,19.314 46.447,19.314 18.206,0 33.616,-6.478 46.447,-19.314 12.832,-12.832 19.304,-28.351 19.304,-46.438 0,-18.092 -6.472,-33.491 -19.304,-46.447 m 3.666,96.675 c -13.815,13.934 -30.56,20.899 -50.113,20.899 -19.552,0 -36.298,-6.965 -50.114,-20.899 C 96.188,34.098 89.219,17.352 89.219,-2.32 c 0,-19.557 6.969,-36.299 20.898,-50.113 13.816,-13.929 30.562,-20.899 50.114,-20.899 19.553,0 36.298,6.97 50.113,20.899 13.929,13.814 20.899,30.556 20.899,50.113 -0.124,19.672 -6.97,36.418 -20.899,50.228" /></g></g></g></g></svg>