<?xml version="1.0" encoding="utf-8"?>
<!-- Generator: Adobe Illustrator 21.1.0, SVG Export Plug-In . SVG Version: 6.00 Build 0)  -->
<!DOCTYPE svg PUBLIC "-//W3C//DTD SVG 1.0//EN" "http://www.w3.org/TR/2001/REC-SVG-20010904/DTD/svg10.dtd">
<svg version="1.0" xmlns="http://www.w3.org/2000/svg" xmlns:xlink="http://www.w3.org/1999/xlink" x="0px" y="0px"
	 viewBox="0 0 40 26.8" style="enable-background:new 0 0 40 26.8;" xml:space="preserve">
<style type="text/css">
	.st0{fill:#323232;}
</style>
<g id="Layer_1">
</g>
<g id="Isolation_Mode">
	<g>
		<path class="st0" d="M38.7,4.5H1.3c-0.6,0-1-0.4-1-1V1.2c0-0.6,0.4-1,1-1h37.4c0.6,0,1,0.4,1,1v2.3C39.7,4.1,39.3,4.5,38.7,4.5z"
			/>
		<path class="st0" d="M38.7,15.5H1.3c-0.6,0-1-0.4-1-1v-2.3c0-0.6,0.4-1,1-1h37.4c0.6,0,1,0.4,1,1v2.3
			C39.7,15.1,39.3,15.5,38.7,15.5z"/>
		<path class="st0" d="M38.7,26.5H1.3c-0.6,0-1-0.4-1-1v-2.3c0-0.6,0.4-1,1-1h37.4c0.6,0,1,0.4,1,1v2.3
			C39.7,26.1,39.3,26.5,38.7,26.5z"/>
	</g>
</g>
</svg>
