<?xml version="1.0" encoding="utf-8"?>
<!-- Generator: Adobe Illustrator 21.1.0, SVG Export Plug-In . SVG Version: 6.00 Build 0)  -->
<!DOCTYPE svg PUBLIC "-//W3C//DTD SVG 1.0//EN" "http://www.w3.org/TR/2001/REC-SVG-20010904/DTD/svg10.dtd">
<svg version="1.0" xmlns="http://www.w3.org/2000/svg" xmlns:xlink="http://www.w3.org/1999/xlink" x="0px" y="0px"
	 viewBox="0 0 1016.7 352" style="enable-background:new 0 0 1016.7 352;" xml:space="preserve">
<style type="text/css">
	.st0{fill:#323232;}
	.st1{fill:none;stroke:#323232;stroke-width:0.7004;stroke-miterlimit:10;}
	.st2{fill:#4E4C4B;}
	.st3{fill:#FFFFFF;stroke:#403E3E;stroke-width:0.989;stroke-miterlimit:10;}
	.st4{fill:#FFFFFF;stroke:#323232;stroke-width:0.7004;stroke-miterlimit:10;}
</style>
<g id="Layer_1">
</g>
<g id="Layer_3">
	<g>
		<g>
			<polyline class="st0" points="444.9,105 465.9,169.9 421.3,125.2 			"/>
			<line x1="444.9" y1="105" x2="465.6" y2="169.2"/>
		</g>
		<line class="st1" x1="70.1" y1="19.4" x2="194.6" y2="87.8"/>
		<line class="st1" x1="269.3" y1="261.7" x2="112.8" y2="113"/>
		<path class="st1" d="M192,109.5"/>
		<path class="st1" d="M252.7,167.2"/>
		<line class="st1" x1="270.4" y1="261.2" x2="455.4" y2="95.3"/>
		<line class="st1" x1="421.9" y1="125.1" x2="518.4" y2="222.2"/>
		<line class="st1" x1="491.4" y1="195" x2="746" y2="140.6"/>
		<line class="st1" x1="565.6" y1="43.5" x2="746.7" y2="140.6"/>
		<line class="st1" x1="629.7" y1="165.6" x2="695.5" y2="333.3"/>
		<line class="st1" x1="665.3" y1="256" x2="774.8" y2="227.4"/>
		<line class="st1" x1="683.8" y1="106.7" x2="818.7" y2="47.8"/>
		<line class="st1" x1="157.4" y1="67.2" x2="14" y2="215.5"/>
		<line class="st1" x1="222.4" y1="136.4" x2="188.7" y2="185.9"/>
		<g>
			<g>
				<g>
					<path class="st2" d="M97,13.3c0,5.2-3.3,7.9-6.5,8.4c-0.8,0.1-1.3,0.1-2.1,0.1h-4.9V5.1h4.9c0.9,0,1.3,0,2,0.1
						C93.8,5.6,97,8,97,13.3z M95.4,13.3c0-4.3-2.3-6.5-5.1-6.8c-0.5-0.1-1.1-0.1-1.9-0.1H85v14.1h3.3c0.8,0,1.4,0,2-0.1
						C93.1,20,95.4,17.6,95.4,13.3z"/>
					<path class="st2" d="M107.1,19.4l-0.6,1.3c-0.9,0.9-2.1,1.3-3.5,1.3c-2.4,0-4-1.2-4-3.5c0-2.9,2.8-4.3,7.4-4.3h0.8v-0.5
						c0-0.6,0-1.1,0-1.6c-0.1-1.5-1-2.3-2.8-2.3c-1.8,0-3,0.9-3.2,2.9h-1.6c0.2-2.5,2.1-4.1,4.8-4.1c2.8,0,4.1,1.3,4.3,3.4
						c0,0.6,0,1.1,0,1.7v4.5c0,1.1,0.1,2,0.2,3.6h-1.5L107.1,19.4z M107,16.8v-1.5c-3.6-0.2-6.5,0.6-6.5,3.1c0,1.6,1,2.5,2.9,2.5
						C105.6,20.9,107,19.2,107,16.8z"/>
					<path class="st2" d="M122.7,21.7h-1.5v-2.4l-0.8,1.4c-0.9,0.9-2.1,1.3-3.6,1.3c-3.6,0-5.7-2.8-5.7-6.5c0-4.6,2.8-6.9,6.1-6.9
						c1.3,0,2.5,0.4,3.3,1.2l0.8,1.4V4h1.5V21.7z M121.2,15.7v-1c0-3.6-2.2-4.8-4.1-4.8c-2.5,0-4.4,2-4.4,5.5c0,3.1,1.5,5.6,4.3,5.6
						C119.2,20.9,121.2,19.5,121.2,15.7z"/>
					<path class="st2" d="M133.6,19.4l-0.6,1.3c-0.9,0.9-2.1,1.3-3.5,1.3c-2.4,0-4-1.2-4-3.5c0-2.9,2.8-4.3,7.4-4.3h0.8v-0.5
						c0-0.6,0-1.1,0-1.6c-0.1-1.5-1-2.3-2.8-2.3c-1.8,0-3,0.9-3.2,2.9H126c0.2-2.5,2.1-4.1,4.8-4.1c2.8,0,4.1,1.3,4.3,3.4
						c0,0.6,0,1.1,0,1.7v4.5c0,1.1,0.1,2,0.2,3.6h-1.5L133.6,19.4z M133.6,16.8v-1.5c-3.6-0.2-6.5,0.6-6.5,3.1c0,1.6,1,2.5,2.9,2.5
						C132.1,20.9,133.6,19.2,133.6,16.8z"/>
				</g>
			</g>
		</g>
		<g>
			<g>
				<g>
					<g>
						<path class="st2" d="M219.2,91.3h-1.5v-7.5h-9.7v7.5h-1.5V74.7h1.5v7.8h9.7v-7.8h1.5V91.3z"/>
						<path class="st2" d="M230.1,89l-0.6,1.3c-0.9,0.9-2.1,1.3-3.5,1.3c-2.4,0-4-1.2-4-3.5c0-2.9,2.8-4.3,7.4-4.3h0.8v-0.5
							c0-0.6,0-1.1,0-1.6c-0.1-1.5-1-2.3-2.8-2.3c-1.8,0-3,0.9-3.2,2.9h-1.6c0.2-2.5,2.1-4.1,4.8-4.1c2.8,0,4.1,1.3,4.3,3.4
							c0,0.6,0,1.1,0,1.7v4.5c0,1.1,0.1,2,0.2,3.6h-1.5L230.1,89z M230.1,86.4V85c-3.6-0.2-6.5,0.6-6.5,3.1c0,1.6,1,2.5,2.9,2.5
							C228.6,90.5,230.1,88.8,230.1,86.4z"/>
						<path class="st2" d="M245.4,84.2v7.1h-1.5v-7c0-0.7,0-1.3,0-1.9c-0.2-1.7-1.1-3-3.3-3c-2.1,0-4,1.5-4,5.5v6.3h-1.5V78.6h1.5
							v2.5l0.7-1.4c1-1,2.2-1.4,3.6-1.4c2.7,0,4.2,1.5,4.5,3.8C245.4,82.7,245.4,83.2,245.4,84.2z"/>
						<path class="st2" d="M257,82.2h-1.6c-0.4-1.8-1.4-2.7-3.1-2.7c-1.5,0-2.6,0.9-2.6,2.3c0,1.5,1.2,2,3,2.5
							c2.9,0.7,4.3,1.8,4.3,3.9c0,2.3-1.9,3.5-4.5,3.5c-2.5,0-4.5-1.2-4.9-4.1h1.5c0.4,2.2,1.7,2.9,3.4,2.9c1.6,0,2.9-0.7,2.9-2.2
							c0-1.4-0.9-2.1-3.4-2.7c-2.2-0.6-4-1.5-4-3.7c0-2.2,1.7-3.6,4.2-3.6C255.2,78.3,256.7,79.9,257,82.2z"/>
						<path class="st2" d="M276,91.3h-12.2v-1.2L274.1,76h-9.6v-1.3h11.4V76l-10.2,14.1H276V91.3z"/>
						<path class="st2" d="M280,75.9c0,0.6-0.4,1-1,1c-0.6,0-1-0.5-1-1c0-0.6,0.5-1,1-1C279.6,74.8,280,75.3,280,75.9z M278.3,91.3
							V78.6h1.5v12.7H278.3z"/>
						<path class="st2" d="M300.1,83.8v7.5h-1.5v-6.8c0-1,0-1.7-0.1-2.3c-0.2-1.7-1.2-2.7-2.8-2.7c-1.8,0-3.2,1.4-3.2,5.2v6.7h-1.5
							v-6.8c0-1,0-1.7-0.1-2.3c-0.2-1.7-1.2-2.7-2.8-2.7c-1.8,0-3.2,1.4-3.2,5.2v6.7h-1.5V78.6h1.5v2.2l0.7-1.4
							c0.7-0.8,1.7-1.1,2.9-1.1c2,0,3.3,1.1,3.7,2.7l1-1.6c0.7-0.8,1.7-1.1,2.9-1.1c2.3,0,3.6,1.4,3.8,3.4
							C300,82.3,300.1,82.8,300.1,83.8z"/>
						<path class="st2" d="M320.2,83.8v7.5h-1.5v-6.8c0-1,0-1.7-0.1-2.3c-0.2-1.7-1.2-2.7-2.8-2.7c-1.8,0-3.2,1.4-3.2,5.2v6.7h-1.5
							v-6.8c0-1,0-1.7-0.1-2.3c-0.2-1.7-1.2-2.7-2.8-2.7c-1.8,0-3.2,1.4-3.2,5.2v6.7h-1.5V78.6h1.5v2.2l0.7-1.4
							c0.7-0.8,1.7-1.1,2.9-1.1c2,0,3.3,1.1,3.7,2.7l1-1.6c0.7-0.8,1.7-1.1,2.9-1.1c2.3,0,3.6,1.4,3.8,3.4
							C320.2,82.3,320.2,82.8,320.2,83.8z"/>
						<path class="st2" d="M333.8,85.4h-9.6c0.2,3.8,2.1,5.1,4.1,5.1c1.8,0,3.4-1.1,3.8-3.2h1.6c-0.6,3-2.9,4.4-5.5,4.4
							c-3.2,0-5.7-2.2-5.7-6.7c0-4.1,2.5-6.7,5.9-6.7c3.6,0,5.4,2.8,5.4,6.4C333.9,84.8,333.9,85,333.8,85.4z M324.2,84.2h8.2
							c-0.2-3.3-1.8-4.8-3.9-4.8C326.3,79.5,324.4,81.1,324.2,84.2z"/>
						<path class="st2" d="M341.9,78.4v1.2c-2.2-0.2-3.8,1.2-3.8,4.6v7.2h-1.5V78.6h1.5v2.3l0.9-1.6c0.6-0.6,1.4-1,2.2-1
							C341.4,78.3,341.7,78.3,341.9,78.4z"/>
					</g>
				</g>
			</g>
		</g>
		<g>
			<g>
				<g>
					<path class="st2" d="M43,218.9c0,5.2-3.3,7.9-6.5,8.4c-0.8,0.1-1.3,0.1-2.1,0.1h-4.9v-16.6h4.9c0.9,0,1.3,0,2,0.1
						C39.8,211.2,43,213.6,43,218.9z M41.4,218.9c0-4.3-2.3-6.5-5.1-6.8c-0.5-0.1-1.1-0.1-1.9-0.1H31v14.1h3.3c0.8,0,1.4,0,2-0.1
						C39.1,225.6,41.4,223.2,41.4,218.9z"/>
					<path class="st2" d="M53.1,225.1l-0.6,1.3c-0.9,0.9-2.1,1.3-3.5,1.3c-2.4,0-4-1.2-4-3.5c0-2.9,2.8-4.3,7.4-4.3h0.8v-0.5
						c0-0.6,0-1.1,0-1.6c-0.1-1.5-1-2.3-2.8-2.3c-1.8,0-3,0.9-3.2,2.9h-1.6c0.2-2.5,2.1-4.1,4.8-4.1c2.8,0,4.1,1.3,4.3,3.4
						c0,0.6,0,1.1,0,1.7v4.5c0,1.1,0.1,2,0.2,3.6h-1.5L53.1,225.1z M53.1,222.5V221c-3.6-0.2-6.5,0.6-6.5,3.1c0,1.6,1,2.5,2.9,2.5
						C51.6,226.5,53.1,224.8,53.1,222.5z"/>
					<path class="st2" d="M59.5,224c0,0.6,0,1,0,1.4c0,0.8,0.4,1,1.5,0.9v1.1c-0.4,0.1-0.8,0.1-1.2,0.1c-1,0-1.7-0.3-1.8-1.7
						c0-0.4,0-0.9,0-1.7v-14.4h1.5V224z"/>
					<path class="st2" d="M73.6,221.4H64c0.2,3.8,2.1,5.1,4.1,5.1c1.8,0,3.4-1.1,3.8-3.2h1.6c-0.6,3-2.9,4.4-5.5,4.4
						c-3.2,0-5.7-2.2-5.7-6.7c0-4.1,2.5-6.7,5.9-6.7c3.6,0,5.4,2.8,5.4,6.4C73.7,220.8,73.7,221.1,73.6,221.4z M64,220.3h8.2
						c-0.2-3.3-1.8-4.8-3.9-4.8C66.1,215.5,64.2,217.1,64,220.3z"/>
					<path class="st2" d="M95,215.9l0,0.2h-1.5l0-0.2c-0.5-2.5-2.2-4.3-5.1-4.3c-3.4,0-6,2.9-6,7.4c0,4.6,2.5,7.4,5.8,7.4
						c3.1,0,4.7-1.9,5.2-4.4l0-0.2h1.5l0,0.2c-0.4,3.1-2.6,5.6-6.8,5.6c-4.5,0-7.4-3.5-7.4-8.6c0-5.1,3.2-8.7,7.7-8.7
						C92.4,210.4,94.5,212.8,95,215.9z"/>
					<path class="st2" d="M108.1,220.2v7.1h-1.5v-7c0-0.7,0-1.3,0-1.9c-0.2-1.7-1.1-3-3.3-3c-2.1,0-4,1.5-4,5.5v6.3h-1.5v-17.8h1.5
						v7.5l0.7-1.4c1-1,2.2-1.4,3.6-1.4c2.7,0,4.2,1.5,4.5,3.8C108.1,218.7,108.1,219.2,108.1,220.2z"/>
					<path class="st2" d="M113.3,211.9c0,0.6-0.4,1-1,1c-0.6,0-1-0.5-1-1c0-0.6,0.5-1,1-1C112.9,210.9,113.3,211.3,113.3,211.9z
						 M111.5,227.4v-12.7h1.5v12.7H111.5z"/>
					<path class="st2" d="M126.9,220.2v7.1h-1.5v-7c0-0.7,0-1.3,0-1.9c-0.2-1.7-1.1-3-3.3-3c-2.1,0-4,1.5-4,5.5v6.3h-1.5v-17.8h1.5
						v7.5l0.7-1.4c1-1,2.2-1.4,3.6-1.4c2.7,0,4.2,1.5,4.5,3.8C126.9,218.7,126.9,219.2,126.9,220.2z"/>
					<path class="st2" d="M140.3,227.4h-1.5v-2.5l-0.7,1.4c-1,1-2.2,1.4-3.6,1.4c-2.6,0-4.1-1.5-4.4-3.5c-0.1-0.6-0.1-1.1-0.1-2.1
						v-7.4h1.5v7.1c0,0.6,0,1.3,0.1,1.9c0.2,1.7,1.3,2.9,3.3,2.9c2.1,0,3.9-1.5,3.9-5.5v-6.3h1.5V227.4z"/>
					<path class="st2" d="M145.3,224c0,0.6,0,1,0,1.4c0,0.8,0.4,1,1.5,0.9v1.1c-0.4,0.1-0.8,0.1-1.2,0.1c-1,0-1.7-0.3-1.8-1.7
						c0-0.4,0-0.9,0-1.7v-14.4h1.5V224z"/>
					<path class="st2" d="M154,228c-1.3,3.4-2.5,4.4-4.3,4.4c-0.4,0-0.7,0-1-0.1v-1.2c0.3,0,0.6,0,0.8,0c1.2,0,2-0.6,2.8-2.6
						l0.3-0.7l-5-13.2h1.7l4.1,11.6l4.1-11.6h1.6L154,228z"/>
				</g>
			</g>
			<ellipse class="st3" cx="16.6" cy="214" rx="4.7" ry="4.7"/>
		</g>
		<g>
			<g>
				<g>
					<g>
						<path class="st2" d="M243.5,133.6c0,0.7,0,1.3,0,2.1c-0.2,2.6-1.7,4.6-5.1,4.6c-3,0-4.7-1.8-4.8-5l0-0.9h1.5l0,0.9
							c0.1,2.7,1.4,3.8,3.5,3.8c2.1,0,3.2-1.3,3.4-3.5c0-0.5,0-1.1,0-1.9v-10.3h1.5V133.6z"/>
						<path class="st2" d="M256.9,134h-9.6c0.2,3.8,2.1,5.1,4.1,5.1c1.8,0,3.4-1.1,3.8-3.2h1.6c-0.6,3-2.9,4.4-5.5,4.4
							c-3.2,0-5.7-2.2-5.7-6.7c0-4.1,2.5-6.7,5.9-6.7c3.6,0,5.4,2.8,5.4,6.4C256.9,133.4,256.9,133.6,256.9,134z M247.2,132.8h8.2
							c-0.2-3.3-1.8-4.8-3.9-4.8C249.4,128.1,247.5,129.7,247.2,132.8z"/>
						<path class="st2" d="M265,127v1.2c-2.2-0.2-3.8,1.2-3.8,4.6v7.2h-1.5v-12.7h1.5v2.3l0.9-1.6c0.6-0.6,1.4-1,2.2-1
							C264.5,126.9,264.8,126.9,265,127z"/>
						<path class="st2" d="M276.9,134h-9.6c0.2,3.8,2.1,5.1,4.1,5.1c1.8,0,3.4-1.1,3.8-3.2h1.6c-0.6,3-2.9,4.4-5.5,4.4
							c-3.2,0-5.7-2.2-5.7-6.7c0-4.1,2.5-6.7,5.9-6.7c3.6,0,5.4,2.8,5.4,6.4C277,133.4,277,133.6,276.9,134z M267.3,132.8h8.2
							c-0.2-3.3-1.8-4.8-3.9-4.8C269.4,128.1,267.5,129.7,267.3,132.8z"/>
						<path class="st2" d="M296.4,132.4v7.5h-1.5v-6.8c0-1,0-1.7-0.1-2.3c-0.2-1.7-1.2-2.7-2.8-2.7c-1.8,0-3.2,1.4-3.2,5.2v6.7h-1.5
							v-6.8c0-1,0-1.7-0.1-2.3c-0.2-1.7-1.2-2.7-2.8-2.7c-1.8,0-3.2,1.4-3.2,5.2v6.7h-1.5v-12.7h1.5v2.2l0.7-1.4
							c0.7-0.8,1.7-1.1,2.9-1.1c2,0,3.3,1.1,3.7,2.7l1-1.6c0.7-0.8,1.7-1.1,2.9-1.1c2.3,0,3.6,1.4,3.8,3.4
							C296.4,130.9,296.4,131.4,296.4,132.4z"/>
						<path class="st2" d="M304.6,140.6c-1.3,3.4-2.5,4.4-4.3,4.4c-0.4,0-0.7,0-1-0.1v-1.2c0.3,0,0.6,0,0.8,0c1.2,0,2-0.6,2.8-2.6
							l0.3-0.7l-5-13.2h1.7l4.1,11.6l4.1-11.6h1.6L304.6,140.6z"/>
						<path class="st2" d="M333.2,139.9h-1.5v-9c0-2.1,0-4.4,0-6.3c-0.6,1.9-1.5,4.3-2.3,6.3l-3.4,9h-1.9l-3.4-9
							c-0.7-2-1.6-4.4-2.2-6.3c0,1.9,0,4.2,0,6.3v9h-1.5v-16.6h2.4l5.6,15.4l5.6-15.4h2.4V139.9z"/>
						<path class="st2" d="M344.1,137.6l-0.6,1.3c-0.9,0.9-2.1,1.3-3.5,1.3c-2.4,0-4-1.2-4-3.5c0-2.9,2.8-4.3,7.4-4.3h0.8v-0.5
							c0-0.6,0-1.1,0-1.6c-0.1-1.5-1-2.3-2.8-2.3c-1.8,0-3,0.9-3.2,2.9h-1.6c0.2-2.5,2.1-4.1,4.8-4.1c2.8,0,4.1,1.3,4.3,3.4
							c0,0.6,0,1.1,0,1.7v4.5c0,1.1,0.1,2,0.2,3.6h-1.5L344.1,137.6z M344.1,135v-1.5c-3.6-0.2-6.5,0.6-6.5,3.1c0,1.6,1,2.5,2.9,2.5
							C342.6,139.1,344.1,137.4,344.1,135z"/>
						<path class="st2" d="M359.4,132.8v7.1h-1.5v-7c0-0.7,0-1.3,0-1.9c-0.2-1.7-1.1-3-3.3-3c-2.1,0-4,1.5-4,5.5v6.3h-1.5v-12.7h1.5
							v2.5l0.7-1.4c1-1,2.2-1.4,3.6-1.4c2.7,0,4.2,1.5,4.5,3.8C359.4,131.3,359.4,131.8,359.4,132.8z"/>
						<path class="st2" d="M373.1,132.8v7.1h-1.5v-7c0-0.7,0-1.3,0-1.9c-0.2-1.7-1.1-3-3.3-3c-2.1,0-4,1.5-4,5.5v6.3h-1.5v-12.7h1.5
							v2.5l0.7-1.4c1-1,2.2-1.4,3.6-1.4c2.7,0,4.2,1.5,4.5,3.8C373.1,131.3,373.1,131.8,373.1,132.8z"/>
					</g>
				</g>
			</g>
		</g>
		<g>
			<g>
				<g>
					<g>
						<path class="st2" d="M539.3,218.5h-1.6c-0.3-2.3-1.7-3.6-3.9-3.6c-1.9,0-3.7,1-3.7,3c0,2,1.2,2.8,4,3.5c3.6,0.9,5.3,2.3,5.3,5
							c0,2.7-2.4,4.6-5.6,4.6c-3.4,0-5.8-1.7-6.2-4.9h1.6c0.4,2.4,2.2,3.7,4.6,3.7c2.2,0,3.9-1.3,3.9-3.2c0-2.1-1.3-3.1-4.4-3.8
							c-3.2-0.8-5-1.9-5-4.6c0-2.7,2.5-4.5,5.4-4.5C537.3,213.7,539,215.8,539.3,218.5z"/>
						<path class="st2" d="M544.2,227.2c0,0.5,0,0.8,0,1.1c0.1,1.2,0.6,1.5,2.3,1.3v1.1c-0.5,0.1-1,0.1-1.5,0.1
							c-1.4,0-2.2-0.6-2.3-2c0-0.4,0-0.9,0-1.6v-8h-1.6V218h1.6v-2.8h1.5v2.8h2.4v1.2h-2.4V227.2z"/>
						<path class="st2" d="M556.5,228.4l-0.6,1.3c-0.9,0.9-2.1,1.3-3.5,1.3c-2.4,0-4-1.2-4-3.5c0-2.9,2.8-4.3,7.4-4.3h0.8v-0.5
							c0-0.6,0-1.1,0-1.6c-0.1-1.5-1-2.3-2.8-2.3c-1.8,0-3,0.9-3.2,2.9h-1.6c0.2-2.5,2.1-4.1,4.8-4.1c2.8,0,4.1,1.3,4.3,3.4
							c0,0.6,0,1.1,0,1.7v4.5c0,1.1,0.1,2,0.2,3.6h-1.5L556.5,228.4z M556.5,225.8v-1.5c-3.6-0.2-6.5,0.6-6.5,3.1
							c0,1.6,1,2.5,2.9,2.5C555,229.8,556.5,228.1,556.5,225.8z"/>
						<path class="st2" d="M566.9,217.7v1.2c-2.2-0.2-3.8,1.2-3.8,4.6v7.2h-1.5v-12.7h1.5v2.3l0.9-1.6c0.6-0.6,1.4-1,2.2-1
							C566.4,217.6,566.7,217.7,566.9,217.7z"/>
						<path class="st2" d="M589.1,230.7h-1.9l-4-14.9l-4.2,14.9h-2l-4.3-16.6h1.7l3.7,15.3l4.2-15h2l4,15l3.9-15.3h1.6L589.1,230.7z
							"/>
						<path class="st2" d="M602.7,228.4l-0.6,1.3c-0.9,0.9-2.1,1.3-3.5,1.3c-2.4,0-4-1.2-4-3.5c0-2.9,2.8-4.3,7.4-4.3h0.8v-0.5
							c0-0.6,0-1.1,0-1.6c-0.1-1.5-1-2.3-2.8-2.3c-1.8,0-3,0.9-3.2,2.9H595c0.2-2.5,2.1-4.1,4.8-4.1c2.8,0,4.1,1.3,4.3,3.4
							c0,0.6,0,1.1,0,1.7v4.5c0,1.1,0.1,2,0.2,3.6h-1.5L602.7,228.4z M602.7,225.8v-1.5c-3.6-0.2-6.5,0.6-6.5,3.1
							c0,1.6,1,2.5,2.9,2.5C601.2,229.8,602.7,228.1,602.7,225.8z"/>
						<path class="st2" d="M613.1,217.7v1.2c-2.2-0.2-3.8,1.2-3.8,4.6v7.2h-1.5v-12.7h1.5v2.3l0.9-1.6c0.6-0.6,1.4-1,2.2-1
							C612.6,217.6,612.8,217.7,613.1,217.7z"/>
						<path class="st2" d="M623.2,221.5h-1.6c-0.4-1.8-1.4-2.7-3.1-2.7c-1.5,0-2.6,0.9-2.6,2.3c0,1.5,1.2,2,3,2.5
							c2.9,0.7,4.3,1.8,4.3,3.9c0,2.3-1.9,3.5-4.5,3.5c-2.5,0-4.5-1.2-4.9-4.1h1.5c0.4,2.2,1.7,2.9,3.4,2.9c1.6,0,2.9-0.7,2.9-2.2
							c0-1.4-0.9-2.1-3.4-2.7c-2.2-0.6-4-1.5-4-3.7c0-2.2,1.7-3.6,4.2-3.6C621.4,217.6,622.9,219.3,623.2,221.5z"/>
					</g>
				</g>
			</g>
		</g>
		<g>
			<g>
				<g>
					<g>
						<path class="st2" d="M773.2,137.8l0,0.2h-1.5l0-0.2c-0.5-2.5-2.2-4.3-5.1-4.3c-3.4,0-6,2.9-6,7.4c0,4.6,2.5,7.4,5.8,7.4
							c3.1,0,4.7-1.9,5.2-4.4l0-0.2h1.5l0,0.2c-0.4,3.1-2.6,5.6-6.8,5.6c-4.5,0-7.4-3.5-7.4-8.6c0-5.1,3.2-8.7,7.7-8.7
							C770.6,132.3,772.8,134.7,773.2,137.8z"/>
						<path class="st2" d="M786.4,142.1v7.1h-1.5v-7c0-0.7,0-1.3,0-1.9c-0.2-1.7-1.1-3-3.3-3c-2.1,0-4,1.5-4,5.5v6.3h-1.5v-17.8h1.5
							v7.5l0.7-1.4c1-1,2.2-1.4,3.6-1.4c2.7,0,4.2,1.5,4.5,3.8C786.4,140.6,786.4,141.1,786.4,142.1z"/>
						<path class="st2" d="M795.1,136.3v1.2c-2.2-0.2-3.8,1.2-3.8,4.6v7.2h-1.5v-12.7h1.5v2.3l0.9-1.6c0.6-0.6,1.4-1,2.2-1
							C794.7,136.2,794.9,136.3,795.1,136.3z"/>
						<path class="st2" d="M798.8,133.8c0,0.6-0.4,1-1,1c-0.6,0-1-0.5-1-1c0-0.6,0.5-1,1-1C798.4,132.8,798.8,133.2,798.8,133.8z
							 M797.1,149.3v-12.7h1.5v12.7H797.1z"/>
						<path class="st2" d="M810.3,140.1h-1.6c-0.4-1.8-1.4-2.7-3.1-2.7c-1.5,0-2.6,0.9-2.6,2.3c0,1.5,1.2,2,3,2.5
							c2.9,0.7,4.3,1.8,4.3,3.9c0,2.3-1.9,3.5-4.5,3.5c-2.5,0-4.5-1.2-4.9-4.1h1.5c0.4,2.2,1.7,2.9,3.4,2.9c1.6,0,2.9-0.7,2.9-2.2
							c0-1.4-0.9-2.1-3.4-2.7c-2.2-0.6-4-1.5-4-3.7c0-2.2,1.7-3.6,4.2-3.6C808.5,136.2,810,137.8,810.3,140.1z"/>
						<path class="st2" d="M814.9,145.8c0,0.5,0,0.8,0,1.1c0.1,1.2,0.6,1.5,2.3,1.3v1.1c-0.5,0.1-1,0.1-1.5,0.1
							c-1.4,0-2.2-0.6-2.3-2c0-0.4,0-0.9,0-1.6v-8h-1.6v-1.2h1.6v-2.8h1.5v2.8h2.4v1.2h-2.4V145.8z"/>
						<path class="st2" d="M830.9,142.9c0,3.7-2.1,6.7-6.2,6.7s-6.2-3-6.2-6.7c0-3.8,2.1-6.7,6.2-6.7S830.9,139.1,830.9,142.9z
							 M829.3,142.9c0-3.5-1.9-5.5-4.5-5.5c-2.6,0-4.5,2-4.5,5.5c0,3.5,1.9,5.5,4.5,5.5C827.4,148.4,829.3,146.4,829.3,142.9z"/>
						<path class="st2" d="M845,142.7c0,4.6-2.8,6.9-6.1,6.9c-1.3,0-2.5-0.4-3.3-1.1l-0.8-1.4v6.9h-1.5v-17.5h1.5v2.4l0.8-1.4
							c0.9-0.9,2.1-1.3,3.6-1.3C842.9,136.2,845,138.9,845,142.7z M843.4,142.9c0-3.1-1.5-5.5-4.3-5.5c-2.3,0-4.2,1.3-4.2,5.2v1
							c0,3.6,2.2,4.9,4.1,4.9C841.5,148.4,843.4,146.4,843.4,142.9z"/>
						<path class="st2" d="M857.7,142.1v7.1h-1.5v-7c0-0.7,0-1.3,0-1.9c-0.2-1.7-1.1-3-3.3-3c-2.1,0-4,1.5-4,5.5v6.3h-1.5v-17.8h1.5
							v7.5l0.7-1.4c1-1,2.2-1.4,3.6-1.4c2.7,0,4.2,1.5,4.5,3.8C857.7,140.6,857.7,141.1,857.7,142.1z"/>
						<path class="st2" d="M871.4,143.3h-9.6c0.2,3.8,2.1,5.1,4.1,5.1c1.8,0,3.4-1.1,3.8-3.2h1.6c-0.6,3-2.9,4.4-5.5,4.4
							c-3.2,0-5.7-2.2-5.7-6.7c0-4.1,2.5-6.7,5.9-6.7c3.6,0,5.4,2.8,5.4,6.4C871.4,142.7,871.4,142.9,871.4,143.3z M861.7,142.2h8.2
							c-0.2-3.3-1.8-4.8-3.9-4.8C863.9,137.4,862,139,861.7,142.2z"/>
						<path class="st2" d="M879.5,136.3v1.2c-2.2-0.2-3.8,1.2-3.8,4.6v7.2h-1.5v-12.7h1.5v2.3l0.9-1.6c0.6-0.6,1.4-1,2.2-1
							C879,136.2,879.2,136.3,879.5,136.3z"/>
						<path class="st2" d="M897,149.3l-8.6-15.2c0,2,0.1,4.5,0.1,6.6v8.6h-1.5v-16.6h2.3l8.7,15.2c0-2.1-0.1-4.5-0.1-6.6v-8.6h1.5
							l0,16.6H897z"/>
						<path class="st2" d="M914.2,142.9c0,3.7-2.1,6.7-6.2,6.7s-6.2-3-6.2-6.7c0-3.8,2.1-6.7,6.2-6.7S914.2,139.1,914.2,142.9z
							 M912.5,142.9c0-3.5-1.9-5.5-4.5-5.5c-2.6,0-4.5,2-4.5,5.5c0,3.5,1.9,5.5,4.5,5.5C910.6,148.4,912.5,146.4,912.5,142.9z"/>
						<path class="st2" d="M918,145.9c0,0.6,0,1,0,1.4c0,0.8,0.4,1,1.5,0.9v1.1c-0.4,0.1-0.8,0.1-1.2,0.1c-1,0-1.7-0.3-1.8-1.7
							c0-0.4,0-0.9,0-1.7v-14.4h1.5V145.9z"/>
						<path class="st2" d="M929.8,146.9l-0.6,1.3c-0.9,0.9-2.1,1.3-3.5,1.3c-2.4,0-4-1.2-4-3.5c0-2.9,2.8-4.3,7.4-4.3h0.8v-0.5
							c0-0.6,0-1.1,0-1.6c-0.1-1.5-1-2.3-2.8-2.3c-1.8,0-3,0.9-3.2,2.9h-1.6c0.2-2.5,2.1-4.1,4.8-4.1c2.8,0,4.1,1.3,4.3,3.4
							c0,0.6,0,1.1,0,1.7v4.5c0,1.1,0.1,2,0.2,3.6H930L929.8,146.9z M929.7,144.3v-1.5c-3.6-0.2-6.5,0.6-6.5,3.1
							c0,1.6,1,2.5,2.9,2.5C928.3,148.4,929.7,146.7,929.7,144.3z"/>
						<path class="st2" d="M945,142.1v7.1h-1.5v-7c0-0.7,0-1.3,0-1.9c-0.2-1.7-1.1-3-3.3-3c-2.1,0-4,1.5-4,5.5v6.3h-1.5v-12.7h1.5
							v2.5l0.7-1.4c1-1,2.2-1.4,3.6-1.4c2.7,0,4.2,1.5,4.5,3.8C945,140.6,945,141.1,945,142.1z"/>
					</g>
				</g>
			</g>
		</g>
		<g>
			<g>
				<g>
					<g>
						<path class="st2" d="M798.4,235h-10.7v-16.6h10.5v1.2h-9v6.5h8.4v1.3h-8.4v6.5h9.3V235z"/>
						<path class="st2" d="M817.6,227.5v7.5h-1.5v-6.8c0-1,0-1.7-0.1-2.3c-0.2-1.7-1.2-2.7-2.8-2.7c-1.8,0-3.2,1.4-3.2,5.2v6.7h-1.5
							v-6.8c0-1,0-1.7-0.1-2.3c-0.2-1.7-1.2-2.7-2.8-2.7c-1.8,0-3.2,1.4-3.2,5.2v6.7h-1.5v-12.7h1.5v2.2l0.7-1.4
							c0.7-0.8,1.7-1.1,2.9-1.1c2,0,3.3,1.1,3.7,2.7l1-1.6c0.7-0.8,1.7-1.1,2.9-1.1c2.3,0,3.6,1.4,3.8,3.4
							C817.6,226,817.6,226.5,817.6,227.5z"/>
						<path class="st2" d="M832.6,228.5c0,4.6-2.8,6.9-6.1,6.9c-1.3,0-2.5-0.4-3.3-1.1l-0.8-1.4v6.9H821v-17.5h1.5v2.4l0.8-1.4
							c0.9-0.9,2.1-1.3,3.6-1.3C830.5,221.9,832.6,224.7,832.6,228.5z M831,228.7c0-3.1-1.5-5.5-4.3-5.5c-2.3,0-4.2,1.3-4.2,5.2v1
							c0,3.6,2.2,4.9,4.1,4.9C829.1,234.2,831,232.1,831,228.7z"/>
						<path class="st2" d="M836.9,219.5c0,0.6-0.4,1-1,1c-0.6,0-1-0.5-1-1c0-0.6,0.5-1,1-1C836.4,218.5,836.9,219,836.9,219.5z
							 M835.1,235v-12.7h1.5V235H835.1z"/>
						<path class="st2" d="M845.5,222.1v1.2c-2.2-0.2-3.8,1.2-3.8,4.6v7.2h-1.5v-12.7h1.5v2.3l0.9-1.6c0.6-0.6,1.4-1,2.2-1
							C845,222,845.3,222,845.5,222.1z"/>
						<path class="st2" d="M857.4,229.1h-9.6c0.2,3.8,2.1,5.1,4.1,5.1c1.8,0,3.4-1.1,3.8-3.2h1.6c-0.6,3-2.9,4.4-5.5,4.4
							c-3.2,0-5.7-2.2-5.7-6.7c0-4.1,2.5-6.7,5.9-6.7c3.6,0,5.4,2.8,5.4,6.4C857.5,228.5,857.5,228.7,857.4,229.1z M847.8,227.9h8.2
							c-0.2-3.3-1.8-4.8-3.9-4.8C849.9,223.1,848,224.7,847.8,227.9z"/>
						<path class="st2" d="M876,222.9h-1.6c-0.3-2.3-1.7-3.6-3.9-3.6c-1.9,0-3.7,1-3.7,3c0,2,1.2,2.8,4,3.5c3.6,0.9,5.3,2.3,5.3,5
							c0,2.7-2.4,4.6-5.6,4.6c-3.4,0-5.8-1.7-6.2-4.9h1.6c0.4,2.4,2.2,3.7,4.6,3.7c2.2,0,3.9-1.3,3.9-3.2c0-2.1-1.3-3.1-4.4-3.8
							c-3.2-0.8-5-1.9-5-4.6c0-2.7,2.5-4.5,5.4-4.5C873.9,218.1,875.7,220.2,876,222.9z"/>
						<path class="st2" d="M880.8,231.5c0,0.5,0,0.8,0,1.1c0.1,1.2,0.6,1.5,2.3,1.3v1.1c-0.5,0.1-1,0.1-1.5,0.1
							c-1.4,0-2.2-0.6-2.3-2c0-0.4,0-0.9,0-1.6v-8h-1.6v-1.2h1.6v-2.8h1.5v2.8h2.4v1.2h-2.4V231.5z"/>
						<path class="st2" d="M893.2,232.7l-0.6,1.3c-0.9,0.9-2.1,1.3-3.5,1.3c-2.4,0-4-1.2-4-3.5c0-2.9,2.8-4.3,7.4-4.3h0.8V227
							c0-0.6,0-1.1,0-1.6c-0.1-1.5-1-2.3-2.8-2.3c-1.8,0-3,0.9-3.2,2.9h-1.6c0.2-2.5,2.1-4.1,4.8-4.1c2.8,0,4.1,1.3,4.3,3.4
							c0,0.6,0,1.1,0,1.7v4.5c0,1.1,0.1,2,0.2,3.6h-1.5L893.2,232.7z M893.1,230.1v-1.5c-3.6-0.2-6.5,0.6-6.5,3.1
							c0,1.6,1,2.5,2.9,2.5C891.7,234.2,893.1,232.5,893.1,230.1z"/>
						<path class="st2" d="M900.1,231.5c0,0.5,0,0.8,0,1.1c0.1,1.2,0.6,1.5,2.3,1.3v1.1c-0.5,0.1-1,0.1-1.5,0.1
							c-1.4,0-2.2-0.6-2.3-2c0-0.4,0-0.9,0-1.6v-8H897v-1.2h1.6v-2.8h1.5v2.8h2.4v1.2h-2.4V231.5z"/>
						<path class="st2" d="M915,229.1h-9.6c0.2,3.8,2.1,5.1,4.1,5.1c1.8,0,3.4-1.1,3.8-3.2h1.6c-0.6,3-2.9,4.4-5.5,4.4
							c-3.2,0-5.7-2.2-5.7-6.7c0-4.1,2.5-6.7,5.9-6.7c3.6,0,5.4,2.8,5.4,6.4C915.1,228.5,915.1,228.7,915,229.1z M905.4,227.9h8.2
							c-0.2-3.3-1.8-4.8-3.9-4.8C907.5,223.1,905.6,224.7,905.4,227.9z"/>
						<path class="st2" d="M934.7,230.3c0,2.9-2.1,4.4-4.4,4.6c-0.7,0.1-1.3,0.1-1.9,0.1h-5v-16.6h4.6c0.7,0,1.2,0,2,0.1
							c2.6,0.3,4.1,1.7,4.1,4c0,2-1.2,3.2-3,3.7C933.5,226.7,934.7,228,934.7,230.3z M924.8,225.7h3.5c0.4,0,0.8,0,1.3-0.1
							c1.7-0.2,2.9-1.1,2.9-3c0-2-1.4-2.8-3.1-3c-0.5,0-0.9,0-1.4,0h-3.2V225.7z M933.1,230.4c0-2-1.1-3.2-3.3-3.4
							c-0.6,0-0.9-0.1-1.3-0.1h-3.8v6.8h3.9c0.4,0,0.8,0,1.1,0C931.6,233.6,933.1,232.6,933.1,230.4z"/>
						<path class="st2" d="M947.5,235H946v-2.5l-0.7,1.4c-1,1-2.2,1.4-3.6,1.4c-2.6,0-4.1-1.5-4.4-3.5c-0.1-0.6-0.1-1.1-0.1-2.1
							v-7.4h1.5v7.1c0,0.6,0,1.3,0.1,1.9c0.2,1.7,1.3,2.9,3.3,2.9c2.1,0,3.9-1.5,3.9-5.5v-6.3h1.5V235z"/>
						<path class="st2" d="M952.8,219.5c0,0.6-0.4,1-1,1c-0.6,0-1-0.5-1-1c0-0.6,0.5-1,1-1C952.3,218.5,952.8,219,952.8,219.5z
							 M951,235v-12.7h1.5V235H951z"/>
						<path class="st2" d="M957.5,231.6c0,0.6,0,1,0,1.4c0,0.8,0.4,1,1.5,0.9v1.1c-0.4,0.1-0.8,0.1-1.2,0.1c-1,0-1.7-0.3-1.8-1.7
							c0-0.4,0-0.9,0-1.7v-14.4h1.5V231.6z"/>
						<path class="st2" d="M971.9,235h-1.5v-2.4l-0.8,1.4c-0.9,0.9-2.1,1.3-3.6,1.3c-3.6,0-5.7-2.8-5.7-6.5c0-4.6,2.8-6.9,6.1-6.9
							c1.3,0,2.5,0.4,3.3,1.2l0.8,1.4v-7.2h1.5V235z M970.4,228.9v-1c0-3.6-2.2-4.8-4.1-4.8c-2.5,0-4.4,2-4.4,5.5
							c0,3.1,1.5,5.6,4.3,5.6C968.5,234.2,970.4,232.8,970.4,228.9z"/>
						<path class="st2" d="M977.2,219.5c0,0.6-0.4,1-1,1c-0.6,0-1-0.5-1-1c0-0.6,0.5-1,1-1C976.8,218.5,977.2,219,977.2,219.5z
							 M975.5,235v-12.7h1.5V235H975.5z"/>
						<path class="st2" d="M990.8,227.9v7.1h-1.5v-7c0-0.7,0-1.3,0-1.9c-0.2-1.7-1.1-3-3.3-3c-2.1,0-4,1.5-4,5.5v6.3h-1.5v-12.7h1.5
							v2.5l0.7-1.4c1-1,2.2-1.4,3.6-1.4c2.7,0,4.2,1.5,4.5,3.8C990.8,226.4,990.8,226.8,990.8,227.9z"/>
						<path class="st2" d="M1004.8,231.8c0,1.3,0,2.2,0,3c-0.1,3.4-2.2,5.4-5.7,5.4c-3.2,0-5.1-1.3-5.4-4.1l0-0.3h1.5l0,0.3
							c0.2,1.9,1.7,2.9,3.9,2.9c2.7,0,4.1-1.6,4.2-4.1c0-0.7,0-1.2,0-1.9v-0.3l-0.8,1.4c-0.9,0.9-2.1,1.3-3.6,1.3
							c-3.6,0-5.7-2.8-5.7-6.5c0-4.6,2.8-6.9,6.1-6.9c1.2,0,2.5,0.4,3.3,1.2l0.8,1.4v-2.2h1.5V231.8z M1003.3,228.9v-1
							c0-3.6-2.2-4.8-4.1-4.8c-2.5,0-4.4,2-4.4,5.5c0,3.1,1.5,5.6,4.3,5.6C1001.3,234.2,1003.3,232.8,1003.3,228.9z"/>
					</g>
				</g>
			</g>
		</g>
		<g>
			<g>
				<g>
					<g>
						<path class="st2" d="M832.2,44.7h8.2v1.3h-8.2v7.7h-1.5V37h10.5v1.2h-9V44.7z"/>
						<path class="st2" d="M848.7,40.7v1.2c-2.2-0.2-3.8,1.2-3.8,4.6v7.2h-1.5V40.9h1.5v2.3l0.9-1.6c0.6-0.6,1.4-1,2.2-1
							C848.3,40.6,848.5,40.6,848.7,40.7z"/>
						<path class="st2" d="M858.1,51.3l-0.6,1.3c-0.9,0.9-2.1,1.3-3.5,1.3c-2.4,0-4-1.2-4-3.5c0-2.9,2.8-4.3,7.4-4.3h0.8v-0.5
							c0-0.6,0-1.1,0-1.6c-0.1-1.5-1-2.3-2.8-2.3c-1.8,0-3,0.9-3.2,2.9h-1.6c0.2-2.5,2.1-4.1,4.8-4.1c2.8,0,4.1,1.3,4.3,3.4
							c0,0.6,0,1.1,0,1.7v4.5c0,1.1,0.1,2,0.2,3.6h-1.5L858.1,51.3z M858.1,48.7v-1.5c-3.6-0.2-6.5,0.6-6.5,3.1c0,1.6,1,2.5,2.9,2.5
							C856.6,52.8,858.1,51.1,858.1,48.7z"/>
						<path class="st2" d="M873.4,46.5v7.1h-1.5v-7c0-0.7,0-1.3,0-1.9c-0.2-1.7-1.1-3-3.3-3c-2.1,0-4,1.5-4,5.5v6.3h-1.5V40.9h1.5
							v2.5l0.7-1.4c1-1,2.2-1.4,3.6-1.4c2.7,0,4.2,1.5,4.5,3.8C873.4,45,873.4,45.5,873.4,46.5z"/>
						<path class="st2" d="M885.3,49.7h1.5c-0.6,2.7-2.5,4.2-5.2,4.3l-0.4,0.7c1.3,0.1,2,0.8,2,2c0,1.4-1.2,2-2.8,2
							c-0.5,0-0.9-0.1-1.2-0.2v-0.9c0.4,0.2,0.7,0.3,1.3,0.3c1,0,1.6-0.4,1.6-1.2c0-0.9-0.7-1.3-2.3-1.2l0.8-1.5
							c-2.8-0.3-4.9-2.5-4.9-6.6c0-4.2,2.7-6.7,5.9-6.7c2.9,0,4.9,1.8,5.3,4.5h-1.6c-0.4-2.1-1.7-3.3-3.8-3.3
							c-2.1,0-4.2,1.7-4.2,5.4c0,3.9,2,5.6,4.1,5.6C883.4,52.8,884.8,51.7,885.3,49.7z"/>
						<path class="st2" d="M900.7,47.3c0,3.7-2.1,6.7-6.2,6.7s-6.2-3-6.2-6.7c0-3.8,2.1-6.7,6.2-6.7S900.7,43.5,900.7,47.3z
							 M899.1,47.3c0-3.5-1.9-5.5-4.5-5.5c-2.6,0-4.5,2-4.5,5.5c0,3.5,1.9,5.5,4.5,5.5C897.2,52.8,899.1,50.7,899.1,47.3z"/>
						<path class="st2" d="M905,38.1c0,0.6-0.4,1-1,1c-0.6,0-1-0.5-1-1c0-0.6,0.5-1,1-1C904.5,37.1,905,37.6,905,38.1z M903.2,53.6
							V40.9h1.5v12.7H903.2z"/>
						<path class="st2" d="M916.4,44.5h-1.6c-0.4-1.8-1.4-2.7-3.1-2.7c-1.5,0-2.6,0.9-2.6,2.3c0,1.5,1.2,2,3,2.5
							c2.9,0.7,4.3,1.8,4.3,3.9c0,2.3-1.9,3.5-4.5,3.5c-2.5,0-4.5-1.2-4.9-4.1h1.5c0.4,2.2,1.7,2.9,3.4,2.9c1.6,0,2.9-0.7,2.9-2.2
							c0-1.4-0.9-2.1-3.4-2.7c-2.2-0.6-4-1.5-4-3.7c0-2.2,1.7-3.6,4.2-3.6C914.6,40.5,916.1,42.2,916.4,44.5z"/>
						<path class="st2" d="M929.3,47.7h-9.6c0.2,3.8,2.1,5.1,4.1,5.1c1.8,0,3.4-1.1,3.8-3.2h1.6c-0.6,3-2.9,4.4-5.5,4.4
							c-3.2,0-5.7-2.2-5.7-6.7c0-4.1,2.5-6.7,5.9-6.7c3.6,0,5.4,2.8,5.4,6.4C929.4,47.1,929.4,47.3,929.3,47.7z M919.7,46.5h8.2
							c-0.2-3.3-1.8-4.8-3.9-4.8C921.8,41.8,919.9,43.3,919.7,46.5z"/>
						<path class="st2" d="M947.6,53.6L939,38.5c0,2,0.1,4.5,0.1,6.6v8.6h-1.5V37h2.3l8.7,15.2c0-2.1-0.1-4.5-0.1-6.6V37h1.5l0,16.6
							H947.6z"/>
						<path class="st2" d="M955.2,38.1c0,0.6-0.4,1-1,1c-0.6,0-1-0.5-1-1c0-0.6,0.5-1,1-1C954.8,37.1,955.2,37.6,955.2,38.1z
							 M953.5,53.6V40.9h1.5v12.7H953.5z"/>
						<path class="st2" d="M968.8,47.7h-9.6c0.2,3.8,2.1,5.1,4.1,5.1c1.8,0,3.4-1.1,3.8-3.2h1.6c-0.6,3-2.9,4.4-5.5,4.4
							c-3.2,0-5.7-2.2-5.7-6.7c0-4.1,2.5-6.7,5.9-6.7c3.6,0,5.4,2.8,5.4,6.4C968.8,47.1,968.8,47.3,968.8,47.7z M959.1,46.5h8.2
							c-0.2-3.3-1.8-4.8-3.9-4.8C961.3,41.8,959.3,43.3,959.1,46.5z"/>
						<path class="st2" d="M972.9,50.3c0,0.6,0,1,0,1.4c0,0.8,0.4,1,1.5,0.9v1.1c-0.4,0.1-0.8,0.1-1.2,0.1c-1,0-1.7-0.3-1.8-1.7
							c0-0.4,0-0.9,0-1.7V35.9h1.5V50.3z"/>
						<path class="st2" d="M978.2,50.3c0,0.6,0,1,0,1.4c0,0.8,0.4,1,1.5,0.9v1.1c-0.4,0.1-0.8,0.1-1.2,0.1c-1,0-1.7-0.3-1.8-1.7
							c0-0.4,0-0.9,0-1.7V35.9h1.5V50.3z"/>
						<path class="st2" d="M986.8,54.3c-1.3,3.4-2.5,4.4-4.3,4.4c-0.4,0-0.7,0-1-0.1v-1.2c0.3,0,0.6,0,0.8,0c1.2,0,2-0.6,2.8-2.6
							l0.3-0.7l-5-13.2h1.7l4.1,11.6l4.1-11.6h1.6L986.8,54.3z"/>
					</g>
				</g>
			</g>
		</g>
		<g>
			<g>
				<g>
					<g>
						<path class="st2" d="M716.6,342.9l-8.6-15.2c0,2,0.1,4.5,0.1,6.6v8.6h-1.5v-16.6h2.3l8.7,15.2c0-2.1-0.1-4.5-0.1-6.6v-8.6h1.5
							l0,16.6H716.6z"/>
						<path class="st2" d="M724.2,327.5c0,0.6-0.4,1-1,1c-0.6,0-1-0.5-1-1c0-0.6,0.5-1,1-1C723.8,326.4,724.2,326.9,724.2,327.5z
							 M722.4,342.9v-12.7h1.5v12.7H722.4z"/>
						<path class="st2" d="M737.6,334.4h-1.6c-0.4-2.1-1.7-3.3-3.8-3.3c-2.1,0-4.2,1.7-4.2,5.4c0,3.9,2,5.6,4.1,5.6
							c1.9,0,3.3-1.1,3.8-3.1h1.5c-0.6,2.8-2.7,4.3-5.4,4.3c-3.2,0-5.7-2.2-5.7-6.7c0-4.2,2.7-6.7,5.9-6.7
							C735.3,329.9,737.2,331.7,737.6,334.4z"/>
						<path class="st2" d="M742.7,337.2l-1.2,1.2v4.5h-1.5v-17.7h1.5v11.6l6.5-6.6h1.9l-6.2,6.1l6.3,6.6H748L742.7,337.2z"/>
						<path class="st2" d="M770.7,335.2v7.8h-1.3v-3.4l-0.6,1.5c-1.1,1.5-2.9,2.3-4.9,2.3c-4.6,0-7.4-3.5-7.4-8.6
							c0-5.1,3.2-8.7,7.8-8.7c4,0,6.1,2.4,6.6,5.5l0,0.2h-1.5l0-0.2c-0.5-2.5-2.2-4.3-5.1-4.3c-3.5,0-6.1,2.9-6.1,7.4
							c0,4.6,2.5,7.4,5.8,7.4c2.6,0,5.3-1.9,5.3-5.7h-4.5v-1.2H770.7z"/>
						<path class="st2" d="M784.1,337h-9.6c0.2,3.8,2.1,5.1,4.1,5.1c1.8,0,3.4-1.1,3.8-3.2h1.6c-0.6,3-2.9,4.4-5.5,4.4
							c-3.2,0-5.7-2.2-5.7-6.7c0-4.1,2.5-6.7,5.9-6.7c3.6,0,5.4,2.8,5.4,6.4C784.2,336.4,784.2,336.6,784.1,337z M774.5,335.8h8.2
							c-0.2-3.3-1.8-4.8-3.9-4.8C776.6,331.1,774.7,332.7,774.5,335.8z"/>
						<path class="st2" d="M797.1,335.8v7.1h-1.5v-7c0-0.7,0-1.3,0-1.9c-0.2-1.7-1.1-3-3.3-3c-2.1,0-4,1.5-4,5.5v6.3h-1.5v-12.7h1.5
							v2.5l0.7-1.4c1-1,2.2-1.4,3.6-1.4c2.7,0,4.2,1.5,4.5,3.8C797.1,334.3,797.1,334.8,797.1,335.8z"/>
						<path class="st2" d="M802.5,339.4c0,0.5,0,0.8,0,1.1c0.1,1.2,0.6,1.5,2.3,1.3v1.1c-0.5,0.1-1,0.1-1.5,0.1
							c-1.4,0-2.2-0.6-2.3-2c0-0.4,0-0.9,0-1.6v-8h-1.6v-1.2h1.6v-2.8h1.5v2.8h2.4v1.2h-2.4V339.4z"/>
						<path class="st2" d="M812.7,330v1.2c-2.2-0.2-3.8,1.2-3.8,4.6v7.2h-1.5v-12.7h1.5v2.3l0.9-1.6c0.6-0.6,1.4-1,2.2-1
							C812.2,329.9,812.5,329.9,812.7,330z"/>
						<path class="st2" d="M819.5,343.6c-1.3,3.4-2.5,4.4-4.3,4.4c-0.4,0-0.7,0-1-0.1v-1.2c0.3,0,0.6,0,0.8,0c1.2,0,2-0.6,2.8-2.6
							l0.3-0.7l-5-13.2h1.7l4.1,11.6l4.1-11.6h1.6L819.5,343.6z"/>
					</g>
				</g>
			</g>
		</g>
		<g>
			<g>
				<g>
					<g>
						<path class="st2" d="M481,101.2h-12.2v-1.2l10.3-14.2h-9.6v-1.3h11.4v1.2L470.6,100H481V101.2z"/>
						<path class="st2" d="M490.7,98.9l-0.6,1.3c-0.9,0.9-2.1,1.3-3.5,1.3c-2.4,0-4-1.2-4-3.5c0-2.9,2.8-4.3,7.4-4.3h0.8v-0.5
							c0-0.6,0-1.1,0-1.6c-0.1-1.5-1-2.3-2.8-2.3c-1.8,0-3,0.9-3.2,2.9H483c0.2-2.5,2.1-4.1,4.8-4.1c2.8,0,4.1,1.3,4.3,3.4
							c0,0.6,0,1.1,0,1.7v4.5c0,1.1,0.1,2,0.2,3.6h-1.5L490.7,98.9z M490.7,96.3v-1.5c-3.6-0.2-6.5,0.6-6.5,3.1c0,1.6,1,2.5,2.9,2.5
							C489.2,100.4,490.7,98.7,490.7,96.3z"/>
						<path class="st2" d="M506,94.1v7.1h-1.5v-7c0-0.7,0-1.3,0-1.9c-0.2-1.7-1.1-3-3.3-3c-2.1,0-4,1.5-4,5.5v6.3h-1.5V83.4h1.5v7.5
							l0.7-1.4c1-1,2.2-1.4,3.6-1.4c2.7,0,4.2,1.5,4.5,3.8C506,92.6,506,93.1,506,94.1z"/>
						<path class="st2" d="M516.8,98.9l-0.6,1.3c-0.9,0.9-2.1,1.3-3.5,1.3c-2.4,0-4-1.2-4-3.5c0-2.9,2.8-4.3,7.4-4.3h0.8v-0.5
							c0-0.6,0-1.1,0-1.6c-0.1-1.5-1-2.3-2.8-2.3c-1.8,0-3,0.9-3.2,2.9h-1.6c0.2-2.5,2.1-4.1,4.8-4.1c2.8,0,4.1,1.3,4.3,3.4
							c0,0.6,0,1.1,0,1.7v4.5c0,1.1,0.1,2,0.2,3.6H517L516.8,98.9z M516.8,96.3v-1.5c-3.6-0.2-6.5,0.6-6.5,3.1c0,1.6,1,2.5,2.9,2.5
							C515.3,100.4,516.8,98.7,516.8,96.3z"/>
						<path class="st2" d="M540,101.2h-1.5v-7.5h-9.7v7.5h-1.5V84.6h1.5v7.8h9.7v-7.8h1.5V101.2z"/>
						<path class="st2" d="M551,98.9l-0.6,1.3c-0.9,0.9-2.1,1.3-3.5,1.3c-2.4,0-4-1.2-4-3.5c0-2.9,2.8-4.3,7.4-4.3h0.8v-0.5
							c0-0.6,0-1.1,0-1.6c-0.1-1.5-1-2.3-2.8-2.3c-1.8,0-3,0.9-3.2,2.9h-1.6c0.2-2.5,2.1-4.1,4.8-4.1c2.8,0,4.1,1.3,4.3,3.4
							c0,0.6,0,1.1,0,1.7v4.5c0,1.1,0.1,2,0.2,3.6h-1.5L551,98.9z M551,96.3v-1.5c-3.6-0.2-6.5,0.6-6.5,3.1c0,1.6,1,2.5,2.9,2.5
							C549.5,100.4,551,98.7,551,96.3z"/>
						<path class="st2" d="M566.6,101.2h-1.5v-2.4l-0.8,1.4c-0.9,0.9-2.1,1.3-3.6,1.3c-3.6,0-5.7-2.8-5.7-6.5c0-4.6,2.8-6.9,6.1-6.9
							c1.2,0,2.5,0.4,3.3,1.2l0.8,1.4v-7.2h1.5V101.2z M565.1,95.2v-1c0-3.6-2.2-4.8-4.1-4.8c-2.5,0-4.4,2-4.4,5.5
							c0,3.1,1.5,5.6,4.3,5.6C563.1,100.4,565.1,99,565.1,95.2z"/>
						<path class="st2" d="M571.9,85.7c0,0.6-0.4,1-1,1c-0.6,0-1-0.5-1-1c0-0.6,0.5-1,1-1C571.5,84.7,571.9,85.2,571.9,85.7z
							 M570.2,101.2V88.5h1.5v12.7H570.2z"/>
						<path class="st2" d="M585.8,101.2h-1.5v-2.4l-0.8,1.4c-0.9,0.9-2.1,1.3-3.6,1.3c-3.6,0-5.7-2.8-5.7-6.5c0-4.6,2.8-6.9,6.1-6.9
							c1.3,0,2.5,0.4,3.3,1.2l0.8,1.4v-7.2h1.5V101.2z M584.3,95.2v-1c0-3.6-2.2-4.8-4.1-4.8c-2.5,0-4.4,2-4.4,5.5
							c0,3.1,1.5,5.6,4.3,5.6C582.3,100.4,584.3,99,584.3,95.2z"/>
					</g>
				</g>
			</g>
		</g>
		<g>
			<g>
				<g>
					<g>
						<path class="st2" d="M581.9,37.1l-2.1,6.1h-1.6l6.1-16.6h2l6,16.6h-1.6l-2.2-6.1H581.9z M588,35.9l-2.8-8.1l-2.9,8.1H588z"/>
						<path class="st2" d="M599.6,30.3v1.2c-2.2-0.2-3.8,1.2-3.8,4.6v7.2h-1.5V30.5h1.5v2.3l0.9-1.6c0.6-0.6,1.4-1,2.2-1
							C599.1,30.2,599.4,30.2,599.6,30.3z"/>
						<path class="st2" d="M603.5,39.7c0,0.5,0,0.8,0,1.1c0.1,1.2,0.6,1.5,2.3,1.3v1.1c-0.5,0.1-1,0.1-1.5,0.1c-1.4,0-2.2-0.6-2.3-2
							c0-0.4,0-0.9,0-1.6v-8h-1.6v-1.2h1.6v-2.8h1.5v2.8h2.4v1.2h-2.4V39.7z"/>
						<path class="st2" d="M607.4,36.9v-1h5.1v1H607.4z"/>
						<path class="st2" d="M629.1,34.8c0,5.2-3.3,7.9-6.5,8.4c-0.8,0.1-1.3,0.1-2.1,0.1h-4.9V26.6h4.9c0.9,0,1.3,0,2,0.1
							C625.9,27.1,629.1,29.5,629.1,34.8z M627.4,34.8c0-4.3-2.3-6.5-5.1-6.8c-0.5-0.1-1.1-0.1-1.9-0.1h-3.4V42h3.3
							c0.8,0,1.4,0,2-0.1C625.2,41.5,627.4,39.1,627.4,34.8z"/>
						<path class="st2" d="M642,37.3h-9.6c0.2,3.8,2.1,5.1,4.1,5.1c1.8,0,3.4-1.1,3.8-3.2h1.6c-0.6,3-2.9,4.4-5.5,4.4
							c-3.2,0-5.7-2.2-5.7-6.7c0-4.1,2.5-6.7,5.9-6.7c3.6,0,5.4,2.8,5.4,6.4C642,36.7,642,36.9,642,37.3z M632.3,36.1h8.2
							c-0.2-3.3-1.8-4.8-3.9-4.8C634.5,31.4,632.5,32.9,632.3,36.1z"/>
						<path class="st2" d="M654.8,34.7h-1.6c-0.4-2.1-1.7-3.3-3.8-3.3c-2.1,0-4.2,1.7-4.2,5.4c0,3.9,2,5.6,4.1,5.6
							c1.9,0,3.3-1.1,3.8-3.1h1.5c-0.6,2.8-2.7,4.3-5.4,4.3c-3.2,0-5.7-2.2-5.7-6.7c0-4.2,2.7-6.7,5.9-6.7
							C652.5,30.1,654.5,32,654.8,34.7z"/>
						<path class="st2" d="M668.6,36.9c0,3.7-2.1,6.7-6.2,6.7s-6.2-3-6.2-6.7c0-3.8,2.1-6.7,6.2-6.7S668.6,33.1,668.6,36.9z
							 M667,36.9c0-3.5-1.9-5.5-4.5-5.5c-2.6,0-4.5,2-4.5,5.5c0,3.5,1.9,5.5,4.5,5.5C665.1,42.4,667,40.3,667,36.9z"/>
					</g>
				</g>
			</g>
		</g>
		<polyline class="st0" points="157.2,67.4 128.3,97 125.8,49.4 		"/>
		<polygon class="st0" points="670.4,156.8 639.2,189.8 629.7,165.6 		"/>
		<polyline class="st0" points="243.1,236.6 289.5,244 269,262.2 243.1,236.6 		"/>
		<polygon class="st0" points="717.2,92 717.2,124.9 683.7,106.6 		"/>
		<g>
			<g>
				<g>
					<g>
						<path class="st2" d="M288.2,269.6V285h-1.5v-15.4h-6.1v-1.2h13.7v1.2H288.2z"/>
						<path class="st2" d="M302.2,282.6l-0.6,1.3c-0.9,0.9-2.1,1.3-3.5,1.3c-2.4,0-4-1.2-4-3.5c0-2.9,2.8-4.3,7.4-4.3h0.8V277
							c0-0.6,0-1.1,0-1.6c-0.1-1.5-1-2.3-2.8-2.3c-1.8,0-3,0.9-3.2,2.9h-1.6c0.2-2.5,2.1-4.1,4.8-4.1c2.8,0,4.1,1.3,4.3,3.4
							c0,0.6,0,1.1,0,1.7v4.5c0,1.1,0.1,2,0.2,3.6h-1.5L302.2,282.6z M302.2,280v-1.5c-3.6-0.2-6.5,0.6-6.5,3.1c0,1.6,1,2.5,2.9,2.5
							C300.7,284.1,302.2,282.4,302.2,280z"/>
						<path class="st2" d="M312.6,272v1.2c-2.2-0.2-3.8,1.2-3.8,4.6v7.2h-1.5v-12.7h1.5v2.3l0.9-1.6c0.6-0.6,1.4-1,2.2-1
							C312.1,271.9,312.4,272,312.6,272z"/>
						<path class="st2" d="M321.9,282.6l-0.6,1.3c-0.9,0.9-2.1,1.3-3.5,1.3c-2.4,0-4-1.2-4-3.5c0-2.9,2.8-4.3,7.4-4.3h0.8V277
							c0-0.6,0-1.1,0-1.6c-0.1-1.5-1-2.3-2.8-2.3c-1.8,0-3,0.9-3.2,2.9h-1.6c0.2-2.5,2.1-4.1,4.8-4.1c2.8,0,4.1,1.3,4.3,3.4
							c0,0.6,0,1.1,0,1.7v4.5c0,1.1,0.1,2,0.2,3.6h-1.5L321.9,282.6z M321.9,280v-1.5c-3.6-0.2-6.5,0.6-6.5,3.1c0,1.6,1,2.5,2.9,2.5
							C320.4,284.1,321.9,282.4,321.9,280z"/>
						<path class="st2" d="M337.2,277.8v7.1h-1.5v-7c0-0.7,0-1.3,0-1.9c-0.2-1.7-1.1-3-3.3-3c-2.1,0-4,1.5-4,5.5v6.3H327v-12.7h1.5
							v2.5l0.7-1.4c1-1,2.2-1.4,3.6-1.4c2.7,0,4.2,1.5,4.5,3.8C337.2,276.3,337.2,276.8,337.2,277.8z"/>
						<path class="st2" d="M342.6,281.5c0,0.5,0,0.8,0,1.1c0.1,1.2,0.6,1.5,2.3,1.3v1.1c-0.5,0.1-1,0.1-1.5,0.1
							c-1.4,0-2.2-0.6-2.3-2c0-0.4,0-0.9,0-1.6v-8h-1.6v-1.2h1.6v-2.8h1.5v2.8h2.4v1.2h-2.4V281.5z"/>
						<path class="st2" d="M349.2,269.5c0,0.6-0.4,1-1,1c-0.6,0-1-0.5-1-1c0-0.6,0.5-1,1-1C348.8,268.5,349.2,268.9,349.2,269.5z
							 M347.5,285v-12.7h1.5V285H347.5z"/>
						<path class="st2" d="M362.8,277.8v7.1h-1.5v-7c0-0.7,0-1.3,0-1.9c-0.2-1.7-1.1-3-3.3-3c-2.1,0-4,1.5-4,5.5v6.3h-1.5v-12.7h1.5
							v2.5l0.7-1.4c1-1,2.2-1.4,3.6-1.4c2.7,0,4.2,1.5,4.5,3.8C362.8,276.3,362.8,276.8,362.8,277.8z"/>
						<path class="st2" d="M377.5,278.6c0,3.7-2.1,6.7-6.2,6.7s-6.2-3-6.2-6.7c0-3.8,2.1-6.7,6.2-6.7S377.5,274.8,377.5,278.6z
							 M375.9,278.6c0-3.5-1.9-5.5-4.5-5.5c-2.6,0-4.5,2-4.5,5.5c0,3.5,1.9,5.5,4.5,5.5C374,284.1,375.9,282.1,375.9,278.6z"/>
					</g>
				</g>
			</g>
		</g>
		<g>
			<ellipse class="st4" cx="71.7" cy="19.4" rx="4.6" ry="4.6"/>
			<ellipse class="st4" cx="198.6" cy="90.9" rx="4.6" ry="4.6"/>
			<ellipse class="st4" cx="224.4" cy="134.6" rx="4.6" ry="4.6"/>
			<ellipse class="st4" cx="520.5" cy="224.6" rx="4.6" ry="4.6"/>
			<ellipse class="st4" cx="749.4" cy="143.6" rx="4.6" ry="4.6"/>
			<ellipse class="st4" cx="777.2" cy="227.7" rx="4.6" ry="4.6"/>
			<ellipse class="st4" cx="819.2" cy="51.4" rx="4.6" ry="4.6"/>
			<ellipse class="st4" cx="696.8" cy="334" rx="4.6" ry="4.6"/>
			<ellipse class="st4" cx="458.9" cy="92.1" rx="4.6" ry="4.6"/>
			<ellipse class="st4" cx="569.8" cy="45.7" rx="4.6" ry="4.6"/>
			<ellipse class="st4" cx="270.9" cy="265" rx="4.6" ry="4.6"/>
		</g>
	</g>
</g>
</svg>
