<svg version="1" id="Layer_1" xmlns="http://www.w3.org/2000/svg" viewBox="0 0 149.4 119.2"><style>.st0{fill:#fff;stroke:#afa282;stroke-width:.9955;stroke-miterlimit:10}</style><path vector-effect="non-scaling-stroke" class="st0" d="M69.2 21.6h-22l-11 19 11 19h22l11-19z"/><path vector-effect="non-scaling-stroke" class="st0" d="M36.2 40.6h-22l-11 19 11 19h22l11-19zm66-38h-22l-11 19 11 19h22l11-19zm0 38h-22l-11 19 11 19h22l11-19zm0 38h-22l-11 19 11 19h22l11-19z"/><path vector-effect="non-scaling-stroke" class="st0" d="M69.2 59.6h-22l-11 19 11 19h22l11-19zm66-38h-22l-11 19 11 19h22l11-19zm0 38h-22l-11 19 11 19h22l11-19z"/></svg>