<svg version="1" xmlns="http://www.w3.org/2000/svg" viewBox="0 0 147.5 117.6"><style>.st0{fill:#fff;stroke:#afa282;stroke-width:.9955;stroke-miterlimit:10}</style><g id="Layer_3"><path class="st0" d="M68 20.7H46l-11 19 11 19h22l11-19z"/><path class="st0" d="M35 39.7H13l-11 19 11 19h22l11-19zm66-38H79l-11 19 11 19h22l11-19zm0 38H79l-11 19 11 19h22l11-19zm0 38H79l-11 19 11 19h22l11-19z"/><path class="st0" d="M68 58.7H46l-11 19 11 19h22l11-19zm66-38h-22l-11 19 11 19h22l11-19zm0 38h-22l-11 19 11 19h22l11-19z"/></g></svg>