<svg xmlns="http://www.w3.org/2000/svg" viewBox="0 0 597.72375 269.67749" height="269.677" width="597.724"><defs><clipPath id="a"><path d="M0 215.742h478.179V0H0v215.742z"/></clipPath></defs><path d="M17.064 236.489v31.174h-1.8v-31.174H2.992v-1.516h26.39v1.516H17.064zm44.35 31.174h-2.321L50.659 237.2l-8.955 30.463H39.29l-8.292-32.69h1.991l7.628 30.985 8.86-30.51h2.463l8.385 30.463 8.15-30.938h1.848l-8.908 32.69z"/><g clip-path="url(#a)" transform="matrix(1.25 0 0 -1.25 0 269.68)"><path d="M81.43 14.688c0 7.883-4.624 12.355-10.347 12.355-5.761 0-10.386-4.471-10.386-12.355 0-7.846 4.625-12.356 10.386-12.356 5.723 0 10.347 4.51 10.347 12.356m1.592 0c0-7.846-4.624-13.607-11.94-13.607-7.353 0-11.977 5.76-11.977 13.607 0 7.884 4.624 13.607 11.978 13.607 7.315 0 11.939-5.724 11.939-13.608m28.355 6.254h-1.515c-.569 3.866-3.185 6.103-6.785 6.103-3.184 0-6.596-1.744-6.596-5.269 0-3.525 2.161-4.7 7.088-6.064 5.496-1.479 8.187-3.412 8.187-7.582 0-4.054-3.676-7.049-8.604-7.049-4.889 0-8.869 2.464-9.438 7.505h1.517c.568-4.056 3.941-6.254 7.96-6.254 3.98 0 7.011 2.236 7.011 5.572 0 3.6-2.122 5.041-7.239 6.443-5.382 1.441-8.036 3.108-8.036 7.201 0 3.98 3.791 6.748 8.263 6.748 5.003 0 7.694-3.298 8.187-7.354m6.258 6.823h1.44V1.612h-1.44v26.152zm24.183-19.141c0 3.07-1.554 5.724-5.99 5.951-.87.075-1.401.075-2.008.075h-6.481V2.862h6.709c.606 0 1.25.037 1.744.075 3.032.228 6.026 1.896 6.026 5.686m-14.48 7.277h5.99c.606 0 1.25.038 2.085.077 2.728.227 5.42 1.591 5.42 5.268 0 3.752-2.767 5.078-5.61 5.231-.834.038-1.478.038-2.388.038h-5.496V15.9zm16.034-7.164c0-4.32-3.335-6.708-7.126-7.011-1.061-.114-1.781-.114-2.766-.114h-7.581v26.153h6.86c1.1 0 1.782 0 3.07-.076 4.018-.341 6.557-2.578 6.557-6.253 0-3.222-1.857-5.345-4.851-5.99 3.866-.719 5.837-3.107 5.837-6.709m5.537 19.028h1.44V1.612h-1.44v26.152zm24.827-26.153h-16.563v26.152h1.44v-24.9h15.123V1.61zm4.589 26.153h1.44V1.612h-1.44v26.152zM202.85 1.611L187.954 26.4c.076-3.41.076-7.429.076-10.84V1.611h-1.44v26.152h2.198l14.934-24.788c-.076 3.411-.076 7.467-.076 10.878v13.91h1.402l.038-26.152h-2.236zm29.491 11.902V1.612h-1.327V7.94l-.87-2.426c-2.01-3.146-5.232-4.435-8.49-4.435-6.862 0-11.562 5.23-11.562 13.532 0 8.11 5.193 13.683 12.281 13.683 5.95 0 9.21-3.677 10.044-8.452l.076-.38h-1.44l-.076.38c-.834 4.13-3.753 7.2-8.756 7.2-5.609 0-10.537-4.51-10.537-12.355 0-8.15 4.472-12.357 10.082-12.357 4.018 0 9.135 2.73 9.135 9.93h-8.149v1.252h9.59zm21.95 7.428h-1.516c-.568 3.866-3.183 6.103-6.784 6.103-3.184 0-6.596-1.744-6.596-5.269 0-3.525 2.161-4.7 7.088-6.064 5.496-1.479 8.188-3.412 8.188-7.582 0-4.054-3.677-7.049-8.605-7.049-4.889 0-8.869 2.464-9.437 7.505h1.516c.57-4.056 3.942-6.254 7.96-6.254 3.98 0 7.011 2.236 7.011 5.572 0 3.6-2.122 5.041-7.239 6.443-5.382 1.441-8.035 3.108-8.035 7.201 0 3.98 3.79 6.748 8.262 6.748 5.003 0 7.695-3.298 8.187-7.354m34.08-6.253c0 7.883-4.625 12.355-10.349 12.355-5.76 0-10.385-4.471-10.385-12.355 0-7.846 4.625-12.356 10.385-12.356 5.724 0 10.348 4.51 10.348 12.356m1.592 0c0-7.846-4.624-13.607-11.94-13.607-7.353 0-11.977 5.76-11.977 13.607 0 7.884 4.624 13.607 11.977 13.607 7.316 0 11.94-5.724 11.94-13.608m21.76-13.076L296.828 26.4c.076-3.41.076-7.429.076-10.84V1.611h-1.441v26.152h2.198l14.934-24.788c-.075 3.411-.075 7.467-.075 10.878v13.91h1.402l.038-26.152h-2.236zm25.589 0h-16.563v26.152h16.184V26.55h-14.744V15.294h13.872v-1.213h-13.872V2.862h15.123v-1.25zm31.841 13.228c0 7.619-4.662 11.105-8.869 11.56-.834.115-1.478.115-2.843.115h-6.178V2.862h6.103c1.251 0 2.084.038 3.222.19 4.207.53 8.565 4.358 8.565 11.787m1.593 0c0-8.831-5.838-12.583-9.969-13.076-1.327-.152-2.085-.152-3.336-.152h-7.618v26.153h7.656c1.251 0 1.858 0 2.92-.075 4.51-.417 10.347-3.943 10.347-12.85M392.81 1.61h-16.563v26.152h16.183V26.55h-14.744V15.294h13.873v-1.213h-13.873V2.862h15.124v-1.25zm20.81 19.33h-1.516c-.568 3.866-3.183 6.103-6.784 6.103-3.184 0-6.596-1.744-6.596-5.269 0-3.525 2.161-4.7 7.088-6.064C411.307 14.232 414 12.3 414 8.13c0-4.054-3.677-7.049-8.605-7.049-4.889 0-8.869 2.464-9.437 7.505h1.516c.57-4.056 3.942-6.254 7.96-6.254 3.98 0 7.011 2.236 7.011 5.572 0 3.6-2.122 5.041-7.239 6.443-5.382 1.441-8.035 3.108-8.035 7.201 0 3.98 3.79 6.748 8.262 6.748 5.003 0 7.695-3.298 8.187-7.354m6.258 6.823h1.44V1.612h-1.44v26.152zm28.731-14.251V1.612h-1.327V7.94l-.87-2.426c-2.01-3.146-5.231-4.435-8.49-4.435-6.861 0-11.561 5.23-11.561 13.532 0 8.11 5.192 13.683 12.28 13.683 5.95 0 9.21-3.677 10.044-8.452l.075-.38h-1.44l-.075.38c-.834 4.13-3.753 7.2-8.756 7.2-5.608 0-10.536-4.51-10.536-12.355 0-8.15 4.472-12.357 10.082-12.357 4.017 0 9.135 2.73 9.135 9.93h-8.15v1.252h9.59zM471.24 1.61L456.344 26.4c.076-3.41.076-7.429.076-10.84V1.611h-1.44v26.152h2.198l14.934-24.788c-.076 3.411-.076 7.467-.076 10.878v13.91h1.402l.038-26.152h-2.236zM421.519 205.497c-1.098 1.217-2.444 1.709-4.038 1.709a5.824 5.824 0 0 1-4.153-1.71c-1.222-1.221-1.71-2.567-1.71-4.157 0-1.59.612-2.931 1.71-4.033 1.222-1.223 2.568-1.714 4.153-1.714 1.594 0 2.94.616 4.038 1.714 1.222 1.102 1.709 2.444 1.709 4.033 0 1.59-.61 2.936-1.71 4.158m-25.91 0c-1.222 1.217-2.568 1.709-4.152 1.709-1.595 0-2.932-.611-4.04-1.71-1.097-1.221-1.71-2.567-1.71-4.157 0-1.59.613-2.931 1.71-4.033 1.108-1.223 2.445-1.714 4.04-1.714 1.584 0 3.054.616 4.152 1.714 1.223 1.102 1.709 2.444 1.709 4.033.124 1.59-.486 2.936-1.71 4.158m-169.52-20.044v-5.256h-65.994v-61.6h53.044v-5.254h-53.044V51.257h65.995V46h-71.251v139.452h71.25zm-88.363 0V46.12h-5.132v134.076L74.66 46h-6.721l-57.81 134.196V46.12H4.875v139.332h8.679L71.36 51.5l57.813 133.953h8.55zm49.134 29.21h6.722v-23.467h-6.722v23.467z"/><path d="M471.26 109.8l-65.017-65.02m65.627 85.303l-82.133-82.125m77.733 97.53l-92.15-92.274m82.984 102.78l-95.452-95.447m85.552 105.223l-95.94-95.939" fill="none" stroke="#000" stroke-width=".85" stroke-miterlimit="10"/><path d="M244.542 117.987v62.21h43.755c8.555 0 15.887-3.055 21.883-9.17 6.11-6.111 9.165-13.443 9.165-21.997s-3.056-15.892-9.165-21.997c-6.11-6.11-13.452-9.17-21.883-9.17h-43.755v.124zm47.794-5.131c9.165.974 16.745 5.007 22.855 11.852 6.225 6.965 9.29 15.032 9.29 24.322 0 10.02-3.55 18.579-10.635 25.663-7.094 7.093-15.649 10.635-25.663 10.635h-49.016V46h5.256v66.73h42.165l34.59-66.611h5.861l-34.703 66.736zM451.22 69.22c-12.83-12.831-28.356-19.31-46.447-19.31-18.207 0-33.606 6.479-46.447 19.31-12.832 12.837-19.305 28.355-19.305 46.447 0 18.207 6.473 33.73 19.305 46.438 12.841 12.836 28.355 19.314 46.447 19.314 18.206 0 33.616-6.478 46.447-19.314 12.832-12.832 19.304-28.351 19.304-46.438 0-18.092-6.472-33.491-19.304-46.447m3.666 96.675c-13.815 13.934-30.56 20.899-50.113 20.899-19.552 0-36.298-6.965-50.114-20.9-13.929-13.81-20.898-30.555-20.898-50.227 0-19.557 6.97-36.3 20.898-50.113 13.816-13.93 30.562-20.9 50.114-20.9 19.553 0 36.298 6.97 50.113 20.9 13.93 13.814 20.9 30.556 20.9 50.113-.125 19.672-6.97 36.418-20.9 50.228"/></g></svg>