<svg xmlns="http://www.w3.org/2000/svg" version="1" id="Layer_1" viewBox="0 0 904.7 310.7"><style id="style3">.st0{fill:#000}.st1{fill:none;stroke:#000;stroke-width:.6253;stroke-miterlimit:10}.st2{fill:#4e4c4b}.st3,.st4{fill:#fff;stroke:#000;stroke-width:.8829;stroke-miterlimit:10}.st4{stroke-width:.6253}</style><path vector-effect="non-scaling-stroke" class="st0" d="M387.3 92.2l18.8 57.9-39.9-39.9" id="path5"/><path vector-effect="non-scaling-stroke" d="M387.3 92.2l18.5 57.2" id="path7"/><path vector-effect="non-scaling-stroke" class="st1" d="M52.4 15.8l111.3 61M230.5 232L90.6 99.3m140.8 132.2l165.3-148m-29.9 26.6l86.2 86.7m-24.1-24.3L656.4 124M495.2 37.3L657 124m-104.6 22.2l58.9 149.6m-27.1-68.9l97.9-25.5M600.8 93.7l120.5-52.6M130.5 58.4L2.3 190.7m186.2-70.5l-30.1 44.1" id="path9"/><path vector-effect="non-scaling-stroke" class="st2" d="M76.1 10.6c0 2.6-.7 4.5-2 5.8-1.3 1.3-3.3 2-5.9 2h-3.7V3.1h4.1c2.4 0 4.3.6 5.6 1.9 1.3 1.3 1.9 3.1 1.9 5.6zm-1.2 0c0-2.2-.6-3.8-1.7-5S70.5 4 68.4 4h-2.8v13.4h2.5c4.6.1 6.8-2.2 6.8-6.8zm11.4 7.8l-.3-1.8c-.6.7-1.2 1.3-1.8 1.6-.6.3-1.3.5-2.1.5-1.1 0-2-.3-2.6-.9-.6-.6-.9-1.4-.9-2.4 0-1.1.5-2 1.4-2.6.9-.6 2.3-.9 4-1l2.2-.1V11c0-1.1-.2-1.9-.7-2.5-.5-.5-1.2-.8-2.2-.8-1.1 0-2.2.3-3.3.9l-.4-.9c1.3-.6 2.5-.9 3.7-.9 1.3 0 2.2.3 2.8 1s.9 1.7.9 3v7.6h-.7zm-4.2-.7c1.2 0 2.2-.3 2.9-1 .7-.7 1.1-1.7 1.1-2.9v-1.1l-2 .1c-1.6.1-2.7.3-3.4.8-.7.4-1 1.1-1 2 0 .7.2 1.3.7 1.7.3.2.9.4 1.7.4zM94.9 6.8c.8 0 1.5.2 2.1.5.6.3 1.1.8 1.6 1.5h.1c0-.9-.1-1.7-.1-2.6V2.1h1v16.3H99l-.3-1.7h-.1c-.9 1.3-2.1 2-3.7 2s-2.8-.5-3.6-1.5c-.8-1-1.2-2.4-1.2-4.3 0-2 .4-3.5 1.2-4.5.9-1.1 2.1-1.6 3.6-1.6zm0 .9c-1.2 0-2.2.4-2.8 1.3-.6.9-.9 2.1-.9 3.8 0 3.2 1.3 4.8 3.8 4.8 1.3 0 2.2-.4 2.8-1.1.6-.7.9-2 .9-3.7v-.2c0-1.8-.3-3-.9-3.8s-1.5-1.1-2.9-1.1zm15.6 10.7l-.3-1.8h-.1c-.6.7-1.2 1.3-1.8 1.6-.6.3-1.3.5-2.1.5-1.1 0-2-.3-2.6-.9-.6-.6-.9-1.4-.9-2.4 0-1.1.5-2 1.4-2.6.9-.6 2.3-.9 4-1l2.2-.1V11c0-1.1-.2-1.9-.7-2.5-.4-.6-1.2-.8-2.1-.8-1.1 0-2.2.3-3.3.9l-.4-.9c1.3-.6 2.5-.9 3.7-.9 1.3 0 2.2.3 2.8 1s.9 1.7.9 3v7.6h-.7zm-4.2-.7c1.2 0 2.2-.3 2.9-1 .7-.7 1.1-1.7 1.1-2.9v-1.1l-2 .1c-1.6.1-2.7.3-3.4.8-.7.4-1 1.1-1 2 0 .7.2 1.3.7 1.7.3.2.9.4 1.7.4zm79.1 62.8h-1.1V73h-9v7.5h-1.1V65.2h1.1V72h9v-6.8h1.1v15.3zm11 0l-.3-1.8h-.1c-.6.7-1.2 1.3-1.8 1.6-.6.3-1.3.5-2.1.5-1.1 0-2-.3-2.6-.9-.6-.6-.9-1.4-.9-2.4 0-1.1.5-2 1.4-2.6.9-.6 2.3-.9 4-1l2.2-.1V73c0-1.1-.2-1.9-.7-2.5-.4-.6-1.2-.8-2.1-.8-1.1 0-2.2.3-3.3.9l-.4-.9c1.3-.6 2.5-.9 3.7-.9 1.3 0 2.2.3 2.8 1s.9 1.7.9 3v7.6h-.7zm-4.2-.7c1.2 0 2.2-.3 2.9-1 .7-.7 1.1-1.7 1.1-2.9v-1.1l-2 .1c-1.6.1-2.7.3-3.4.8-.7.4-1 1.1-1 2 0 .7.2 1.3.7 1.7.3.2.9.4 1.7.4zm16.6.7v-7.4c0-1.1-.2-2-.7-2.5-.5-.5-1.2-.8-2.2-.8-1.4 0-2.4.3-3 1s-.9 1.8-.9 3.4v6.3h-1V69.1h.9l.2 1.6h.1c.7-1.2 2.1-1.8 4-1.8 2.6 0 3.9 1.4 3.9 4.2v7.5h-1.3zm11.8-3c0 1-.4 1.8-1.2 2.4s-1.9.8-3.3.8c-1.5 0-2.7-.2-3.6-.7v-1.1c1.1.6 2.4.9 3.6.9 1.1 0 2-.2 2.6-.6.6-.4.9-.9.9-1.5s-.2-1.1-.7-1.4-1.2-.8-2.3-1.2c-1.1-.4-1.9-.8-2.4-1.1-.5-.3-.8-.6-1-1s-.4-.8-.4-1.4c0-.9.4-1.5 1.1-2s1.7-.7 3-.7c1.2 0 2.4.2 3.5.7l-.4.9c-1.1-.5-2.2-.7-3.1-.7-.9 0-1.7.2-2.2.5-.5.3-.8.7-.8 1.3 0 .6.2 1.1.6 1.4s1.3.8 2.5 1.2c1 .4 1.8.7 2.2 1 .5.3.8.6 1.1 1 .2.4.3.8.3 1.3zm18.2 3h-10.7v-.8l9-13.5h-8.6v-1h10v.8l-9 13.5h9.2v1zm2.6-14.6c0-.7.2-1 .7-1 .2 0 .4.1.5.3s.2.4.2.7c0 .3-.1.6-.2.7s-.3.4-.6.4c-.4 0-.6-.4-.6-1.1zm1.2 14.6h-1V69.1h1v11.4zm18 0V73c0-1.1-.2-1.9-.7-2.4-.4-.5-1.1-.8-2-.8-1.2 0-2 .3-2.6 1s-.8 1.7-.8 3v6.7h-1.1v-7.8c0-1.9-.9-2.9-2.6-2.9-1.2 0-2.1.3-2.6 1s-.8 1.8-.8 3.3v6.3h-1V69.1h.9l.2 1.6h.1c.3-.6.8-1 1.3-1.3.6-.3 1.2-.5 1.9-.5 1.8 0 3 .7 3.5 2 .4-.7.9-1.1 1.5-1.5.6-.3 1.3-.5 2.1-.5 1.2 0 2.2.3 2.8 1s.9 1.7.9 3.2v7.5h-1zm19 0V73c0-1.1-.2-1.9-.7-2.4-.4-.5-1.1-.8-2-.8-1.2 0-2 .3-2.6 1s-.8 1.7-.8 3v6.7h-1.1v-7.8c0-1.9-.9-2.9-2.6-2.9-1.2 0-2.1.3-2.6 1s-.8 1.8-.8 3.3v6.3h-1V69.1h.9l.2 1.6h.1c.3-.6.8-1 1.3-1.3.6-.3 1.2-.5 1.9-.5 1.8 0 3 .7 3.5 2 .4-.7.9-1.1 1.5-1.5.6-.3 1.3-.5 2.1-.5 1.2 0 2.2.3 2.8 1s.9 1.7.9 3.2v7.5h-1zm9.3.2c-1.7 0-2.9-.5-3.9-1.5-.9-1-1.4-2.5-1.4-4.3 0-1.8.4-3.3 1.3-4.4.9-1.1 2.1-1.6 3.6-1.6 1.3 0 2.4.5 3.2 1.4.8.9 1.2 2.2 1.2 3.8v.9h-8.2c0 1.6.4 2.8 1.1 3.6.7.8 1.7 1.2 3.1 1.2.7 0 1.2 0 1.7-.1s1.1-.3 1.9-.6v.9c-.6.3-1.2.5-1.8.6-.5.1-1.1.1-1.8.1zm-.3-10.9c-1.1 0-2 .4-2.6 1.1-.7.7-1.1 1.8-1.2 3.1h7c0-1.3-.3-2.4-.9-3.1-.5-.7-1.3-1.1-2.3-1.1zm12-.9c.5 0 1 0 1.6.1l-.2 1c-.5-.1-1-.2-1.5-.2-1 0-1.8.4-2.4 1.2s-.9 1.9-.9 3.1v6.3h-1V69.1h.9l.1 2.1h.1c.5-.8 1-1.4 1.5-1.8.4-.3 1-.5 1.8-.5zM28.3 193.8c0 4.7-2.9 7.1-5.8 7.5-.8.1-1.1.1-1.9.1h-4.3v-14.8h4.4c.8 0 1.1 0 1.8.1 2.9.2 5.8 2.4 5.8 7.1zm-1.5 0c0-3.8-2.1-5.8-4.5-6.1-.5-.1-.9-.1-1.7-.1h-3v12.6h2.9c.7 0 1.2 0 1.8-.1 2.5-.3 4.5-2.5 4.5-6.3zm10.5 5.5l-.6 1.2c-.8.8-1.9 1.2-3.2 1.2-2.1 0-3.6-1.1-3.6-3.2 0-2.6 2.5-3.9 6.6-3.9h.7v-1.8c-.1-1.3-.9-2.1-2.5-2.1s-2.7.8-2.9 2.6h-1.4c.2-2.2 1.8-3.7 4.3-3.7s3.7 1.1 3.9 3v5.5c0 1 .1 1.8.2 3.2h-1.3l-.2-2zm-.1-2.4v-1.3c-3.2-.2-5.8.5-5.8 2.7 0 1.4.9 2.2 2.6 2.2 1.9.1 3.2-1.4 3.2-3.6zm5.8 1.4v1.2c0 .7.4.9 1.3.8v1c-.3.1-.7.1-1.1.1-.9 0-1.5-.3-1.6-1.5v-14.3H43v12.7zm12.6-2.3H47c.2 3.4 1.8 4.5 3.7 4.5 1.6 0 3-1 3.4-2.8h1.4c-.5 2.6-2.6 3.9-4.9 3.9-2.8 0-5-2-5-6 0-3.7 2.3-6 5.3-6 3.2 0 4.8 2.5 4.8 5.7-.1.2-.1.4-.1.7zm-8.6-1h7.3c-.2-2.9-1.6-4.3-3.5-4.3s-3.6 1.4-3.8 4.3zm27.7-3.9v.2h-1.3v-.2c-.5-2.3-1.9-3.8-4.6-3.8-3.1 0-5.3 2.6-5.3 6.6 0 4.1 2.2 6.6 5.2 6.6 2.8 0 4.2-1.7 4.7-3.9v-.2h1.3v.2c-.4 2.7-2.3 5-6.1 5-4.1 0-6.6-3.1-6.6-7.6 0-4.6 2.8-7.8 6.9-7.8 3.5 0 5.4 2.1 5.8 4.9zm11.7 3.9v6.4h-1.3v-7.9c-.2-1.5-1-2.7-2.9-2.6-1.9 0-3.5 1.4-3.5 4.9v5.7h-1.3v-15.9h1.3v6.7l.6-1.2c.9-.9 1.9-1.3 3.2-1.3 2.4 0 3.8 1.3 4 3.4-.1.4-.1.8-.1 1.8zm4.6-7.5c0 .5-.4.9-.9.9s-.9-.4-.9-.9.4-.9.9-.9c.6 0 .9.4.9.9zm-1.5 13.8V190h1.3v11.4h-1.3zm13.7-6.3v6.4h-1.3v-7.9c-.2-1.5-1-2.7-2.9-2.6-1.9 0-3.5 1.4-3.5 4.9v5.7H94v-15.9h1.3v6.7l.6-1.2c.9-.9 1.9-1.3 3.2-1.3 2.4 0 3.8 1.3 4 3.4.1.4.1.8.1 1.8zm12 6.3h-1.3v-2.2l-.6 1.3c-.9.9-1.9 1.2-3.2 1.2-2.3 0-3.7-1.3-4-3.1-.1-.6-.1-1-.1-1.9V190h1.3v6.3c0 .5 0 1.1.1 1.7.2 1.5 1.2 2.6 2.9 2.6 1.9 0 3.5-1.4 3.5-4.9V190h1.3v11.3zm4.4-3v1.2c0 .7.4.9 1.3.8v1c-.3.1-.7.1-1.1.1-.9 0-1.5-.3-1.6-1.5v-14.3h1.3v12.7zm7.8 3.6c-1.2 3-2.3 3.9-3.9 3.9-.4 0-.6 0-.9-.1v-1.1h.7c1 0 1.8-.5 2.5-2.4l.2-.6-4.5-11.8h1.5l3.7 10.4 3.7-10.4h1.5l-4.5 12.1z" id="path11"/><g id="g13"><path vector-effect="non-scaling-stroke" class="st2" d="M197 127.7c-.6 0-1.2-.1-1.6-.3v-.9c.5.1 1.1.2 1.6.2 1.7 0 2.5-.9 2.5-2.8v-15.4h1.1v15.3c0 2.6-1.2 3.9-3.6 3.9zm12.2-3.6c-1.7 0-2.9-.5-3.9-1.5-.9-1-1.4-2.5-1.4-4.3 0-1.8.4-3.3 1.3-4.4.9-1.1 2.1-1.6 3.6-1.6 1.3 0 2.4.5 3.2 1.4.8.9 1.2 2.2 1.2 3.8v.8H205c0 1.6.4 2.8 1.1 3.6.7.8 1.7 1.2 3.1 1.2.7 0 1.2 0 1.7-.1s1.1-.3 1.9-.6v.9c-.6.3-1.2.5-1.8.6-.6.1-1.2.2-1.8.2zm-.3-10.9c-1.1 0-2 .4-2.6 1.1-.7.7-1.1 1.8-1.2 3.1h7c0-1.3-.3-2.4-.9-3.1-.5-.8-1.3-1.1-2.3-1.1zm11.9-1c.5 0 1 0 1.6.1l-.2 1c-.5-.1-1-.2-1.5-.2-1 0-1.8.4-2.4 1.2s-.9 1.9-.9 3.1v6.3h-1v-11.4h.9l.1 2.1h.1c.5-.8 1-1.4 1.5-1.8.4-.2 1.1-.4 1.8-.4zm8.5 11.9c-1.7 0-2.9-.5-3.9-1.5-.9-1-1.4-2.5-1.4-4.3 0-1.8.4-3.3 1.3-4.4.9-1.1 2.1-1.6 3.6-1.6 1.3 0 2.4.5 3.2 1.4.8.9 1.2 2.2 1.2 3.8v.8h-8.2c0 1.6.4 2.8 1.1 3.6.7.8 1.7 1.2 3.1 1.2.7 0 1.2 0 1.7-.1s1.1-.3 1.9-.6v.9c-.6.3-1.2.5-1.8.6-.5.1-1.1.2-1.8.2zm-.3-10.9c-1.1 0-2 .4-2.6 1.1-.7.7-1.1 1.8-1.2 3.1h7c0-1.3-.3-2.4-.9-3.1-.5-.8-1.3-1.1-2.3-1.1zm21.7 10.7v-7.5c0-1.1-.2-1.9-.7-2.4-.4-.5-1.1-.8-2-.8-1.2 0-2 .3-2.6 1s-.8 1.7-.8 3v6.7h-1.1v-7.8c0-1.9-.9-2.9-2.6-2.9-1.2 0-2.1.3-2.6 1s-.8 1.8-.8 3.3v6.3h-1v-11.4h.9l.2 1.6h.1c.3-.6.8-1 1.3-1.3.6-.3 1.2-.5 1.9-.5 1.8 0 3 .7 3.5 2 .4-.7.9-1.1 1.5-1.5.6-.3 1.3-.5 2.1-.5 1.2 0 2.2.3 2.8 1s.9 1.7.9 3.2v7.5h-1zm2.9-11.4h1.1l2.4 6.4c.7 2 1.2 3.3 1.4 4h.1c.3-.9.8-2.2 1.4-4l2.4-6.3h1.1l-5.1 13.2c-.4 1.1-.8 1.8-1 2.2-.3.4-.6.7-1 .8-.4.2-.8.3-1.4.3-.4 0-.8-.1-1.3-.2v-.9c.4.1.8.2 1.3.2.4 0 .7-.1.9-.3.3-.2.5-.4.7-.8.2-.4.5-.9.8-1.7.3-.8.5-1.3.6-1.5l-4.4-11.4zm24.3 11.4l-5.7-14.2h-.1c.1.9.1 1.8.1 2.7v11.5h-1v-15.3h1.7l5.4 13.5h.1l5.4-13.5h1.6v15.3h-1.1v-11.6c0-.8 0-1.6.1-2.5h-.1l-5.7 14.1h-.7zm18.5 0l-.3-1.8h-.1c-.6.7-1.2 1.3-1.8 1.6-.6.3-1.3.5-2.1.5-1.1 0-2-.3-2.6-.9-.6-.6-.9-1.4-.9-2.4 0-1.1.5-2 1.4-2.6.9-.6 2.3-.9 4-1l2.2-.1v-.8c0-1.1-.2-1.9-.7-2.5-.4-.6-1.2-.8-2.1-.8-1.1 0-2.2.3-3.3.9l-.4-.9c1.3-.6 2.5-.9 3.7-.9 1.3 0 2.2.3 2.8 1s.9 1.7.9 3v7.6h-.7zm-4.2-.8c1.2 0 2.2-.3 2.9-1 .7-.7 1.1-1.7 1.1-2.9v-1.1l-2 .1c-1.6.1-2.7.3-3.4.8-.7.4-1 1.1-1 2 0 .7.2 1.3.7 1.7.3.2.9.4 1.7.4zm16.6.8v-7.4c0-1.1-.2-2-.7-2.5-.5-.5-1.2-.8-2.2-.8-1.4 0-2.4.3-3 1s-.9 1.8-.9 3.4v6.3h-1v-11.4h.9l.2 1.6h.1c.7-1.2 2.1-1.8 4-1.8 2.6 0 3.9 1.4 3.9 4.2v7.5h-1.3zm12.6 0v-7.4c0-1.1-.2-2-.7-2.5-.5-.5-1.2-.8-2.2-.8-1.4 0-2.4.3-3 1s-.9 1.8-.9 3.4v6.3h-1v-11.4h.9l.2 1.6h.1c.7-1.2 2.1-1.8 4-1.8 2.6 0 3.9 1.4 3.9 4.2v7.5h-1.3z" id="path15"/></g><g id="g17"><path vector-effect="non-scaling-stroke" class="st2" d="M471 200.9c0 1.3-.5 2.3-1.4 3-.9.7-2.2 1.1-3.7 1.1-1.9 0-3.3-.2-4.3-.6v-1.1c1.1.5 2.5.7 4.2.7 1.3 0 2.3-.3 3-.9s1.1-1.3 1.1-2.3c0-.6-.1-1.1-.4-1.4-.2-.4-.6-.7-1.2-1-.6-.3-1.4-.7-2.4-1-1.6-.5-2.6-1.1-3.2-1.7s-.9-1.5-.9-2.5c0-1.1.4-2.1 1.3-2.8s2.1-1.1 3.5-1.1 2.8.3 4.1.8l-.4.9c-1.3-.5-2.5-.8-3.7-.8-1.1 0-2 .3-2.7.8-.7.5-1 1.2-1 2.1 0 .6.1 1 .3 1.4.2.4.5.7 1 1s1.3.6 2.4 1c1.2.4 2.1.8 2.7 1.2.6.4 1 .8 1.3 1.3.3.6.4 1.2.4 1.9zm6 3.2c.7 0 1.2-.1 1.7-.2v.8c-.5.2-1.1.3-1.7.3-1 0-1.8-.3-2.2-.8-.5-.5-.7-1.4-.7-2.5v-7.4h-1.7v-.6l1.7-.5.5-2.6h.5v2.8h3.3v.9h-3.3v7.2c0 .9.2 1.5.5 1.9.3.5.8.7 1.4.7zm11.1.7l-.3-1.8h-.1c-.6.7-1.2 1.3-1.8 1.6-.6.3-1.3.5-2.1.5-1.1 0-2-.3-2.6-.9-.6-.6-.9-1.4-.9-2.4 0-1.1.5-2 1.4-2.6.9-.6 2.3-.9 4-1l2.2-.1v-.8c0-1.1-.2-1.9-.7-2.5-.4-.6-1.2-.8-2.1-.8-1.1 0-2.2.3-3.3.9l-.4-.9c1.3-.6 2.5-.9 3.7-.9 1.3 0 2.2.3 2.8 1s.9 1.7.9 3v7.6h-.7zm-4.2-.7c1.2 0 2.2-.3 2.9-1 .7-.7 1.1-1.7 1.1-2.9V199l-2 .1c-1.6.1-2.7.3-3.4.8-.7.4-1 1.1-1 2 0 .7.2 1.3.7 1.7.3.3.9.5 1.7.5zm13.2-10.9c.5 0 1 0 1.6.1l-.2 1c-.5-.1-1-.2-1.5-.2-1 0-1.8.4-2.4 1.2s-.9 1.9-.9 3.1v6.3h-1v-11.4h.9l.1 2.1h.1c.5-.8 1-1.4 1.5-1.8.4-.2 1-.4 1.8-.4zm21.9 11.6h-.9l-3.4-11.8c-.3-1-.5-1.8-.6-2.4-.1.6-.3 1.3-.5 2.1s-1.3 4.8-3.4 12.1h-.9l-4.2-15.3h1.1l2.7 9.9c.1.4.2.8.3 1.1s.2.7.2 1c.1.3.1.6.2.9s.1.6.2.8c.2-1 .5-2.4 1.1-4.3l2.6-9.3h1.2l3.1 10.7c.4 1.2.6 2.2.8 3 .1-.5.2-1 .4-1.6.1-.6 1.2-4.6 3.2-12.1h1.1l-4.3 15.2zm13.6 0l-.3-1.8h-.1c-.6.7-1.2 1.3-1.8 1.6-.6.3-1.3.5-2.1.5-1.1 0-2-.3-2.6-.9-.6-.6-.9-1.4-.9-2.4 0-1.1.5-2 1.4-2.6.9-.6 2.3-.9 4-1l2.2-.1v-.8c0-1.1-.2-1.9-.7-2.5-.4-.6-1.2-.8-2.1-.8-1.1 0-2.2.3-3.3.9l-.4-.9c1.3-.6 2.5-.9 3.7-.9 1.3 0 2.2.3 2.8 1s.9 1.7.9 3v7.6h-.7zm-4.2-.7c1.2 0 2.2-.3 2.9-1 .7-.7 1.1-1.7 1.1-2.9V199l-2 .1c-1.6.1-2.7.3-3.4.8-.7.4-1 1.1-1 2 0 .7.2 1.3.7 1.7.3.3.9.5 1.7.5zm13.2-10.9c.5 0 1 0 1.6.1l-.2 1c-.5-.1-1-.2-1.5-.2-1 0-1.8.4-2.4 1.2s-.9 1.9-.9 3.1v6.3h-1v-11.4h.9l.1 2.1h.1c.5-.8 1-1.4 1.5-1.8.4-.2 1-.4 1.8-.4zm10.9 8.6c0 1-.4 1.8-1.2 2.4s-1.9.8-3.3.8c-1.5 0-2.7-.2-3.6-.7v-1.1c1.1.6 2.4.9 3.6.9 1.1 0 2-.2 2.6-.6.6-.4.9-.9.9-1.5s-.2-1.1-.7-1.4-1.2-.8-2.3-1.2c-1.1-.4-1.9-.8-2.4-1.1-.5-.3-.8-.6-1-1s-.4-.8-.4-1.4c0-.9.4-1.5 1.1-2s1.7-.7 3-.7c1.2 0 2.4.2 3.5.7l-.4.9c-1.1-.5-2.2-.7-3.1-.7-.9 0-1.7.2-2.2.5-.5.3-.8.7-.8 1.3 0 .6.2 1.1.6 1.4s1.3.8 2.5 1.2c1 .4 1.8.7 2.2 1 .5.3.8.6 1.1 1 .2.4.3.8.3 1.3z" id="path19"/></g><g id="g21"><path vector-effect="non-scaling-stroke" class="st2" d="M675.6 117.6c-1.9 0-3.4.6-4.5 1.8-1.1 1.2-1.7 2.9-1.7 5.1 0 2.2.5 3.9 1.6 5.1s2.5 1.8 4.5 1.8c1.3 0 2.5-.2 3.5-.5v.9c-1 .4-2.3.5-3.8.5-2.2 0-3.8-.7-5.1-2.1-1.2-1.4-1.9-3.3-1.9-5.8 0-1.6.3-2.9.9-4.1.6-1.2 1.4-2.1 2.5-2.8 1.1-.6 2.4-1 3.9-1s2.8.3 4 .8l-.4 1c-1.1-.4-2.3-.7-3.5-.7zm14.5 14.6v-7.4c0-1.1-.2-2-.7-2.5-.5-.5-1.2-.8-2.2-.8-1.4 0-2.4.3-3 1s-.9 1.8-.9 3.4v6.3h-1v-16.3h1v5.2l-.1 1.5h.1c.4-.7 1-1.2 1.6-1.5s1.5-.5 2.4-.5c2.6 0 3.9 1.4 3.9 4.2v7.5h-1.1zm9.2-11.7c.5 0 1 0 1.6.1l-.2 1c-.5-.1-1-.2-1.5-.2-1 0-1.8.4-2.4 1.2s-.9 1.9-.9 3.1v6.3h-1v-11.4h.9l.1 2.1h.1c.5-.8 1-1.4 1.5-1.8.4-.2 1-.4 1.8-.4zm3.7-2.9c0-.7.2-1 .7-1 .2 0 .4.1.5.3s.2.4.2.7c0 .3-.1.6-.2.7s-.3.3-.5.3c-.5 0-.7-.3-.7-1zm1.2 14.6h-1v-11.4h1v11.4zm10.9-3c0 1-.4 1.8-1.2 2.4s-1.9.8-3.3.8c-1.5 0-2.7-.2-3.6-.7v-1.1c1.1.6 2.4.9 3.6.9 1.1 0 2-.2 2.6-.6.6-.4.9-.9.9-1.5s-.2-1.1-.7-1.4-1.2-.8-2.3-1.2c-1.1-.4-1.9-.8-2.4-1.1-.5-.3-.8-.6-1-1s-.4-.8-.4-1.4c0-.9.4-1.5 1.1-2s1.7-.7 3-.7c1.2 0 2.4.2 3.5.7l-.4.9c-1.1-.5-2.2-.7-3.1-.7-.9 0-1.7.2-2.2.5-.5.3-.8.7-.8 1.3 0 .6.2 1.1.6 1.4s1.3.8 2.5 1.2c1 .4 1.8.7 2.2 1 .5.3.8.6 1.1 1 .2.3.3.8.3 1.3zm5.9 2.3c.7 0 1.2-.1 1.7-.2v.8c-.5.2-1.1.3-1.7.3-1 0-1.8-.3-2.2-.8-.5-.5-.7-1.4-.7-2.5v-7.4h-1.7v-.6l1.7-.5.5-2.6h.5v2.8h3.3v.9h-3.3v7.2c0 .9.2 1.5.5 1.9.3.4.8.7 1.4.7zm13.6-5c0 1.9-.5 3.3-1.4 4.4-.9 1-2.1 1.6-3.7 1.6-1 0-1.9-.2-2.6-.7-.8-.5-1.3-1.2-1.8-2.1s-.6-1.9-.6-3.1c0-1.9.5-3.3 1.4-4.3.9-1 2.1-1.6 3.7-1.6s2.8.5 3.7 1.6 1.3 2.3 1.3 4.2zm-9 0c0 1.6.3 2.8 1 3.7.7.9 1.7 1.3 2.9 1.3s2.2-.4 2.9-1.3c.7-.9 1-2.1 1-3.7s-.3-2.8-1-3.7c-.7-.9-1.7-1.3-2.9-1.3s-2.2.4-2.9 1.3c-.6.9-1 2.1-1 3.7zm17.1 5.9c-1.8 0-3-.7-3.8-2h-.1v6.9h-1v-16.6h.9l.2 1.6h.1c.8-1.2 2-1.8 3.8-1.8 1.5 0 2.7.5 3.5 1.5.8 1 1.2 2.5 1.2 4.4 0 1.9-.4 3.3-1.3 4.4-.9 1.1-2.1 1.6-3.5 1.6zm0-.9c1.2 0 2.1-.4 2.7-1.3s1-2.1 1-3.6c0-3.3-1.2-5-3.6-5-1.3 0-2.3.4-2.9 1.1-.6.7-.9 1.9-.9 3.6v.3c0 1.8.3 3.1.9 3.8.4.7 1.4 1.1 2.8 1.1zm15.8.7v-7.4c0-1.1-.2-2-.7-2.5-.5-.5-1.2-.8-2.2-.8-1.4 0-2.4.3-3 1s-.9 1.8-.9 3.4v6.3h-1v-16.3h1v5.2l-.1 1.5h.1c.4-.7 1-1.2 1.6-1.5s1.5-.5 2.4-.5c2.6 0 3.9 1.4 3.9 4.2v7.5h-1.1zm9.4.2c-1.7 0-2.9-.5-3.9-1.5-.9-1-1.4-2.5-1.4-4.3 0-1.8.4-3.3 1.3-4.4.9-1.1 2.1-1.6 3.6-1.6 1.3 0 2.4.5 3.2 1.4.8.9 1.2 2.2 1.2 3.8v.8h-8.2c0 1.6.4 2.8 1.1 3.6.7.8 1.7 1.2 3.1 1.2.7 0 1.2 0 1.7-.1s1.1-.3 1.9-.6v.9c-.6.3-1.2.5-1.8.6-.6.1-1.2.2-1.8.2zm-.3-10.9c-1.1 0-2 .4-2.6 1.1-.7.7-1.1 1.8-1.2 3.1h7c0-1.3-.3-2.4-.9-3.1-.5-.8-1.3-1.1-2.3-1.1zm11.9-1c.5 0 1 0 1.6.1l-.2 1c-.5-.1-1-.2-1.5-.2-1 0-1.8.4-2.4 1.2s-.9 1.9-.9 3.1v6.3h-1v-11.4h.9l.1 2.1h.1c.5-.8 1-1.4 1.5-1.8.4-.2 1.1-.4 1.8-.4zm20.9 11.7h-1.1l-9.1-13.6h-.1c.1 1.6.1 2.8.1 3.7v9.9h-1v-15.3h1.1l9.1 13.6h.1c-.1-1.3-.1-2.5-.1-3.6v-10h1v15.3zm13.5-5.7c0 1.9-.5 3.3-1.4 4.4-.9 1-2.1 1.6-3.7 1.6-1 0-1.9-.2-2.6-.7-.8-.5-1.3-1.2-1.8-2.1s-.6-1.9-.6-3.1c0-1.9.5-3.3 1.4-4.3.9-1 2.1-1.6 3.7-1.6s2.8.5 3.7 1.6 1.3 2.3 1.3 4.2zm-9 0c0 1.6.3 2.8 1 3.7.7.9 1.7 1.3 2.9 1.3s2.2-.4 2.9-1.3c.7-.9 1-2.1 1-3.7s-.3-2.8-1-3.7c-.7-.9-1.7-1.3-2.9-1.3s-2.2.4-2.9 1.3c-.7.9-1 2.1-1 3.7zm13.2 5.7h-1v-16.3h1v16.3zm10.7 0l-.3-1.8h-.1c-.6.7-1.2 1.3-1.8 1.6-.6.3-1.3.5-2.1.5-1.1 0-2-.3-2.6-.9-.6-.6-.9-1.4-.9-2.4 0-1.1.5-2 1.4-2.6.9-.6 2.3-.9 4-1l2.2-.1v-.8c0-1.1-.2-1.9-.7-2.5-.4-.6-1.2-.8-2.1-.8-1.1 0-2.2.3-3.3.9l-.4-.9c1.3-.6 2.5-.9 3.7-.9 1.3 0 2.2.3 2.8 1s.9 1.7.9 3v7.6h-.7zm-4.2-.8c1.2 0 2.2-.3 2.9-1 .7-.7 1.1-1.7 1.1-2.9v-1.1l-2 .1c-1.6.1-2.7.3-3.4.8-.7.4-1 1.1-1 2 0 .7.2 1.3.7 1.7.3.2.9.4 1.7.4zm16.6.8v-7.4c0-1.1-.2-2-.7-2.5-.5-.5-1.2-.8-2.2-.8-1.4 0-2.4.3-3 1s-.9 1.8-.9 3.4v6.3h-1v-11.4h.9l.2 1.6h.1c.7-1.2 2.1-1.8 4-1.8 2.6 0 3.9 1.4 3.9 4.2v7.5h-1.3z" id="path23"/></g><g id="g25"><path vector-effect="non-scaling-stroke" class="st2" d="M702 208.7h-8.4v-15.3h8.4v1h-7.3v5.8h6.9v1h-6.9v6.6h7.3v.9zm17.4 0v-7.5c0-1.1-.2-1.9-.7-2.4-.4-.5-1.1-.8-2-.8-1.2 0-2 .3-2.6 1s-.8 1.7-.8 3v6.7h-1.1v-7.8c0-1.9-.9-2.9-2.6-2.9-1.2 0-2.1.3-2.6 1s-.8 1.8-.8 3.3v6.3h-1v-11.4h.9l.2 1.6h.1c.3-.6.8-1 1.3-1.3.6-.3 1.2-.5 1.9-.5 1.8 0 3 .7 3.5 2 .4-.7.9-1.1 1.5-1.5.6-.3 1.3-.5 2.1-.5 1.2 0 2.2.3 2.8 1s.9 1.7.9 3.2v7.5h-1zm9.6.2c-1.8 0-3-.7-3.8-2h-.1v6.9h-1v-16.6h.9l.2 1.6h.1c.8-1.2 2-1.8 3.8-1.8 1.5 0 2.7.5 3.5 1.5.8 1 1.2 2.5 1.2 4.4 0 1.9-.4 3.3-1.3 4.4-.8 1.1-2 1.6-3.5 1.6zm0-.9c1.2 0 2.1-.4 2.7-1.3s1-2.1 1-3.6c0-3.3-1.2-5-3.6-5-1.3 0-2.3.4-2.9 1.1-.6.7-.9 1.9-.9 3.6v.3c0 1.8.3 3.1.9 3.8.5.7 1.5 1.1 2.8 1.1zm7.8-13.9c0-.7.2-1 .7-1 .2 0 .4.1.5.3s.2.4.2.7c0 .3-.1.6-.2.7s-.3.3-.5.3c-.5 0-.7-.3-.7-1zm1.2 14.6h-1v-11.4h1v11.4zm8.3-11.6c.5 0 1 0 1.6.1l-.2 1c-.5-.1-1-.2-1.5-.2-1 0-1.8.4-2.4 1.2s-.9 1.9-.9 3.1v6.3h-1v-11.4h.9l.1 2.1h.1c.5-.8 1-1.4 1.5-1.8.4-.3 1-.4 1.8-.4zm8.5 11.8c-1.7 0-2.9-.5-3.9-1.5-.9-1-1.4-2.5-1.4-4.3 0-1.8.4-3.3 1.3-4.4.9-1.1 2.1-1.6 3.6-1.6 1.3 0 2.4.5 3.2 1.4.8.9 1.2 2.2 1.2 3.8v.8h-8.2c0 1.6.4 2.8 1.1 3.6.7.8 1.7 1.2 3.1 1.2.7 0 1.2 0 1.7-.1s1.1-.3 1.9-.6v.9c-.6.3-1.2.5-1.8.6-.6.1-1.2.2-1.8.2zm-.3-10.9c-1.1 0-2 .4-2.6 1.1-.7.7-1.1 1.8-1.2 3.1h7c0-1.3-.3-2.4-.9-3.1-.5-.8-1.3-1.1-2.3-1.1zm21.8 6.7c0 1.3-.5 2.3-1.4 3-.9.7-2.2 1.1-3.7 1.1-1.9 0-3.3-.2-4.3-.6v-1.1c1.1.5 2.5.7 4.2.7 1.3 0 2.3-.3 3-.9s1.1-1.3 1.1-2.3c0-.6-.1-1.1-.4-1.4-.2-.4-.6-.7-1.2-1-.6-.3-1.4-.7-2.4-1-1.6-.5-2.6-1.1-3.2-1.7s-.9-1.5-.9-2.5c0-1.1.4-2.1 1.3-2.8s2.1-1.1 3.5-1.1 2.8.3 4.1.8l-.4.9c-1.3-.5-2.5-.8-3.7-.8-1.1 0-2 .3-2.7.8-.7.5-1 1.2-1 2.1 0 .6.1 1 .3 1.4.2.4.5.7 1 1s1.3.6 2.4 1c1.2.4 2.1.8 2.7 1.2.6.4 1 .8 1.3 1.3.2.6.4 1.2.4 1.9zm6 3.3c.7 0 1.2-.1 1.7-.2v.8c-.5.2-1.1.3-1.7.3-1 0-1.8-.3-2.2-.8-.5-.5-.7-1.4-.7-2.5v-7.4h-1.7v-.6l1.7-.5.5-2.6h.5v2.8h3.3v.9h-3.3v7.2c0 .9.2 1.5.5 1.9.2.5.7.7 1.4.7zm11.1.7l-.3-1.8h-.1c-.6.7-1.2 1.3-1.8 1.6-.6.3-1.3.5-2.1.5-1.1 0-2-.3-2.6-.9-.6-.6-.9-1.4-.9-2.4 0-1.1.5-2 1.4-2.6.9-.6 2.3-.9 4-1l2.2-.1v-.8c0-1.1-.2-1.9-.7-2.5-.4-.6-1.2-.8-2.1-.8-1.1 0-2.2.3-3.3.9l-.4-.9c1.3-.6 2.5-.9 3.7-.9 1.3 0 2.2.3 2.8 1s.9 1.7.9 3v7.6h-.7zm-4.2-.8c1.2 0 2.2-.3 2.9-1 .7-.7 1.1-1.7 1.1-2.9v-1.1l-2 .1c-1.6.1-2.7.3-3.4.8-.7.4-1 1.1-1 2 0 .7.2 1.3.7 1.7.3.2.9.4 1.7.4zm11.6.1c.7 0 1.2-.1 1.7-.2v.8c-.5.2-1.1.3-1.7.3-1 0-1.8-.3-2.2-.8-.5-.5-.7-1.4-.7-2.5v-7.4h-1.7v-.6l1.7-.5.5-2.6h.5v2.8h3.3v.9h-3.3v7.2c0 .9.2 1.5.5 1.9.3.5.8.7 1.4.7zm8.8.9c-1.7 0-2.9-.5-3.9-1.5-.9-1-1.4-2.5-1.4-4.3 0-1.8.4-3.3 1.3-4.4.9-1.1 2.1-1.6 3.6-1.6 1.3 0 2.4.5 3.2 1.4.8.9 1.2 2.2 1.2 3.8v.8h-8.2c0 1.6.4 2.8 1.1 3.6.7.8 1.7 1.2 3.1 1.2.7 0 1.2 0 1.7-.1s1.1-.3 1.9-.6v.9c-.6.3-1.2.5-1.8.6-.5.1-1.1.2-1.8.2zm-.3-10.9c-1.1 0-2 .4-2.6 1.1-.7.7-1.1 1.8-1.2 3.1h7c0-1.3-.3-2.4-.9-3.1-.5-.8-1.3-1.1-2.3-1.1zm13.3-4.7h4.2c1.9 0 3.3.3 4.2 1 .9.6 1.3 1.6 1.3 2.9 0 .9-.3 1.6-.8 2.2s-1.3 1-2.4 1.1v.1c1.2.2 2.1.6 2.7 1.2.6.6.9 1.4.9 2.5 0 1.4-.5 2.5-1.4 3.3-.9.8-2.3 1.1-4 1.1h-4.7v-15.4zm1.1 6.9h3.4c1.4 0 2.5-.2 3.1-.7.7-.5 1-1.2 1-2.3 0-1-.4-1.8-1.1-2.2-.7-.5-1.8-.7-3.3-.7h-3.1v5.9zm0 .9v6.6h3.6c2.8 0 4.3-1.2 4.3-3.5 0-2.1-1.5-3.2-4.5-3.2h-3.4zm13.1-3.8v7.4c0 1.1.2 2 .7 2.5s1.2.8 2.2.8c1.4 0 2.4-.3 3-1 .6-.7 1-1.8 1-3.3v-6.3h1v11.4h-.9l-.2-1.6h-.1c-.7 1.2-2.1 1.8-4 1.8-2.6 0-3.9-1.4-3.9-4.2v-7.4h1.2zm11.6-3.2c0-.7.2-1 .7-1 .2 0 .4.1.5.3s.2.4.2.7c0 .3-.1.6-.2.7s-.3.3-.5.3c-.5 0-.7-.3-.7-1zm1.2 14.6h-1v-11.4h1v11.4zm4.8 0h-1v-16.3h1v16.3zm8-11.6c.8 0 1.5.2 2.1.5.6.3 1.1.8 1.6 1.5h.1c0-.9-.1-1.7-.1-2.6v-4.1h1v16.3h-.7l-.3-1.7h-.1c-.9 1.3-2.1 2-3.7 2s-2.8-.5-3.6-1.5c-.8-1-1.2-2.4-1.2-4.3 0-2 .4-3.5 1.2-4.5.9-1.1 2.1-1.6 3.7-1.6zm0 .9c-1.2 0-2.2.4-2.8 1.3-.6.9-.9 2.1-.9 3.8 0 3.2 1.3 4.8 3.8 4.8 1.3 0 2.2-.4 2.8-1.1.6-.7.9-2 .9-3.7v-.1c0-1.8-.3-3-.9-3.8s-1.6-1.2-2.9-1.2zm8.5-3.9c0-.7.2-1 .7-1 .2 0 .4.1.5.3s.2.4.2.7c0 .3-.1.6-.2.7s-.3.3-.5.3c-.5 0-.7-.3-.7-1zm1.2 14.6h-1v-11.4h1v11.4zm11.7 0v-7.4c0-1.1-.2-2-.7-2.5-.5-.5-1.2-.8-2.2-.8-1.4 0-2.4.3-3 1s-.9 1.8-.9 3.4v6.3h-1v-11.4h.9l.2 1.6h.1c.7-1.2 2.1-1.8 4-1.8 2.6 0 3.9 1.4 3.9 4.2v7.5h-1.3zm13.6-11.4v.7l-2.4.1c.6.8.9 1.6.9 2.6 0 1.1-.4 2-1.1 2.7-.7.7-1.7 1-2.9 1-.5 0-.9 0-1.1-.1-.4.2-.7.5-.9.8s-.3.6-.3.9c0 .4.1.6.4.8s.7.3 1.4.3h2c1.2 0 2.2.3 2.8.8s1 1.2 1 2.2c0 1.2-.5 2.1-1.5 2.8-1 .7-2.4 1-4.2 1-1.4 0-2.5-.3-3.3-.8-.8-.6-1.2-1.3-1.2-2.3 0-.8.2-1.4.7-2 .5-.5 1.1-.9 2-1.1-.3-.1-.6-.4-.8-.6-.2-.3-.3-.6-.3-.9 0-.8.5-1.4 1.5-2-.7-.3-1.2-.7-1.6-1.3-.4-.6-.6-1.3-.6-2 0-1.1.4-2.1 1.1-2.7.7-.7 1.7-1 2.9-1 .7 0 1.3.1 1.7.2h3.8zm-9.2 13.3c0 1.6 1.2 2.3 3.5 2.3 3 0 4.5-1 4.5-2.9 0-.7-.2-1.2-.7-1.5s-1.2-.5-2.3-.5h-1.9c-2 .1-3.1 1-3.1 2.6zm.9-9.8c0 .9.3 1.6.8 2.1s1.3.7 2.1.7c1 0 1.7-.2 2.2-.7s.8-1.2.8-2.1c0-1-.3-1.7-.8-2.2-.5-.5-1.3-.7-2.2-.7-.9 0-1.6.3-2.1.8-.6.5-.8 1.2-.8 2.1z" id="path27"/></g><g id="g29"><path vector-effect="non-scaling-stroke" class="st2" d="M733.2 46.9h-1.1V31.5h8.4v1h-7.3V39h6.9v1h-6.9v6.9zm13.9-11.7c.5 0 1 0 1.6.1l-.2 1c-.5-.1-1-.2-1.5-.2-1 0-1.8.4-2.4 1.2s-.9 1.9-.9 3.1v6.3h-1V35.5h.9l.1 2.1h.1c.5-.8 1-1.4 1.5-1.8.4-.4 1.1-.6 1.8-.6zm10.8 11.7l-.3-1.8h-.1c-.6.7-1.2 1.3-1.8 1.6-.6.3-1.3.5-2.1.5-1.1 0-2-.3-2.6-.9-.6-.6-.9-1.4-.9-2.4 0-1.1.5-2 1.4-2.6.9-.6 2.3-.9 4-1l2.2-.1v-.8c0-1.1-.2-1.9-.7-2.5-.4-.6-1.2-.8-2.1-.8-1.1 0-2.2.3-3.3.9l-.4-.9c1.3-.6 2.5-.9 3.7-.9 1.3 0 2.2.3 2.8 1s.9 1.7.9 3v7.6h-.7zm-4.2-.8c1.2 0 2.2-.3 2.9-1 .7-.7 1.1-1.7 1.1-2.9v-1.1l-2 .1c-1.6.1-2.7.3-3.4.8-.7.4-1 1.1-1 2 0 .7.2 1.3.7 1.7.3.2.9.4 1.7.4zm16.6.8v-7.4c0-1.1-.2-2-.7-2.5-.5-.5-1.2-.8-2.2-.8-1.4 0-2.4.3-3 1s-.9 1.8-.9 3.4v6.3h-1V35.5h.9l.2 1.6h.1c.7-1.2 2.1-1.8 4-1.8 2.6 0 3.9 1.4 3.9 4.2V47h-1.3zm9.3.2c-1.6 0-2.9-.5-3.8-1.5s-1.4-2.5-1.4-4.3c0-1.9.5-3.4 1.4-4.4s2.3-1.6 3.9-1.6c1 0 1.9.2 2.8.5l-.3.9c-1-.3-1.8-.5-2.6-.5-1.4 0-2.5.4-3.2 1.3-.7.9-1.1 2.1-1.1 3.7 0 1.5.4 2.7 1.1 3.6.7.9 1.7 1.3 3 1.3 1 0 2-.2 2.9-.6v1c-.6.4-1.5.6-2.7.6zm1.1 2.8c0 .7-.2 1.2-.7 1.6-.5.4-1.1.5-2 .5-.5 0-.8 0-1-.1V51c.2.1.5.1 1 .1s1-.1 1.2-.3c.3-.2.4-.5.4-.8 0-.7-.7-1.1-2-1.3l1-1.8h1l-.7 1.2c1.2.2 1.8.9 1.8 1.8zm14-8.8c0 1.9-.5 3.3-1.4 4.4-.9 1-2.1 1.6-3.7 1.6-1 0-1.9-.2-2.6-.7-.8-.5-1.3-1.2-1.8-2.1s-.6-1.9-.6-3.1c0-1.9.5-3.3 1.4-4.3.9-1 2.1-1.6 3.7-1.6s2.8.5 3.7 1.6 1.3 2.4 1.3 4.2zm-9 0c0 1.6.3 2.8 1 3.7.7.9 1.7 1.3 2.9 1.3s2.2-.4 2.9-1.3c.7-.9 1-2.1 1-3.7s-.3-2.8-1-3.7c-.7-.9-1.7-1.3-2.9-1.3s-2.2.4-2.9 1.3c-.7.9-1 2.2-1 3.7zm12-8.8c0-.7.2-1 .7-1 .2 0 .4.1.5.3s.2.4.2.7c0 .3-.1.6-.2.7s-.3.3-.5.3c-.5 0-.7-.3-.7-1zm1.2 14.6h-1V35.5h1v11.4zm10.8-3c0 1-.4 1.8-1.2 2.4s-1.9.8-3.3.8c-1.5 0-2.7-.2-3.6-.7v-1.1c1.1.6 2.4.9 3.6.9 1.1 0 2-.2 2.6-.6.6-.4.9-.9.9-1.5s-.2-1.1-.7-1.4-1.2-.8-2.3-1.2c-1.1-.4-1.9-.8-2.4-1.1-.5-.3-.8-.6-1-1s-.4-.8-.4-1.4c0-.9.4-1.5 1.1-2s1.7-.7 3-.7c1.2 0 2.4.2 3.5.7l-.4.9c-1.1-.5-2.2-.7-3.1-.7-.9 0-1.7.2-2.2.5-.5.3-.8.7-.8 1.3 0 .6.2 1.1.6 1.4s1.3.8 2.5 1.2c1 .4 1.8.7 2.2 1 .5.3.8.6 1.1 1 .2.3.3.8.3 1.3zm7.6 3.2c-1.7 0-2.9-.5-3.9-1.5-.9-1-1.4-2.5-1.4-4.3 0-1.8.4-3.3 1.3-4.4.9-1.1 2.1-1.6 3.6-1.6 1.3 0 2.4.5 3.2 1.4.8.9 1.2 2.2 1.2 3.8v.8h-8.2c0 1.6.4 2.8 1.1 3.6.7.8 1.7 1.2 3.1 1.2.7 0 1.2 0 1.7-.1s1.1-.3 1.9-.6v.9c-.6.3-1.2.5-1.8.6-.6.1-1.2.2-1.8.2zm-.3-10.9c-1.1 0-2 .4-2.6 1.1-.7.7-1.1 1.8-1.2 3.1h7c0-1.3-.3-2.4-.9-3.1-.5-.8-1.3-1.1-2.3-1.1zm24.5 10.7h-1.1l-9.1-13.6h-.1c.1 1.6.1 2.8.1 3.7v9.9h-1V31.5h1.1l9.1 13.6h.1c-.1-1.3-.1-2.5-.1-3.6v-10h1v15.4zm3.9-14.6c0-.7.2-1 .7-1 .2 0 .4.1.5.3s.2.4.2.7c0 .3-.1.6-.2.7s-.3.3-.5.3c-.5 0-.7-.3-.7-1zm1.2 14.6h-1V35.5h1v11.4zm8.4.2c-1.7 0-2.9-.5-3.9-1.5-.9-1-1.4-2.5-1.4-4.3 0-1.8.4-3.3 1.3-4.4.9-1.1 2.1-1.6 3.6-1.6 1.3 0 2.4.5 3.2 1.4.8.9 1.2 2.2 1.2 3.8v.8h-8.2c0 1.6.4 2.8 1.1 3.6.7.8 1.7 1.2 3.1 1.2.7 0 1.2 0 1.7-.1s1.1-.3 1.9-.6v.9c-.6.3-1.2.5-1.8.6-.5.1-1.1.2-1.8.2zm-.3-10.9c-1.1 0-2 .4-2.6 1.1-.7.7-1.1 1.8-1.2 3.1h7c0-1.3-.3-2.4-.9-3.1-.5-.8-1.3-1.1-2.3-1.1zm8.5 10.7h-1V30.5h1v16.4zm4.9 0h-1V30.5h1v16.4zm1.9-11.4h1.1l2.4 6.4c.7 2 1.2 3.3 1.4 4h.1c.3-.9.8-2.2 1.4-4l2.4-6.3h1.1l-5.1 13.2c-.4 1.1-.8 1.8-1 2.2-.3.4-.6.7-1 .8-.4.2-.8.3-1.4.3-.4 0-.8-.1-1.3-.2V51c.4.1.8.2 1.3.2.4 0 .7-.1.9-.3s.5-.4.7-.8c.2-.4.5-.9.8-1.7.3-.8.5-1.3.6-1.5L870 35.5z" id="path31"/></g><g id="g33"><path vector-effect="non-scaling-stroke" class="st2" d="M632.3 305h-1.1l-9.1-13.6h-.1c.1 1.6.1 2.8.1 3.7v9.9h-1v-15.3h1.1l9.1 13.6h.1c-.1-1.3-.1-2.5-.1-3.6v-10h1V305zm3.9-14.6c0-.7.2-1 .7-1 .2 0 .4.1.5.3s.2.4.2.7c0 .3-.1.6-.2.7s-.3.3-.5.3c-.5 0-.7-.3-.7-1zm1.2 14.6h-1v-11.4h1V305zm8.4.2c-1.6 0-2.9-.5-3.8-1.5s-1.4-2.5-1.4-4.3c0-1.9.5-3.4 1.4-4.4s2.3-1.6 3.9-1.6c1 0 1.9.2 2.8.5l-.3.9c-1-.3-1.8-.5-2.6-.5-1.4 0-2.5.4-3.2 1.3-.7.9-1.1 2.1-1.1 3.7 0 1.5.4 2.7 1.1 3.6.7.9 1.7 1.3 3 1.3 1 0 2-.2 2.9-.6v1c-.6.4-1.6.6-2.7.6zm6.6-5.2l5.8-6.4h1.3l-4.5 4.9 4.9 6.5h-1.2l-4.3-5.8-1.9 1.7v4.1h-1v-16.3h1v8.2l-.1 3.1zm21.3-2.8h5.7v7c-1.5.6-3.2.9-5 .9-2.4 0-4.3-.7-5.6-2.1s-1.9-3.3-1.9-5.8c0-1.6.3-2.9 1-4.1s1.6-2.1 2.7-2.8 2.6-1 4.1-1c1.7 0 3.2.3 4.5.9l-.4 1c-1.3-.6-2.7-.9-4.1-.9-2 0-3.6.6-4.8 1.9-1.2 1.2-1.8 2.9-1.8 5 0 2.3.6 4 1.7 5.2s2.8 1.7 5 1.7c1.4 0 2.6-.2 3.6-.6v-5.4h-4.6v-.9zm13.8 8c-1.7 0-2.9-.5-3.9-1.5-.9-1-1.4-2.5-1.4-4.3 0-1.8.4-3.3 1.3-4.4.9-1.1 2.1-1.6 3.6-1.6 1.3 0 2.4.5 3.2 1.4.8.9 1.2 2.2 1.2 3.8v.8h-8.2c0 1.6.4 2.8 1.1 3.6.7.8 1.7 1.2 3.1 1.2.7 0 1.2 0 1.7-.1s1.1-.3 1.9-.6v.9c-.6.3-1.2.5-1.8.6-.5.1-1.1.2-1.8.2zm-.3-10.9c-1.1 0-2 .4-2.6 1.1-.7.7-1.1 1.8-1.2 3.1h7c0-1.3-.3-2.4-.9-3.1-.5-.8-1.3-1.1-2.3-1.1zm15.5 10.7v-7.4c0-1.1-.2-2-.7-2.5-.5-.5-1.2-.8-2.2-.8-1.4 0-2.4.3-3 1s-.9 1.8-.9 3.4v6.3h-1v-11.4h.9l.2 1.6h.1c.7-1.2 2.1-1.8 4-1.8 2.6 0 3.9 1.4 3.9 4.2v7.5h-1.3zm7.7-.8c.7 0 1.2-.1 1.7-.2v.8c-.5.2-1.1.3-1.7.3-1 0-1.8-.3-2.2-.8-.5-.5-.7-1.4-.7-2.5v-7.4h-1.7v-.6l1.7-.5.5-2.6h.5v2.8h3.3v.9h-3.3v7.2c0 .9.2 1.5.5 1.9.3.5.7.7 1.4.7zm8.7-10.9c.5 0 1 0 1.6.1l-.2 1c-.5-.1-1-.2-1.5-.2-1 0-1.8.4-2.4 1.2s-.9 1.9-.9 3.1v6.3h-1v-11.4h.9l.1 2.1h.1c.5-.8 1-1.4 1.5-1.8.4-.2 1-.4 1.8-.4zm1.9.3h1.1l2.4 6.4c.7 2 1.2 3.3 1.4 4h.1c.3-.9.8-2.2 1.4-4l2.4-6.3h1.1l-5.1 13.2c-.4 1.1-.8 1.8-1 2.2-.3.4-.6.7-1 .8-.4.2-.8.3-1.4.3-.4 0-.8-.1-1.3-.2v-1c.4.1.8.2 1.3.2.4 0 .7-.1.9-.3s.5-.4.7-.8c.2-.4.5-.9.8-1.7.3-.8.5-1.3.6-1.5l-4.4-11.3z" id="path35"/></g><g id="g37"><path vector-effect="non-scaling-stroke" class="st2" d="M419.3 89.3h-10.7v-.8l9-13.5H409v-1h10v.8l-9 13.5h9.2v1zm9.7 0l-.3-1.8h-.1c-.6.7-1.2 1.3-1.8 1.6-.6.3-1.3.5-2.1.5-1.1 0-2-.3-2.6-.9-.6-.6-.9-1.4-.9-2.4 0-1.1.5-2 1.4-2.6.9-.6 2.3-.9 4-1l2.2-.1v-.8c0-1.1-.2-1.9-.7-2.5-.4-.6-1.2-.8-2.1-.8-1.1 0-2.2.3-3.3.9l-.4-.9c1.3-.6 2.5-.9 3.7-.9 1.3 0 2.2.3 2.8 1s.9 1.7.9 3v7.6h-.7zm-4.2-.7c1.2 0 2.2-.3 2.9-1 .7-.7 1.1-1.7 1.1-2.9v-1.1l-2 .1c-1.6.1-2.7.3-3.4.8-.7.4-1 1.1-1 2 0 .7.2 1.3.7 1.7.3.2.9.4 1.7.4zm16.6.7v-7.4c0-1.1-.2-2-.7-2.5-.5-.5-1.2-.8-2.2-.8-1.4 0-2.4.3-3 1s-.9 1.8-.9 3.4v6.3h-1V73h1v5.2l-.1 1.5h.1c.4-.7 1-1.2 1.6-1.5s1.5-.5 2.4-.5c2.6 0 3.9 1.4 3.9 4.2v7.5h-1.1zm11.6 0l-.3-1.8h-.1c-.6.7-1.2 1.3-1.8 1.6-.6.3-1.3.5-2.1.5-1.1 0-2-.3-2.6-.9-.6-.6-.9-1.4-.9-2.4 0-1.1.5-2 1.4-2.6.9-.6 2.3-.9 4-1l2.2-.1v-.8c0-1.1-.2-1.9-.7-2.5-.4-.6-1.2-.8-2.1-.8-1.1 0-2.2.3-3.3.9l-.4-.9c1.3-.6 2.5-.9 3.7-.9 1.3 0 2.2.3 2.8 1s.9 1.7.9 3v7.6h-.7zm-4.2-.7c1.2 0 2.2-.3 2.9-1 .7-.7 1.1-1.7 1.1-2.9v-1.1l-2 .1c-1.6.1-2.7.3-3.4.8-.7.4-1 1.1-1 2 0 .7.2 1.3.7 1.7.3.2 1 .4 1.7.4zm25.7.7h-1.1v-7.5h-9v7.5h-1.1V74h1.1v6.8h9V74h1.1v15.3zm11 0l-.3-1.8h-.1c-.6.7-1.2 1.3-1.8 1.6-.6.3-1.3.5-2.1.5-1.1 0-2-.3-2.6-.9-.6-.6-.9-1.4-.9-2.4 0-1.1.5-2 1.4-2.6.9-.6 2.3-.9 4-1l2.2-.1v-.8c0-1.1-.2-1.9-.7-2.5-.4-.6-1.2-.8-2.1-.8-1.1 0-2.2.3-3.3.9l-.4-.9c1.3-.6 2.5-.9 3.7-.9 1.3 0 2.2.3 2.8 1s.9 1.7.9 3v7.6h-.7zm-4.2-.7c1.2 0 2.2-.3 2.9-1 .7-.7 1.1-1.7 1.1-2.9v-1.1l-2 .1c-1.6.1-2.7.3-3.4.8-.7.4-1 1.1-1 2 0 .7.2 1.3.7 1.7.2.2.9.4 1.7.4zm12.8-10.9c.8 0 1.5.2 2.1.5.6.3 1.1.8 1.6 1.5h.1c0-.9-.1-1.7-.1-2.6V73h1v16.3h-.7l-.3-1.7h-.1c-.9 1.3-2.1 2-3.7 2s-2.8-.5-3.6-1.5c-.8-1-1.2-2.4-1.2-4.3 0-2 .4-3.5 1.2-4.5.9-1.1 2.1-1.6 3.7-1.6zm0 1c-1.2 0-2.2.4-2.8 1.3-.6.9-.9 2.1-.9 3.8 0 3.2 1.3 4.8 3.8 4.8 1.3 0 2.2-.4 2.8-1.1.6-.7.9-2 .9-3.7v-.2c0-1.8-.3-3-.9-3.8s-1.6-1.1-2.9-1.1zm8.5-3.9c0-.7.2-1 .7-1 .2 0 .4.1.5.3s.2.4.2.7c0 .3-.1.6-.2.7s-.3.3-.5.3c-.5 0-.7-.4-.7-1zm1.1 14.5h-1V77.9h1v11.4zm8-11.6c.8 0 1.5.2 2.1.5.6.3 1.1.8 1.6 1.5h.1c0-.9-.1-1.7-.1-2.6V73h1v16.3h-.7l-.3-1.7h-.1c-.9 1.3-2.1 2-3.7 2s-2.8-.5-3.6-1.5c-.8-1-1.2-2.4-1.2-4.3 0-2 .4-3.5 1.2-4.5 1-1.1 2.2-1.6 3.7-1.6zm0 1c-1.2 0-2.2.4-2.8 1.3-.6.9-.9 2.1-.9 3.8 0 3.2 1.3 4.8 3.8 4.8 1.3 0 2.2-.4 2.8-1.1.6-.7.9-2 .9-3.7v-.2c0-1.8-.3-3-.9-3.8s-1.5-1.1-2.9-1.1z" id="path39"/></g><g id="g41"><path vector-effect="non-scaling-stroke" class="st2" d="M515.2 32.2H509l-2.1 5.4h-1.2l6.2-15.4h.7l6 15.4h-1.2l-2.2-5.4zm-5.8-1h5.5l-2.1-5.5c-.2-.4-.4-1-.6-1.8-.2.7-.4 1.3-.6 1.8l-2.2 5.5zM525 26c.5 0 1 0 1.6.1l-.2 1c-.5-.1-1-.2-1.5-.2-1 0-1.8.4-2.4 1.2s-.9 1.9-.9 3.1v6.3h-1V26.2h.9l.1 2.1h.1c.5-.8 1-1.4 1.5-1.8.4-.4 1-.5 1.8-.5zm6.9 10.9c.7 0 1.2-.1 1.7-.2v.8c-.5.2-1.1.3-1.7.3-1 0-1.8-.3-2.2-.8-.5-.5-.7-1.4-.7-2.5v-7.4h-1.7v-.6l1.7-.5.5-2.6h.5v2.8h3.3v.9H530v7.2c0 .9.2 1.5.5 1.9.2.5.7.7 1.4.7zm3.2-4.7v-.9h5v.9h-5zm19.8-2.4c0 2.6-.7 4.5-2 5.8-1.3 1.3-3.3 2-5.9 2h-3.7V22.2h4.1c2.4 0 4.3.6 5.6 1.9 1.2 1.3 1.9 3.2 1.9 5.7zm-1.2 0c0-2.2-.6-3.8-1.7-5s-2.8-1.7-4.9-1.7h-2.8v13.4h2.5c4.6.1 6.9-2.1 6.9-6.7zm9 8c-1.7 0-2.9-.5-3.9-1.5-.9-1-1.4-2.5-1.4-4.3 0-1.8.4-3.3 1.3-4.4.9-1.1 2.1-1.6 3.6-1.6 1.3 0 2.4.5 3.2 1.4.8.9 1.2 2.2 1.2 3.8v.8h-8.2c0 1.6.4 2.8 1.1 3.6.7.8 1.7 1.2 3.1 1.2.7 0 1.2 0 1.7-.1s1.1-.3 1.9-.6v.9c-.6.3-1.2.5-1.8.6-.5.1-1.1.2-1.8.2zm-.3-10.9c-1.1 0-2 .4-2.6 1.1-.7.7-1.1 1.8-1.2 3.1h7c0-1.3-.3-2.4-.9-3.1-.5-.7-1.3-1.1-2.3-1.1zm12.1 10.9c-1.6 0-2.9-.5-3.8-1.5s-1.4-2.5-1.4-4.3c0-1.9.5-3.4 1.4-4.4s2.3-1.6 3.9-1.6c1 0 1.9.2 2.8.5l-.3.9c-1-.3-1.8-.5-2.6-.5-1.4 0-2.5.4-3.2 1.3-.7.9-1.1 2.1-1.1 3.7 0 1.5.4 2.7 1.1 3.6.7.9 1.7 1.3 3 1.3 1 0 2-.2 2.9-.6v1c-.6.4-1.6.6-2.7.6zm15-5.9c0 1.9-.5 3.3-1.4 4.4-.9 1-2.1 1.6-3.7 1.6-1 0-1.9-.2-2.6-.7-.8-.5-1.3-1.2-1.8-2.1s-.6-1.9-.6-3.1c0-1.9.5-3.3 1.4-4.3.9-1 2.1-1.6 3.7-1.6s2.8.5 3.7 1.6 1.3 2.3 1.3 4.2zm-9 0c0 1.6.3 2.8 1 3.7.7.9 1.7 1.3 2.9 1.3s2.2-.4 2.9-1.3c.7-.9 1-2.1 1-3.7s-.3-2.8-1-3.7c-.7-.9-1.7-1.3-2.9-1.3s-2.2.4-2.9 1.3c-.6.9-1 2.1-1 3.7z" id="path43"/></g><path vector-effect="non-scaling-stroke" class="st0" d="M130.2 58.7L104.4 85l-2.1-42.4m486.5 95.7L561 167.8l-8.5-21.6zM207 209.5l41.5 6.7-18.3 16.2-23.2-22.9m423.7-129v29.4l-30-16.3z" id="path45"/><g id="g47"><path vector-effect="non-scaling-stroke" class="st2" d="M246.1 253.2H245v-14.3h-5v-1h11v1h-5v14.3zm13.9 0l-.3-1.8h-.1c-.6.7-1.2 1.3-1.8 1.6-.6.3-1.3.5-2.1.5-1.1 0-2-.3-2.6-.9-.6-.6-.9-1.4-.9-2.4 0-1.1.5-2 1.4-2.6.9-.6 2.3-.9 4-1l2.2-.1v-.8c0-1.1-.2-1.9-.7-2.5-.4-.6-1.2-.8-2.1-.8-1.1 0-2.2.3-3.3.9l-.4-.9c1.3-.6 2.5-.9 3.7-.9 1.3 0 2.2.3 2.8 1s.9 1.7.9 3v7.6h-.7zm-4.2-.7c1.2 0 2.2-.3 2.9-1 .7-.7 1.1-1.7 1.1-2.9v-1.1l-2 .1c-1.6.1-2.7.3-3.4.8-.7.4-1 1.1-1 2 0 .7.2 1.3.7 1.7.3.2.9.4 1.7.4zm13.1-10.9c.5 0 1 0 1.6.1l-.2 1c-.5-.1-1-.2-1.5-.2-1 0-1.8.4-2.4 1.2s-.9 1.9-.9 3.1v6.3h-1v-11.4h.9l.1 2.1h.1c.5-.8 1-1.4 1.5-1.8.4-.2 1.1-.4 1.8-.4zm10.8 11.6l-.3-1.8h-.1c-.6.7-1.2 1.3-1.8 1.6-.6.3-1.3.5-2.1.5-1.1 0-2-.3-2.6-.9-.6-.6-.9-1.4-.9-2.4 0-1.1.5-2 1.4-2.6.9-.6 2.3-.9 4-1l2.2-.1v-.8c0-1.1-.2-1.9-.7-2.5-.4-.6-1.2-.8-2.1-.8-1.1 0-2.2.3-3.3.9l-.4-.9c1.3-.6 2.5-.9 3.7-.9 1.3 0 2.2.3 2.8 1s.9 1.7.9 3v7.6h-.7zm-4.2-.7c1.2 0 2.2-.3 2.9-1 .7-.7 1.1-1.7 1.1-2.9v-1.1l-2 .1c-1.6.1-2.7.3-3.4.8-.7.4-1 1.1-1 2 0 .7.2 1.3.7 1.7.3.2.9.4 1.7.4zm16.6.7v-7.4c0-1.1-.2-2-.7-2.5-.5-.5-1.2-.8-2.2-.8-1.4 0-2.4.3-3 1s-.9 1.8-.9 3.4v6.3h-1v-11.4h.9l.2 1.6h.1c.7-1.2 2.1-1.8 4-1.8 2.6 0 3.9 1.4 3.9 4.2v7.5h-1.3zm7.8-.7c.7 0 1.2-.1 1.7-.2v.8c-.5.2-1.1.3-1.7.3-1 0-1.8-.3-2.2-.8-.5-.5-.7-1.4-.7-2.5v-7.4h-1.7v-.6l1.7-.5.5-2.6h.5v2.8h3.3v.9H298v7.2c0 .9.2 1.5.5 1.9.2.5.7.7 1.4.7zm4-13.8c0-.7.2-1 .7-1 .2 0 .4.1.5.3s.2.4.2.7c0 .3-.1.6-.2.7s-.3.3-.5.3c-.5 0-.7-.4-.7-1zm1.2 14.5h-1v-11.4h1v11.4zm11.7 0v-7.4c0-1.1-.2-2-.7-2.5-.5-.5-1.2-.8-2.2-.8-1.4 0-2.4.3-3 1s-.9 1.8-.9 3.4v6.3h-1v-11.4h.9l.2 1.6h.1c.7-1.2 2.1-1.8 4-1.8 2.6 0 3.9 1.4 3.9 4.2v7.5h-1.3zm14.2-5.7c0 1.9-.5 3.3-1.4 4.4-.9 1-2.1 1.6-3.7 1.6-1 0-1.9-.2-2.6-.7-.8-.5-1.3-1.2-1.8-2.1s-.6-1.9-.6-3.1c0-1.9.5-3.3 1.4-4.3.9-1 2.1-1.6 3.7-1.6s2.8.5 3.7 1.6 1.3 2.4 1.3 4.2zm-9 0c0 1.6.3 2.8 1 3.7.7.9 1.7 1.3 2.9 1.3s2.2-.4 2.9-1.3c.7-.9 1-2.1 1-3.7s-.3-2.8-1-3.7c-.7-.9-1.7-1.3-2.9-1.3s-2.2.4-2.9 1.3c-.7.9-1 2.1-1 3.7z" id="path49"/></g><circle vector-effect="non-scaling-stroke" id="path3405" cx="51.8" cy="15.079" r="4.933" fill="#fff" fill-rule="evenodd" stroke="#000" stroke-width=".6"/><circle vector-effect="non-scaling-stroke" id="path3405-3" cx="6.451" cy="186.987" r="4.933" fill="#fff" fill-rule="evenodd" stroke="#000" stroke-width=".6"/><circle vector-effect="non-scaling-stroke" id="path3405-6" cx="189.744" cy="119.058" r="4.933" fill="#fff" fill-rule="evenodd" stroke="#000" stroke-width=".6"/><circle vector-effect="non-scaling-stroke" id="path3405-7" cx="164.698" cy="77.315" r="4.933" fill="#fff" fill-rule="evenodd" stroke="#000" stroke-width=".6"/><circle vector-effect="non-scaling-stroke" id="path3405-5" cx="398.463" cy="82.248" r="4.933" fill="#fff" fill-rule="evenodd" stroke="#000" stroke-width=".6"/><circle vector-effect="non-scaling-stroke" id="path3405-35" cx="494.473" cy="37.468" r="4.933" fill="#fff" fill-rule="evenodd" stroke="#000" stroke-width=".6"/><circle vector-effect="non-scaling-stroke" id="path3405-62" cx="231.108" cy="232.146" r="4.933" fill="#fff" fill-rule="evenodd" stroke="#000" stroke-width=".6"/><circle vector-effect="non-scaling-stroke" id="path3405-9" cx="452.35" cy="195.336" r="4.933" fill="#fff" fill-rule="evenodd" stroke="#000" stroke-width=".6"/><circle vector-effect="non-scaling-stroke" id="path3405-1" cx="680.802" cy="201.028" r="4.933" fill="#fff" fill-rule="evenodd" stroke="#000" stroke-width=".6"/><circle vector-effect="non-scaling-stroke" id="path3405-2" cx="611.735" cy="294.762" r="4.933" fill="#fff" fill-rule="evenodd" stroke="#000" stroke-width=".6"/><circle vector-effect="non-scaling-stroke" id="path3405-70" cx="656.515" cy="123.992" r="4.933" fill="#fff" fill-rule="evenodd" stroke="#000" stroke-width=".6"/><circle vector-effect="non-scaling-stroke" id="path3405-93" cx="721.407" cy="41.263" r="4.933" fill="#fff" fill-rule="evenodd" stroke="#000" stroke-width=".6"/></svg>