<svg version="1" xmlns="http://www.w3.org/2000/svg" viewBox="0 0 1016.7 352"><style>.st0{fill:#000}.st1{fill:none;stroke:#000;stroke-width:.7004;stroke-miterlimit:10}.st2{fill:#4e4c4b}.st3,.st4{fill:#fff;stroke:#fff;stroke-width:.989;stroke-miterlimit:10}.st4{stroke:#000;stroke-width:.7004}</style><g id="Layer_3"><path class="st0" d="M444.9 105l21 64.9-44.6-44.7"/><path d="M444.9 105l20.7 64.2"/><path class="st1" d="M70.1 19.4l124.5 68.4m74.7 173.9L112.8 113m157.6 148.2l185-165.9m-33.5 29.8l96.5 97.1m-27-27.2L746 140.6M565.6 43.5l181.1 97.1m-117 25l65.8 167.7M665.3 256l109.5-28.6m-91-120.7l134.9-58.9M157.4 67.2L14 215.5m208.4-79.1l-33.7 49.5"/><path class="st2" d="M97 13.3c0 5.2-3.3 7.9-6.5 8.4-.8.1-1.3.1-2.1.1h-4.9V5.1h4.9c.9 0 1.3 0 2 .1 3.4.4 6.6 2.8 6.6 8.1zm-1.6 0c0-4.3-2.3-6.5-5.1-6.8-.5-.1-1.1-.1-1.9-.1H85v14.1h3.3c.8 0 1.4 0 2-.1 2.8-.4 5.1-2.8 5.1-7.1zm11.7 6.1l-.6 1.3c-.9.9-2.1 1.3-3.5 1.3-2.4 0-4-1.2-4-3.5 0-2.9 2.8-4.3 7.4-4.3h.8v-2.1c-.1-1.5-1-2.3-2.8-2.3-1.8 0-3 .9-3.2 2.9h-1.6c.2-2.5 2.1-4.1 4.8-4.1 2.8 0 4.1 1.3 4.3 3.4v6.2c0 1.1.1 2 .2 3.6h-1.5l-.3-2.4zm-.1-2.6v-1.5c-3.6-.2-6.5.6-6.5 3.1 0 1.6 1 2.5 2.9 2.5 2.2 0 3.6-1.7 3.6-4.1zm15.7 4.9h-1.5v-2.4l-.8 1.4c-.9.9-2.1 1.3-3.6 1.3-3.6 0-5.7-2.8-5.7-6.5 0-4.6 2.8-6.9 6.1-6.9 1.3 0 2.5.4 3.3 1.2l.8 1.4V4h1.5v17.7zm-1.5-6v-1c0-3.6-2.2-4.8-4.1-4.8-2.5 0-4.4 2-4.4 5.5 0 3.1 1.5 5.6 4.3 5.6 2.2-.1 4.2-1.5 4.2-5.3zm12.4 3.7l-.6 1.3c-.9.9-2.1 1.3-3.5 1.3-2.4 0-4-1.2-4-3.5 0-2.9 2.8-4.3 7.4-4.3h.8v-2.1c-.1-1.5-1-2.3-2.8-2.3-1.8 0-3 .9-3.2 2.9H126c.2-2.5 2.1-4.1 4.8-4.1 2.8 0 4.1 1.3 4.3 3.4v6.2c0 1.1.1 2 .2 3.6h-1.5l-.2-2.4zm0-2.6v-1.5c-3.6-.2-6.5.6-6.5 3.1 0 1.6 1 2.5 2.9 2.5 2.1 0 3.6-1.7 3.6-4.1zm85.6 74.5h-1.5v-7.5H208v7.5h-1.5V74.7h1.5v7.8h9.7v-7.8h1.5v16.6zm10.9-2.3l-.6 1.3c-.9.9-2.1 1.3-3.5 1.3-2.4 0-4-1.2-4-3.5 0-2.9 2.8-4.3 7.4-4.3h.8v-2.1c-.1-1.5-1-2.3-2.8-2.3-1.8 0-3 .9-3.2 2.9h-1.6c.2-2.5 2.1-4.1 4.8-4.1 2.8 0 4.1 1.3 4.3 3.4v6.2c0 1.1.1 2 .2 3.6h-1.5l-.3-2.4zm0-2.6V85c-3.6-.2-6.5.6-6.5 3.1 0 1.6 1 2.5 2.9 2.5 2.1-.1 3.6-1.8 3.6-4.2zm15.3-2.2v7.1h-1.5v-8.9c-.2-1.7-1.1-3-3.3-3-2.1 0-4 1.5-4 5.5v6.3h-1.5V78.6h1.5v2.5l.7-1.4c1-1 2.2-1.4 3.6-1.4 2.7 0 4.2 1.5 4.5 3.8v2.1zm11.6-2h-1.6c-.4-1.8-1.4-2.7-3.1-2.7-1.5 0-2.6.9-2.6 2.3 0 1.5 1.2 2 3 2.5 2.9.7 4.3 1.8 4.3 3.9 0 2.3-1.9 3.5-4.5 3.5-2.5 0-4.5-1.2-4.9-4.1h1.5c.4 2.2 1.7 2.9 3.4 2.9 1.6 0 2.9-.7 2.9-2.2 0-1.4-.9-2.1-3.4-2.7-2.2-.6-4-1.5-4-3.7s1.7-3.6 4.2-3.6c3 0 4.5 1.6 4.8 3.9zm19 9.1h-12.2v-1.2L274.1 76h-9.6v-1.3h11.4V76l-10.2 14.1H276v1.2zm4-15.4c0 .6-.4 1-1 1s-1-.5-1-1c0-.6.5-1 1-1 .6-.1 1 .4 1 1zm-1.7 15.4V78.6h1.5v12.7h-1.5zm21.8-7.5v7.5h-1.5v-6.8c0-1 0-1.7-.1-2.3-.2-1.7-1.2-2.7-2.8-2.7-1.8 0-3.2 1.4-3.2 5.2v6.7H291v-6.8c0-1 0-1.7-.1-2.3-.2-1.7-1.2-2.7-2.8-2.7-1.8 0-3.2 1.4-3.2 5.2v6.7h-1.5V78.6h1.5v2.2l.7-1.4c.7-.8 1.7-1.1 2.9-1.1 2 0 3.3 1.1 3.7 2.7l1-1.6c.7-.8 1.7-1.1 2.9-1.1 2.3 0 3.6 1.4 3.8 3.4.1.6.2 1.1.2 2.1zm20.1 0v7.5h-1.5v-6.8c0-1 0-1.7-.1-2.3-.2-1.7-1.2-2.7-2.8-2.7-1.8 0-3.2 1.4-3.2 5.2v6.7h-1.5v-6.8c0-1 0-1.7-.1-2.3-.2-1.7-1.2-2.7-2.8-2.7-1.8 0-3.2 1.4-3.2 5.2v6.7h-1.5V78.6h1.5v2.2l.7-1.4c.7-.8 1.7-1.1 2.9-1.1 2 0 3.3 1.1 3.7 2.7l1-1.6c.7-.8 1.7-1.1 2.9-1.1 2.3 0 3.6 1.4 3.8 3.4.2.6.2 1.1.2 2.1zm13.6 1.6h-9.6c.2 3.8 2.1 5.1 4.1 5.1 1.8 0 3.4-1.1 3.8-3.2h1.6c-.6 3-2.9 4.4-5.5 4.4-3.2 0-5.7-2.2-5.7-6.7 0-4.1 2.5-6.7 5.9-6.7 3.6 0 5.4 2.8 5.4 6.4.1.1.1.3 0 .7zm-9.6-1.2h8.2c-.2-3.3-1.8-4.8-3.9-4.8-2.2.1-4.1 1.7-4.3 4.8zm17.7-5.8v1.2c-2.2-.2-3.8 1.2-3.8 4.6v7.2h-1.5V78.6h1.5v2.3l.9-1.6c.6-.6 1.4-1 2.2-1 .2 0 .5 0 .7.1zM43 218.9c0 5.2-3.3 7.9-6.5 8.4-.8.1-1.3.1-2.1.1h-4.9v-16.6h4.9c.9 0 1.3 0 2 .1 3.4.3 6.6 2.7 6.6 8zm-1.6 0c0-4.3-2.3-6.5-5.1-6.8-.5-.1-1.1-.1-1.9-.1H31v14.1h3.3c.8 0 1.4 0 2-.1 2.8-.4 5.1-2.8 5.1-7.1zm11.7 6.2l-.6 1.3c-.9.9-2.1 1.3-3.5 1.3-2.4 0-4-1.2-4-3.5 0-2.9 2.8-4.3 7.4-4.3h.8v-2.1c-.1-1.5-1-2.3-2.8-2.3-1.8 0-3 .9-3.2 2.9h-1.6c.2-2.5 2.1-4.1 4.8-4.1 2.8 0 4.1 1.3 4.3 3.4v6.2c0 1.1.1 2 .2 3.6h-1.5l-.3-2.4zm0-2.6V221c-3.6-.2-6.5.6-6.5 3.1 0 1.6 1 2.5 2.9 2.5 2.1-.1 3.6-1.8 3.6-4.1zm6.4 1.5v1.4c0 .8.4 1 1.5.9v1.1c-.4.1-.8.1-1.2.1-1 0-1.7-.3-1.8-1.7v-16.1h1.5V224zm14.1-2.6H64c.2 3.8 2.1 5.1 4.1 5.1 1.8 0 3.4-1.1 3.8-3.2h1.6c-.6 3-2.9 4.4-5.5 4.4-3.2 0-5.7-2.2-5.7-6.7 0-4.1 2.5-6.7 5.9-6.7 3.6 0 5.4 2.8 5.4 6.4.1.1.1.4 0 .7zm-9.6-1.1h8.2c-.2-3.3-1.8-4.8-3.9-4.8-2.2 0-4.1 1.6-4.3 4.8zm31-4.4v.2h-1.5v-.2c-.5-2.5-2.2-4.3-5.1-4.3-3.4 0-6 2.9-6 7.4 0 4.6 2.5 7.4 5.8 7.4 3.1 0 4.7-1.9 5.2-4.4v-.2h1.5v.2c-.4 3.1-2.6 5.6-6.8 5.6-4.5 0-7.4-3.5-7.4-8.6s3.2-8.7 7.7-8.7c4 .1 6.1 2.5 6.6 5.6zm13.1 4.3v7.1h-1.5v-8.9c-.2-1.7-1.1-3-3.3-3-2.1 0-4 1.5-4 5.5v6.3h-1.5v-17.8h1.5v7.5l.7-1.4c1-1 2.2-1.4 3.6-1.4 2.7 0 4.2 1.5 4.5 3.8v2.3zm5.2-8.3c0 .6-.4 1-1 1s-1-.5-1-1c0-.6.5-1 1-1 .6 0 1 .4 1 1zm-1.8 15.5v-12.7h1.5v12.7h-1.5zm15.4-7.2v7.1h-1.5v-8.9c-.2-1.7-1.1-3-3.3-3-2.1 0-4 1.5-4 5.5v6.3h-1.5v-17.8h1.5v7.5l.7-1.4c1-1 2.2-1.4 3.6-1.4 2.7 0 4.2 1.5 4.5 3.8v2.3zm13.4 7.2h-1.5v-2.5l-.7 1.4c-1 1-2.2 1.4-3.6 1.4-2.6 0-4.1-1.5-4.4-3.5-.1-.6-.1-1.1-.1-2.1v-7.4h1.5v7.1c0 .6 0 1.3.1 1.9.2 1.7 1.3 2.9 3.3 2.9 2.1 0 3.9-1.5 3.9-5.5v-6.3h1.5v12.6zm5-3.4v1.4c0 .8.4 1 1.5.9v1.1c-.4.1-.8.1-1.2.1-1 0-1.7-.3-1.8-1.7v-16.1h1.5V224zm8.7 4c-1.3 3.4-2.5 4.4-4.3 4.4-.4 0-.7 0-1-.1v-1.2h.8c1.2 0 2-.6 2.8-2.6l.3-.7-5-13.2h1.7l4.1 11.6 4.1-11.6h1.6L154 228z"/><ellipse class="st3" cx="16.6" cy="214" rx="4.7" ry="4.7"/><path class="st2" d="M243.5 133.6v2.1c-.2 2.6-1.7 4.6-5.1 4.6-3 0-4.7-1.8-4.8-5v-.9h1.5v.9c.1 2.7 1.4 3.8 3.5 3.8s3.2-1.3 3.4-3.5v-12.2h1.5v10.2zm13.4.4h-9.6c.2 3.8 2.1 5.1 4.1 5.1 1.8 0 3.4-1.1 3.8-3.2h1.6c-.6 3-2.9 4.4-5.5 4.4-3.2 0-5.7-2.2-5.7-6.7 0-4.1 2.5-6.7 5.9-6.7 3.6 0 5.4 2.8 5.4 6.4v.7zm-9.7-1.2h8.2c-.2-3.3-1.8-4.8-3.9-4.8-2.1.1-4 1.7-4.3 4.8zM265 127v1.2c-2.2-.2-3.8 1.2-3.8 4.6v7.2h-1.5v-12.7h1.5v2.3l.9-1.6c.6-.6 1.4-1 2.2-1 .2-.1.5-.1.7 0zm11.9 7h-9.6c.2 3.8 2.1 5.1 4.1 5.1 1.8 0 3.4-1.1 3.8-3.2h1.6c-.6 3-2.9 4.4-5.5 4.4-3.2 0-5.7-2.2-5.7-6.7 0-4.1 2.5-6.7 5.9-6.7 3.6 0 5.4 2.8 5.4 6.4.1.1.1.3 0 .7zm-9.6-1.2h8.2c-.2-3.3-1.8-4.8-3.9-4.8-2.2.1-4.1 1.7-4.3 4.8zm29.1-.4v7.5h-1.5v-6.8c0-1 0-1.7-.1-2.3-.2-1.7-1.2-2.7-2.8-2.7-1.8 0-3.2 1.4-3.2 5.2v6.7h-1.5v-6.8c0-1 0-1.7-.1-2.3-.2-1.7-1.2-2.7-2.8-2.7-1.8 0-3.2 1.4-3.2 5.2v6.7h-1.5v-12.7h1.5v2.2l.7-1.4c.7-.8 1.7-1.1 2.9-1.1 2 0 3.3 1.1 3.7 2.7l1-1.6c.7-.8 1.7-1.1 2.9-1.1 2.3 0 3.6 1.4 3.8 3.4.2.4.2.9.2 1.9zm8.2 8.2c-1.3 3.4-2.5 4.4-4.3 4.4-.4 0-.7 0-1-.1v-1.2h.8c1.2 0 2-.6 2.8-2.6l.3-.7-5-13.2h1.7l4.1 11.6 4.1-11.6h1.6l-5.1 13.4zm28.6-.7h-1.5v-15.3c-.6 1.9-1.5 4.3-2.3 6.3l-3.4 9h-1.9l-3.4-9c-.7-2-1.6-4.4-2.2-6.3v15.3H317v-16.6h2.4l5.6 15.4 5.6-15.4h2.4v16.6zm10.9-2.3l-.6 1.3c-.9.9-2.1 1.3-3.5 1.3-2.4 0-4-1.2-4-3.5 0-2.9 2.8-4.3 7.4-4.3h.8v-2.1c-.1-1.5-1-2.3-2.8-2.3-1.8 0-3 .9-3.2 2.9h-1.6c.2-2.5 2.1-4.1 4.8-4.1 2.8 0 4.1 1.3 4.3 3.4v6.2c0 1.1.1 2 .2 3.6h-1.5l-.3-2.4zm0-2.6v-1.5c-3.6-.2-6.5.6-6.5 3.1 0 1.6 1 2.5 2.9 2.5 2.1 0 3.6-1.7 3.6-4.1zm15.3-2.2v7.1h-1.5V131c-.2-1.7-1.1-3-3.3-3-2.1 0-4 1.5-4 5.5v6.3h-1.5v-12.7h1.5v2.5l.7-1.4c1-1 2.2-1.4 3.6-1.4 2.7 0 4.2 1.5 4.5 3.8v2.2zm13.7 0v7.1h-1.5V131c-.2-1.7-1.1-3-3.3-3-2.1 0-4 1.5-4 5.5v6.3h-1.5v-12.7h1.5v2.5l.7-1.4c1-1 2.2-1.4 3.6-1.4 2.7 0 4.2 1.5 4.5 3.8v2.2zM539.3 218.5h-1.6c-.3-2.3-1.7-3.6-3.9-3.6-1.9 0-3.7 1-3.7 3s1.2 2.8 4 3.5c3.6.9 5.3 2.3 5.3 5s-2.4 4.6-5.6 4.6c-3.4 0-5.8-1.7-6.2-4.9h1.6c.4 2.4 2.2 3.7 4.6 3.7 2.2 0 3.9-1.3 3.9-3.2 0-2.1-1.3-3.1-4.4-3.8-3.2-.8-5-1.9-5-4.6 0-2.7 2.5-4.5 5.4-4.5 3.6 0 5.3 2.1 5.6 4.8zm4.9 8.7v1.1c.1 1.2.6 1.5 2.3 1.3v1.1c-.5.1-1 .1-1.5.1-1.4 0-2.2-.6-2.3-2v-9.6h-1.6V218h1.6v-2.8h1.5v2.8h2.4v1.2h-2.4v8zm12.3 1.2l-.6 1.3c-.9.9-2.1 1.3-3.5 1.3-2.4 0-4-1.2-4-3.5 0-2.9 2.8-4.3 7.4-4.3h.8v-2.1c-.1-1.5-1-2.3-2.8-2.3-1.8 0-3 .9-3.2 2.9H549c.2-2.5 2.1-4.1 4.8-4.1 2.8 0 4.1 1.3 4.3 3.4v6.2c0 1.1.1 2 .2 3.6h-1.5l-.3-2.4zm0-2.6v-1.5c-3.6-.2-6.5.6-6.5 3.1 0 1.6 1 2.5 2.9 2.5 2.1-.1 3.6-1.8 3.6-4.1zm10.4-8.1v1.2c-2.2-.2-3.8 1.2-3.8 4.6v7.2h-1.5V218h1.5v2.3l.9-1.6c.6-.6 1.4-1 2.2-1 .2-.1.5 0 .7 0zm22.2 13h-1.9l-4-14.9-4.2 14.9h-2l-4.3-16.6h1.7l3.7 15.3 4.2-15h2l4 15 3.9-15.3h1.6l-4.7 16.6zm13.6-2.3l-.6 1.3c-.9.9-2.1 1.3-3.5 1.3-2.4 0-4-1.2-4-3.5 0-2.9 2.8-4.3 7.4-4.3h.8v-2.1c-.1-1.5-1-2.3-2.8-2.3-1.8 0-3 .9-3.2 2.9H595c.2-2.5 2.1-4.1 4.8-4.1 2.8 0 4.1 1.3 4.3 3.4v6.2c0 1.1.1 2 .2 3.6h-1.5l-.1-2.4zm0-2.6v-1.5c-3.6-.2-6.5.6-6.5 3.1 0 1.6 1 2.5 2.9 2.5 2.1-.1 3.6-1.8 3.6-4.1zm10.4-8.1v1.2c-2.2-.2-3.8 1.2-3.8 4.6v7.2h-1.5V218h1.5v2.3l.9-1.6c.6-.6 1.4-1 2.2-1 .2-.1.4 0 .7 0zm10.1 3.8h-1.6c-.4-1.8-1.4-2.7-3.1-2.7-1.5 0-2.6.9-2.6 2.3 0 1.5 1.2 2 3 2.5 2.9.7 4.3 1.8 4.3 3.9 0 2.3-1.9 3.5-4.5 3.5-2.5 0-4.5-1.2-4.9-4.1h1.5c.4 2.2 1.7 2.9 3.4 2.9 1.6 0 2.9-.7 2.9-2.2 0-1.4-.9-2.1-3.4-2.7-2.2-.6-4-1.5-4-3.7s1.7-3.6 4.2-3.6c3 0 4.5 1.7 4.8 3.9zM773.2 137.8v.2h-1.5v-.2c-.5-2.5-2.2-4.3-5.1-4.3-3.4 0-6 2.9-6 7.4 0 4.6 2.5 7.4 5.8 7.4 3.1 0 4.7-1.9 5.2-4.4v-.2h1.5v.2c-.4 3.1-2.6 5.6-6.8 5.6-4.5 0-7.4-3.5-7.4-8.6s3.2-8.7 7.7-8.7c4 .1 6.2 2.5 6.6 5.6zm13.2 4.3v7.1h-1.5v-8.9c-.2-1.7-1.1-3-3.3-3-2.1 0-4 1.5-4 5.5v6.3h-1.5v-17.8h1.5v7.5l.7-1.4c1-1 2.2-1.4 3.6-1.4 2.7 0 4.2 1.5 4.5 3.8v2.3zm8.7-5.8v1.2c-2.2-.2-3.8 1.2-3.8 4.6v7.2h-1.5v-12.7h1.5v2.3l.9-1.6c.6-.6 1.4-1 2.2-1 .3-.1.5 0 .7 0zm3.7-2.5c0 .6-.4 1-1 1s-1-.5-1-1c0-.6.5-1 1-1 .6 0 1 .4 1 1zm-1.7 15.5v-12.7h1.5v12.7h-1.5zm13.2-9.2h-1.6c-.4-1.8-1.4-2.7-3.1-2.7-1.5 0-2.6.9-2.6 2.3 0 1.5 1.2 2 3 2.5 2.9.7 4.3 1.8 4.3 3.9 0 2.3-1.9 3.5-4.5 3.5-2.5 0-4.5-1.2-4.9-4.1h1.5c.4 2.2 1.7 2.9 3.4 2.9 1.6 0 2.9-.7 2.9-2.2 0-1.4-.9-2.1-3.4-2.7-2.2-.6-4-1.5-4-3.7s1.7-3.6 4.2-3.6c3 0 4.5 1.6 4.8 3.9zm4.6 5.7v1.1c.1 1.2.6 1.5 2.3 1.3v1.1c-.5.1-1 .1-1.5.1-1.4 0-2.2-.6-2.3-2v-9.6h-1.6v-1.2h1.6v-2.8h1.5v2.8h2.4v1.2h-2.4v8zm16-2.9c0 3.7-2.1 6.7-6.2 6.7s-6.2-3-6.2-6.7c0-3.8 2.1-6.7 6.2-6.7s6.2 2.9 6.2 6.7zm-1.6 0c0-3.5-1.9-5.5-4.5-5.5s-4.5 2-4.5 5.5 1.9 5.5 4.5 5.5 4.5-2 4.5-5.5zm15.7-.2c0 4.6-2.8 6.9-6.1 6.9-1.3 0-2.5-.4-3.3-1.1l-.8-1.4v6.9h-1.5v-17.5h1.5v2.4l.8-1.4c.9-.9 2.1-1.3 3.6-1.3 3.7 0 5.8 2.7 5.8 6.5zm-1.6.2c0-3.1-1.5-5.5-4.3-5.5-2.3 0-4.2 1.3-4.2 5.2v1c0 3.6 2.2 4.9 4.1 4.9 2.5-.1 4.4-2.1 4.4-5.6zm14.3-.8v7.1h-1.5v-8.9c-.2-1.7-1.1-3-3.3-3-2.1 0-4 1.5-4 5.5v6.3h-1.5v-17.8h1.5v7.5l.7-1.4c1-1 2.2-1.4 3.6-1.4 2.7 0 4.2 1.5 4.5 3.8v2.3zm13.7 1.2h-9.6c.2 3.8 2.1 5.1 4.1 5.1 1.8 0 3.4-1.1 3.8-3.2h1.6c-.6 3-2.9 4.4-5.5 4.4-3.2 0-5.7-2.2-5.7-6.7 0-4.1 2.5-6.7 5.9-6.7 3.6 0 5.4 2.8 5.4 6.4v.7zm-9.7-1.1h8.2c-.2-3.3-1.8-4.8-3.9-4.8-2.1 0-4 1.6-4.3 4.8zm17.8-5.9v1.2c-2.2-.2-3.8 1.2-3.8 4.6v7.2h-1.5v-12.7h1.5v2.3l.9-1.6c.6-.6 1.4-1 2.2-1 .2-.1.4 0 .7 0zm17.5 13l-8.6-15.2c0 2 .1 4.5.1 6.6v8.6H887v-16.6h2.3l8.7 15.2c0-2.1-.1-4.5-.1-6.6v-8.6h1.5v16.6H897zm17.2-6.4c0 3.7-2.1 6.7-6.2 6.7s-6.2-3-6.2-6.7c0-3.8 2.1-6.7 6.2-6.7s6.2 2.9 6.2 6.7zm-1.7 0c0-3.5-1.9-5.5-4.5-5.5s-4.5 2-4.5 5.5 1.9 5.5 4.5 5.5 4.5-2 4.5-5.5zm5.5 3v1.4c0 .8.4 1 1.5.9v1.1c-.4.1-.8.1-1.2.1-1 0-1.7-.3-1.8-1.7v-16.1h1.5v14.3zm11.8 1l-.6 1.3c-.9.9-2.1 1.3-3.5 1.3-2.4 0-4-1.2-4-3.5 0-2.9 2.8-4.3 7.4-4.3h.8v-2.1c-.1-1.5-1-2.3-2.8-2.3-1.8 0-3 .9-3.2 2.9h-1.6c.2-2.5 2.1-4.1 4.8-4.1 2.8 0 4.1 1.3 4.3 3.4v6.2c0 1.1.1 2 .2 3.6H930l-.2-2.4zm-.1-2.6v-1.5c-3.6-.2-6.5.6-6.5 3.1 0 1.6 1 2.5 2.9 2.5 2.2 0 3.6-1.7 3.6-4.1zm15.3-2.2v7.1h-1.5v-8.9c-.2-1.7-1.1-3-3.3-3-2.1 0-4 1.5-4 5.5v6.3h-1.5v-12.7h1.5v2.5l.7-1.4c1-1 2.2-1.4 3.6-1.4 2.7 0 4.2 1.5 4.5 3.8v2.2zM798.4 235h-10.7v-16.6h10.5v1.2h-9v6.5h8.4v1.3h-8.4v6.5h9.3v1.1zm19.2-7.5v7.5h-1.5v-6.8c0-1 0-1.7-.1-2.3-.2-1.7-1.2-2.7-2.8-2.7-1.8 0-3.2 1.4-3.2 5.2v6.7h-1.5v-6.8c0-1 0-1.7-.1-2.3-.2-1.7-1.2-2.7-2.8-2.7-1.8 0-3.2 1.4-3.2 5.2v6.7h-1.5v-12.7h1.5v2.2l.7-1.4c.7-.8 1.7-1.1 2.9-1.1 2 0 3.3 1.1 3.7 2.7l1-1.6c.7-.8 1.7-1.1 2.9-1.1 2.3 0 3.6 1.4 3.8 3.4.2.4.2.9.2 1.9zm15 1c0 4.6-2.8 6.9-6.1 6.9-1.3 0-2.5-.4-3.3-1.1l-.8-1.4v6.9H821v-17.5h1.5v2.4l.8-1.4c.9-.9 2.1-1.3 3.6-1.3 3.6-.1 5.7 2.7 5.7 6.5zm-1.6.2c0-3.1-1.5-5.5-4.3-5.5-2.3 0-4.2 1.3-4.2 5.2v1c0 3.6 2.2 4.9 4.1 4.9 2.5-.1 4.4-2.2 4.4-5.6zm5.9-9.2c0 .6-.4 1-1 1s-1-.5-1-1c0-.6.5-1 1-1s1 .5 1 1zm-1.8 15.5v-12.7h1.5V235h-1.5zm10.4-12.9v1.2c-2.2-.2-3.8 1.2-3.8 4.6v7.2h-1.5v-12.7h1.5v2.3l.9-1.6c.6-.6 1.4-1 2.2-1 .2-.1.5-.1.7 0zm11.9 7h-9.6c.2 3.8 2.1 5.1 4.1 5.1 1.8 0 3.4-1.1 3.8-3.2h1.6c-.6 3-2.9 4.4-5.5 4.4-3.2 0-5.7-2.2-5.7-6.7 0-4.1 2.5-6.7 5.9-6.7 3.6 0 5.4 2.8 5.4 6.4.1.1.1.3 0 .7zm-9.6-1.2h8.2c-.2-3.3-1.8-4.8-3.9-4.8-2.2 0-4.1 1.6-4.3 4.8zm28.2-5h-1.6c-.3-2.3-1.7-3.6-3.9-3.6-1.9 0-3.7 1-3.7 3s1.2 2.8 4 3.5c3.6.9 5.3 2.3 5.3 5s-2.4 4.6-5.6 4.6c-3.4 0-5.8-1.7-6.2-4.9h1.6c.4 2.4 2.2 3.7 4.6 3.7 2.2 0 3.9-1.3 3.9-3.2 0-2.1-1.3-3.1-4.4-3.8-3.2-.8-5-1.9-5-4.6 0-2.7 2.5-4.5 5.4-4.5 3.5 0 5.3 2.1 5.6 4.8zm4.8 8.6v1.1c.1 1.2.6 1.5 2.3 1.3v1.1c-.5.1-1 .1-1.5.1-1.4 0-2.2-.6-2.3-2v-9.6h-1.6v-1.2h1.6v-2.8h1.5v2.8h2.4v1.2h-2.4v8zm12.4 1.2l-.6 1.3c-.9.9-2.1 1.3-3.5 1.3-2.4 0-4-1.2-4-3.5 0-2.9 2.8-4.3 7.4-4.3h.8v-2.1c-.1-1.5-1-2.3-2.8-2.3-1.8 0-3 .9-3.2 2.9h-1.6c.2-2.5 2.1-4.1 4.8-4.1 2.8 0 4.1 1.3 4.3 3.4v6.2c0 1.1.1 2 .2 3.6h-1.5l-.3-2.4zm-.1-2.6v-1.5c-3.6-.2-6.5.6-6.5 3.1 0 1.6 1 2.5 2.9 2.5 2.2 0 3.6-1.7 3.6-4.1zm7 1.4v1.1c.1 1.2.6 1.5 2.3 1.3v1.1c-.5.1-1 .1-1.5.1-1.4 0-2.2-.6-2.3-2v-9.6H897v-1.2h1.6v-2.8h1.5v2.8h2.4v1.2h-2.4v8zm14.9-2.4h-9.6c.2 3.8 2.1 5.1 4.1 5.1 1.8 0 3.4-1.1 3.8-3.2h1.6c-.6 3-2.9 4.4-5.5 4.4-3.2 0-5.7-2.2-5.7-6.7 0-4.1 2.5-6.7 5.9-6.7 3.6 0 5.4 2.8 5.4 6.4.1.1.1.3 0 .7zm-9.6-1.2h8.2c-.2-3.3-1.8-4.8-3.9-4.8-2.2 0-4.1 1.6-4.3 4.8zm29.3 2.4c0 2.9-2.1 4.4-4.4 4.6-.7.1-1.3.1-1.9.1h-5v-16.6h4.6c.7 0 1.2 0 2 .1 2.6.3 4.1 1.7 4.1 4 0 2-1.2 3.2-3 3.7 2.4.5 3.6 1.8 3.6 4.1zm-9.9-4.6h3.5c.4 0 .8 0 1.3-.1 1.7-.2 2.9-1.1 2.9-3 0-2-1.4-2.8-3.1-3h-4.6v6.1zm8.3 4.7c0-2-1.1-3.2-3.3-3.4-.6 0-.9-.1-1.3-.1h-3.8v6.8h5c1.9-.1 3.4-1.1 3.4-3.3zm14.4 4.6H946v-2.5l-.7 1.4c-1 1-2.2 1.4-3.6 1.4-2.6 0-4.1-1.5-4.4-3.5-.1-.6-.1-1.1-.1-2.1v-7.4h1.5v7.1c0 .6 0 1.3.1 1.9.2 1.7 1.3 2.9 3.3 2.9 2.1 0 3.9-1.5 3.9-5.5v-6.3h1.5V235zm5.3-15.5c0 .6-.4 1-1 1s-1-.5-1-1c0-.6.5-1 1-1s1 .5 1 1zM951 235v-12.7h1.5V235H951zm6.5-3.4v1.4c0 .8.4 1 1.5.9v1.1c-.4.1-.8.1-1.2.1-1 0-1.7-.3-1.8-1.7v-16.1h1.5v14.3zm14.4 3.4h-1.5v-2.4l-.8 1.4c-.9.9-2.1 1.3-3.6 1.3-3.6 0-5.7-2.8-5.7-6.5 0-4.6 2.8-6.9 6.1-6.9 1.3 0 2.5.4 3.3 1.2l.8 1.4v-7.2h1.5V235zm-1.5-6.1v-1c0-3.6-2.2-4.8-4.1-4.8-2.5 0-4.4 2-4.4 5.5 0 3.1 1.5 5.6 4.3 5.6 2.3 0 4.2-1.4 4.2-5.3zm6.8-9.4c0 .6-.4 1-1 1s-1-.5-1-1c0-.6.5-1 1-1 .6 0 1 .5 1 1zm-1.7 15.5v-12.7h1.5V235h-1.5zm15.3-7.1v7.1h-1.5v-8.9c-.2-1.7-1.1-3-3.3-3-2.1 0-4 1.5-4 5.5v6.3h-1.5v-12.7h1.5v2.5l.7-1.4c1-1 2.2-1.4 3.6-1.4 2.7 0 4.2 1.5 4.5 3.8v2.2zm14 3.9v3c-.1 3.4-2.2 5.4-5.7 5.4-3.2 0-5.1-1.3-5.4-4.1v-.3h1.5v.3c.2 1.9 1.7 2.9 3.9 2.9 2.7 0 4.1-1.6 4.2-4.1v-2.2l-.8 1.4c-.9.9-2.1 1.3-3.6 1.3-3.6 0-5.7-2.8-5.7-6.5 0-4.6 2.8-6.9 6.1-6.9 1.2 0 2.5.4 3.3 1.2l.8 1.4v-2.2h1.5v9.4zm-1.5-2.9v-1c0-3.6-2.2-4.8-4.1-4.8-2.5 0-4.4 2-4.4 5.5 0 3.1 1.5 5.6 4.3 5.6 2.2 0 4.2-1.4 4.2-5.3zM832.2 44.7h8.2V46h-8.2v7.7h-1.5V37h10.5v1.2h-9v6.5zm16.5-4v1.2c-2.2-.2-3.8 1.2-3.8 4.6v7.2h-1.5V40.9h1.5v2.3l.9-1.6c.6-.6 1.4-1 2.2-1 .3 0 .5 0 .7.1zm9.4 10.6l-.6 1.3c-.9.9-2.1 1.3-3.5 1.3-2.4 0-4-1.2-4-3.5 0-2.9 2.8-4.3 7.4-4.3h.8V44c-.1-1.5-1-2.3-2.8-2.3-1.8 0-3 .9-3.2 2.9h-1.6c.2-2.5 2.1-4.1 4.8-4.1 2.8 0 4.1 1.3 4.3 3.4v6.2c0 1.1.1 2 .2 3.6h-1.5l-.3-2.4zm0-2.6v-1.5c-3.6-.2-6.5.6-6.5 3.1 0 1.6 1 2.5 2.9 2.5 2.1 0 3.6-1.7 3.6-4.1zm15.3-2.2v7.1h-1.5v-8.9c-.2-1.7-1.1-3-3.3-3-2.1 0-4 1.5-4 5.5v6.3h-1.5V40.9h1.5v2.5l.7-1.4c1-1 2.2-1.4 3.6-1.4 2.7 0 4.2 1.5 4.5 3.8v2.1zm11.9 3.2h1.5c-.6 2.7-2.5 4.2-5.2 4.3l-.4.7c1.3.1 2 .8 2 2 0 1.4-1.2 2-2.8 2-.5 0-.9-.1-1.2-.2v-.9c.4.2.7.3 1.3.3 1 0 1.6-.4 1.6-1.2 0-.9-.7-1.3-2.3-1.2l.8-1.5c-2.8-.3-4.9-2.5-4.9-6.6 0-4.2 2.7-6.7 5.9-6.7 2.9 0 4.9 1.8 5.3 4.5h-1.6c-.4-2.1-1.7-3.3-3.8-3.3-2.1 0-4.2 1.7-4.2 5.4 0 3.9 2 5.6 4.1 5.6 2-.1 3.4-1.2 3.9-3.2zm15.4-2.4c0 3.7-2.1 6.7-6.2 6.7s-6.2-3-6.2-6.7c0-3.8 2.1-6.7 6.2-6.7s6.2 2.9 6.2 6.7zm-1.6 0c0-3.5-1.9-5.5-4.5-5.5s-4.5 2-4.5 5.5 1.9 5.5 4.5 5.5 4.5-2.1 4.5-5.5zm5.9-9.2c0 .6-.4 1-1 1s-1-.5-1-1c0-.6.5-1 1-1s1 .5 1 1zm-1.8 15.5V40.9h1.5v12.7h-1.5zm13.2-9.1h-1.6c-.4-1.8-1.4-2.7-3.1-2.7-1.5 0-2.6.9-2.6 2.3 0 1.5 1.2 2 3 2.5 2.9.7 4.3 1.8 4.3 3.9 0 2.3-1.9 3.5-4.5 3.5-2.5 0-4.5-1.2-4.9-4.1h1.5c.4 2.2 1.7 2.9 3.4 2.9 1.6 0 2.9-.7 2.9-2.2 0-1.4-.9-2.1-3.4-2.7-2.2-.6-4-1.5-4-3.7s1.7-3.6 4.2-3.6c3-.1 4.5 1.6 4.8 3.9zm12.9 3.2h-9.6c.2 3.8 2.1 5.1 4.1 5.1 1.8 0 3.4-1.1 3.8-3.2h1.6c-.6 3-2.9 4.4-5.5 4.4-3.2 0-5.7-2.2-5.7-6.7 0-4.1 2.5-6.7 5.9-6.7 3.6 0 5.4 2.8 5.4 6.4.1.1.1.3 0 .7zm-9.6-1.2h8.2c-.2-3.3-1.8-4.8-3.9-4.8-2.2.1-4.1 1.6-4.3 4.8zm27.9 7.1L939 38.5c0 2 .1 4.5.1 6.6v8.6h-1.5V37h2.3l8.7 15.2c0-2.1-.1-4.5-.1-6.6V37h1.5v16.6h-2.4zm7.6-15.5c0 .6-.4 1-1 1s-1-.5-1-1c0-.6.5-1 1-1 .6 0 1 .5 1 1zm-1.7 15.5V40.9h1.5v12.7h-1.5zm15.3-5.9h-9.6c.2 3.8 2.1 5.1 4.1 5.1 1.8 0 3.4-1.1 3.8-3.2h1.6c-.6 3-2.9 4.4-5.5 4.4-3.2 0-5.7-2.2-5.7-6.7 0-4.1 2.5-6.7 5.9-6.7 3.6 0 5.4 2.8 5.4 6.4v.7zm-9.7-1.2h8.2c-.2-3.3-1.8-4.8-3.9-4.8-2.1.1-4.1 1.6-4.3 4.8zm13.8 3.8v1.4c0 .8.4 1 1.5.9v1.1c-.4.1-.8.1-1.2.1-1 0-1.7-.3-1.8-1.7V35.9h1.5v14.4zm5.3 0v1.4c0 .8.4 1 1.5.9v1.1c-.4.1-.8.1-1.2.1-1 0-1.7-.3-1.8-1.7V35.9h1.5v14.4zm8.6 4c-1.3 3.4-2.5 4.4-4.3 4.4-.4 0-.7 0-1-.1v-1.2h.8c1.2 0 2-.6 2.8-2.6l.3-.7-5-13.2h1.7l4.1 11.6 4.1-11.6h1.6l-5.1 13.4zM716.6 342.9l-8.6-15.2c0 2 .1 4.5.1 6.6v8.6h-1.5v-16.6h2.3l8.7 15.2c0-2.1-.1-4.5-.1-6.6v-8.6h1.5v16.6h-2.4zm7.6-15.4c0 .6-.4 1-1 1s-1-.5-1-1c0-.6.5-1 1-1 .6-.1 1 .4 1 1zm-1.8 15.4v-12.7h1.5v12.7h-1.5zm15.2-8.5H736c-.4-2.1-1.7-3.3-3.8-3.3-2.1 0-4.2 1.7-4.2 5.4 0 3.9 2 5.6 4.1 5.6 1.9 0 3.3-1.1 3.8-3.1h1.5c-.6 2.8-2.7 4.3-5.4 4.3-3.2 0-5.7-2.2-5.7-6.7 0-4.2 2.7-6.7 5.9-6.7 3.1 0 5 1.8 5.4 4.5zm5.1 2.8l-1.2 1.2v4.5H740v-17.7h1.5v11.6l6.5-6.6h1.9l-6.2 6.1 6.3 6.6h-2l-5.3-5.7zm28-2v7.8h-1.3v-3.4l-.6 1.5c-1.1 1.5-2.9 2.3-4.9 2.3-4.6 0-7.4-3.5-7.4-8.6s3.2-8.7 7.8-8.7c4 0 6.1 2.4 6.6 5.5v.2h-1.5v-.2c-.5-2.5-2.2-4.3-5.1-4.3-3.5 0-6.1 2.9-6.1 7.4 0 4.6 2.5 7.4 5.8 7.4 2.6 0 5.3-1.9 5.3-5.7h-4.5v-1.2h5.9zm13.4 1.8h-9.6c.2 3.8 2.1 5.1 4.1 5.1 1.8 0 3.4-1.1 3.8-3.2h1.6c-.6 3-2.9 4.4-5.5 4.4-3.2 0-5.7-2.2-5.7-6.7 0-4.1 2.5-6.7 5.9-6.7 3.6 0 5.4 2.8 5.4 6.4.1.1.1.3 0 .7zm-9.6-1.2h8.2c-.2-3.3-1.8-4.8-3.9-4.8-2.2.1-4.1 1.7-4.3 4.8zm22.6 0v7.1h-1.5V334c-.2-1.7-1.1-3-3.3-3-2.1 0-4 1.5-4 5.5v6.3h-1.5v-12.7h1.5v2.5l.7-1.4c1-1 2.2-1.4 3.6-1.4 2.7 0 4.2 1.5 4.5 3.8v2.2zm5.4 3.6v1.1c.1 1.2.6 1.5 2.3 1.3v1.1c-.5.1-1 .1-1.5.1-1.4 0-2.2-.6-2.3-2v-9.6h-1.6v-1.2h1.6v-2.8h1.5v2.8h2.4v1.2h-2.4v8zm10.2-9.4v1.2c-2.2-.2-3.8 1.2-3.8 4.6v7.2h-1.5v-12.7h1.5v2.3l.9-1.6c.6-.6 1.4-1 2.2-1 .2-.1.5-.1.7 0zm6.8 13.6c-1.3 3.4-2.5 4.4-4.3 4.4-.4 0-.7 0-1-.1v-1.2h.8c1.2 0 2-.6 2.8-2.6l.3-.7-5-13.2h1.7l4.1 11.6 4.1-11.6h1.6l-5.1 13.4zM481 101.2h-12.2V100l10.3-14.2h-9.6v-1.3h11.4v1.2L470.6 100H481v1.2zm9.7-2.3l-.6 1.3c-.9.9-2.1 1.3-3.5 1.3-2.4 0-4-1.2-4-3.5 0-2.9 2.8-4.3 7.4-4.3h.8v-2.1c-.1-1.5-1-2.3-2.8-2.3-1.8 0-3 .9-3.2 2.9H483c.2-2.5 2.1-4.1 4.8-4.1 2.8 0 4.1 1.3 4.3 3.4v6.2c0 1.1.1 2 .2 3.6h-1.5l-.1-2.4zm0-2.6v-1.5c-3.6-.2-6.5.6-6.5 3.1 0 1.6 1 2.5 2.9 2.5 2.1 0 3.6-1.7 3.6-4.1zm15.3-2.2v7.1h-1.5v-8.9c-.2-1.7-1.1-3-3.3-3-2.1 0-4 1.5-4 5.5v6.3h-1.5V83.4h1.5v7.5l.7-1.4c1-1 2.2-1.4 3.6-1.4 2.7 0 4.2 1.5 4.5 3.8v2.2zm10.8 4.8l-.6 1.3c-.9.9-2.1 1.3-3.5 1.3-2.4 0-4-1.2-4-3.5 0-2.9 2.8-4.3 7.4-4.3h.8v-2.1c-.1-1.5-1-2.3-2.8-2.3-1.8 0-3 .9-3.2 2.9h-1.6c.2-2.5 2.1-4.1 4.8-4.1 2.8 0 4.1 1.3 4.3 3.4v6.2c0 1.1.1 2 .2 3.6H517l-.2-2.4zm0-2.6v-1.5c-3.6-.2-6.5.6-6.5 3.1 0 1.6 1 2.5 2.9 2.5 2.1 0 3.6-1.7 3.6-4.1zm23.2 4.9h-1.5v-7.5h-9.7v7.5h-1.5V84.6h1.5v7.8h9.7v-7.8h1.5v16.6zm11-2.3l-.6 1.3c-.9.9-2.1 1.3-3.5 1.3-2.4 0-4-1.2-4-3.5 0-2.9 2.8-4.3 7.4-4.3h.8v-2.1c-.1-1.5-1-2.3-2.8-2.3-1.8 0-3 .9-3.2 2.9h-1.6c.2-2.5 2.1-4.1 4.8-4.1 2.8 0 4.1 1.3 4.3 3.4v6.2c0 1.1.1 2 .2 3.6h-1.5l-.3-2.4zm0-2.6v-1.5c-3.6-.2-6.5.6-6.5 3.1 0 1.6 1 2.5 2.9 2.5 2.1 0 3.6-1.7 3.6-4.1zm15.6 4.9h-1.5v-2.4l-.8 1.4c-.9.9-2.1 1.3-3.6 1.3-3.6 0-5.7-2.8-5.7-6.5 0-4.6 2.8-6.9 6.1-6.9 1.2 0 2.5.4 3.3 1.2l.8 1.4v-7.2h1.5v17.7zm-1.5-6v-1c0-3.6-2.2-4.8-4.1-4.8-2.5 0-4.4 2-4.4 5.5 0 3.1 1.5 5.6 4.3 5.6 2.2-.1 4.2-1.5 4.2-5.3zm6.8-9.5c0 .6-.4 1-1 1s-1-.5-1-1c0-.6.5-1 1-1 .6 0 1 .5 1 1zm-1.7 15.5V88.5h1.5v12.7h-1.5zm15.6 0h-1.5v-2.4l-.8 1.4c-.9.9-2.1 1.3-3.6 1.3-3.6 0-5.7-2.8-5.7-6.5 0-4.6 2.8-6.9 6.1-6.9 1.3 0 2.5.4 3.3 1.2l.8 1.4v-7.2h1.5v17.7zm-1.5-6v-1c0-3.6-2.2-4.8-4.1-4.8-2.5 0-4.4 2-4.4 5.5 0 3.1 1.5 5.6 4.3 5.6 2.2-.1 4.2-1.5 4.2-5.3zM581.9 37.1l-2.1 6.1h-1.6l6.1-16.6h2l6 16.6h-1.6l-2.2-6.1h-6.6zm6.1-1.2l-2.8-8.1-2.9 8.1h5.7zm11.6-5.6v1.2c-2.2-.2-3.8 1.2-3.8 4.6v7.2h-1.5V30.5h1.5v2.3l.9-1.6c.6-.6 1.4-1 2.2-1 .2 0 .5 0 .7.1zm3.9 9.4v1.1c.1 1.2.6 1.5 2.3 1.3v1.1c-.5.1-1 .1-1.5.1-1.4 0-2.2-.6-2.3-2v-9.6h-1.6v-1.2h1.6v-2.8h1.5v2.8h2.4v1.2h-2.4v8zm3.9-2.8v-1h5.1v1h-5.1zm21.7-2.1c0 5.2-3.3 7.9-6.5 8.4-.8.1-1.3.1-2.1.1h-4.9V26.6h4.9c.9 0 1.3 0 2 .1 3.4.4 6.6 2.8 6.6 8.1zm-1.7 0c0-4.3-2.3-6.5-5.1-6.8-.5-.1-1.1-.1-1.9-.1H617V42h3.3c.8 0 1.4 0 2-.1 2.9-.4 5.1-2.8 5.1-7.1zm14.6 2.5h-9.6c.2 3.8 2.1 5.1 4.1 5.1 1.8 0 3.4-1.1 3.8-3.2h1.6c-.6 3-2.9 4.4-5.5 4.4-3.2 0-5.7-2.2-5.7-6.7 0-4.1 2.5-6.7 5.9-6.7 3.6 0 5.4 2.8 5.4 6.4v.7zm-9.7-1.2h8.2c-.2-3.3-1.8-4.8-3.9-4.8-2.1.1-4.1 1.6-4.3 4.8zm22.5-1.4h-1.6c-.4-2.1-1.7-3.3-3.8-3.3-2.1 0-4.2 1.7-4.2 5.4 0 3.9 2 5.6 4.1 5.6 1.9 0 3.3-1.1 3.8-3.1h1.5c-.6 2.8-2.7 4.3-5.4 4.3-3.2 0-5.7-2.2-5.7-6.7 0-4.2 2.7-6.7 5.9-6.7 3.1-.1 5.1 1.8 5.4 4.5zm13.8 2.2c0 3.7-2.1 6.7-6.2 6.7s-6.2-3-6.2-6.7c0-3.8 2.1-6.7 6.2-6.7s6.2 2.9 6.2 6.7zm-1.6 0c0-3.5-1.9-5.5-4.5-5.5s-4.5 2-4.5 5.5 1.9 5.5 4.5 5.5 4.5-2.1 4.5-5.5z"/><path class="st0" d="M157.2 67.4L128.3 97l-2.5-47.6m544.6 107.4l-31.2 33-9.5-24.2zm-427.3 79.8l46.4 7.4-20.5 18.2-25.9-25.6M717.2 92v32.9l-33.5-18.3z"/><path class="st2" d="M288.2 269.6V285h-1.5v-15.4h-6.1v-1.2h13.7v1.2h-6.1zm14 13l-.6 1.3c-.9.9-2.1 1.3-3.5 1.3-2.4 0-4-1.2-4-3.5 0-2.9 2.8-4.3 7.4-4.3h.8v-2c-.1-1.5-1-2.3-2.8-2.3-1.8 0-3 .9-3.2 2.9h-1.6c.2-2.5 2.1-4.1 4.8-4.1 2.8 0 4.1 1.3 4.3 3.4v6.2c0 1.1.1 2 .2 3.6h-1.5l-.3-2.5zm0-2.6v-1.5c-3.6-.2-6.5.6-6.5 3.1 0 1.6 1 2.5 2.9 2.5 2.1 0 3.6-1.7 3.6-4.1zm10.4-8v1.2c-2.2-.2-3.8 1.2-3.8 4.6v7.2h-1.5v-12.7h1.5v2.3l.9-1.6c.6-.6 1.4-1 2.2-1 .2-.1.5 0 .7 0zm9.3 10.6l-.6 1.3c-.9.9-2.1 1.3-3.5 1.3-2.4 0-4-1.2-4-3.5 0-2.9 2.8-4.3 7.4-4.3h.8v-2c-.1-1.5-1-2.3-2.8-2.3-1.8 0-3 .9-3.2 2.9h-1.6c.2-2.5 2.1-4.1 4.8-4.1 2.8 0 4.1 1.3 4.3 3.4v6.2c0 1.1.1 2 .2 3.6h-1.5l-.3-2.5zm0-2.6v-1.5c-3.6-.2-6.5.6-6.5 3.1 0 1.6 1 2.5 2.9 2.5 2.1 0 3.6-1.7 3.6-4.1zm15.3-2.2v7.1h-1.5V276c-.2-1.7-1.1-3-3.3-3-2.1 0-4 1.5-4 5.5v6.3H327v-12.7h1.5v2.5l.7-1.4c1-1 2.2-1.4 3.6-1.4 2.7 0 4.2 1.5 4.5 3.8-.1.7-.1 1.2-.1 2.2zm5.4 3.7v1.1c.1 1.2.6 1.5 2.3 1.3v1.1c-.5.1-1 .1-1.5.1-1.4 0-2.2-.6-2.3-2v-9.6h-1.6v-1.2h1.6v-2.8h1.5v2.8h2.4v1.2h-2.4v8zm6.6-12c0 .6-.4 1-1 1s-1-.5-1-1c0-.6.5-1 1-1 .6 0 1 .4 1 1zm-1.7 15.5v-12.7h1.5V285h-1.5zm15.3-7.2v7.1h-1.5V276c-.2-1.7-1.1-3-3.3-3-2.1 0-4 1.5-4 5.5v6.3h-1.5v-12.7h1.5v2.5l.7-1.4c1-1 2.2-1.4 3.6-1.4 2.7 0 4.2 1.5 4.5 3.8v2.2zm14.7.8c0 3.7-2.1 6.7-6.2 6.7s-6.2-3-6.2-6.7c0-3.8 2.1-6.7 6.2-6.7s6.2 2.9 6.2 6.7zm-1.6 0c0-3.5-1.9-5.5-4.5-5.5s-4.5 2-4.5 5.5 1.9 5.5 4.5 5.5 4.5-2 4.5-5.5z"/><ellipse class="st4" cx="71.7" cy="19.4" rx="4.6" ry="4.6"/><ellipse class="st4" cx="198.6" cy="90.9" rx="4.6" ry="4.6"/><ellipse class="st4" cx="224.4" cy="134.6" rx="4.6" ry="4.6"/><ellipse class="st4" cx="520.5" cy="224.6" rx="4.6" ry="4.6"/><ellipse class="st4" cx="749.4" cy="143.6" rx="4.6" ry="4.6"/><ellipse class="st4" cx="777.2" cy="227.7" rx="4.6" ry="4.6"/><ellipse class="st4" cx="819.2" cy="51.4" rx="4.6" ry="4.6"/><ellipse class="st4" cx="696.8" cy="334" rx="4.6" ry="4.6"/><ellipse class="st4" cx="458.9" cy="92.1" rx="4.6" ry="4.6"/><ellipse class="st4" cx="569.8" cy="45.7" rx="4.6" ry="4.6"/><ellipse class="st4" cx="270.9" cy="265" rx="4.6" ry="4.6"/></g></svg>