<svg xmlns="http://www.w3.org/2000/svg" viewBox="0 0 69 69"><style>.st0{fill:none;stroke:#323232;stroke-width:.7087;stroke-miterlimit:10}.st1{fill:#323232}</style><path vector-effect="non-scaling-stroke" class="st0" d="M54.7 11.4L10.3 55.7m48.9-39.8L15.1 60m48.4-39.2L20.9 63.3m44.6-35.4L27.6 65.8M66.4 36L35.9 66.5"/><path vector-effect="non-scaling-stroke" class="st1" d="M57.6 11.3c-6.4-6.4-14.1-9.6-23.1-9.6-9 0-16.8 3.2-23.1 9.6C5 17.7 1.7 25.4 1.7 34.5c0 9 3.2 16.8 9.7 23.1 6.4 6.4 14.1 9.6 23.1 9.6 9 0 16.8-3.2 23.1-9.6 6.4-6.4 9.7-14.1 9.7-23.1-.1-9.1-3.2-16.8-9.7-23.2zM56 56c-5.9 5.9-13.1 8.9-21.5 8.9S19 61.9 13 56c-5.9-6-8.9-13.1-8.9-21.5s3-15.6 8.9-21.4c6-5.9 13.1-8.9 21.5-8.9S50 7.2 56 13.1c5.9 5.9 8.9 13.1 8.9 21.4 0 8.4-3 15.5-8.9 21.5z"/></svg>