<?xml version="1.0" encoding="utf-8"?>
<!-- Generator: Adobe Illustrator 16.0.0, SVG Export Plug-In . SVG Version: 6.00 Build 0)  -->
<!DOCTYPE svg PUBLIC "-//W3C//DTD SVG 1.0//EN" "http://www.w3.org/TR/2001/REC-SVG-20010904/DTD/svg10.dtd">
<svg version="1.0" id="Layer_1" xmlns="http://www.w3.org/2000/svg" xmlns:xlink="http://www.w3.org/1999/xlink" x="0px" y="0px"
	 width="940px" height="634.395px" viewBox="-33.962 0 940 634.395" enable-background="new -33.962 0 940 634.395"
	 xml:space="preserve">
<line opacity="0.45" fill="none" stroke="#000000" stroke-miterlimit="10" enable-background="new    " x1="376.77" y1="583.33" x2="376.77" y2="51.064"/>
<g>
	<g>
		<g>
			<g>
				<path fill="#58595B" d="M72.57,416.277h-1.843l-6.694-24.182l-7.108,24.182h-1.918l-6.582-25.95h1.58l6.056,24.597l7.032-24.221
					h1.956l6.657,24.184l6.469-24.56h1.468L72.57,416.277z"/>
				<path fill="#58595B" d="M98.064,406.764H82.268c0.226,6.43,3.761,8.838,7.221,8.838c3.009,0,5.867-1.73,6.845-5.492h1.467
					c-1.091,4.477-4.551,6.695-8.387,6.695c-4.739,0-8.649-3.535-8.649-10.492c0-6.281,3.948-10.381,8.988-10.381
					c5.604,0,8.351,4.739,8.351,9.892C98.102,406.011,98.102,406.273,98.064,406.764z M82.268,405.521h14.366
					c-0.226-6.131-3.61-8.388-6.957-8.388C86.217,397.135,82.494,399.843,82.268,405.521z"/>
				<path fill="#58595B" d="M119.724,406.161c0,7.108-4.325,10.644-9.178,10.644c-2.294,0-4.062-0.677-5.527-2.257l-1.128-2.332
					v4.062h-1.43v-27.643h1.43v11.998l1.166-2.219c1.616-1.805,3.46-2.482,5.979-2.482
					C116.377,395.932,119.724,400.218,119.724,406.161z M118.145,406.386c0-5.038-2.521-9.251-7.259-9.251
					c-3.762,0-6.996,2.182-6.996,8.463v1.955c0,6.131,3.61,8.049,6.656,8.049C114.986,415.602,118.145,411.953,118.145,406.386z"/>
				<path fill="#58595B" d="M136.194,401.911h-1.467c-0.752-3.197-2.482-4.776-5.491-4.776c-2.632,0-4.776,1.542-4.776,4.137
					c0,2.596,2.069,3.61,5.115,4.326c4.551,1.053,6.808,2.558,6.808,5.904c0,3.311-2.896,5.303-6.845,5.303
					c-3.799,0-6.958-1.881-7.447-6.394h1.467c0.602,3.836,3.047,5.19,6.093,5.19c2.857,0,5.266-1.393,5.266-4.024
					c0-2.521-1.542-3.647-5.942-4.702c-3.234-0.79-5.98-2.105-5.98-5.491c0-3.196,2.595-5.454,6.318-5.454
					C133.523,395.932,135.667,398.525,136.194,401.911z"/>
				<path fill="#58595B" d="M142.472,392.32c0,0.603-0.489,1.091-1.092,1.091c-0.602,0-1.09-0.489-1.09-1.091s0.489-1.09,1.09-1.09
					C141.982,391.23,142.472,391.719,142.472,392.32z M140.667,416.277v-19.819h1.43v19.819H140.667z"/>
				<path fill="#58595B" d="M153.829,415.3v1.128c-0.602,0.075-1.392,0.113-2.105,0.113c-1.956,0-2.972-0.865-3.122-2.784
					c-0.076-0.827-0.076-1.504-0.076-2.632v-13.389h-2.444v-1.129h2.444v-4.211h1.43v4.211h3.836v1.129h-3.836V411.2
					c0,0.978,0,1.467,0.038,1.993C150.143,415.15,151.008,415.714,153.829,415.3z"/>
				<path fill="#58595B" d="M173.271,406.764h-15.796c0.226,6.43,3.761,8.838,7.221,8.838c3.009,0,5.867-1.73,6.845-5.492h1.467
					c-1.091,4.477-4.551,6.695-8.387,6.695c-4.739,0-8.649-3.535-8.649-10.492c0-6.281,3.948-10.381,8.988-10.381
					c5.604,0,8.35,4.739,8.35,9.892C173.309,406.011,173.309,406.273,173.271,406.764z M157.475,405.521h14.366
					c-0.226-6.131-3.609-8.388-6.958-8.388C161.424,397.135,157.701,399.843,157.475,405.521z"/>
				<path fill="#58595B" d="M65.763,439.79h-1.468c-0.677-3.498-2.971-5.642-6.656-5.642c-3.573,0-7.484,2.934-7.484,9.063
					c0,6.469,3.573,9.44,7.334,9.44c3.197,0,5.905-1.88,6.619-5.34h1.467c-0.827,4.137-4.062,6.544-8.199,6.544
					c-4.889,0-8.801-3.687-8.801-10.418c0-6.507,4.175-10.455,9.14-10.455C62.115,432.982,65.161,435.728,65.763,439.79z"/>
				<path fill="#58595B" d="M87.272,443.438c0,6.094-3.573,10.419-9.44,10.419s-9.439-4.325-9.439-10.419
					c0-6.13,3.572-10.454,9.439-10.454C83.699,432.982,87.272,437.307,87.272,443.438z M85.73,443.438
					c0-6.168-3.686-9.252-7.897-9.252s-7.86,3.084-7.86,9.252c0,6.131,3.647,9.215,7.86,9.215S85.73,449.568,85.73,443.438z"/>
				<path fill="#58595B" d="M116.98,442.046v11.283h-1.43v-10.645c0-1.504-0.037-2.406-0.15-3.422
					c-0.338-3.084-1.843-5.077-4.853-5.077c-3.122,0-5.642,2.407-5.642,8.161v10.982h-1.429v-10.645c0-1.504-0.038-2.406-0.15-3.422
					c-0.376-3.084-1.88-5.077-4.889-5.077c-3.084,0-5.643,2.407-5.643,8.161v10.982h-1.429v-19.821h1.429v3.874l0.979-2.181
					c1.277-1.504,3.009-2.219,5.001-2.219c3.197,0,5.115,1.768,5.792,4.775l1.315-2.558c1.278-1.504,2.972-2.219,4.965-2.219
					c3.572,0,5.565,2.181,5.979,5.792C116.943,439.79,116.98,440.429,116.98,442.046z"/>
				<path fill="#58595B" d="M124.309,429.372c0,0.602-0.489,1.091-1.092,1.091c-0.602,0-1.09-0.489-1.09-1.091
					c0-0.603,0.489-1.091,1.09-1.091C123.82,428.281,124.309,428.77,124.309,429.372z M122.504,453.329v-19.821h1.43v19.821H122.504
					L122.504,453.329z"/>
				<path fill="#58595B" d="M144.955,442.271v11.058h-1.429V442.61c0-1.316-0.038-2.183-0.15-3.197
					c-0.339-3.084-2.03-5.19-5.604-5.19c-3.498,0-6.694,2.444-6.694,8.124v10.982h-1.429v-19.821h1.429v4.25l0.902-2.067
					c1.504-1.882,3.61-2.708,5.941-2.708c4.101,0,6.508,2.256,6.883,6.018C144.918,440.015,144.955,440.655,144.955,442.271z"/>
				<path fill="#58595B" d="M166.126,448.139c0,2.67,0,4.212-0.037,5.454c-0.149,4.814-3.234,7.936-8.462,7.936
					c-4.137,0-7.334-1.692-7.897-6.13l-0.075-0.489h1.467l0.038,0.489c0.451,3.46,3.234,4.889,6.543,4.889
					c4.477,0,6.846-2.745,6.958-6.807c0.038-1.241,0.038-2.145,0.038-3.687v-0.677l-1.166,2.256
					c-1.618,1.806-3.46,2.482-5.979,2.482c-5.341,0-8.688-4.288-8.688-10.269c0-7.071,4.325-10.604,9.177-10.604
					c2.294,0,4.063,0.676,5.528,2.256l1.129,2.294v-4.138h1.429L166.126,448.139L166.126,448.139z M164.697,444.152v-1.918
					c0-6.131-3.61-8.049-6.657-8.049c-4.438,0-7.597,3.648-7.597,9.215c0,5.002,2.52,9.252,7.258,9.252
					C161.462,452.652,164.697,450.471,164.697,444.152z"/>
				<path fill="#58595B" d="M191.696,438.962h-1.467c-0.752-3.197-2.482-4.776-5.491-4.776c-2.633,0-4.776,1.542-4.776,4.138
					s2.068,3.61,5.115,4.326c4.551,1.053,6.809,2.557,6.809,5.903c0,3.311-2.896,5.304-6.846,5.304
					c-3.799,0-6.958-1.881-7.447-6.395h1.468c0.602,3.836,3.046,5.19,6.093,5.19c2.858,0,5.265-1.393,5.265-4.024
					c0-2.52-1.542-3.647-5.941-4.701c-3.235-0.79-5.98-2.105-5.98-5.491c0-3.196,2.595-5.452,6.318-5.452
					C189.025,432.982,191.169,435.577,191.696,438.962z"/>
				<path fill="#58595B" d="M213.469,443.438c0,6.094-3.573,10.419-9.44,10.419s-9.44-4.325-9.44-10.419
					c0-6.13,3.573-10.454,9.44-10.454S213.469,437.307,213.469,443.438z M211.927,443.438c0-6.168-3.687-9.252-7.898-9.252
					s-7.86,3.084-7.86,9.252c0,6.131,3.648,9.215,7.86,9.215S211.927,449.568,211.927,443.438z"/>
				<path fill="#58595B" d="M234.865,443.438c0,6.094-3.573,10.419-9.44,10.419c-5.866,0-9.439-4.325-9.439-10.419
					c0-6.13,3.573-10.454,9.439-10.454C231.292,432.983,234.865,437.307,234.865,443.438z M233.323,443.438
					c0-6.168-3.685-9.252-7.897-9.252c-4.212,0-7.86,3.084-7.86,9.252c0,6.131,3.647,9.215,7.86,9.215
					C229.639,452.652,233.323,449.568,233.323,443.438z"/>
				<path fill="#58595B" d="M254.269,442.271v11.058h-1.431V442.61c0-1.316-0.036-2.183-0.149-3.197
					c-0.338-3.084-2.03-5.19-5.604-5.19c-3.498,0-6.694,2.444-6.694,8.124v10.982h-1.43v-19.821h1.43v4.25l0.902-2.067
					c1.504-1.882,3.61-2.708,5.942-2.708c4.099,0,6.506,2.256,6.883,6.018C254.23,440.015,254.269,440.655,254.269,442.271z"/>
				<path fill="#58595B" d="M260.846,452.69c0,0.676-0.489,1.166-1.166,1.166c-0.641,0-1.166-0.489-1.166-1.166
					c0-0.678,0.525-1.166,1.166-1.166C260.357,451.524,260.846,452.013,260.846,452.69z"/>
				<path fill="#58595B" d="M267.426,452.69c0,0.676-0.488,1.166-1.165,1.166c-0.641,0-1.166-0.489-1.166-1.166
					c0-0.678,0.525-1.166,1.166-1.166C266.938,451.524,267.426,452.013,267.426,452.69z"/>
				<path fill="#58595B" d="M274.007,452.69c0,0.676-0.487,1.166-1.166,1.166c-0.639,0-1.166-0.489-1.166-1.166
					c0-0.678,0.526-1.166,1.166-1.166C273.519,451.524,274.007,452.013,274.007,452.69z"/>
			</g>
		</g>
	</g>
	<g>
		<path fill="#414042" d="M128.216,190.684v83.757h-3.091v-80.607l-34.816,80.607h-4.022l-34.818-80.607v80.607H48.32v-83.757h5.191
			l34.757,80.492l34.76-80.492H128.216L128.216,190.684z"/>
		<path fill="#414042" d="M283.229,178.613c-0.699-0.701-1.538-1.051-2.506-1.051c-0.972,0-1.792,0.35-2.452,1.051
			c-0.698,0.698-1.05,1.535-1.05,2.507c0,0.972,0.352,1.789,1.05,2.45c0.66,0.7,1.479,1.05,2.452,1.05
			c0.968,0,1.807-0.35,2.506-1.05c0.701-0.661,1.048-1.478,1.048-2.45C284.277,180.148,283.93,179.311,283.229,178.613z"/>
		<path fill="#414042" d="M298.74,178.613c-0.658-0.701-1.475-1.051-2.448-1.051c-0.972,0-1.81,0.35-2.506,1.051
			c-0.701,0.698-1.053,1.535-1.053,2.507c0,0.972,0.352,1.789,1.053,2.45c0.697,0.7,1.534,1.05,2.506,1.05
			c0.974,0,1.79-0.35,2.448-1.05c0.704-0.661,1.054-1.478,1.054-2.45C299.794,180.148,299.443,179.311,298.74,178.613z"/>
		
			<line fill="none" stroke="#414042" stroke-width="0.5" stroke-miterlimit="10" x1="314.936" y1="202.464" x2="257.374" y2="260.024"/>
		
			<line fill="none" stroke="#414042" stroke-width="0.5" stroke-miterlimit="10" x1="317.891" y1="205.43" x2="260.074" y2="263.263"/>
		
			<line fill="none" stroke="#414042" stroke-width="0.5" stroke-miterlimit="10" x1="320.846" y1="208.394" x2="263.622" y2="265.627"/>
		
			<line fill="none" stroke="#414042" stroke-width="0.5" stroke-miterlimit="10" x1="322.904" y1="212.292" x2="266.588" y2="268.579"/>
		
			<line fill="none" stroke="#414042" stroke-width="0.5" stroke-miterlimit="10" x1="326.424" y1="214.682" x2="270.982" y2="270.114"/>
		
			<line fill="none" stroke="#414042" stroke-width="0.5" stroke-miterlimit="10" x1="327.511" y1="219.513" x2="274.597" y2="272.458"/>
		
			<line fill="none" stroke="#414042" stroke-width="0.5" stroke-miterlimit="10" x1="329.049" y1="223.906" x2="279.67" y2="273.304"/>
		
			<line fill="none" stroke="#414042" stroke-width="0.5" stroke-miterlimit="10" x1="329.146" y1="229.75" x2="284.823" y2="274.051"/>
		
			<line fill="none" stroke="#414042" stroke-width="0.5" stroke-miterlimit="10" x1="329.146" y1="235.608" x2="290.014" y2="274.75"/>
		
			<line fill="none" stroke="#414042" stroke-width="0.5" stroke-miterlimit="10" x1="327.804" y1="242.919" x2="296.856" y2="273.866"/>
		<path id="XMLID_1_" fill="none" d="M317.189,260.375c-15.901,15.901-41.718,15.901-57.642-0.02
			c-15.92-15.92-15.899-41.726-0.016-57.638c15.919-15.921,41.735-15.921,57.657,0C333.11,218.639,333.11,244.456,317.189,260.375z"
			/>
		<rect x="157.746" y="171.825" fill="#414042" width="4.043" height="14.142"/>
		<polygon fill="#414042" points="181.287,189.408 181.287,192.558 141.63,192.558 141.63,229.599 173.529,229.599 173.529,232.69 
			141.63,232.69 141.63,270.016 181.287,270.016 181.287,273.165 138.48,273.165 138.48,189.408 		"/>
		<path fill="#414042" d="M221.118,232.982c5.483-0.622,10.07-2.994,13.765-7.115c3.733-4.16,5.6-9.021,5.6-14.59
			c0-6.026-2.143-11.177-6.415-15.455c-4.28-4.276-9.411-6.414-15.398-6.414H189.22v83.757h3.146v-40.066h25.313l20.817,40.066h3.5
			L221.118,232.982z M192.366,229.949v-37.391h26.303c5.132,0,9.529,1.827,13.181,5.48c3.656,3.655,5.482,8.069,5.482,13.239
			c0,5.171-1.827,9.574-5.482,13.19c-3.651,3.655-8.049,5.482-13.181,5.482H192.366z"/>
		<path fill="#414042" d="M318.803,202.406c-8.319-8.358-18.37-12.538-30.15-12.538c-11.783,0-21.832,4.18-30.152,12.538
			c-8.359,8.32-12.539,18.381-12.539,30.162c0,11.78,4.18,21.83,12.539,30.149c8.32,8.361,18.369,12.541,30.152,12.541
			c11.78,0,21.831-4.18,30.15-12.541c8.36-8.32,12.538-18.37,12.538-30.149C331.342,220.787,327.164,210.726,318.803,202.406z
			 M316.589,260.502c-7.7,7.737-17.013,11.605-27.937,11.605c-10.927,0-20.238-3.868-27.936-11.605
			c-7.735-7.737-11.605-17.048-11.605-27.935c0-10.925,3.871-20.247,11.605-27.946c7.697-7.736,17.009-11.604,27.936-11.604
			c10.923,0,20.236,3.868,27.937,11.604c7.735,7.699,11.604,17.021,11.604,27.946C328.192,243.454,324.324,252.765,316.589,260.502z
			"/>
	</g>
</g>
<g id="Layer_3">
</g>
<g id="GUIDES" display="none">
</g>
<g>
	<g>
		<path fill="#58595B" d="M425.397,196.333l-2.328,6.313h-0.983l6.313-16.562h1.2l6.24,16.562h-0.984l-2.376-6.313H425.397z
			 M432.19,195.541l-3.216-8.713l-3.265,8.713H432.19z"/>
		<path fill="#58595B" d="M452.878,202.645h-0.912v-2.688l-0.744,1.44c-1.032,1.152-2.208,1.584-3.816,1.584
			c-3.408,0-5.545-2.736-5.545-6.552c0-4.513,2.761-6.769,5.856-6.769c1.465,0,2.593,0.432,3.528,1.44l0.721,1.464v-7.561h0.912
			V202.645z M451.966,196.789v-1.224c0-3.913-2.305-5.137-4.249-5.137c-2.832,0-4.848,2.329-4.848,5.881
			c0,3.192,1.607,5.904,4.632,5.904C449.901,202.213,451.966,200.821,451.966,196.789z"/>
		<path fill="#58595B" d="M466.557,196.572h-10.081c0.145,4.104,2.4,5.641,4.608,5.641c1.921,0,3.745-1.104,4.369-3.504h0.936
			c-0.696,2.856-2.904,4.272-5.353,4.272c-3.024,0-5.521-2.256-5.521-6.696c0-4.009,2.521-6.625,5.737-6.625
			c3.576,0,5.328,3.024,5.328,6.313C466.582,196.092,466.582,196.26,466.557,196.572z M456.476,195.78h9.169
			c-0.144-3.912-2.304-5.353-4.44-5.353C458.997,190.428,456.621,192.156,456.476,195.78z"/>
		<path fill="#58595B" d="M477.261,193.476h-0.937c-0.479-2.04-1.584-3.048-3.504-3.048c-1.681,0-3.049,0.984-3.049,2.641
			c0,1.656,1.32,2.304,3.265,2.76c2.904,0.672,4.345,1.632,4.345,3.768c0,2.112-1.849,3.384-4.369,3.384
			c-2.424,0-4.439-1.2-4.752-4.08h0.937c0.384,2.448,1.943,3.312,3.888,3.312c1.824,0,3.36-0.888,3.36-2.568
			c0-1.608-0.984-2.328-3.792-3c-2.064-0.504-3.816-1.344-3.816-3.504c0-2.04,1.656-3.48,4.032-3.48
			C475.557,189.66,476.926,191.316,477.261,193.476z"/>
		<path fill="#58595B" d="M481.268,187.355c0,0.384-0.312,0.696-0.695,0.696c-0.385,0-0.696-0.312-0.696-0.696
			c0-0.384,0.312-0.696,0.696-0.696C480.957,186.66,481.268,186.972,481.268,187.355z M480.117,202.645v-12.649h0.912v12.649
			H480.117z"/>
		<path fill="#58595B" d="M494.686,199.333c0,1.705,0,2.688-0.024,3.48c-0.096,3.072-2.064,5.064-5.4,5.064
			c-2.641,0-4.681-1.08-5.04-3.912l-0.049-0.312h0.937l0.024,0.312c0.288,2.208,2.063,3.12,4.176,3.12
			c2.856,0,4.368-1.752,4.44-4.344c0.024-0.792,0.024-1.368,0.024-2.353v-0.432l-0.744,1.44c-1.032,1.152-2.208,1.584-3.816,1.584
			c-3.408,0-5.545-2.736-5.545-6.552c0-4.513,2.761-6.769,5.856-6.769c1.465,0,2.593,0.432,3.528,1.44l0.721,1.464v-2.64h0.912
			V199.333z M493.774,196.789v-1.224c0-3.913-2.305-5.137-4.249-5.137c-2.832,0-4.848,2.329-4.848,5.881
			c0,3.192,1.607,5.904,4.632,5.904C491.71,202.213,493.774,200.821,493.774,196.789z"/>
		<path fill="#58595B" d="M508.101,195.588v7.057h-0.912v-6.841c0-0.84-0.024-1.392-0.096-2.04
			c-0.217-1.968-1.297-3.312-3.577-3.312c-2.231,0-4.271,1.56-4.271,5.184v7.009h-0.912v-12.649h0.912v2.712l0.575-1.32
			c0.961-1.2,2.305-1.729,3.793-1.729c2.616,0,4.152,1.44,4.393,3.84C508.077,194.148,508.101,194.556,508.101,195.588z"/>
		<path fill="#58595B" d="M527.397,196.188c0,4.537-2.76,6.792-5.856,6.792c-1.464,0-2.593-0.432-3.528-1.44l-0.72-1.488v7.297
			h-0.912v-17.498h0.912v2.808l0.744-1.416c1.031-1.152,2.208-1.584,3.815-1.584C525.261,189.66,527.397,192.396,527.397,196.188z
			 M526.389,196.333c0-3.216-1.608-5.905-4.633-5.905c-2.4,0-4.464,1.393-4.464,5.401v1.248c0,3.912,2.304,5.136,4.248,5.136
			C524.373,202.213,526.389,199.885,526.389,196.333z"/>
		<path fill="#58595B" d="M534.812,189.732v0.744c-2.28-0.168-3.888,1.32-3.888,5.16v7.009h-0.912v-12.649h0.912v2.568l0.672-1.536
			c0.624-0.864,1.536-1.368,2.568-1.368C534.404,189.66,534.621,189.684,534.812,189.732z"/>
		<path fill="#58595B" d="M547.701,196.333c0,3.888-2.28,6.648-6.025,6.648c-3.744,0-6.024-2.76-6.024-6.648
			c0-3.913,2.28-6.673,6.024-6.673C545.421,189.66,547.701,192.42,547.701,196.333z M546.717,196.333
			c0-3.937-2.353-5.905-5.041-5.905c-2.688,0-5.016,1.968-5.016,5.905c0,3.912,2.328,5.88,5.016,5.88
			C544.364,202.213,546.717,200.245,546.717,196.333z"/>
		<path fill="#58595B" d="M560.277,194.004h-0.937c-0.432-2.232-1.896-3.601-4.248-3.601c-2.28,0-4.776,1.872-4.776,5.785
			c0,4.128,2.28,6.024,4.68,6.024c2.04,0,3.769-1.2,4.225-3.408h0.937c-0.528,2.64-2.593,4.176-5.232,4.176
			c-3.121,0-5.617-2.352-5.617-6.648c0-4.152,2.665-6.673,5.833-6.673C557.948,189.66,559.892,191.412,560.277,194.004z"/>
		<path fill="#58595B" d="M572.996,196.572h-10.081c0.145,4.104,2.4,5.641,4.608,5.641c1.921,0,3.745-1.104,4.369-3.504h0.936
			c-0.696,2.856-2.904,4.272-5.353,4.272c-3.024,0-5.521-2.256-5.521-6.696c0-4.009,2.521-6.625,5.737-6.625
			c3.576,0,5.328,3.024,5.328,6.313C573.02,196.092,573.02,196.26,572.996,196.572z M562.915,195.78h9.169
			c-0.144-3.912-2.304-5.353-4.44-5.353C565.435,190.428,563.059,192.156,562.915,195.78z"/>
		<path fill="#58595B" d="M583.7,193.476h-0.937c-0.479-2.04-1.584-3.048-3.504-3.048c-1.681,0-3.049,0.984-3.049,2.641
			c0,1.656,1.32,2.304,3.265,2.76c2.904,0.672,4.345,1.632,4.345,3.768c0,2.112-1.849,3.384-4.368,3.384
			c-2.425,0-4.44-1.2-4.753-4.08h0.937c0.384,2.448,1.943,3.312,3.888,3.312c1.824,0,3.36-0.888,3.36-2.568
			c0-1.608-0.984-2.328-3.792-3c-2.064-0.504-3.816-1.344-3.816-3.504c0-2.04,1.656-3.48,4.032-3.48
			C581.996,189.66,583.364,191.316,583.7,193.476z"/>
		<path fill="#58595B" d="M594.452,193.476h-0.937c-0.479-2.04-1.584-3.048-3.504-3.048c-1.681,0-3.049,0.984-3.049,2.641
			c0,1.656,1.32,2.304,3.265,2.76c2.904,0.672,4.345,1.632,4.345,3.768c0,2.112-1.849,3.384-4.368,3.384
			c-2.425,0-4.44-1.2-4.753-4.08h0.937c0.384,2.448,1.943,3.312,3.888,3.312c1.824,0,3.36-0.888,3.36-2.568
			c0-1.608-0.984-2.328-3.792-3c-2.064-0.504-3.816-1.344-3.816-3.504c0-2.04,1.656-3.48,4.032-3.48
			C592.748,189.66,594.116,191.316,594.452,193.476z"/>
		<path fill="#58595B" d="M605.924,202.021v0.72c-0.384,0.048-0.888,0.072-1.344,0.072c-1.248,0-1.896-0.552-1.992-1.776
			c-0.048-0.528-0.048-0.96-0.048-1.68v-8.545h-1.561v-0.72h1.561v-2.688h0.912v2.688h2.448v0.72h-2.448v8.593
			c0,0.624,0,0.936,0.023,1.272C603.571,201.925,604.124,202.285,605.924,202.021z"/>
		<path fill="#58595B" d="M618.139,195.588v7.057h-0.912v-6.841c0-0.84-0.024-1.392-0.096-2.04
			c-0.217-1.968-1.297-3.336-3.576-3.312c-2.232,0-4.272,1.56-4.272,5.184v7.009h-0.912v-17.762h0.912v7.825l0.575-1.32
			c0.961-1.2,2.305-1.729,3.793-1.729c2.616,0,4.152,1.44,4.393,3.84C618.115,194.148,618.139,194.556,618.139,195.588z"/>
		<path fill="#58595B" d="M629.371,199.885l-0.601,1.272c-0.863,1.224-2.256,1.824-3.84,1.824c-2.376,0-3.961-1.176-3.961-3.456
			c0-2.928,3.36-4.249,7.562-4.249h0.815V194.7c0-0.576,0-1.08-0.048-1.608c-0.144-1.704-1.248-2.665-3.24-2.665
			c-1.752,0-3.385,0.937-3.648,3.145h-0.936c0.168-2.256,2.016-3.913,4.584-3.913c2.616,0,3.96,1.224,4.152,3.336
			c0.048,0.624,0.048,1.032,0.048,1.656v4.128c0,1.32,0.072,2.256,0.216,3.864h-0.936L629.371,199.885z M629.346,197.677v-1.632
			c-3.648-0.24-7.368,0.72-7.368,3.432c0,1.704,1.056,2.736,3.168,2.736C627.667,202.213,629.346,200.125,629.346,197.677z"/>
		<path fill="#58595B" d="M637.722,202.021v0.72c-0.384,0.048-0.888,0.072-1.344,0.072c-1.248,0-1.896-0.552-1.992-1.776
			c-0.048-0.528-0.048-0.96-0.048-1.68v-8.545h-1.561v-0.72h1.561v-2.688h0.912v2.688h2.448v0.72h-2.448v8.593
			c0,0.624,0,0.936,0.023,1.272C635.37,201.925,635.923,202.285,637.722,202.021z"/>
		<path fill="#58595B" d="M661.291,195.444v7.201h-0.912v-6.792c0-0.96-0.023-1.536-0.096-2.184
			c-0.216-1.968-1.176-3.241-3.097-3.241c-1.992,0-3.6,1.536-3.6,5.208v7.009h-0.912v-6.792c0-0.96-0.024-1.536-0.097-2.184
			c-0.239-1.968-1.199-3.241-3.12-3.241c-1.968,0-3.6,1.536-3.6,5.208v7.009h-0.912v-12.649h0.912v2.472l0.624-1.392
			c0.815-0.96,1.92-1.417,3.192-1.417c2.04,0,3.264,1.128,3.696,3.048l0.84-1.632c0.815-0.96,1.896-1.417,3.168-1.417
			c2.28,0,3.553,1.393,3.816,3.697C661.267,194.004,661.291,194.412,661.291,195.444z"/>
		<path fill="#58595B" d="M672.547,199.885l-0.601,1.272c-0.863,1.224-2.256,1.824-3.84,1.824c-2.376,0-3.961-1.176-3.961-3.456
			c0-2.928,3.36-4.249,7.562-4.249h0.815V194.7c0-0.576,0-1.08-0.048-1.608c-0.144-1.704-1.248-2.665-3.24-2.665
			c-1.752,0-3.385,0.937-3.648,3.145h-0.936c0.168-2.256,2.016-3.913,4.584-3.913c2.616,0,3.96,1.224,4.152,3.336
			c0.048,0.624,0.048,1.032,0.048,1.656v4.128c0,1.32,0.072,2.256,0.216,3.864h-0.936L672.547,199.885z M672.522,197.677v-1.632
			c-3.648-0.24-7.368,0.72-7.368,3.432c0,1.704,1.056,2.736,3.168,2.736C670.843,202.213,672.522,200.125,672.522,197.677z"/>
		<path fill="#58595B" d="M677.969,197.749v4.896h-0.912v-17.642h0.912v11.713l7.057-6.72h1.248l-6.505,6.096l6.553,6.553h-1.296
			l-5.929-5.977L677.969,197.749z"/>
		<path fill="#58595B" d="M698.178,196.572h-10.081c0.145,4.104,2.4,5.641,4.608,5.641c1.921,0,3.745-1.104,4.369-3.504h0.936
			c-0.696,2.856-2.904,4.272-5.353,4.272c-3.024,0-5.521-2.256-5.521-6.696c0-4.009,2.521-6.625,5.737-6.625
			c3.576,0,5.328,3.024,5.328,6.313C698.203,196.092,698.203,196.26,698.178,196.572z M688.097,195.78h9.169
			c-0.144-3.912-2.304-5.353-4.44-5.353C690.618,190.428,688.242,192.156,688.097,195.78z"/>
		<path fill="#58595B" d="M708.883,193.476h-0.937c-0.479-2.04-1.584-3.048-3.504-3.048c-1.681,0-3.049,0.984-3.049,2.641
			c0,1.656,1.32,2.304,3.265,2.76c2.904,0.672,4.345,1.632,4.345,3.768c0,2.112-1.849,3.384-4.369,3.384
			c-2.424,0-4.439-1.2-4.752-4.08h0.937c0.384,2.448,1.943,3.312,3.888,3.312c1.824,0,3.36-0.888,3.36-2.568
			c0-1.608-0.984-2.328-3.792-3c-2.064-0.504-3.816-1.344-3.816-3.504c0-2.04,1.656-3.48,4.032-3.48
			C707.178,189.66,708.547,191.316,708.883,193.476z"/>
		<path fill="#58595B" d="M717.665,187.355c0,0.384-0.312,0.696-0.695,0.696c-0.385,0-0.696-0.312-0.696-0.696
			c0-0.384,0.312-0.696,0.696-0.696C717.353,186.66,717.665,186.972,717.665,187.355z M716.513,202.645v-12.649h0.912v12.649
			H716.513z"/>
		<path fill="#58595B" d="M724.913,202.021v0.72c-0.384,0.048-0.888,0.072-1.344,0.072c-1.248,0-1.896-0.552-1.992-1.776
			c-0.048-0.528-0.048-0.96-0.048-1.68v-8.545h-1.561v-0.72h1.561v-2.688h0.912v2.688h2.448v0.72h-2.448v8.593
			c0,0.624,0,0.936,0.023,1.272C722.56,201.925,723.113,202.285,724.913,202.021z"/>
		<path fill="#58595B" d="M726.377,190.884l-0.096-5.88h0.936l-0.12,5.88H726.377z"/>
		<path fill="#58595B" d="M737.897,193.476h-0.937c-0.479-2.04-1.584-3.048-3.504-3.048c-1.681,0-3.049,0.984-3.049,2.641
			c0,1.656,1.32,2.304,3.265,2.76c2.904,0.672,4.345,1.632,4.345,3.768c0,2.112-1.849,3.384-4.368,3.384
			c-2.425,0-4.44-1.2-4.753-4.08h0.937c0.384,2.448,1.943,3.312,3.888,3.312c1.824,0,3.36-0.888,3.36-2.568
			c0-1.608-0.984-2.328-3.792-3c-2.064-0.504-3.816-1.344-3.816-3.504c0-2.04,1.656-3.48,4.032-3.48
			C736.193,189.66,737.561,191.316,737.897,193.476z"/>
		<path fill="#58595B" d="M755.489,194.004h-0.937c-0.432-2.232-1.896-3.601-4.248-3.601c-2.28,0-4.776,1.872-4.776,5.785
			c0,4.128,2.28,6.024,4.68,6.024c2.041,0,3.769-1.2,4.225-3.408h0.937c-0.528,2.64-2.593,4.176-5.232,4.176
			c-3.121,0-5.617-2.352-5.617-6.648c0-4.152,2.665-6.673,5.833-6.673C753.16,189.66,755.104,191.412,755.489,194.004z"/>
		<path fill="#58595B" d="M762.976,189.732v0.744c-2.28-0.168-3.888,1.32-3.888,5.16v7.009h-0.912v-12.649h0.912v2.568l0.672-1.536
			c0.624-0.864,1.536-1.368,2.568-1.368C762.568,189.66,762.785,189.684,762.976,189.732z"/>
		<path fill="#58595B" d="M774.856,196.572h-10.081c0.145,4.104,2.4,5.641,4.608,5.641c1.921,0,3.745-1.104,4.369-3.504h0.936
			c-0.696,2.856-2.904,4.272-5.353,4.272c-3.024,0-5.521-2.256-5.521-6.696c0-4.009,2.521-6.625,5.737-6.625
			c3.576,0,5.328,3.024,5.328,6.313C774.881,196.092,774.881,196.26,774.856,196.572z M764.775,195.78h9.169
			c-0.144-3.912-2.304-5.353-4.44-5.353C767.296,190.428,764.92,192.156,764.775,195.78z"/>
		<path fill="#58595B" d="M785.393,199.885l-0.601,1.272c-0.863,1.224-2.256,1.824-3.84,1.824c-2.376,0-3.961-1.176-3.961-3.456
			c0-2.928,3.36-4.249,7.562-4.249h0.815V194.7c0-0.576,0-1.08-0.048-1.608c-0.144-1.704-1.248-2.665-3.24-2.665
			c-1.752,0-3.385,0.937-3.648,3.145h-0.936c0.168-2.256,2.016-3.913,4.584-3.913c2.616,0,3.96,1.224,4.152,3.336
			c0.048,0.624,0.048,1.032,0.048,1.656v4.128c0,1.32,0.072,2.256,0.216,3.864h-0.936L785.393,199.885z M785.369,197.677v-1.632
			c-3.648-0.24-7.368,0.72-7.368,3.432c0,1.704,1.056,2.736,3.168,2.736C783.689,202.213,785.369,200.125,785.369,197.677z"/>
		<path fill="#58595B" d="M793.744,202.021v0.72c-0.384,0.048-0.888,0.072-1.344,0.072c-1.248,0-1.896-0.552-1.992-1.776
			c-0.048-0.528-0.048-0.96-0.048-1.68v-8.545H788.8v-0.72h1.561v-2.688h0.912v2.688h2.448v0.72h-2.448v8.593
			c0,0.624,0,0.936,0.023,1.272C791.391,201.925,791.944,202.285,793.744,202.021z"/>
		<path fill="#58595B" d="M807.161,196.333c0,3.888-2.28,6.648-6.025,6.648c-3.744,0-6.024-2.76-6.024-6.648
			c0-3.913,2.28-6.673,6.024-6.673C804.881,189.66,807.161,192.42,807.161,196.333z M806.177,196.333
			c0-3.937-2.353-5.905-5.041-5.905c-2.688,0-5.016,1.968-5.016,5.905c0,3.912,2.328,5.88,5.016,5.88
			C803.824,202.213,806.177,200.245,806.177,196.333z"/>
		<path fill="#58595B" d="M814.576,189.732v0.744c-2.28-0.168-3.888,1.32-3.888,5.16v7.009h-0.912v-12.649h0.912v2.568l0.672-1.536
			c0.624-0.864,1.536-1.368,2.568-1.368C814.168,189.66,814.385,189.684,814.576,189.732z"/>
		<path fill="#58595B" d="M815.559,190.884l-0.096-5.88h0.936l-0.12,5.88H815.559z"/>
		<path fill="#58595B" d="M827.08,193.476h-0.937c-0.479-2.04-1.584-3.048-3.504-3.048c-1.681,0-3.049,0.984-3.049,2.641
			c0,1.656,1.32,2.304,3.265,2.76c2.904,0.672,4.345,1.632,4.345,3.768c0,2.112-1.849,3.384-4.369,3.384
			c-2.424,0-4.439-1.2-4.752-4.08h0.937c0.384,2.448,1.943,3.312,3.888,3.312c1.824,0,3.36-0.888,3.36-2.568
			c0-1.608-0.984-2.328-3.792-3c-2.064-0.504-3.816-1.344-3.816-3.504c0-2.04,1.656-3.48,4.032-3.48
			C825.376,189.66,826.744,191.316,827.08,193.476z"/>
		<path fill="#58595B" d="M432.766,231.059v7.057h-0.912v-6.841c0-0.84-0.024-1.392-0.096-2.04
			c-0.217-1.968-1.297-3.336-3.576-3.312c-2.232,0-4.272,1.56-4.272,5.184v7.009h-0.912v-17.762h0.912v7.825l0.575-1.32
			c0.961-1.2,2.305-1.729,3.793-1.729c2.616,0,4.152,1.44,4.393,3.84C432.742,229.619,432.766,230.026,432.766,231.059z"/>
		<path fill="#58595B" d="M446.302,232.042H436.22c0.145,4.104,2.4,5.641,4.608,5.641c1.921,0,3.745-1.104,4.369-3.504h0.936
			c-0.696,2.856-2.904,4.272-5.353,4.272c-3.024,0-5.521-2.256-5.521-6.696c0-4.008,2.521-6.625,5.737-6.625
			c3.576,0,5.328,3.024,5.328,6.313C446.326,231.563,446.326,231.73,446.302,232.042z M436.22,231.25h9.169
			c-0.144-3.912-2.304-5.353-4.44-5.353C438.741,225.898,436.365,227.626,436.22,231.25z"/>
		<path fill="#58595B" d="M456.838,235.355l-0.601,1.272c-0.863,1.224-2.256,1.824-3.84,1.824c-2.376,0-3.961-1.176-3.961-3.456
			c0-2.928,3.36-4.249,7.562-4.249h0.815v-0.576c0-0.576,0-1.08-0.048-1.608c-0.144-1.704-1.248-2.665-3.24-2.665
			c-1.752,0-3.385,0.937-3.648,3.145h-0.936c0.168-2.256,2.016-3.913,4.584-3.913c2.616,0,3.96,1.224,4.152,3.336
			c0.048,0.624,0.048,1.032,0.048,1.656v4.128c0,1.32,0.072,2.256,0.216,3.864h-0.936L456.838,235.355z M456.813,233.147v-1.632
			c-3.648-0.24-7.368,0.72-7.368,3.432c0,1.704,1.056,2.736,3.168,2.736C455.134,237.683,456.813,235.595,456.813,233.147z"/>
		<path fill="#58595B" d="M466.149,225.202v0.744c-2.28-0.168-3.888,1.32-3.888,5.16v7.009h-0.912v-12.649h0.912v2.568l0.672-1.536
			c0.624-0.864,1.536-1.368,2.568-1.368C465.741,225.13,465.958,225.154,466.149,225.202z"/>
		<path fill="#58595B" d="M471.957,237.491v0.72c-0.384,0.048-0.888,0.072-1.344,0.072c-1.248,0-1.896-0.552-1.992-1.776
			c-0.048-0.528-0.048-0.96-0.048-1.68v-8.545h-1.561v-0.72h1.561v-2.688h0.912v2.688h2.448v0.72h-2.448v8.593
			c0,0.624,0,0.936,0.023,1.272C469.604,237.395,470.157,237.755,471.957,237.491z"/>
		<path fill="#58595B" d="M483.98,225.202v0.744c-2.28-0.168-3.888,1.32-3.888,5.16v7.009h-0.912v-12.649h0.912v2.568l0.672-1.536
			c0.624-0.864,1.536-1.368,2.568-1.368C483.572,225.13,483.789,225.154,483.98,225.202z"/>
		<path fill="#58595B" d="M493.677,235.355l-0.601,1.272c-0.863,1.224-2.256,1.824-3.84,1.824c-2.376,0-3.961-1.176-3.961-3.456
			c0-2.928,3.36-4.249,7.562-4.249h0.815v-0.576c0-0.576,0-1.08-0.048-1.608c-0.144-1.704-1.248-2.665-3.24-2.665
			c-1.752,0-3.385,0.937-3.648,3.145h-0.936c0.168-2.256,2.016-3.913,4.584-3.913c2.616,0,3.96,1.224,4.152,3.336
			c0.048,0.624,0.048,1.032,0.048,1.656v4.128c0,1.32,0.072,2.256,0.216,3.864h-0.936L493.677,235.355z M493.652,233.147v-1.632
			c-3.648-0.24-7.368,0.72-7.368,3.432c0,1.704,1.056,2.736,3.168,2.736C491.972,237.683,493.652,235.595,493.652,233.147z"/>
		<path fill="#58595B" d="M508.149,229.475h-0.937c-0.432-2.232-1.896-3.601-4.248-3.601c-2.28,0-4.776,1.873-4.776,5.785
			c0,4.128,2.28,6.024,4.68,6.024c2.041,0,3.769-1.2,4.225-3.408h0.937c-0.528,2.64-2.593,4.176-5.232,4.176
			c-3.121,0-5.617-2.352-5.617-6.648c0-4.152,2.665-6.673,5.833-6.673C505.82,225.13,507.764,226.882,508.149,229.475z"/>
		<path fill="#58595B" d="M520.868,232.042h-10.081c0.145,4.104,2.4,5.641,4.608,5.641c1.921,0,3.745-1.104,4.369-3.504h0.936
			c-0.696,2.856-2.904,4.272-5.353,4.272c-3.024,0-5.521-2.256-5.521-6.696c0-4.008,2.521-6.625,5.737-6.625
			c3.576,0,5.328,3.024,5.328,6.313C520.892,231.563,520.892,231.73,520.868,232.042z M510.787,231.25h9.169
			c-0.144-3.912-2.304-5.353-4.44-5.353C513.307,225.898,510.931,227.626,510.787,231.25z"/>
		<path fill="#58595B" d="M522.547,240.923h-0.815l1.296-3.84h0.96l0.024,0.144L522.547,240.923z"/>
		<path fill="#58595B" d="M544.341,238.115h-1.104l-3.409-11.689l-3.408,11.689h-1.224l-4.032-12.649h1.056l3.601,11.761
			l3.408-11.737h1.2l3.433,11.689l3.504-11.713h0.984L544.341,238.115z"/>
		<path fill="#58595B" d="M551.562,222.826c0,0.384-0.312,0.696-0.695,0.696c-0.385,0-0.696-0.312-0.696-0.696
			c0-0.384,0.312-0.696,0.696-0.696C551.251,222.13,551.562,222.442,551.562,222.826z M550.411,238.115v-12.649h0.912v12.649
			H550.411z"/>
		<path fill="#58595B" d="M555.811,235.043c0,0.72,0,1.176,0.023,1.536c0.049,0.792,0.36,0.984,1.393,0.864v0.72
			c-0.288,0.072-0.6,0.072-0.888,0.072c-0.792,0-1.368-0.312-1.417-1.416c-0.023-0.48-0.023-0.912-0.023-1.752v-14.593h0.912
			V235.043z"/>
		<path fill="#58595B" d="M560.587,235.043c0,0.72,0,1.176,0.023,1.536c0.049,0.792,0.36,0.984,1.393,0.864v0.72
			c-0.288,0.072-0.6,0.072-0.888,0.072c-0.792,0-1.368-0.312-1.417-1.416c-0.023-0.48-0.023-0.912-0.023-1.752v-14.593h0.912
			V235.043z"/>
		<path fill="#58595B" d="M580.315,231.659c0,4.536-2.76,6.792-5.856,6.792c-1.464,0-2.593-0.432-3.528-1.44l-0.72-1.488v7.297
			h-0.912v-17.498h0.912v2.808l0.744-1.416c1.031-1.152,2.208-1.584,3.815-1.584C578.179,225.13,580.315,227.866,580.315,231.659z
			 M579.307,231.803c0-3.216-1.608-5.905-4.633-5.905c-2.4,0-4.464,1.393-4.464,5.401v1.248c0,3.912,2.304,5.136,4.248,5.136
			C577.291,237.683,579.307,235.355,579.307,231.803z"/>
		<path fill="#58595B" d="M587.73,225.202v0.744c-2.28-0.168-3.888,1.32-3.888,5.16v7.009h-0.912v-12.649h0.912v2.568l0.672-1.536
			c0.624-0.864,1.536-1.368,2.568-1.368C587.322,225.13,587.539,225.154,587.73,225.202z"/>
		<path fill="#58595B" d="M600.619,231.803c0,3.888-2.28,6.648-6.025,6.648c-3.744,0-6.024-2.76-6.024-6.648
			c0-3.913,2.28-6.673,6.024-6.673C598.339,225.13,600.619,227.89,600.619,231.803z M599.635,231.803
			c0-3.937-2.353-5.905-5.041-5.905c-2.688,0-5.016,1.968-5.016,5.905c0,3.912,2.328,5.88,5.016,5.88
			C597.282,237.683,599.635,235.715,599.635,231.803z"/>
		<path fill="#58595B" d="M613.243,238.115h-0.912v-2.688l-0.744,1.44c-1.032,1.152-2.208,1.584-3.816,1.584
			c-3.408,0-5.545-2.736-5.545-6.552c0-4.513,2.761-6.769,5.856-6.769c1.465,0,2.593,0.432,3.528,1.44l0.721,1.464v-7.561h0.912
			V238.115z M612.331,232.259v-1.224c0-3.913-2.305-5.137-4.249-5.137c-2.832,0-4.848,2.329-4.848,5.881
			c0,3.192,1.607,5.904,4.632,5.904C610.266,237.683,612.331,236.291,612.331,232.259z"/>
		<path fill="#58595B" d="M626.443,238.115h-0.912v-2.712l-0.576,1.32c-0.984,1.176-2.305,1.728-3.792,1.728
			c-2.568,0-4.104-1.44-4.393-3.72c-0.072-0.648-0.097-1.08-0.097-2.112v-7.152h0.912v6.913c0,0.768,0.024,1.344,0.097,1.992
			c0.239,1.968,1.368,3.288,3.6,3.288c2.232,0,4.249-1.584,4.249-5.185v-7.008h0.912V238.115z"/>
		<path fill="#58595B" d="M640.051,229.475h-0.937c-0.432-2.232-1.896-3.601-4.248-3.601c-2.28,0-4.776,1.873-4.776,5.785
			c0,4.128,2.28,6.024,4.68,6.024c2.04,0,3.769-1.2,4.225-3.408h0.937c-0.528,2.64-2.593,4.176-5.232,4.176
			c-3.121,0-5.617-2.352-5.617-6.648c0-4.152,2.665-6.673,5.833-6.673C637.721,225.13,639.666,226.882,640.051,229.475z"/>
		<path fill="#58595B" d="M652.77,232.042h-10.081c0.145,4.104,2.4,5.641,4.608,5.641c1.921,0,3.745-1.104,4.369-3.504h0.936
			c-0.696,2.856-2.904,4.272-5.353,4.272c-3.024,0-5.521-2.256-5.521-6.696c0-4.008,2.521-6.625,5.737-6.625
			c3.576,0,5.328,3.024,5.328,6.313C652.795,231.563,652.795,231.73,652.77,232.042z M642.689,231.25h9.169
			c-0.144-3.912-2.304-5.353-4.44-5.353C645.21,225.898,642.834,227.626,642.689,231.25z"/>
		<path fill="#58595B" d="M668.082,235.355l-0.601,1.272c-0.863,1.224-2.256,1.824-3.84,1.824c-2.376,0-3.961-1.176-3.961-3.456
			c0-2.928,3.36-4.249,7.562-4.249h0.815v-0.576c0-0.576,0-1.08-0.048-1.608c-0.144-1.704-1.248-2.665-3.24-2.665
			c-1.752,0-3.385,0.937-3.648,3.145h-0.936c0.168-2.256,2.016-3.913,4.584-3.913c2.616,0,3.96,1.224,4.152,3.336
			c0.048,0.624,0.048,1.032,0.048,1.656v4.128c0,1.32,0.072,2.256,0.216,3.864h-0.936L668.082,235.355z M668.057,233.147v-1.632
			c-3.648-0.24-7.368,0.72-7.368,3.432c0,1.704,1.056,2.736,3.168,2.736C666.378,237.683,668.057,235.595,668.057,233.147z"/>
		<path fill="#58595B" d="M687.378,238.115h-0.912v-2.688l-0.744,1.44c-1.032,1.152-2.208,1.584-3.816,1.584
			c-3.408,0-5.545-2.736-5.545-6.552c0-4.513,2.761-6.769,5.856-6.769c1.465,0,2.593,0.432,3.528,1.44l0.721,1.464v-7.561h0.912
			V238.115z M686.466,232.259v-1.224c0-3.913-2.305-5.137-4.249-5.137c-2.832,0-4.848,2.329-4.848,5.881
			c0,3.192,1.607,5.904,4.632,5.904C684.401,237.683,686.466,236.291,686.466,232.259z"/>
		<path fill="#58595B" d="M701.057,232.042h-10.081c0.145,4.104,2.4,5.641,4.608,5.641c1.921,0,3.745-1.104,4.369-3.504h0.936
			c-0.696,2.856-2.904,4.272-5.353,4.272c-3.024,0-5.521-2.256-5.521-6.696c0-4.008,2.521-6.625,5.737-6.625
			c3.576,0,5.328,3.024,5.328,6.313C701.082,231.563,701.082,231.73,701.057,232.042z M690.976,231.25h9.169
			c-0.144-3.912-2.304-5.353-4.44-5.353C693.497,225.898,691.121,227.626,690.976,231.25z"/>
		<path fill="#58595B" d="M711.761,228.946h-0.937c-0.479-2.04-1.584-3.048-3.504-3.048c-1.681,0-3.049,0.984-3.049,2.641
			c0,1.656,1.32,2.304,3.265,2.76c2.904,0.672,4.345,1.632,4.345,3.768c0,2.112-1.849,3.384-4.369,3.384
			c-2.424,0-4.439-1.2-4.752-4.08h0.937c0.384,2.448,1.943,3.312,3.888,3.312c1.824,0,3.36-0.888,3.36-2.568
			c0-1.608-0.984-2.328-3.792-3c-2.064-0.504-3.816-1.344-3.816-3.504c0-2.04,1.656-3.48,4.032-3.48
			C710.057,225.13,711.426,226.786,711.761,228.946z"/>
		<path fill="#58595B" d="M715.768,222.826c0,0.384-0.312,0.696-0.695,0.696c-0.385,0-0.696-0.312-0.696-0.696
			c0-0.384,0.312-0.696,0.696-0.696C715.457,222.13,715.768,222.442,715.768,222.826z M714.617,238.115v-12.649h0.912v12.649
			H714.617z"/>
		<path fill="#58595B" d="M729.185,234.803c0,1.705,0,2.688-0.024,3.48c-0.096,3.072-2.064,5.064-5.4,5.064
			c-2.641,0-4.681-1.08-5.04-3.912l-0.049-0.312h0.937l0.024,0.312c0.288,2.208,2.063,3.12,4.176,3.12
			c2.856,0,4.368-1.752,4.44-4.344c0.024-0.792,0.024-1.368,0.024-2.353v-0.432l-0.744,1.44c-1.032,1.152-2.208,1.584-3.816,1.584
			c-3.408,0-5.545-2.736-5.545-6.552c0-4.513,2.761-6.769,5.856-6.769c1.465,0,2.593,0.432,3.528,1.44l0.721,1.464v-2.64h0.912
			V234.803z M728.273,232.259v-1.224c0-3.913-2.305-5.137-4.249-5.137c-2.832,0-4.848,2.329-4.848,5.881
			c0,3.192,1.607,5.904,4.632,5.904C726.209,237.683,728.273,236.291,728.273,232.259z"/>
		<path fill="#58595B" d="M742.601,231.059v7.057h-0.912v-6.841c0-0.84-0.024-1.392-0.096-2.04
			c-0.217-1.968-1.297-3.312-3.577-3.312c-2.231,0-4.271,1.56-4.271,5.184v7.009h-0.912v-12.649h0.912v2.712l0.575-1.32
			c0.961-1.2,2.305-1.729,3.793-1.729c2.616,0,4.152,1.44,4.393,3.84C742.577,229.619,742.601,230.026,742.601,231.059z"/>
		<path fill="#58595B" d="M754.719,237.491v0.72c-0.384,0.048-0.888,0.072-1.344,0.072c-1.248,0-1.896-0.552-1.992-1.776
			c-0.048-0.528-0.048-0.96-0.048-1.68v-8.545h-1.561v-0.72h1.561v-2.688h0.912v2.688h2.448v0.72h-2.448v8.593
			c0,0.624,0,0.936,0.023,1.272C752.367,237.395,752.92,237.755,754.719,237.491z"/>
		<path fill="#58595B" d="M766.936,231.059v7.057h-0.912v-6.841c0-0.84-0.024-1.392-0.096-2.04
			c-0.217-1.968-1.297-3.336-3.576-3.312c-2.232,0-4.272,1.56-4.272,5.184v7.009h-0.912v-17.762h0.912v7.825l0.575-1.32
			c0.961-1.2,2.305-1.729,3.793-1.729c2.616,0,4.152,1.44,4.393,3.84C766.912,229.619,766.936,230.026,766.936,231.059z"/>
		<path fill="#58595B" d="M778.168,235.355l-0.601,1.272c-0.863,1.224-2.256,1.824-3.84,1.824c-2.376,0-3.961-1.176-3.961-3.456
			c0-2.928,3.36-4.249,7.562-4.249h0.815v-0.576c0-0.576,0-1.08-0.048-1.608c-0.144-1.704-1.248-2.665-3.24-2.665
			c-1.752,0-3.385,0.937-3.648,3.145h-0.936c0.168-2.256,2.016-3.913,4.584-3.913c2.616,0,3.96,1.224,4.152,3.336
			c0.048,0.624,0.048,1.032,0.048,1.656v4.128c0,1.32,0.072,2.256,0.216,3.864h-0.936L778.168,235.355z M778.143,233.147v-1.632
			c-3.648-0.24-7.368,0.72-7.368,3.432c0,1.704,1.056,2.736,3.168,2.736C776.464,237.683,778.143,235.595,778.143,233.147z"/>
		<path fill="#58595B" d="M786.519,237.491v0.72c-0.384,0.048-0.888,0.072-1.344,0.072c-1.248,0-1.896-0.552-1.992-1.776
			c-0.048-0.528-0.048-0.96-0.048-1.68v-8.545h-1.561v-0.72h1.561v-2.688h0.912v2.688h2.448v0.72h-2.448v8.593
			c0,0.624,0,0.936,0.023,1.272C784.167,237.395,784.719,237.755,786.519,237.491z"/>
		<path fill="#58595B" d="M439.343,266.385v7.201h-0.912v-6.792c0-0.96-0.023-1.536-0.096-2.184
			c-0.216-1.968-1.176-3.241-3.097-3.241c-1.992,0-3.6,1.536-3.6,5.208v7.009h-0.912v-6.792c0-0.96-0.024-1.536-0.097-2.184
			c-0.239-1.968-1.199-3.241-3.12-3.241c-1.968,0-3.6,1.536-3.6,5.208v7.009h-0.912v-12.649h0.912v2.472l0.624-1.392
			c0.815-0.96,1.92-1.417,3.192-1.417c2.04,0,3.264,1.128,3.696,3.048l0.84-1.632c0.815-0.96,1.896-1.417,3.168-1.417
			c2.28,0,3.553,1.393,3.816,3.697C439.319,264.945,439.343,265.353,439.343,266.385z"/>
		<path fill="#58595B" d="M450.598,270.825l-0.601,1.272c-0.863,1.224-2.256,1.824-3.84,1.824c-2.376,0-3.961-1.176-3.961-3.456
			c0-2.928,3.36-4.249,7.562-4.249h0.815v-0.576c0-0.576,0-1.08-0.048-1.608c-0.144-1.704-1.248-2.665-3.24-2.665
			c-1.752,0-3.385,0.937-3.648,3.145h-0.936c0.168-2.256,2.016-3.913,4.584-3.913c2.616,0,3.96,1.224,4.152,3.336
			c0.048,0.624,0.048,1.032,0.048,1.656v4.128c0,1.32,0.072,2.256,0.216,3.864h-0.936L450.598,270.825z M450.574,268.617v-1.632
			c-3.648-0.24-7.368,0.72-7.368,3.432c0,1.704,1.056,2.736,3.168,2.736C448.894,273.153,450.574,271.065,450.574,268.617z"/>
		<path fill="#58595B" d="M456.021,268.689v4.896h-0.912v-17.642h0.912v11.713l7.057-6.72h1.248l-6.505,6.096l6.553,6.553h-1.296
			l-5.929-5.977L456.021,268.689z"/>
		<path fill="#58595B" d="M476.23,267.513h-10.081c0.145,4.104,2.4,5.641,4.608,5.641c1.921,0,3.745-1.104,4.369-3.504h0.936
			c-0.696,2.856-2.904,4.272-5.353,4.272c-3.024,0-5.521-2.256-5.521-6.696c0-4.009,2.521-6.625,5.737-6.625
			c3.576,0,5.328,3.024,5.328,6.313C476.255,267.033,476.255,267.201,476.23,267.513z M466.149,266.721h9.169
			c-0.144-3.912-2.304-5.353-4.44-5.353C468.67,261.368,466.294,263.097,466.149,266.721z"/>
		<path fill="#58595B" d="M486.934,264.417h-0.937c-0.479-2.04-1.584-3.048-3.504-3.048c-1.681,0-3.049,0.984-3.049,2.641
			c0,1.656,1.32,2.304,3.265,2.76c2.904,0.672,4.345,1.632,4.345,3.768c0,2.112-1.849,3.384-4.368,3.384
			c-2.425,0-4.44-1.2-4.753-4.08h0.937c0.384,2.448,1.943,3.312,3.888,3.312c1.824,0,3.36-0.888,3.36-2.568
			c0-1.608-0.984-2.328-3.792-3c-2.064-0.504-3.816-1.344-3.816-3.504c0-2.04,1.656-3.48,4.032-3.48
			C485.23,260.6,486.598,262.256,486.934,264.417z"/>
		<path fill="#58595B" d="M495.717,258.296c0,0.384-0.312,0.696-0.695,0.696c-0.385,0-0.696-0.312-0.696-0.696
			c0-0.384,0.312-0.696,0.696-0.696C495.405,257.6,495.717,257.912,495.717,258.296z M494.565,273.585v-12.649h0.912v12.649H494.565
			z"/>
		<path fill="#58595B" d="M502.965,272.961v0.72c-0.384,0.048-0.888,0.072-1.344,0.072c-1.248,0-1.896-0.552-1.992-1.776
			c-0.048-0.528-0.048-0.96-0.048-1.68v-8.545h-1.561v-0.72h1.561v-2.688h0.912v2.688h2.448v0.72h-2.448v8.593
			c0,0.624,0,0.936,0.023,1.272C500.612,272.865,501.165,273.226,502.965,272.961z"/>
		<path fill="#58595B" d="M504.428,261.824l-0.096-5.88h0.936l-0.12,5.88H504.428z"/>
		<path fill="#58595B" d="M515.949,264.417h-0.937c-0.479-2.04-1.584-3.048-3.504-3.048c-1.681,0-3.049,0.984-3.049,2.641
			c0,1.656,1.32,2.304,3.265,2.76c2.904,0.672,4.345,1.632,4.345,3.768c0,2.112-1.849,3.384-4.369,3.384
			c-2.424,0-4.439-1.2-4.752-4.08h0.937c0.384,2.448,1.943,3.312,3.888,3.312c1.824,0,3.36-0.888,3.36-2.568
			c0-1.608-0.984-2.328-3.792-3c-2.064-0.504-3.816-1.344-3.816-3.504c0-2.04,1.656-3.48,4.032-3.48
			C514.245,260.6,515.613,262.256,515.949,264.417z"/>
		<path fill="#58595B" d="M534.621,267.273c0,3.888-2.28,6.648-6.025,6.648c-3.744,0-6.024-2.76-6.024-6.648
			c0-3.913,2.28-6.673,6.024-6.673C532.341,260.6,534.621,263.36,534.621,267.273z M533.636,267.273
			c0-3.937-2.353-5.905-5.041-5.905c-2.688,0-5.016,1.968-5.016,5.905c0,3.912,2.328,5.88,5.016,5.88
			C531.284,273.153,533.636,271.185,533.636,267.273z"/>
		<path fill="#58595B" d="M548.253,267.129c0,4.537-2.76,6.792-5.856,6.792c-1.464,0-2.593-0.432-3.528-1.44l-0.72-1.488v2.592
			h-0.912v-17.642h0.912v7.657l0.744-1.416c1.031-1.152,2.208-1.584,3.815-1.584C546.117,260.6,548.253,263.336,548.253,267.129z
			 M547.245,267.273c0-3.216-1.608-5.905-4.633-5.905c-2.4,0-4.464,1.393-4.464,5.401v1.248c0,3.912,2.304,5.136,4.248,5.136
			C545.228,273.153,547.245,270.825,547.245,267.273z"/>
		<path fill="#58595B" d="M558.764,264.417h-0.937c-0.479-2.04-1.584-3.048-3.504-3.048c-1.681,0-3.049,0.984-3.049,2.641
			c0,1.656,1.32,2.304,3.265,2.76c2.904,0.672,4.345,1.632,4.345,3.768c0,2.112-1.849,3.384-4.368,3.384
			c-2.425,0-4.44-1.2-4.753-4.08h0.937c0.384,2.448,1.943,3.312,3.888,3.312c1.824,0,3.36-0.888,3.36-2.568
			c0-1.608-0.984-2.328-3.792-3c-2.064-0.504-3.816-1.344-3.816-3.504c0-2.04,1.656-3.48,4.032-3.48
			C557.06,260.6,558.428,262.256,558.764,264.417z"/>
		<path fill="#58595B" d="M571.652,267.513h-10.081c0.145,4.104,2.4,5.641,4.608,5.641c1.921,0,3.745-1.104,4.369-3.504h0.936
			c-0.696,2.856-2.904,4.272-5.353,4.272c-3.024,0-5.521-2.256-5.521-6.696c0-4.009,2.521-6.625,5.737-6.625
			c3.576,0,5.328,3.024,5.328,6.313C571.677,267.033,571.677,267.201,571.652,267.513z M561.571,266.721h9.169
			c-0.144-3.912-2.304-5.353-4.44-5.353C564.092,261.368,561.716,263.097,561.571,266.721z"/>
		<path fill="#58595B" d="M579.26,260.672v0.744c-2.28-0.168-3.888,1.32-3.888,5.16v7.009h-0.912v-12.649h0.912v2.568l0.672-1.536
			c0.624-0.864,1.536-1.368,2.568-1.368C578.851,260.6,579.068,260.625,579.26,260.672z"/>
		<path fill="#58595B" d="M585.884,273.585h-1.2l-4.944-12.649h1.032l4.536,11.953l4.536-11.953h0.984L585.884,273.585z"/>
		<path fill="#58595B" d="M602.9,267.513h-10.081c0.145,4.104,2.4,5.641,4.608,5.641c1.921,0,3.745-1.104,4.369-3.504h0.936
			c-0.696,2.856-2.904,4.272-5.353,4.272c-3.024,0-5.521-2.256-5.521-6.696c0-4.009,2.521-6.625,5.737-6.625
			c3.576,0,5.328,3.024,5.328,6.313C602.925,267.033,602.925,267.201,602.9,267.513z M592.819,266.721h9.169
			c-0.144-3.912-2.304-5.353-4.44-5.353C595.34,261.368,592.964,263.097,592.819,266.721z"/>
		<path fill="#58595B" d="M610.508,260.672v0.744c-2.28-0.168-3.888,1.32-3.888,5.16v7.009h-0.912v-12.649h0.912v2.568l0.672-1.536
			c0.624-0.864,1.536-1.368,2.568-1.368C610.099,260.6,610.316,260.625,610.508,260.672z"/>
		<path fill="#58595B" d="M611.491,261.824l-0.096-5.88h0.936l-0.12,5.88H611.491z"/>
		<path fill="#58595B" d="M623.011,264.417h-0.937c-0.479-2.04-1.584-3.048-3.504-3.048c-1.681,0-3.049,0.984-3.049,2.641
			c0,1.656,1.32,2.304,3.265,2.76c2.904,0.672,4.345,1.632,4.345,3.768c0,2.112-1.849,3.384-4.369,3.384
			c-2.424,0-4.439-1.2-4.752-4.08h0.937c0.384,2.448,1.943,3.312,3.888,3.312c1.824,0,3.36-0.888,3.36-2.568
			c0-1.608-0.984-2.328-3.792-3c-2.064-0.504-3.816-1.344-3.816-3.504c0-2.04,1.656-3.48,4.032-3.48
			C621.307,260.6,622.676,262.256,623.011,264.417z"/>
		<path fill="#58595B" d="M640.412,266.529v7.057H639.5v-6.841c0-0.84-0.024-1.392-0.096-2.04c-0.217-1.968-1.297-3.336-3.577-3.312
			c-2.231,0-4.271,1.56-4.271,5.184v7.009h-0.912v-17.762h0.912v7.825l0.575-1.32c0.961-1.2,2.305-1.729,3.793-1.729
			c2.616,0,4.152,1.44,4.393,3.84C640.387,265.089,640.412,265.497,640.412,266.529z"/>
		<path fill="#58595B" d="M653.947,267.513h-10.081c0.145,4.104,2.4,5.641,4.608,5.641c1.921,0,3.745-1.104,4.369-3.504h0.936
			c-0.696,2.856-2.904,4.272-5.353,4.272c-3.024,0-5.521-2.256-5.521-6.696c0-4.009,2.521-6.625,5.737-6.625
			c3.576,0,5.328,3.024,5.328,6.313C653.971,267.033,653.971,267.201,653.947,267.513z M643.866,266.721h9.169
			c-0.144-3.912-2.304-5.353-4.44-5.353C646.386,261.368,644.01,263.097,643.866,266.721z"/>
		<path fill="#58595B" d="M664.483,270.825l-0.601,1.272c-0.863,1.224-2.256,1.824-3.84,1.824c-2.376,0-3.961-1.176-3.961-3.456
			c0-2.928,3.36-4.249,7.562-4.249h0.815v-0.576c0-0.576,0-1.08-0.048-1.608c-0.144-1.704-1.248-2.665-3.24-2.665
			c-1.752,0-3.385,0.937-3.648,3.145h-0.936c0.168-2.256,2.016-3.913,4.584-3.913c2.616,0,3.96,1.224,4.152,3.336
			c0.048,0.624,0.048,1.032,0.048,1.656v4.128c0,1.32,0.072,2.256,0.216,3.864h-0.936L664.483,270.825z M664.459,268.617v-1.632
			c-3.648-0.24-7.368,0.72-7.368,3.432c0,1.704,1.056,2.736,3.168,2.736C662.779,273.153,664.459,271.065,664.459,268.617z"/>
		<path fill="#58595B" d="M673.795,260.672v0.744c-2.28-0.168-3.888,1.32-3.888,5.16v7.009h-0.912v-12.649h0.912v2.568l0.672-1.536
			c0.624-0.864,1.536-1.368,2.568-1.368C673.386,260.6,673.603,260.625,673.795,260.672z"/>
		<path fill="#58595B" d="M679.602,272.961v0.72c-0.384,0.048-0.888,0.072-1.344,0.072c-1.248,0-1.896-0.552-1.992-1.776
			c-0.048-0.528-0.048-0.96-0.048-1.68v-8.545h-1.561v-0.72h1.561v-2.688h0.912v2.688h2.448v0.72h-2.448v8.593
			c0,0.624,0,0.936,0.023,1.272C677.25,272.865,677.802,273.226,679.602,272.961z"/>
		<path fill="#58595B" d="M694.722,264.417h-0.937c-0.479-2.04-1.584-3.048-3.504-3.048c-1.681,0-3.049,0.984-3.049,2.641
			c0,1.656,1.32,2.304,3.265,2.76c2.904,0.672,4.345,1.632,4.345,3.768c0,2.112-1.849,3.384-4.369,3.384
			c-2.424,0-4.439-1.2-4.752-4.08h0.937c0.384,2.448,1.943,3.312,3.888,3.312c1.824,0,3.36-0.888,3.36-2.568
			c0-1.608-0.984-2.328-3.792-3c-2.064-0.504-3.816-1.344-3.816-3.504c0-2.04,1.656-3.48,4.032-3.48
			C693.018,260.6,694.386,262.256,694.722,264.417z"/>
		<path fill="#58595B" d="M701.418,272.961v0.72c-0.384,0.048-0.888,0.072-1.344,0.072c-1.248,0-1.896-0.552-1.992-1.776
			c-0.048-0.528-0.048-0.96-0.048-1.68v-8.545h-1.561v-0.72h1.561v-2.688h0.912v2.688h2.448v0.72h-2.448v8.593
			c0,0.624,0,0.936,0.023,1.272C699.065,272.865,699.618,273.226,701.418,272.961z"/>
		<path fill="#58595B" d="M714.835,267.273c0,3.888-2.28,6.648-6.025,6.648c-3.744,0-6.024-2.76-6.024-6.648
			c0-3.913,2.28-6.673,6.024-6.673C712.554,260.6,714.835,263.36,714.835,267.273z M713.85,267.273c0-3.937-2.353-5.905-5.041-5.905
			c-2.688,0-5.016,1.968-5.016,5.905c0,3.912,2.328,5.88,5.016,5.88C711.498,273.153,713.85,271.185,713.85,267.273z"/>
		<path fill="#58595B" d="M728.467,267.129c0,4.537-2.761,6.792-5.856,6.792c-1.464,0-2.593-0.432-3.528-1.44l-0.72-1.488v7.297
			h-0.912v-17.498h0.912v2.808l0.744-1.416c1.031-1.152,2.208-1.584,3.815-1.584C726.331,260.6,728.467,263.336,728.467,267.129z
			 M727.459,267.273c0-3.216-1.608-5.905-4.633-5.905c-2.4,0-4.464,1.393-4.464,5.401v1.248c0,3.912,2.304,5.136,4.248,5.136
			C725.442,273.153,727.459,270.825,727.459,267.273z"/>
	</g>
</g>
</svg>
