<?xml version="1.0" encoding="utf-8"?>
<!-- Generator: Adobe Illustrator 16.0.0, SVG Export Plug-In . SVG Version: 6.00 Build 0)  -->
<!DOCTYPE svg PUBLIC "-//W3C//DTD SVG 1.0//EN" "http://www.w3.org/TR/2001/REC-SVG-20010904/DTD/svg10.dtd">
<svg version="1.0" xmlns="http://www.w3.org/2000/svg" xmlns:xlink="http://www.w3.org/1999/xlink" x="0px" y="0px"
	 width="807.076px" height="634.395px" viewBox="0 0 807.076 634.395" enable-background="new 0 0 807.076 634.395"
	 xml:space="preserve">
<g id="Header">
	<line opacity="0.45" fill="none" stroke="#000000" stroke-miterlimit="10" x1="396.77" y1="583.33" x2="396.77" y2="51.064"/>
	<g>
		<g>
			<path fill="#58595B" d="M449.457,197.933l-2.146,5.816h-0.905l5.815-15.259h1.105l5.75,15.259h-0.906l-2.189-5.816H449.457z
				 M455.715,197.203l-2.964-8.027l-3.007,8.027H455.715z"/>
			<path fill="#58595B" d="M474.781,203.749h-0.84v-2.477l-0.686,1.327c-0.951,1.062-2.034,1.46-3.516,1.46
				c-3.141,0-5.109-2.521-5.109-6.038c0-4.157,2.543-6.236,5.396-6.236c1.349,0,2.388,0.397,3.251,1.326l0.663,1.349v-6.965h0.84
				V203.749z M473.941,198.353v-1.127c0-3.604-2.123-4.732-3.914-4.732c-2.609,0-4.467,2.145-4.467,5.418
				c0,2.941,1.48,5.44,4.268,5.44C472.039,203.351,473.941,202.068,473.941,198.353z"/>
			<path fill="#58595B" d="M487.389,198.154h-9.287c0.133,3.782,2.211,5.197,4.246,5.197c1.769,0,3.449-1.017,4.024-3.229h0.862
				c-0.641,2.632-2.676,3.937-4.932,3.937c-2.786,0-5.086-2.079-5.086-6.17c0-3.693,2.322-6.103,5.285-6.103
				c3.295,0,4.909,2.786,4.909,5.815C487.411,197.711,487.411,197.866,487.389,198.154z M478.102,197.424h8.447
				c-0.133-3.604-2.123-4.931-4.092-4.931C480.424,192.493,478.234,194.085,478.102,197.424z"/>
			<path fill="#58595B" d="M497.255,195.301h-0.862c-0.441-1.879-1.459-2.808-3.229-2.808c-1.547,0-2.809,0.906-2.809,2.433
				c0,1.526,1.217,2.123,3.008,2.543c2.676,0.619,4.003,1.503,4.003,3.472c0,1.946-1.703,3.118-4.025,3.118
				c-2.233,0-4.091-1.106-4.378-3.76h0.861c0.354,2.255,1.793,3.052,3.583,3.052c1.681,0,3.097-0.818,3.097-2.366
				c0-1.481-0.907-2.145-3.494-2.764c-1.902-0.464-3.516-1.238-3.516-3.229c0-1.88,1.525-3.207,3.715-3.207
				C495.686,191.785,496.945,193.311,497.255,195.301z"/>
			<path fill="#58595B" d="M500.951,189.662c0,0.354-0.288,0.641-0.642,0.641c-0.354,0-0.642-0.288-0.642-0.641
				c0-0.354,0.287-0.642,0.642-0.642C500.663,189.021,500.951,189.308,500.951,189.662z M499.889,203.749v-11.654h0.841v11.654
				H499.889z"/>
			<path fill="#58595B" d="M513.314,200.697c0,1.57,0,2.477-0.021,3.207c-0.09,2.831-1.902,4.666-4.977,4.666
				c-2.433,0-4.313-0.995-4.644-3.604l-0.045-0.288h0.862l0.022,0.288c0.265,2.035,1.901,2.875,3.849,2.875
				c2.631,0,4.024-1.614,4.091-4.002c0.021-0.73,0.021-1.261,0.021-2.167v-0.398l-0.686,1.327c-0.95,1.062-2.034,1.46-3.516,1.46
				c-3.141,0-5.109-2.521-5.109-6.038c0-4.157,2.544-6.236,5.397-6.236c1.349,0,2.387,0.397,3.25,1.326l0.663,1.349v-2.432h0.841
				V200.697z M512.474,198.353v-1.127c0-3.604-2.123-4.732-3.913-4.732c-2.61,0-4.468,2.145-4.468,5.418
				c0,2.941,1.481,5.44,4.269,5.44C510.572,203.351,512.474,202.068,512.474,198.353z"/>
			<path fill="#58595B" d="M525.679,197.247v6.501h-0.84v-6.302c0-0.774-0.022-1.283-0.089-1.88
				c-0.199-1.813-1.194-3.052-3.295-3.052c-2.057,0-3.937,1.438-3.937,4.776v6.458h-0.841v-11.654h0.841v2.499l0.53-1.216
				c0.885-1.105,2.123-1.592,3.494-1.592c2.41,0,3.826,1.326,4.047,3.538C525.656,195.92,525.679,196.296,525.679,197.247z"/>
			<path fill="#58595B" d="M536.85,203.174v0.664c-0.353,0.044-0.817,0.066-1.237,0.066c-1.149,0-1.747-0.509-1.836-1.636
				c-0.044-0.487-0.044-0.885-0.044-1.548v-7.873h-1.438v-0.664h1.438v-2.477h0.84v2.477h2.256v0.664h-2.256v7.917
				c0,0.575,0,0.862,0.023,1.172C534.684,203.085,535.191,203.417,536.85,203.174z"/>
			<path fill="#58595B" d="M548.107,197.247v6.501h-0.84v-6.302c0-0.774-0.023-1.283-0.088-1.88
				c-0.199-1.813-1.195-3.074-3.296-3.052c-2.057,0-3.937,1.438-3.937,4.776v6.458h-0.84v-16.365h0.84v7.209l0.531-1.216
				c0.884-1.105,2.123-1.592,3.494-1.592c2.41,0,3.825,1.326,4.046,3.538C548.085,195.92,548.107,196.296,548.107,197.247z"/>
			<path fill="#58595B" d="M558.46,201.206l-0.554,1.172c-0.795,1.128-2.078,1.681-3.538,1.681c-2.189,0-3.648-1.084-3.648-3.185
				c0-2.698,3.096-3.915,6.966-3.915h0.752v-0.531c0-0.531,0-0.995-0.044-1.481c-0.133-1.57-1.15-2.455-2.985-2.455
				c-1.615,0-3.118,0.862-3.361,2.897h-0.863c0.156-2.079,1.858-3.604,4.225-3.604c2.41,0,3.648,1.127,3.825,3.074
				c0.045,0.575,0.045,0.951,0.045,1.526v3.803c0,1.217,0.066,2.079,0.198,3.561h-0.862L558.46,201.206z M558.438,199.171v-1.504
				c-3.361-0.221-6.789,0.664-6.789,3.162c0,1.571,0.974,2.521,2.919,2.521C556.89,203.351,558.438,201.427,558.438,199.171z"/>
			<path fill="#58595B" d="M566.158,203.174v0.664c-0.354,0.044-0.818,0.066-1.238,0.066c-1.149,0-1.747-0.509-1.835-1.636
				c-0.045-0.487-0.045-0.885-0.045-1.548v-7.873h-1.438v-0.664h1.438v-2.477h0.841v2.477h2.256v0.664h-2.256v7.917
				c0,0.575,0,0.862,0.022,1.172C563.991,203.085,564.5,203.417,566.158,203.174z"/>
			<path fill="#58595B" d="M587.876,197.115v6.634h-0.841v-6.258c0-0.885-0.021-1.415-0.088-2.013
				c-0.199-1.813-1.083-2.985-2.853-2.985c-1.835,0-3.317,1.415-3.317,4.798v6.458h-0.84v-6.258c0-0.885-0.022-1.415-0.089-2.013
				c-0.221-1.813-1.105-2.985-2.875-2.985c-1.813,0-3.317,1.415-3.317,4.798v6.458h-0.84v-11.654h0.84v2.277l0.575-1.282
				c0.752-0.885,1.771-1.305,2.941-1.305c1.88,0,3.008,1.039,3.405,2.808l0.774-1.503c0.752-0.885,1.747-1.305,2.919-1.305
				c2.102,0,3.273,1.282,3.517,3.405C587.854,195.788,587.876,196.164,587.876,197.115z"/>
			<path fill="#58595B" d="M598.252,201.206l-0.553,1.172c-0.796,1.128-2.078,1.681-3.538,1.681c-2.189,0-3.648-1.084-3.648-3.185
				c0-2.698,3.096-3.915,6.966-3.915h0.752v-0.531c0-0.531,0-0.995-0.045-1.481c-0.133-1.57-1.149-2.455-2.985-2.455
				c-1.614,0-3.118,0.862-3.361,2.897h-0.862c0.154-2.079,1.858-3.604,4.224-3.604c2.411,0,3.649,1.127,3.826,3.074
				c0.044,0.575,0.044,0.951,0.044,1.526v3.803c0,1.217,0.066,2.079,0.199,3.561h-0.863L598.252,201.206z M598.23,199.171v-1.504
				c-3.362-0.221-6.789,0.664-6.789,3.162c0,1.571,0.973,2.521,2.919,2.521C596.682,203.351,598.23,201.427,598.23,199.171z"/>
			<path fill="#58595B" d="M603.253,199.237v4.511h-0.84v-16.253h0.84v10.792l6.501-6.192h1.151l-5.993,5.617l6.037,6.037h-1.195
				l-5.461-5.506L603.253,199.237z"/>
			<path fill="#58595B" d="M621.876,198.154h-9.288c0.133,3.782,2.212,5.197,4.246,5.197c1.77,0,3.45-1.017,4.025-3.229h0.862
				c-0.642,2.632-2.676,3.937-4.932,3.937c-2.786,0-5.087-2.079-5.087-6.17c0-3.693,2.322-6.103,5.286-6.103
				c3.295,0,4.909,2.786,4.909,5.815C621.898,197.711,621.898,197.866,621.876,198.154z M612.588,197.424h8.447
				c-0.132-3.604-2.122-4.931-4.091-4.931C614.91,192.493,612.721,194.085,612.588,197.424z"/>
			<path fill="#58595B" d="M631.741,195.301h-0.862c-0.441-1.879-1.459-2.808-3.229-2.808c-1.548,0-2.809,0.906-2.809,2.433
				c0,1.526,1.217,2.123,3.008,2.543c2.676,0.619,4.003,1.503,4.003,3.472c0,1.946-1.703,3.118-4.025,3.118
				c-2.233,0-4.091-1.106-4.378-3.76h0.861c0.354,2.255,1.792,3.052,3.583,3.052c1.681,0,3.097-0.818,3.097-2.366
				c0-1.481-0.907-2.145-3.495-2.764c-1.901-0.464-3.516-1.238-3.516-3.229c0-1.88,1.525-3.207,3.715-3.207
				C630.172,191.785,631.432,193.311,631.741,195.301z"/>
			<path fill="#58595B" d="M639.838,189.662c0,0.354-0.287,0.641-0.641,0.641c-0.354,0-0.642-0.288-0.642-0.641
				c0-0.354,0.287-0.642,0.642-0.642C639.551,189.021,639.838,189.308,639.838,189.662z M638.777,203.749v-11.654h0.84v11.654
				H638.777z"/>
			<path fill="#58595B" d="M646.518,203.174v0.664c-0.353,0.044-0.817,0.066-1.237,0.066c-1.149,0-1.747-0.509-1.836-1.636
				c-0.044-0.487-0.044-0.885-0.044-1.548v-7.873h-1.438v-0.664h1.438v-2.477h0.84v2.477h2.256v0.664h-2.256v7.917
				c0,0.575,0,0.862,0.023,1.172C644.352,203.085,644.859,203.417,646.518,203.174z"/>
			<path fill="#58595B" d="M647.869,192.913l-0.09-5.417h0.863l-0.111,5.417H647.869z"/>
			<path fill="#58595B" d="M658.483,195.301h-0.862c-0.442-1.879-1.46-2.808-3.229-2.808c-1.548,0-2.809,0.906-2.809,2.433
				c0,1.526,1.217,2.123,3.008,2.543c2.676,0.619,4.002,1.503,4.002,3.472c0,1.946-1.702,3.118-4.024,3.118
				c-2.233,0-4.091-1.106-4.379-3.76h0.862c0.354,2.255,1.792,3.052,3.583,3.052c1.681,0,3.097-0.818,3.097-2.366
				c0-1.481-0.907-2.145-3.495-2.764c-1.901-0.464-3.516-1.238-3.516-3.229c0-1.88,1.525-3.207,3.715-3.207
				C656.914,191.785,658.174,193.311,658.483,195.301z"/>
			<path fill="#58595B" d="M674.696,195.788h-0.862c-0.398-2.057-1.747-3.317-3.914-3.317c-2.101,0-4.401,1.725-4.401,5.33
				c0,3.804,2.102,5.551,4.313,5.551c1.88,0,3.472-1.106,3.892-3.14h0.863c-0.486,2.433-2.389,3.848-4.821,3.848
				c-2.874,0-5.175-2.168-5.175-6.126c0-3.826,2.455-6.147,5.374-6.147C672.552,191.785,674.343,193.399,674.696,195.788z"/>
			<path fill="#58595B" d="M681.599,191.852v0.685c-2.101-0.155-3.583,1.216-3.583,4.754v6.458h-0.84v-11.654h0.84v2.366l0.62-1.416
				c0.575-0.796,1.415-1.26,2.366-1.26C681.224,191.785,681.422,191.807,681.599,191.852z"/>
			<path fill="#58595B" d="M692.547,198.154h-9.287c0.133,3.782,2.211,5.197,4.246,5.197c1.769,0,3.449-1.017,4.024-3.229h0.862
				c-0.641,2.632-2.676,3.937-4.932,3.937c-2.786,0-5.086-2.079-5.086-6.17c0-3.693,2.322-6.103,5.285-6.103
				c3.295,0,4.909,2.786,4.909,5.815C692.569,197.711,692.569,197.866,692.547,198.154z M683.26,197.424h8.447
				c-0.133-3.604-2.123-4.931-4.092-4.931C685.582,192.493,683.393,194.085,683.26,197.424z"/>
			<path fill="#58595B" d="M702.259,201.206l-0.553,1.172c-0.796,1.128-2.079,1.681-3.538,1.681c-2.189,0-3.648-1.084-3.648-3.185
				c0-2.698,3.096-3.915,6.965-3.915h0.753v-0.531c0-0.531,0-0.995-0.045-1.481c-0.133-1.57-1.149-2.455-2.985-2.455
				c-1.614,0-3.118,0.862-3.361,2.897h-0.862c0.154-2.079,1.858-3.604,4.224-3.604c2.41,0,3.649,1.127,3.826,3.074
				c0.044,0.575,0.044,0.951,0.044,1.526v3.803c0,1.217,0.066,2.079,0.199,3.561h-0.863L702.259,201.206z M702.237,199.171v-1.504
				c-3.362-0.221-6.79,0.664-6.79,3.162c0,1.571,0.974,2.521,2.92,2.521C700.689,203.351,702.237,201.427,702.237,199.171z"/>
			<path fill="#58595B" d="M709.956,203.174v0.664c-0.353,0.044-0.817,0.066-1.237,0.066c-1.15,0-1.748-0.509-1.836-1.636
				c-0.045-0.487-0.045-0.885-0.045-1.548v-7.873h-1.437v-0.664h1.437v-2.477h0.841v2.477h2.256v0.664h-2.256v7.917
				c0,0.575,0,0.862,0.022,1.172C707.79,203.085,708.299,203.417,709.956,203.174z"/>
			<path fill="#58595B" d="M722.32,197.933c0,3.583-2.101,6.126-5.551,6.126c-3.449,0-5.551-2.543-5.551-6.126
				c0-3.604,2.102-6.147,5.551-6.147C720.22,191.785,722.32,194.328,722.32,197.933z M721.413,197.933
				c0-3.627-2.167-5.44-4.644-5.44s-4.621,1.813-4.621,5.44c0,3.604,2.145,5.418,4.621,5.418S721.413,201.537,721.413,197.933z"/>
			<path fill="#58595B" d="M729.156,191.852v0.685c-2.102-0.155-3.583,1.216-3.583,4.754v6.458h-0.84v-11.654h0.84v2.366l0.62-1.416
				c0.574-0.796,1.415-1.26,2.366-1.26C728.781,191.785,728.979,191.807,729.156,191.852z"/>
			<path fill="#58595B" d="M456.246,227.773v6.502h-0.841v-6.303c0-0.774-0.022-1.282-0.089-1.879
				c-0.199-1.813-1.193-3.074-3.295-3.052c-2.057,0-3.937,1.438-3.937,4.777v6.457h-0.84v-16.364h0.84v7.209l0.531-1.216
				c0.884-1.105,2.123-1.592,3.493-1.592c2.411,0,3.826,1.327,4.047,3.539C456.223,226.446,456.246,226.822,456.246,227.773z"/>
			<path fill="#58595B" d="M468.721,228.68h-9.288c0.133,3.781,2.211,5.197,4.246,5.197c1.769,0,3.45-1.018,4.024-3.229h0.862
				c-0.641,2.631-2.676,3.936-4.932,3.936c-2.786,0-5.086-2.079-5.086-6.17c0-3.693,2.322-6.104,5.285-6.104
				c3.296,0,4.909,2.787,4.909,5.816C468.742,228.237,468.742,228.393,468.721,228.68z M459.433,227.95h8.447
				c-0.133-3.605-2.123-4.932-4.091-4.932C461.755,223.019,459.565,224.611,459.433,227.95z"/>
			<path fill="#58595B" d="M478.432,231.731l-0.553,1.172c-0.796,1.127-2.078,1.681-3.539,1.681c-2.188,0-3.647-1.083-3.647-3.185
				c0-2.698,3.096-3.914,6.966-3.914h0.752v-0.531c0-0.531,0-0.995-0.045-1.482c-0.133-1.57-1.149-2.455-2.985-2.455
				c-1.614,0-3.118,0.862-3.361,2.897h-0.862c0.154-2.079,1.857-3.605,4.224-3.605c2.411,0,3.649,1.128,3.826,3.074
				c0.044,0.575,0.044,0.951,0.044,1.526v3.804c0,1.216,0.066,2.079,0.199,3.561h-0.863L478.432,231.731z M478.41,229.697v-1.504
				c-3.362-0.221-6.789,0.664-6.789,3.163c0,1.57,0.973,2.521,2.918,2.521C476.861,233.877,478.41,231.953,478.41,229.697z"/>
			<path fill="#58595B" d="M487.016,222.377v0.686c-2.102-0.155-3.583,1.216-3.583,4.755v6.457h-0.84v-11.654h0.84v2.367
				l0.619-1.416c0.575-0.796,1.415-1.261,2.366-1.261C486.64,222.311,486.839,222.333,487.016,222.377z"/>
			<path fill="#58595B" d="M492.367,233.7v0.663c-0.354,0.044-0.818,0.066-1.238,0.066c-1.149,0-1.747-0.509-1.835-1.637
				c-0.045-0.486-0.045-0.884-0.045-1.548v-7.873h-1.437v-0.664h1.437v-2.477h0.841v2.477h2.256v0.664h-2.256v7.917
				c0,0.575,0,0.862,0.022,1.172C490.2,233.611,490.709,233.943,492.367,233.7z"/>
			<path fill="#58595B" d="M503.449,222.377v0.686c-2.102-0.155-3.583,1.216-3.583,4.755v6.457h-0.839v-11.654h0.839v2.367
				l0.62-1.416c0.574-0.796,1.415-1.261,2.366-1.261C503.073,222.311,503.272,222.333,503.449,222.377z"/>
			<path fill="#58595B" d="M512.385,231.731l-0.553,1.172c-0.796,1.127-2.078,1.681-3.539,1.681c-2.188,0-3.647-1.083-3.647-3.185
				c0-2.698,3.095-3.914,6.966-3.914h0.752v-0.531c0-0.531,0-0.995-0.045-1.482c-0.133-1.57-1.149-2.455-2.985-2.455
				c-1.614,0-3.118,0.862-3.36,2.897h-0.863c0.155-2.079,1.857-3.605,4.224-3.605c2.411,0,3.649,1.128,3.826,3.074
				c0.044,0.575,0.044,0.951,0.044,1.526v3.804c0,1.216,0.066,2.079,0.199,3.561h-0.863L512.385,231.731z M512.363,229.697v-1.504
				c-3.362-0.221-6.789,0.664-6.789,3.163c0,1.57,0.973,2.521,2.918,2.521C510.814,233.877,512.363,231.953,512.363,229.697z"/>
			<path fill="#58595B" d="M525.722,226.313h-0.862c-0.398-2.056-1.747-3.317-3.914-3.317c-2.101,0-4.4,1.725-4.4,5.33
				c0,3.803,2.101,5.551,4.312,5.551c1.88,0,3.473-1.105,3.892-3.141h0.863c-0.486,2.433-2.389,3.848-4.82,3.848
				c-2.875,0-5.176-2.167-5.176-6.125c0-3.826,2.455-6.148,5.374-6.148C523.577,222.311,525.368,223.926,525.722,226.313z"/>
			<path fill="#58595B" d="M537.445,228.68h-9.288c0.133,3.781,2.212,5.197,4.246,5.197c1.769,0,3.45-1.018,4.024-3.229h0.863
				c-0.642,2.631-2.677,3.936-4.932,3.936c-2.787,0-5.087-2.079-5.087-6.17c0-3.693,2.322-6.104,5.286-6.104
				c3.295,0,4.908,2.787,4.908,5.816C537.467,228.237,537.467,228.393,537.445,228.68z M528.157,227.95h8.447
				c-0.133-3.605-2.123-4.932-4.091-4.932C530.479,223.019,528.29,224.611,528.157,227.95z"/>
			<path fill="#58595B" d="M555.207,234.275h-1.018l-3.141-10.77l-3.14,10.77h-1.128l-3.715-11.654h0.973l3.317,10.836l3.14-10.814
				h1.106l3.161,10.77l3.229-10.792h0.907L555.207,234.275z"/>
			<path fill="#58595B" d="M561.867,220.188c0,0.354-0.288,0.641-0.642,0.641s-0.642-0.287-0.642-0.641
				c0-0.354,0.288-0.641,0.642-0.641S561.867,219.834,561.867,220.188z M560.807,234.275v-11.654h0.839v11.654H560.807z"/>
			<path fill="#58595B" d="M565.782,231.444c0,0.664,0,1.083,0.022,1.415c0.044,0.73,0.332,0.907,1.283,0.796v0.664
				c-0.266,0.066-0.553,0.066-0.818,0.066c-0.73,0-1.262-0.288-1.305-1.305c-0.021-0.442-0.021-0.84-0.021-1.614v-13.445h0.839
				V231.444z"/>
			<path fill="#58595B" d="M570.184,231.444c0,0.664,0,1.083,0.023,1.415c0.043,0.73,0.33,0.907,1.282,0.796v0.664
				c-0.266,0.066-0.554,0.066-0.819,0.066c-0.729,0-1.26-0.288-1.304-1.305c-0.022-0.442-0.022-0.84-0.022-1.614v-13.445h0.84
				V231.444z"/>
			<path fill="#58595B" d="M588.363,228.326c0,4.18-2.543,6.258-5.396,6.258c-1.349,0-2.389-0.398-3.251-1.327l-0.664-1.371v6.723
				h-0.84v-16.121h0.84v2.587l0.686-1.305c0.951-1.062,2.035-1.459,3.518-1.459C586.396,222.311,588.363,224.832,588.363,228.326z
				 M587.435,228.459c0-2.963-1.481-5.44-4.268-5.44c-2.212,0-4.114,1.283-4.114,4.976v1.15c0,3.604,2.123,4.732,3.915,4.732
				C585.577,233.877,587.435,231.731,587.435,228.459z"/>
			<path fill="#58595B" d="M595.199,222.377v0.686c-2.101-0.155-3.582,1.216-3.582,4.755v6.457h-0.841v-11.654h0.841v2.367
				l0.619-1.416c0.574-0.796,1.415-1.261,2.367-1.261C594.824,222.311,595.022,222.333,595.199,222.377z"/>
			<path fill="#58595B" d="M607.077,228.459c0,3.583-2.101,6.125-5.551,6.125s-5.551-2.543-5.551-6.125
				c0-3.604,2.101-6.148,5.551-6.148S607.077,224.854,607.077,228.459z M606.17,228.459c0-3.627-2.166-5.44-4.644-5.44
				c-2.477,0-4.621,1.813-4.621,5.44c0,3.604,2.145,5.418,4.621,5.418C604.004,233.877,606.17,232.063,606.17,228.459z"/>
			<path fill="#58595B" d="M618.712,234.275h-0.841v-2.477l-0.686,1.327c-0.95,1.062-2.035,1.459-3.516,1.459
				c-3.141,0-5.109-2.521-5.109-6.037c0-4.158,2.544-6.236,5.396-6.236c1.35,0,2.389,0.398,3.251,1.327l0.663,1.35v-6.966h0.841
				V234.275z M617.871,228.879v-1.127c0-3.605-2.123-4.733-3.914-4.733c-2.609,0-4.467,2.145-4.467,5.418
				c0,2.941,1.481,5.44,4.268,5.44C615.97,233.877,617.871,232.594,617.871,228.879z"/>
			<path fill="#58595B" d="M630.878,234.275h-0.84v-2.499l-0.53,1.216c-0.907,1.083-2.123,1.592-3.495,1.592
				c-2.366,0-3.781-1.327-4.047-3.428c-0.066-0.597-0.088-0.995-0.088-1.946v-6.59h0.841v6.369c0,0.708,0.021,1.238,0.088,1.835
				c0.221,1.814,1.261,3.03,3.317,3.03s3.914-1.459,3.914-4.776v-6.458h0.84V234.275z"/>
			<path fill="#58595B" d="M643.419,226.313h-0.862c-0.398-2.056-1.747-3.317-3.914-3.317c-2.101,0-4.4,1.725-4.4,5.33
				c0,3.803,2.101,5.551,4.312,5.551c1.88,0,3.473-1.105,3.893-3.141h0.862c-0.486,2.433-2.388,3.848-4.82,3.848
				c-2.875,0-5.176-2.167-5.176-6.125c0-3.826,2.455-6.148,5.374-6.148C641.274,222.311,643.065,223.926,643.419,226.313z"/>
			<path fill="#58595B" d="M655.143,228.68h-9.287c0.133,3.781,2.211,5.197,4.245,5.197c1.77,0,3.45-1.018,4.025-3.229h0.862
				c-0.642,2.631-2.676,3.936-4.932,3.936c-2.786,0-5.087-2.079-5.087-6.17c0-3.693,2.322-6.104,5.286-6.104
				c3.295,0,4.908,2.787,4.908,5.816C655.164,228.237,655.164,228.393,655.143,228.68z M645.855,227.95h8.447
				c-0.133-3.605-2.123-4.932-4.092-4.932C648.177,223.019,645.988,224.611,645.855,227.95z"/>
			<path fill="#58595B" d="M669.256,231.731l-0.554,1.172c-0.796,1.127-2.078,1.681-3.538,1.681c-2.189,0-3.648-1.083-3.648-3.185
				c0-2.698,3.096-3.914,6.966-3.914h0.752v-0.531c0-0.531,0-0.995-0.044-1.482c-0.133-1.57-1.15-2.455-2.985-2.455
				c-1.614,0-3.118,0.862-3.361,2.897h-0.863c0.155-2.079,1.858-3.605,4.225-3.605c2.41,0,3.649,1.128,3.825,3.074
				c0.045,0.575,0.045,0.951,0.045,1.526v3.804c0,1.216,0.066,2.079,0.198,3.561h-0.862L669.256,231.731z M669.233,229.697v-1.504
				c-3.361-0.221-6.789,0.664-6.789,3.163c0,1.57,0.974,2.521,2.919,2.521C667.686,233.877,669.233,231.953,669.233,229.697z"/>
			<path fill="#58595B" d="M687.039,234.275h-0.84v-2.477l-0.687,1.327c-0.95,1.062-2.034,1.459-3.516,1.459
				c-3.141,0-5.108-2.521-5.108-6.037c0-4.158,2.543-6.236,5.396-6.236c1.349,0,2.388,0.398,3.25,1.327l0.664,1.35v-6.966h0.84
				V234.275z M686.199,228.879v-1.127c0-3.605-2.123-4.733-3.914-4.733c-2.609,0-4.467,2.145-4.467,5.418
				c0,2.941,1.48,5.44,4.268,5.44C684.297,233.877,686.199,232.594,686.199,228.879z"/>
			<path fill="#58595B" d="M699.646,228.68h-9.287c0.133,3.781,2.211,5.197,4.246,5.197c1.769,0,3.449-1.018,4.024-3.229h0.862
				c-0.642,2.631-2.676,3.936-4.932,3.936c-2.786,0-5.087-2.079-5.087-6.17c0-3.693,2.322-6.104,5.286-6.104
				c3.295,0,4.908,2.787,4.908,5.816C699.668,228.237,699.668,228.393,699.646,228.68z M690.359,227.95h8.447
				c-0.133-3.605-2.123-4.932-4.092-4.932C692.682,223.019,690.492,224.611,690.359,227.95z"/>
			<path fill="#58595B" d="M709.513,225.827h-0.862c-0.442-1.88-1.459-2.809-3.229-2.809c-1.548,0-2.809,0.907-2.809,2.433
				c0,1.526,1.217,2.123,3.008,2.543c2.676,0.62,4.002,1.504,4.002,3.472c0,1.946-1.702,3.118-4.024,3.118
				c-2.233,0-4.091-1.105-4.379-3.76h0.862c0.354,2.256,1.792,3.052,3.583,3.052c1.681,0,3.097-0.818,3.097-2.366
				c0-1.482-0.907-2.146-3.495-2.764c-1.901-0.464-3.516-1.239-3.516-3.229c0-1.88,1.525-3.207,3.715-3.207
				C707.942,222.311,709.203,223.837,709.513,225.827z"/>
			<path fill="#58595B" d="M713.209,220.188c0,0.354-0.288,0.641-0.643,0.641c-0.354,0-0.641-0.287-0.641-0.641
				c0-0.354,0.287-0.641,0.641-0.641C712.921,219.547,713.209,219.834,713.209,220.188z M712.146,234.275v-11.654h0.841v11.654
				H712.146z"/>
			<path fill="#58595B" d="M725.572,231.223c0,1.57,0,2.477-0.022,3.207c-0.089,2.831-1.901,4.666-4.976,4.666
				c-2.433,0-4.313-0.995-4.644-3.604l-0.045-0.288h0.862l0.021,0.288c0.266,2.034,1.902,2.875,3.849,2.875
				c2.632,0,4.024-1.615,4.091-4.003c0.022-0.729,0.022-1.26,0.022-2.167v-0.398l-0.686,1.327c-0.951,1.062-2.034,1.459-3.516,1.459
				c-3.141,0-5.109-2.521-5.109-6.037c0-4.158,2.543-6.236,5.396-6.236c1.349,0,2.388,0.398,3.251,1.327l0.663,1.35v-2.433h0.841
				V231.223z M724.731,228.879v-1.127c0-3.605-2.123-4.733-3.914-4.733c-2.609,0-4.467,2.145-4.467,5.418
				c0,2.941,1.48,5.44,4.268,5.44C722.83,233.877,724.731,232.594,724.731,228.879z"/>
			<path fill="#58595B" d="M737.937,227.773v6.502h-0.841v-6.303c0-0.774-0.021-1.282-0.088-1.879
				c-0.199-1.813-1.194-3.052-3.295-3.052c-2.057,0-3.938,1.438-3.938,4.777v6.457h-0.84v-11.654h0.84v2.499l0.531-1.216
				c0.885-1.105,2.123-1.592,3.494-1.592c2.41,0,3.826,1.327,4.047,3.539C737.914,226.446,737.937,226.822,737.937,227.773z"/>
			<path fill="#58595B" d="M450.783,264.226v0.664c-0.354,0.044-0.818,0.066-1.238,0.066c-1.15,0-1.747-0.508-1.836-1.636
				c-0.044-0.487-0.044-0.885-0.044-1.548v-7.872h-1.438v-0.664h1.438v-2.477h0.84v2.477h2.256v0.664h-2.256v7.917
				c0,0.575,0,0.862,0.022,1.172C448.616,264.138,449.125,264.47,450.783,264.226z"/>
			<path fill="#58595B" d="M462.041,258.299v6.501H461.2v-6.302c0-0.774-0.022-1.283-0.089-1.88
				c-0.199-1.813-1.193-3.074-3.295-3.051c-2.057,0-3.937,1.437-3.937,4.776v6.458h-0.841v-16.364h0.841v7.209l0.531-1.216
				c0.884-1.106,2.123-1.592,3.493-1.592c2.411,0,3.826,1.327,4.047,3.538C462.018,256.973,462.041,257.349,462.041,258.299z"/>
			<path fill="#58595B" d="M472.393,262.258l-0.553,1.172c-0.796,1.128-2.078,1.681-3.538,1.681c-2.189,0-3.648-1.084-3.648-3.185
				c0-2.698,3.096-3.915,6.966-3.915h0.752v-0.531c0-0.531,0-0.995-0.045-1.481c-0.133-1.57-1.149-2.455-2.984-2.455
				c-1.615,0-3.118,0.862-3.361,2.897h-0.863c0.156-2.079,1.858-3.604,4.225-3.604c2.41,0,3.648,1.128,3.825,3.074
				c0.045,0.575,0.045,0.951,0.045,1.526v3.803c0,1.217,0.066,2.079,0.198,3.561h-0.862L472.393,262.258z M472.371,260.224v-1.504
				c-3.361-0.221-6.789,0.663-6.789,3.162c0,1.57,0.974,2.521,2.919,2.521C470.823,264.403,472.371,262.479,472.371,260.224z"/>
			<path fill="#58595B" d="M480.092,264.226v0.664c-0.355,0.044-0.818,0.066-1.239,0.066c-1.149,0-1.747-0.508-1.835-1.636
				c-0.045-0.487-0.045-0.885-0.045-1.548v-7.872h-1.438v-0.664h1.438v-2.477h0.841v2.477h2.255v0.664h-2.255v7.917
				c0,0.575,0,0.862,0.022,1.172C477.924,264.138,478.433,264.47,480.092,264.226z"/>
			<path fill="#58595B" d="M501.81,258.167v6.634h-0.841v-6.258c0-0.884-0.021-1.415-0.088-2.012
				c-0.199-1.813-1.084-2.985-2.853-2.985c-1.835,0-3.317,1.416-3.317,4.798v6.458h-0.84v-6.258c0-0.884-0.022-1.415-0.089-2.012
				c-0.221-1.813-1.106-2.985-2.875-2.985c-1.813,0-3.317,1.416-3.317,4.798v6.458h-0.84v-11.654h0.84v2.278l0.575-1.283
				c0.752-0.885,1.77-1.305,2.941-1.305c1.88,0,3.008,1.039,3.405,2.808l0.774-1.503c0.752-0.885,1.747-1.305,2.919-1.305
				c2.101,0,3.273,1.282,3.516,3.405C501.787,256.84,501.81,257.216,501.81,258.167z"/>
			<path fill="#58595B" d="M512.186,262.258l-0.553,1.172c-0.796,1.128-2.078,1.681-3.539,1.681c-2.188,0-3.647-1.084-3.647-3.185
				c0-2.698,3.096-3.915,6.966-3.915h0.752v-0.531c0-0.531,0-0.995-0.045-1.481c-0.133-1.57-1.149-2.455-2.985-2.455
				c-1.614,0-3.118,0.862-3.361,2.897h-0.862c0.154-2.079,1.857-3.604,4.224-3.604c2.411,0,3.649,1.128,3.826,3.074
				c0.044,0.575,0.044,0.951,0.044,1.526v3.803c0,1.217,0.066,2.079,0.199,3.561h-0.863L512.186,262.258z M512.164,260.224v-1.504
				c-3.362-0.221-6.789,0.663-6.789,3.162c0,1.57,0.973,2.521,2.918,2.521C510.615,264.403,512.164,262.479,512.164,260.224z"/>
			<path fill="#58595B" d="M517.187,260.29v4.511h-0.84v-16.253h0.84v10.792l6.501-6.192h1.151l-5.993,5.617l6.037,6.037h-1.195
				l-5.462-5.506L517.187,260.29z"/>
			<path fill="#58595B" d="M535.809,259.206h-9.287c0.133,3.782,2.211,5.197,4.246,5.197c1.769,0,3.449-1.018,4.024-3.229h0.862
				c-0.642,2.632-2.676,3.937-4.932,3.937c-2.786,0-5.087-2.079-5.087-6.17c0-3.693,2.322-6.103,5.286-6.103
				c3.295,0,4.908,2.787,4.908,5.816C535.83,258.764,535.83,258.919,535.809,259.206z M526.521,258.476h8.447
				c-0.133-3.604-2.123-4.931-4.092-4.931C528.844,253.545,526.654,255.137,526.521,258.476z"/>
			<path fill="#58595B" d="M545.675,256.354h-0.862c-0.442-1.88-1.459-2.809-3.229-2.809c-1.548,0-2.809,0.906-2.809,2.433
				c0,1.526,1.217,2.123,3.008,2.543c2.676,0.619,4.002,1.503,4.002,3.472c0,1.946-1.702,3.118-4.024,3.118
				c-2.233,0-4.091-1.106-4.379-3.759h0.862c0.354,2.255,1.792,3.052,3.583,3.052c1.681,0,3.097-0.818,3.097-2.367
				c0-1.481-0.907-2.145-3.495-2.764c-1.901-0.464-3.516-1.238-3.516-3.229c0-1.88,1.525-3.207,3.715-3.207
				C544.104,252.837,545.365,254.363,545.675,256.354z"/>
			<path fill="#58595B" d="M553.771,250.714c0,0.354-0.287,0.641-0.641,0.641c-0.354,0-0.642-0.287-0.642-0.641
				s0.287-0.641,0.642-0.641C553.484,250.073,553.771,250.36,553.771,250.714z M552.711,264.801v-11.654h0.84v11.654H552.711z"/>
			<path fill="#58595B" d="M560.451,264.226v0.664c-0.354,0.044-0.818,0.066-1.238,0.066c-1.15,0-1.748-0.508-1.836-1.636
				c-0.045-0.487-0.045-0.885-0.045-1.548v-7.872h-1.437v-0.664h1.437v-2.477h0.841v2.477h2.256v0.664h-2.256v7.917
				c0,0.575,0,0.862,0.022,1.172C558.284,264.138,558.793,264.47,560.451,264.226z"/>
			<path fill="#58595B" d="M561.802,253.965l-0.089-5.418h0.863l-0.111,5.418H561.802z"/>
			<path fill="#58595B" d="M572.417,256.354h-0.862c-0.442-1.88-1.46-2.809-3.229-2.809c-1.548,0-2.809,0.906-2.809,2.433
				c0,1.526,1.217,2.123,3.008,2.543c2.676,0.619,4.002,1.503,4.002,3.472c0,1.946-1.702,3.118-4.024,3.118
				c-2.233,0-4.091-1.106-4.379-3.759h0.862c0.354,2.255,1.792,3.052,3.583,3.052c1.681,0,3.097-0.818,3.097-2.367
				c0-1.481-0.907-2.145-3.495-2.764c-1.901-0.464-3.516-1.238-3.516-3.229c0-1.88,1.525-3.207,3.715-3.207
				C570.847,252.837,572.107,254.363,572.417,256.354z"/>
			<path fill="#58595B" d="M583.742,264.801h-1.104l-4.556-11.654h0.951l4.18,11.013l4.179-11.013h0.907L583.742,264.801z"/>
			<path fill="#58595B" d="M591.285,250.714c0,0.354-0.287,0.641-0.641,0.641s-0.642-0.287-0.642-0.641s0.288-0.641,0.642-0.641
				S591.285,250.36,591.285,250.714z M590.225,264.801v-11.654h0.84v11.654H590.225z"/>
			<path fill="#58595B" d="M603.672,259.206h-9.288c0.133,3.782,2.211,5.197,4.245,5.197c1.77,0,3.451-1.018,4.025-3.229h0.862
				c-0.642,2.632-2.676,3.937-4.932,3.937c-2.786,0-5.087-2.079-5.087-6.17c0-3.693,2.322-6.103,5.286-6.103
				c3.296,0,4.909,2.787,4.909,5.816C603.693,258.764,603.693,258.919,603.672,259.206z M594.384,258.476h8.447
				c-0.133-3.604-2.123-4.931-4.092-4.931C596.706,253.545,594.517,255.137,594.384,258.476z"/>
			<path fill="#58595B" d="M617.032,264.801h-1.019l-3.14-10.769l-3.14,10.769h-1.128l-3.716-11.654h0.974l3.317,10.836l3.14-10.814
				h1.106l3.161,10.77l3.229-10.792h0.906L617.032,264.801z"/>
			<path fill="#58595B" d="M631.873,259.206h-9.287c0.133,3.782,2.211,5.197,4.246,5.197c1.769,0,3.449-1.018,4.024-3.229h0.862
				c-0.642,2.632-2.676,3.937-4.932,3.937c-2.786,0-5.087-2.079-5.087-6.17c0-3.693,2.322-6.103,5.286-6.103
				c3.295,0,4.908,2.787,4.908,5.816C631.895,258.764,631.895,258.919,631.873,259.206z M622.586,258.476h8.447
				c-0.133-3.604-2.123-4.931-4.092-4.931C624.908,253.545,622.719,255.137,622.586,258.476z"/>
			<path fill="#58595B" d="M638.887,252.904v0.685c-2.102-0.154-3.583,1.216-3.583,4.754v6.458h-0.839v-11.654h0.839v2.366
				l0.62-1.415c0.574-0.796,1.415-1.26,2.366-1.26C638.511,252.837,638.71,252.859,638.887,252.904z"/>
			<path fill="#58595B" d="M654.104,258.299v6.501h-0.84v-6.302c0-0.774-0.022-1.283-0.088-1.88
				c-0.199-1.813-1.195-3.074-3.296-3.051c-2.057,0-3.937,1.437-3.937,4.776v6.458h-0.841v-16.364h0.841v7.209l0.531-1.216
				c0.884-1.106,2.123-1.592,3.493-1.592c2.411,0,3.826,1.327,4.047,3.538C654.081,256.973,654.104,257.349,654.104,258.299z"/>
			<path fill="#58595B" d="M666.578,259.206h-9.287c0.133,3.782,2.211,5.197,4.246,5.197c1.769,0,3.449-1.018,4.024-3.229h0.862
				c-0.641,2.632-2.676,3.937-4.932,3.937c-2.786,0-5.086-2.079-5.086-6.17c0-3.693,2.322-6.103,5.285-6.103
				c3.295,0,4.909,2.787,4.909,5.816C666.601,258.764,666.601,258.919,666.578,259.206z M657.291,258.476h8.447
				c-0.133-3.604-2.123-4.931-4.092-4.931C659.613,253.545,657.424,255.137,657.291,258.476z"/>
			<path fill="#58595B" d="M676.29,262.258l-0.554,1.172c-0.795,1.128-2.078,1.681-3.537,1.681c-2.189,0-3.648-1.084-3.648-3.185
				c0-2.698,3.095-3.915,6.965-3.915h0.752v-0.531c0-0.531,0-0.995-0.044-1.481c-0.133-1.57-1.149-2.455-2.985-2.455
				c-1.614,0-3.118,0.862-3.361,2.897h-0.863c0.156-2.079,1.858-3.604,4.225-3.604c2.41,0,3.649,1.128,3.826,3.074
				c0.044,0.575,0.044,0.951,0.044,1.526v3.803c0,1.217,0.066,2.079,0.198,3.561h-0.862L676.29,262.258z M676.268,260.224v-1.504
				c-3.361-0.221-6.789,0.663-6.789,3.162c0,1.57,0.974,2.521,2.919,2.521C674.72,264.403,676.268,262.479,676.268,260.224z"/>
			<path fill="#58595B" d="M684.873,252.904v0.685c-2.101-0.154-3.582,1.216-3.582,4.754v6.458h-0.841v-11.654h0.841v2.366
				l0.619-1.415c0.574-0.796,1.415-1.26,2.366-1.26C684.498,252.837,684.696,252.859,684.873,252.904z"/>
			<path fill="#58595B" d="M690.227,264.226v0.664c-0.354,0.044-0.818,0.066-1.238,0.066c-1.15,0-1.747-0.508-1.836-1.636
				c-0.044-0.487-0.044-0.885-0.044-1.548v-7.872h-1.438v-0.664h1.438v-2.477h0.84v2.477h2.256v0.664h-2.256v7.917
				c0,0.575,0,0.862,0.022,1.172C688.06,264.138,688.568,264.47,690.227,264.226z"/>
			<path fill="#58595B" d="M704.16,256.354h-0.862c-0.442-1.88-1.46-2.809-3.229-2.809c-1.548,0-2.809,0.906-2.809,2.433
				c0,1.526,1.216,2.123,3.007,2.543c2.676,0.619,4.003,1.503,4.003,3.472c0,1.946-1.702,3.118-4.024,3.118
				c-2.234,0-4.092-1.106-4.379-3.759h0.862c0.354,2.255,1.792,3.052,3.583,3.052c1.681,0,3.096-0.818,3.096-2.367
				c0-1.481-0.906-2.145-3.494-2.764c-1.902-0.464-3.516-1.238-3.516-3.229c0-1.88,1.525-3.207,3.715-3.207
				C702.59,252.837,703.851,254.363,704.16,256.354z"/>
			<path fill="#58595B" d="M710.333,264.226v0.664c-0.354,0.044-0.818,0.066-1.239,0.066c-1.149,0-1.747-0.508-1.835-1.636
				c-0.045-0.487-0.045-0.885-0.045-1.548v-7.872h-1.437v-0.664h1.437v-2.477h0.841v2.477h2.256v0.664h-2.256v7.917
				c0,0.575,0,0.862,0.022,1.172C708.166,264.138,708.674,264.47,710.333,264.226z"/>
			<path fill="#58595B" d="M722.695,258.985c0,3.582-2.1,6.125-5.55,6.125s-5.551-2.543-5.551-6.125
				c0-3.605,2.101-6.148,5.551-6.148S722.695,255.38,722.695,258.985z M721.789,258.985c0-3.627-2.167-5.44-4.644-5.44
				s-4.622,1.813-4.622,5.44c0,3.604,2.146,5.418,4.622,5.418S721.789,262.589,721.789,258.985z"/>
			<path fill="#58595B" d="M735.26,258.853c0,4.179-2.543,6.258-5.396,6.258c-1.349,0-2.389-0.398-3.251-1.327l-0.664-1.371v6.723
				h-0.84v-16.122h0.84v2.587l0.686-1.305c0.951-1.062,2.035-1.459,3.517-1.459C733.291,252.837,735.26,255.358,735.26,258.853z
				 M734.331,258.985c0-2.964-1.481-5.44-4.268-5.44c-2.212,0-4.114,1.283-4.114,4.976v1.149c0,3.605,2.123,4.733,3.915,4.733
				C732.474,264.403,734.331,262.258,734.331,258.985z"/>
		</g>
		<g>
			<path fill="#58595B" d="M505.678,424.939v-15.258h0.84v15.258H505.678z"/>
			<path fill="#58595B" d="M518.881,418.438v6.501h-0.841v-6.302c0-0.774-0.022-1.283-0.088-1.88
				c-0.199-1.813-1.194-3.051-3.296-3.051c-2.057,0-3.937,1.437-3.937,4.776v6.458h-0.839v-11.654h0.839v2.499l0.531-1.216
				c0.884-1.106,2.123-1.592,3.494-1.592c2.41,0,3.825,1.327,4.046,3.538C518.857,417.111,518.881,417.487,518.881,418.438z"/>
			<path fill="#58595B" d="M523.152,411.693v1.681h2.388v0.708h-2.388v10.858h-0.841v-10.858h-1.26v-0.708h1.26v-1.637
				c0-0.354,0-0.796,0.044-1.238c0.155-1.526,1.172-2.233,2.3-2.233c0.442,0,0.708,0.022,1.106,0.11v0.73
				c-1.658-0.376-2.433,0.332-2.565,1.459C523.152,411.008,523.152,411.361,523.152,411.693z"/>
			<path fill="#58595B" d="M537.858,419.124c0,3.582-2.101,6.125-5.55,6.125c-3.45,0-5.551-2.543-5.551-6.125
				c0-3.605,2.101-6.148,5.551-6.148C535.758,412.976,537.858,415.519,537.858,419.124z M536.952,419.124
				c0-3.627-2.167-5.44-4.644-5.44s-4.623,1.813-4.623,5.44c0,3.604,2.146,5.417,4.623,5.417S536.952,422.728,536.952,419.124z"/>
			<path fill="#58595B" d="M550.953,419.588c-0.197,0.885-0.242,1.261-0.242,1.637c0,0.862,0.531,1.393,1.526,1.393
				c1.769,0,3.294-1.902,3.294-5.02c0-4.246-2.764-6.679-6.568-6.679c-3.803,0-8.226,3.185-8.226,8.58
				c0,4.666,3.185,7.077,6.7,7.077c2.167,0,3.914-0.486,5.928-1.902l0.331,0.597c-2.389,1.614-4.18,1.968-6.281,1.968
				c-3.714,0-7.43-2.5-7.43-7.696c0-5.816,4.71-9.288,9.089-9.288c4.268,0,7.187,2.963,7.187,7.253c0,3.87-2.078,5.772-4.179,5.772
				c-1.105,0-2.167-0.487-2.233-2.035l-0.398,0.862c-0.774,0.929-1.614,1.349-2.565,1.349c-1.261,0-2.83-0.73-2.83-3.405
				c0-3.052,2.012-5.794,4.709-5.794c0.863,0,1.416,0.31,1.748,0.73l0.375,1.15l0.377-1.482h0.862L550.953,419.588z M550.468,418.04
				c0.419-1.813-0.354-3.074-1.726-3.074c-2.034,0-3.759,2.255-3.759,4.998c0,1.924,0.84,2.787,2.078,2.787
				c1.327,0,2.588-1.172,3.207-3.826L550.468,418.04z"/>
			<path fill="#58595B" d="M574.311,418.306v6.634h-0.841v-6.258c0-0.884-0.021-1.415-0.088-2.012
				c-0.199-1.813-1.083-2.985-2.853-2.985c-1.836,0-3.317,1.415-3.317,4.798v6.458h-0.841v-6.258c0-0.884-0.021-1.415-0.088-2.012
				c-0.221-1.813-1.105-2.985-2.875-2.985c-1.813,0-3.317,1.415-3.317,4.798v6.458h-0.84v-11.654h0.84v2.278l0.576-1.283
				c0.751-0.885,1.768-1.305,2.94-1.305c1.88,0,3.008,1.039,3.405,2.808l0.774-1.503c0.752-0.885,1.747-1.305,2.919-1.305
				c2.101,0,3.273,1.282,3.517,3.405C574.289,416.979,574.311,417.354,574.311,418.306z"/>
			<path fill="#58595B" d="M586.811,419.345h-9.288c0.133,3.782,2.212,5.197,4.246,5.197c1.769,0,3.45-1.017,4.024-3.229h0.863
				c-0.642,2.632-2.677,3.937-4.933,3.937c-2.786,0-5.086-2.079-5.086-6.17c0-3.693,2.322-6.103,5.285-6.103
				c3.296,0,4.909,2.787,4.909,5.816C586.832,418.902,586.832,419.058,586.811,419.345z M577.522,418.615h8.447
				c-0.133-3.604-2.123-4.931-4.091-4.931C579.845,413.684,577.655,415.276,577.522,418.615z"/>
			<path fill="#58595B" d="M593.823,413.042v0.685c-2.102-0.154-3.583,1.216-3.583,4.754v6.458h-0.841v-11.654h0.841v2.366
				l0.619-1.415c0.575-0.796,1.416-1.26,2.367-1.26C593.447,412.976,593.646,412.998,593.823,413.042z"/>
			<path fill="#58595B" d="M605.7,419.124c0,3.582-2.101,6.125-5.55,6.125c-3.45,0-5.552-2.543-5.552-6.125
				c0-3.605,2.102-6.148,5.552-6.148C603.6,412.976,605.7,415.519,605.7,419.124z M604.793,419.124c0-3.627-2.166-5.44-4.643-5.44
				c-2.478,0-4.622,1.813-4.622,5.44c0,3.604,2.145,5.417,4.622,5.417C602.627,424.542,604.793,422.728,604.793,419.124z"/>
			<path fill="#58595B" d="M608.755,424.563c0,0.398-0.287,0.686-0.686,0.686c-0.376,0-0.686-0.288-0.686-0.686
				c0-0.398,0.31-0.686,0.686-0.686C608.468,423.878,608.755,424.166,608.755,424.563z"/>
			<path fill="#58595B" d="M621.206,424.939h-0.84v-2.477l-0.687,1.327c-0.95,1.062-2.034,1.46-3.516,1.46
				c-3.141,0-5.108-2.521-5.108-6.038c0-4.157,2.543-6.236,5.396-6.236c1.349,0,2.388,0.398,3.251,1.327l0.663,1.349v-6.965h0.84
				V424.939z M620.366,419.543v-1.127c0-3.604-2.123-4.732-3.914-4.732c-2.61,0-4.468,2.145-4.468,5.418
				c0,2.941,1.481,5.44,4.269,5.44C618.464,424.542,620.366,423.259,620.366,419.543z"/>
			<path fill="#58595B" d="M633.814,419.345h-9.287c0.133,3.782,2.211,5.197,4.246,5.197c1.769,0,3.449-1.017,4.024-3.229h0.862
				c-0.642,2.632-2.676,3.937-4.932,3.937c-2.786,0-5.087-2.079-5.087-6.17c0-3.693,2.322-6.103,5.286-6.103
				c3.295,0,4.909,2.787,4.909,5.816C633.837,418.902,633.837,419.058,633.814,419.345z M624.527,418.615h8.447
				c-0.133-3.604-2.123-4.931-4.092-4.931C626.85,413.684,624.66,415.276,624.527,418.615z"/>
			<path fill="#58595B" d="M643.681,416.492h-0.862c-0.442-1.88-1.459-2.809-3.229-2.809c-1.548,0-2.809,0.906-2.809,2.433
				c0,1.526,1.217,2.123,3.008,2.543c2.676,0.619,4.002,1.504,4.002,3.472c0,1.946-1.702,3.118-4.024,3.118
				c-2.233,0-4.091-1.106-4.379-3.759h0.862c0.354,2.255,1.792,3.051,3.583,3.051c1.681,0,3.097-0.818,3.097-2.366
				c0-1.481-0.907-2.145-3.495-2.764c-1.901-0.464-3.516-1.238-3.516-3.229c0-1.88,1.525-3.207,3.715-3.207
				C642.111,412.976,643.371,414.502,643.681,416.492z"/>
			<path fill="#58595B" d="M647.375,410.853c0,0.354-0.287,0.641-0.641,0.641c-0.354,0-0.642-0.287-0.642-0.641
				s0.287-0.641,0.642-0.641C647.088,410.212,647.375,410.499,647.375,410.853z M646.314,424.939v-11.654h0.84v11.654H646.314z"/>
			<path fill="#58595B" d="M659.739,421.888c0,1.57,0,2.477-0.022,3.206c-0.089,2.831-1.901,4.666-4.976,4.666
				c-2.433,0-4.313-0.995-4.644-3.604l-0.045-0.288h0.862l0.022,0.288c0.266,2.035,1.901,2.875,3.848,2.875
				c2.632,0,4.025-1.614,4.092-4.002c0.021-0.73,0.021-1.261,0.021-2.167v-0.398l-0.686,1.327c-0.951,1.062-2.035,1.46-3.516,1.46
				c-3.141,0-5.109-2.521-5.109-6.038c0-4.157,2.543-6.236,5.396-6.236c1.35,0,2.388,0.398,3.251,1.327l0.663,1.349v-2.432h0.841
				V421.888z M658.898,419.543v-1.127c0-3.604-2.123-4.732-3.914-4.732c-2.609,0-4.468,2.145-4.468,5.418
				c0,2.941,1.481,5.44,4.269,5.44C656.996,424.542,658.898,423.259,658.898,419.543z"/>
			<path fill="#58595B" d="M672.104,418.438v6.501h-0.841v-6.302c0-0.774-0.021-1.283-0.088-1.88
				c-0.199-1.813-1.194-3.051-3.295-3.051c-2.057,0-3.938,1.437-3.938,4.776v6.458h-0.84v-11.654h0.84v2.499l0.531-1.216
				c0.885-1.106,2.123-1.592,3.494-1.592c2.41,0,3.826,1.327,4.047,3.538C672.082,417.111,672.104,417.487,672.104,418.438z"/>
		</g>
	</g>
	<g>
		<g>
			<g>
				<g>
					<path fill="#58595B" d="M92.57,416.278h-1.843l-6.694-24.183l-7.108,24.183h-1.918l-6.582-25.951h1.58l6.055,24.597
						l7.033-24.221h1.956l6.657,24.184l6.469-24.56h1.467L92.57,416.278z"/>
					<path fill="#58595B" d="M118.064,406.763h-15.796c0.226,6.431,3.761,8.838,7.221,8.838c3.009,0,5.867-1.73,6.845-5.491h1.467
						c-1.091,4.476-4.551,6.695-8.387,6.695c-4.739,0-8.65-3.536-8.65-10.493c0-6.281,3.949-10.38,8.989-10.38
						c5.604,0,8.35,4.739,8.35,9.891C118.102,406.011,118.102,406.274,118.064,406.763z M102.268,405.521h14.367
						c-0.226-6.13-3.611-8.387-6.958-8.387C106.217,397.135,102.494,399.843,102.268,405.521z"/>
					<path fill="#58595B" d="M139.724,406.161c0,7.108-4.325,10.644-9.177,10.644c-2.294,0-4.062-0.677-5.528-2.257l-1.128-2.332
						v4.062h-1.429v-27.643h1.429v11.998l1.166-2.219c1.617-1.805,3.46-2.482,5.98-2.482
						C136.377,395.931,139.724,400.218,139.724,406.161z M138.145,406.386c0-5.039-2.52-9.251-7.259-9.251
						c-3.761,0-6.996,2.181-6.996,8.462v1.956c0,6.13,3.611,8.048,6.657,8.048C134.986,415.601,138.145,411.953,138.145,406.386z"/>
					<path fill="#58595B" d="M156.194,401.911h-1.467c-0.752-3.197-2.482-4.776-5.491-4.776c-2.632,0-4.776,1.542-4.776,4.137
						c0,2.595,2.069,3.61,5.115,4.325c4.551,1.053,6.808,2.558,6.808,5.905c0,3.31-2.896,5.303-6.845,5.303
						c-3.799,0-6.958-1.881-7.447-6.394h1.466c0.602,3.836,3.047,5.19,6.093,5.19c2.858,0,5.266-1.392,5.266-4.024
						c0-2.52-1.542-3.648-5.943-4.702c-3.234-0.79-5.98-2.106-5.98-5.491c0-3.197,2.595-5.454,6.318-5.454
						C153.523,395.931,155.667,398.526,156.194,401.911z"/>
					<path fill="#58595B" d="M162.472,392.321c0,0.602-0.489,1.09-1.091,1.09s-1.09-0.489-1.09-1.09c0-0.602,0.489-1.091,1.09-1.091
						S162.472,391.719,162.472,392.321z M160.667,416.278v-19.82h1.429v19.82H160.667z"/>
					<path fill="#58595B" d="M173.829,415.3v1.128c-0.602,0.075-1.392,0.113-2.106,0.113c-1.956,0-2.971-0.865-3.122-2.784
						c-0.076-0.827-0.076-1.504-0.076-2.632v-13.389h-2.444v-1.128h2.444v-4.212h1.43v4.212h3.836v1.128h-3.836v13.464
						c0,0.978,0,1.467,0.038,1.993C170.143,415.15,171.008,415.714,173.829,415.3z"/>
					<path fill="#58595B" d="M193.271,406.763h-15.796c0.226,6.431,3.761,8.838,7.221,8.838c3.009,0,5.867-1.73,6.845-5.491h1.467
						c-1.091,4.476-4.551,6.695-8.387,6.695c-4.739,0-8.65-3.536-8.65-10.493c0-6.281,3.949-10.38,8.989-10.38
						c5.604,0,8.349,4.739,8.349,9.891C193.309,406.011,193.309,406.274,193.271,406.763z M177.475,405.521h14.367
						c-0.226-6.13-3.61-8.387-6.958-8.387C181.424,397.135,177.701,399.843,177.475,405.521z"/>
					<path fill="#58595B" d="M85.763,439.79h-1.467c-0.677-3.498-2.971-5.642-6.657-5.642c-3.573,0-7.484,2.934-7.484,9.064
						c0,6.469,3.573,9.44,7.334,9.44c3.197,0,5.905-1.88,6.619-5.34h1.467c-0.827,4.137-4.062,6.544-8.199,6.544
						c-4.889,0-8.801-3.686-8.801-10.418c0-6.506,4.175-10.455,9.14-10.455C82.115,432.982,85.161,435.728,85.763,439.79z"/>
					<path fill="#58595B" d="M107.272,443.438c0,6.093-3.573,10.418-9.44,10.418c-5.867,0-9.44-4.325-9.44-10.418
						c0-6.13,3.573-10.455,9.44-10.455C103.699,432.982,107.272,437.307,107.272,443.438z M105.73,443.438
						c0-6.168-3.685-9.252-7.897-9.252s-7.861,3.084-7.861,9.252c0,6.13,3.648,9.214,7.861,9.214S105.73,449.568,105.73,443.438z"/>
					<path fill="#58595B" d="M136.98,442.046v11.283h-1.429v-10.644c0-1.504-0.038-2.407-0.151-3.422
						c-0.338-3.084-1.843-5.077-4.852-5.077c-3.122,0-5.642,2.407-5.642,8.161v10.982h-1.429v-10.644
						c0-1.504-0.038-2.407-0.15-3.422c-0.376-3.084-1.88-5.077-4.889-5.077c-3.084,0-5.642,2.407-5.642,8.161v10.982h-1.429v-19.821
						h1.429v3.874l0.978-2.181c1.278-1.504,3.009-2.219,5.001-2.219c3.197,0,5.115,1.768,5.792,4.776l1.316-2.558
						c1.278-1.504,2.971-2.219,4.964-2.219c3.573,0,5.566,2.181,5.979,5.792C136.943,439.79,136.98,440.429,136.98,442.046z"/>
					<path fill="#58595B" d="M144.309,429.372c0,0.602-0.489,1.091-1.091,1.091c-0.602,0-1.09-0.489-1.09-1.091
						c0-0.602,0.489-1.091,1.09-1.091C143.82,428.281,144.309,428.77,144.309,429.372z M142.504,453.329v-19.821h1.429v19.821
						H142.504z"/>
					<path fill="#58595B" d="M164.955,442.271v11.058h-1.429V442.61c0-1.316-0.038-2.182-0.15-3.197
						c-0.339-3.084-2.031-5.19-5.604-5.19c-3.498,0-6.694,2.444-6.694,8.124v10.982h-1.429v-19.821h1.429v4.25l0.902-2.068
						c1.504-1.881,3.611-2.708,5.942-2.708c4.1,0,6.507,2.256,6.882,6.018C164.918,440.015,164.955,440.655,164.955,442.271z"/>
					<path fill="#58595B" d="M186.126,448.139c0,2.67,0,4.212-0.037,5.454c-0.15,4.814-3.235,7.935-8.462,7.935
						c-4.137,0-7.334-1.692-7.898-6.13l-0.075-0.489h1.467l0.038,0.489c0.451,3.46,3.234,4.889,6.543,4.889
						c4.476,0,6.846-2.745,6.958-6.807c0.038-1.241,0.038-2.144,0.038-3.686v-0.677l-1.166,2.256
						c-1.618,1.806-3.46,2.482-5.98,2.482c-5.34,0-8.688-4.288-8.688-10.268c0-7.071,4.325-10.605,9.177-10.605
						c2.294,0,4.062,0.676,5.528,2.256l1.129,2.294v-4.137h1.429V448.139z M184.697,444.152v-1.918c0-6.13-3.61-8.048-6.657-8.048
						c-4.438,0-7.597,3.648-7.597,9.214c0,5.002,2.52,9.252,7.258,9.252C181.462,452.652,184.697,450.471,184.697,444.152z"/>
					<path fill="#58595B" d="M211.696,438.962h-1.467c-0.752-3.197-2.482-4.776-5.491-4.776c-2.633,0-4.776,1.542-4.776,4.137
						c0,2.596,2.068,3.611,5.115,4.326c4.551,1.053,6.808,2.557,6.808,5.904c0,3.31-2.896,5.303-6.845,5.303
						c-3.799,0-6.958-1.88-7.447-6.394h1.467c0.602,3.836,3.046,5.19,6.093,5.19c2.858,0,5.265-1.392,5.265-4.024
						c0-2.52-1.542-3.648-5.942-4.701c-3.235-0.79-5.98-2.106-5.98-5.491c0-3.197,2.595-5.453,6.318-5.453
						C209.025,432.982,211.169,435.577,211.696,438.962z"/>
					<path fill="#58595B" d="M233.469,443.438c0,6.093-3.573,10.418-9.44,10.418s-9.44-4.325-9.44-10.418
						c0-6.13,3.573-10.455,9.44-10.455S233.469,437.307,233.469,443.438z M231.927,443.438c0-6.168-3.686-9.252-7.898-9.252
						s-7.86,3.084-7.86,9.252c0,6.13,3.648,9.214,7.86,9.214S231.927,449.568,231.927,443.438z"/>
					<path fill="#58595B" d="M254.865,443.438c0,6.093-3.573,10.418-9.44,10.418s-9.44-4.325-9.44-10.418
						c0-6.13,3.573-10.455,9.44-10.455S254.865,437.307,254.865,443.438z M253.323,443.438c0-6.168-3.685-9.252-7.897-9.252
						s-7.861,3.084-7.861,9.252c0,6.13,3.648,9.214,7.861,9.214S253.323,449.568,253.323,443.438z"/>
					<path fill="#58595B" d="M274.269,442.271v11.058h-1.43V442.61c0-1.316-0.037-2.182-0.15-3.197
						c-0.338-3.084-2.03-5.19-5.604-5.19c-3.498,0-6.695,2.444-6.695,8.124v10.982h-1.429v-19.821h1.429v4.25l0.903-2.068
						c1.504-1.881,3.61-2.708,5.942-2.708c4.099,0,6.506,2.256,6.883,6.018C274.23,440.015,274.269,440.655,274.269,442.271z"/>
					<path fill="#58595B" d="M280.846,452.69c0,0.676-0.489,1.166-1.166,1.166c-0.64,0-1.166-0.489-1.166-1.166
						c0-0.677,0.526-1.166,1.166-1.166C280.357,451.524,280.846,452.013,280.846,452.69z"/>
					<path fill="#58595B" d="M287.426,452.69c0,0.676-0.489,1.166-1.166,1.166c-0.64,0-1.166-0.489-1.166-1.166
						c0-0.677,0.526-1.166,1.166-1.166C286.938,451.524,287.426,452.013,287.426,452.69z"/>
					<path fill="#58595B" d="M294.007,452.69c0,0.676-0.488,1.166-1.166,1.166c-0.639,0-1.166-0.489-1.166-1.166
						c0-0.677,0.526-1.166,1.166-1.166C293.519,451.524,294.007,452.013,294.007,452.69z"/>
				</g>
			</g>
		</g>
		<g>
			<path fill="#414042" d="M148.216,190.684v83.757h-3.091v-80.607l-34.817,80.607h-4.022l-34.818-80.607v80.607h-3.148v-83.757
				h5.191l34.757,80.492l34.76-80.492H148.216z"/>
			<path fill="#414042" d="M303.229,178.613c-0.699-0.701-1.538-1.051-2.506-1.051c-0.972,0-1.792,0.35-2.452,1.051
				c-0.698,0.698-1.05,1.535-1.05,2.507s0.352,1.789,1.05,2.45c0.66,0.7,1.479,1.05,2.452,1.05c0.968,0,1.807-0.35,2.506-1.05
				c0.701-0.661,1.048-1.478,1.048-2.45S303.93,179.311,303.229,178.613z"/>
			<path fill="#414042" d="M318.74,178.613c-0.658-0.701-1.475-1.051-2.448-1.051c-0.972,0-1.81,0.35-2.506,1.051
				c-0.702,0.698-1.053,1.535-1.053,2.507s0.351,1.789,1.053,2.45c0.697,0.7,1.534,1.05,2.506,1.05c0.973,0,1.79-0.35,2.448-1.05
				c0.704-0.661,1.053-1.478,1.053-2.45S319.443,179.311,318.74,178.613z"/>
			
				<line fill="none" stroke="#414042" stroke-width="0.5" stroke-miterlimit="10" x1="334.936" y1="202.464" x2="277.374" y2="260.024"/>
			
				<line fill="none" stroke="#414042" stroke-width="0.5" stroke-miterlimit="10" x1="337.891" y1="205.43" x2="280.074" y2="263.263"/>
			
				<line fill="none" stroke="#414042" stroke-width="0.5" stroke-miterlimit="10" x1="340.846" y1="208.394" x2="283.622" y2="265.627"/>
			
				<line fill="none" stroke="#414042" stroke-width="0.5" stroke-miterlimit="10" x1="342.904" y1="212.292" x2="286.588" y2="268.579"/>
			
				<line fill="none" stroke="#414042" stroke-width="0.5" stroke-miterlimit="10" x1="346.423" y1="214.682" x2="290.982" y2="270.114"/>
			
				<line fill="none" stroke="#414042" stroke-width="0.5" stroke-miterlimit="10" x1="347.511" y1="219.513" x2="294.597" y2="272.458"/>
			
				<line fill="none" stroke="#414042" stroke-width="0.5" stroke-miterlimit="10" x1="349.048" y1="223.906" x2="299.669" y2="273.304"/>
			
				<line fill="none" stroke="#414042" stroke-width="0.5" stroke-miterlimit="10" x1="349.146" y1="229.75" x2="304.823" y2="274.051"/>
			
				<line fill="none" stroke="#414042" stroke-width="0.5" stroke-miterlimit="10" x1="349.146" y1="235.608" x2="310.014" y2="274.75"/>
			
				<line fill="none" stroke="#414042" stroke-width="0.5" stroke-miterlimit="10" x1="347.804" y1="242.919" x2="316.856" y2="273.866"/>
			<path id="XMLID_1_" fill="none" d="M337.189,260.375c-15.901,15.901-41.718,15.901-57.641-0.02
				c-15.92-15.92-15.9-41.726-0.016-57.638c15.919-15.921,41.735-15.921,57.657,0C353.11,218.639,353.11,244.456,337.189,260.375z"
				/>
			<rect x="177.746" y="171.825" fill="#414042" width="4.043" height="14.142"/>
			<polygon fill="#414042" points="201.287,189.408 201.287,192.558 161.63,192.558 161.63,229.599 193.529,229.599 193.529,232.69 
				161.63,232.69 161.63,270.016 201.287,270.016 201.287,273.165 158.48,273.165 158.48,189.408 			"/>
			<path fill="#414042" d="M241.118,232.982c5.483-0.622,10.07-2.994,13.765-7.115c3.733-4.16,5.599-9.021,5.599-14.59
				c0-6.026-2.142-11.177-6.415-15.455c-4.28-4.276-9.411-6.414-15.398-6.414H209.22v83.757h3.146v-40.066h25.313l20.818,40.066h3.5
				L241.118,232.982z M212.366,229.949v-37.391h26.303c5.132,0,9.529,1.827,13.18,5.48c3.657,3.655,5.483,8.069,5.483,13.239
				c0,5.171-1.827,9.574-5.483,13.19c-3.651,3.655-8.048,5.482-13.18,5.482H212.366z"/>
			<path fill="#414042" d="M338.803,202.406c-8.319-8.358-18.37-12.538-30.15-12.538c-11.783,0-21.832,4.18-30.152,12.538
				c-8.36,8.32-12.539,18.381-12.539,30.162c0,11.78,4.179,21.83,12.539,30.149c8.32,8.361,18.369,12.541,30.152,12.541
				c11.78,0,21.831-4.18,30.15-12.541c8.361-8.32,12.538-18.37,12.538-30.149C351.341,220.787,347.164,210.726,338.803,202.406z
				 M336.588,260.502c-7.7,7.737-17.012,11.605-27.936,11.605c-10.927,0-20.238-3.868-27.935-11.605
				c-7.736-7.737-11.606-17.048-11.606-27.935c0-10.925,3.871-20.247,11.606-27.946c7.697-7.736,17.008-11.604,27.935-11.604
				c10.923,0,20.236,3.868,27.936,11.604c7.736,7.699,11.604,17.021,11.604,27.946C348.192,243.454,344.324,252.765,336.588,260.502
				z"/>
		</g>
	</g>
</g>
<g id="Layer_3">
</g>
<g id="GUIDES" display="none">
</g>
</svg>
